<svg width="342" height="900" viewBox="0 0 342 900" fill="none" xmlns="http://www.w3.org/2000/svg">
<g clip-path="url(#clip0)">
<path d="M356.079 0.0800781H0V900H356.079V0.0800781Z" fill="#C4E5E8"/>
<g opacity="0.44">
<path opacity="0.44" d="M200.658 468.138L338.951 613.515L364.304 640.173L343.58 684.399H142.77V466.968H350.448L250.169 264.916" stroke="#9DCAD0" stroke-width="12.11" stroke-linecap="round" stroke-linejoin="round"/>
<path opacity="0.44" d="M298.171 684.399L187.632 569.509" stroke="#9DCAD0" stroke-width="12.11" stroke-linecap="round" stroke-linejoin="round"/>
<path opacity="0.44" d="M250.767 363.798V466.969" stroke="#9DCAD0" stroke-width="12.11" stroke-linecap="round" stroke-linejoin="round"/>
<path opacity="0.44" d="M60.3595 466.968H142.77V363.797L109.881 263.746L-28.4122 118.369" stroke="#9DCAD0" stroke-width="12.11" stroke-linecap="round" stroke-linejoin="round"/>
<path opacity="0.44" d="M59.62 368.087V622.514H142.77L232.929 502.055" stroke="#9DCAD0" stroke-width="12.11" stroke-linecap="round" stroke-linejoin="round"/>
<path opacity="0.44" d="M-76.2622 488.826H57.9791" stroke="#9DCAD0" stroke-width="12.11" stroke-linecap="round" stroke-linejoin="round"/>
<path opacity="0.44" d="M-39.9088 488.826V840.625H-3.51481V931.447" stroke="#9DCAD0" stroke-width="12.11" stroke-linecap="round" stroke-linejoin="round"/>
<path opacity="0.44" d="M-39.9088 600.127L59.6201 622.515L35.9382 696.838" stroke="#9DCAD0" stroke-width="12.11" stroke-linecap="round" stroke-linejoin="round"/>
<path opacity="0.44" d="M82.8664 842.014L-3.51481 840.625L24.1985 811.027L92.8335 724.735L-39.9088 684.398L20.5723 806.698" stroke="#9DCAD0" stroke-width="12.11" stroke-linecap="round" stroke-linejoin="round"/>
<path opacity="0.44" d="M198.652 684.398V934.206H82.8664V842.014H198.652" stroke="#9DCAD0" stroke-width="12.11" stroke-linecap="round" stroke-linejoin="round"/>
<path opacity="0.44" d="M279.929 934.206V684.398" stroke="#9DCAD0" stroke-width="12.11" stroke-linecap="round" stroke-linejoin="round"/>
<path opacity="0.44" d="M279.919 735.524L201.266 755.072L92.8335 724.735L142.77 684.398" stroke="#9DCAD0" stroke-width="12.11" stroke-linecap="round" stroke-linejoin="round"/>
<path opacity="0.44" d="M-39.9088 264.916H167.759V47.4854H-33.0412" stroke="#9DCAD0" stroke-width="12.11" stroke-linecap="round" stroke-linejoin="round"/>
<path opacity="0.44" d="M12.3677 47.4854L131.456 171.264" stroke="#9DCAD0" stroke-width="12.11" stroke-linecap="round" stroke-linejoin="round"/>
<path opacity="0.44" d="M59.7719 368.087V264.916" stroke="#9DCAD0" stroke-width="12.11" stroke-linecap="round" stroke-linejoin="round"/>
<path opacity="0.44" d="M292.732 352.778L250.919 363.797L167.759 264.916H250.169L250.767 164.545" stroke="#9DCAD0" stroke-width="12.11" stroke-linecap="round" stroke-linejoin="round"/>
<path opacity="0.44" d="M77.6094 229.829L167.759 131.768H219.964" stroke="#9DCAD0" stroke-width="12.11" stroke-linecap="round" stroke-linejoin="round"/>
<path opacity="0.44" d="M198.653 820.737H335.7H364.304V640.173L350.448 466.969L386.801 243.059H252.56" stroke="#9DCAD0" stroke-width="12.11" stroke-linecap="round" stroke-linejoin="round"/>
<path opacity="0.44" d="M350.448 243.058V-108.741H314.054V-199.562" stroke="#9DCAD0" stroke-width="12.11" stroke-linecap="round" stroke-linejoin="round"/>
<path opacity="0.44" d="M227.662 -110.131L314.054 -108.741L286.33 -79.1436L167.759 47.4851H350.448L289.967 -74.814" stroke="#9DCAD0" stroke-width="12.11" stroke-linecap="round" stroke-linejoin="round"/>
<path opacity="0.44" d="M111.886 47.4855V-202.322H227.662V-110.13H111.886" stroke="#9DCAD0" stroke-width="12.11" stroke-linecap="round" stroke-linejoin="round"/>
<path opacity="0.44" d="M30.6102 -202.322V47.4855" stroke="#9DCAD0" stroke-width="12.11" stroke-linecap="round" stroke-linejoin="round"/>
<path opacity="0.44" d="M30.6102 -3.64021L109.273 -23.1885" stroke="#9DCAD0" stroke-width="12.11" stroke-linecap="round" stroke-linejoin="round"/>
<path opacity="0.44" d="M142.77 363.798H-53.4616" stroke="#9DCAD0" stroke-width="12.11" stroke-linecap="round" stroke-linejoin="round"/>
<path opacity="0.44" d="M-43.3325 324.681H129.906" stroke="#9DCAD0" stroke-width="12.11" stroke-linecap="round" stroke-linejoin="round"/>
<path opacity="0.44" d="M-39.9088 420.942H142.77" stroke="#9DCAD0" stroke-width="12.11" stroke-linecap="round" stroke-linejoin="round"/>
<path opacity="0.44" d="M-9.14664 524.653H140.501" stroke="#9DCAD0" stroke-width="12.11" stroke-linecap="round" stroke-linejoin="round"/>
</g>
<path opacity="0.37" d="M362.37 262.467H280.081C279.542 262.495 279.014 262.628 278.527 262.858C278.04 263.088 277.604 263.41 277.243 263.807C276.883 264.203 276.605 264.666 276.426 265.169C276.248 265.672 276.171 266.204 276.201 266.736C276.232 267.323 276.391 267.896 276.667 268.416L336.591 387.836C336.938 388.571 337.518 389.174 338.243 389.556C338.967 389.937 339.798 390.075 340.61 389.95C341.421 389.825 342.169 389.443 342.742 388.861C343.314 388.28 343.679 387.53 343.783 386.726L366.148 267.306C366.373 266.269 366.172 265.187 365.589 264.296C365.006 263.405 364.088 262.78 363.038 262.557C362.819 262.507 362.595 262.476 362.37 262.467Z" fill="#9DCAD0"/>
<path opacity="0.37" d="M46.594 816.637L95.6291 751.743C96.4489 750.624 97.5959 749.78 98.916 749.324C100.236 748.869 101.666 748.823 103.013 749.193L174.069 769.371C175.258 769.736 176.295 770.471 177.025 771.466C177.755 772.461 178.14 773.662 178.121 774.891V814.117C178.173 815.818 177.54 817.469 176.361 818.71C175.182 819.95 173.553 820.679 171.831 820.737H48.4172C47.9532 820.701 47.5077 820.541 47.1283 820.275C46.7488 820.009 46.4496 819.646 46.2625 819.226C46.0753 818.805 46.0074 818.342 46.0657 817.886C46.1241 817.43 46.3067 816.998 46.594 816.637Z" fill="#9DCAD0"/>
<path opacity="0.37" d="M79.1085 546.791L77.0827 600.786C77.0131 601.794 77.3518 602.787 78.0242 603.549C78.6966 604.31 79.6477 604.776 80.6684 604.846H122.562C123.068 604.833 123.566 604.722 124.028 604.519C124.49 604.316 124.907 604.025 125.255 603.662C125.603 603.3 125.875 602.874 126.056 602.408C126.237 601.942 126.324 601.445 126.31 600.946V546.951C126.34 545.944 125.965 544.966 125.266 544.231C124.568 543.497 123.603 543.065 122.583 543.031H82.8259C81.8342 543.062 80.8932 543.471 80.2001 544.172C79.5071 544.873 79.1159 545.811 79.1085 546.791Z" fill="#9DCAD0"/>
<path opacity="0.37" d="M209.855 566.73L305.758 662.941C306.067 663.253 306.435 663.502 306.842 663.674C307.249 663.846 307.686 663.936 308.128 663.941H331.79C332.393 663.935 332.984 663.77 333.501 663.462C334.017 663.154 334.441 662.715 334.727 662.191L344.482 645.113C344.878 644.413 345.04 643.608 344.943 642.812C344.847 642.016 344.497 641.27 343.945 640.683L237.943 531.523C237.651 531.21 237.299 530.958 236.907 530.779C236.516 530.601 236.093 530.501 235.662 530.484C235.231 530.467 234.801 530.534 234.396 530.682C233.992 530.829 233.621 531.054 233.304 531.343C233.147 531.485 233.004 531.642 232.879 531.813L209.582 561.81C209.024 562.527 208.745 563.417 208.795 564.32C208.845 565.223 209.221 566.077 209.855 566.73Z" fill="#9DCAD0"/>
<path opacity="0.37" d="M-9.11623 162.445L67.4296 243.028C67.8053 243.415 68.0613 243.899 68.1674 244.424C68.2734 244.95 68.2251 245.494 68.0282 245.993C67.8312 246.492 67.4939 246.926 67.0558 247.242C66.6178 247.558 66.0973 247.744 65.5557 247.778H-33.9731L-9.11623 162.445Z" fill="#9DCAD0"/>
<path opacity="0.37" d="M61.5952 74.7429L127.627 143.207C128.606 144.255 129.968 144.877 131.411 144.935C132.855 144.993 134.262 144.483 135.325 143.517L135.487 143.367L151.025 128.368C151.614 127.789 152.079 127.099 152.396 126.341C152.712 125.582 152.873 124.769 152.869 123.949V72.1331C152.919 70.6094 152.361 69.1273 151.315 68.0054C150.27 66.8835 148.82 66.2114 147.278 66.1336L65.7177 64.4838C60.562 64.3738 57.9284 70.9332 61.5952 74.7429Z" fill="#9DCAD0"/>
<path opacity="0.37" d="M72.0992 380.496V403.834C72.0664 404.954 72.4836 406.041 73.2598 406.857C74.036 407.674 75.1081 408.155 76.242 408.194H125.773C126.906 408.155 127.977 407.674 128.752 406.857C129.527 406.04 129.942 404.953 129.906 403.834V380.496C129.942 379.378 129.527 378.291 128.752 377.474C127.977 376.657 126.906 376.176 125.773 376.137H76.242C75.1081 376.176 74.036 376.656 73.2598 377.473C72.4836 378.29 72.0664 379.377 72.0992 380.496Z" fill="#9DCAD0"/>
<path opacity="0.44" d="M283.545 -55.5957L209.065 27.2869C208.853 27.515 208.688 27.7822 208.581 28.0733C208.474 28.3644 208.426 28.6735 208.44 28.983C208.454 29.2924 208.53 29.5961 208.663 29.8764C208.797 30.1568 208.985 30.4084 209.217 30.6166C209.618 30.9862 210.138 31.2056 210.686 31.2366H316.211C319.544 31.2366 321.732 27.5669 320.263 24.4172L283.545 -55.5957Z" fill="#9DCAD0"/>
<path d="M250.899 164.545C267.978 164.545 281.823 150.877 281.823 134.018C281.823 117.158 267.978 103.49 250.899 103.49C233.82 103.49 219.974 117.158 219.974 134.018C219.974 150.877 233.82 164.545 250.899 164.545Z" stroke="#B1D5DA" stroke-width="11.74" stroke-miterlimit="10"/>
<path d="M281.053 854.914C298.132 854.914 311.977 841.246 311.977 824.387C311.977 807.527 298.132 793.859 281.053 793.859C263.974 793.859 250.129 807.527 250.129 824.387C250.129 841.246 263.974 854.914 281.053 854.914Z" fill="#C4E5E8"/>
<path d="M259.103 47.4854L253.542 99.6507" stroke="#B1D5DA" stroke-width="12.11" stroke-miterlimit="10"/>
<path d="M350.448 148.137L281.772 133.798" stroke="#B1D5DA" stroke-width="12.11" stroke-miterlimit="10"/>
<path d="M281.509 853.693C298.588 853.693 312.433 840.026 312.433 823.166C312.433 806.306 298.588 792.639 281.509 792.639C264.43 792.639 250.585 806.306 250.585 823.166C250.585 840.026 264.43 853.693 281.509 853.693Z" stroke="#B1D5DA" stroke-width="11.74" stroke-miterlimit="10"/>
</g>
<defs>
<clipPath id="clip0">
<rect width="342" height="900" fill="white"/>
</clipPath>
</defs>
</svg>
