<svg width="35" height="48" viewBox="0 0 35 48" fill="none" xmlns="http://www.w3.org/2000/svg">
<path d="M10.8342 38.2593L14.8162 45.1459C15.0796 45.6243 15.4656 46.0231 15.9343 46.3008C16.4029 46.5784 16.937 46.7249 17.481 46.7249C18.025 46.7249 18.5591 46.5784 19.0277 46.3008C19.4963 46.0231 19.8824 45.6243 20.1458 45.1459L23.7394 38.8867L24.1201 38.221L30.6602 26.7815C32.3473 24.3558 33.3402 21.5117 33.531 18.5584C33.7218 15.6051 33.1031 12.6557 31.7423 10.0312C30.3815 7.4066 28.3307 5.20731 25.8129 3.67251C23.2951 2.13771 20.4067 1.32617 17.4619 1.32617C14.5172 1.32617 11.6288 2.13771 9.11101 3.67251C6.59319 5.20731 4.54235 7.4066 3.18154 10.0312C1.82074 12.6557 1.20209 15.6051 1.39288 18.5584C1.58367 21.5117 2.5766 24.3558 4.26366 26.7815L10.8342 38.2593Z" fill="#DB5F42" stroke="#DB5F42" stroke-width="2.52" stroke-miterlimit="10"/>
<g style="mix-blend-mode:multiply">
<path d="M17.4657 25.6263C15.8289 25.6263 14.2288 25.1385 12.8678 24.2246C11.5068 23.3106 10.4461 22.0116 9.81968 20.4918C9.19328 18.9719 9.02939 17.2995 9.34872 15.6861C9.66806 14.0726 10.4563 12.5906 11.6137 11.4274C12.7711 10.2641 14.2458 9.47197 15.8512 9.15103C17.4566 8.8301 19.1206 8.99481 20.6329 9.62435C22.1451 10.2539 23.4376 11.32 24.347 12.6878C25.2564 14.0556 25.7418 15.6637 25.7418 17.3088C25.7398 19.5141 24.8672 21.6285 23.3156 23.1879C21.7639 24.7473 19.6601 25.6243 17.4657 25.6263Z" fill="#DB5F42"/>
</g>
<path d="M17.4657 9.9478C18.9147 9.9478 20.3311 10.3797 21.5357 11.1889C22.7404 11.9981 23.6791 13.1482 24.2333 14.4937C24.7874 15.8392 24.932 17.3196 24.6488 18.7478C24.3655 20.1759 23.6672 21.4875 22.6421 22.5166C21.617 23.5458 20.3113 24.2463 18.89 24.5294C17.4687 24.8126 15.9958 24.6657 14.6576 24.1074C13.3193 23.5491 12.176 22.6044 11.3721 21.3929C10.5682 20.1814 10.1399 18.7574 10.1414 17.3012C10.1434 15.3503 10.916 13.4799 12.2893 12.1011C13.6627 10.7223 15.5245 9.94779 17.4657 9.9478ZM17.4657 8.01953C15.6395 8.01953 13.8542 8.5637 12.3356 9.58325C10.817 10.6028 9.63332 12.0519 8.93409 13.7475C8.23487 15.4431 8.05153 17.3089 8.40726 19.1092C8.763 20.9094 9.64183 22.5633 10.9327 23.8617C12.2235 25.16 13.8684 26.0446 15.6593 26.4036C17.4503 26.7626 19.307 26.5799 20.9947 25.8786C22.6824 25.1772 24.1253 23.9888 25.141 22.4634C26.1567 20.9381 26.6996 19.1443 26.7011 17.3089C26.7011 14.8472 25.7281 12.4864 23.9961 10.7457C22.2642 9.00507 19.9151 8.02718 17.4657 8.02718V8.01953Z" fill="#DB5F42"/>
</svg>
