<svg width="35" height="48" viewBox="0 0 35 48" fill="none" xmlns="http://www.w3.org/2000/svg">
<path d="M10.8134 38.2527L14.8216 45.1383C15.09 45.6056 15.4772 45.9939 15.9442 46.264C16.4111 46.534 16.9412 46.6763 17.4808 46.6763C18.0205 46.6763 18.5506 46.534 19.0175 46.264C19.4844 45.9939 19.8717 45.6056 20.1401 45.1383L23.7574 38.9183L24.1406 38.2527L30.762 26.7232C32.4572 24.2987 33.4541 21.4567 33.6445 18.5061C33.8349 15.5555 33.2114 12.6092 31.8419 9.9876C30.4723 7.36598 28.4091 5.16932 25.8765 3.6364C23.3439 2.10348 20.4388 1.29297 17.477 1.29297C14.5153 1.29297 11.6102 2.10348 9.07755 3.6364C6.54493 5.16932 4.4817 7.36598 3.11215 9.9876C1.74259 12.6092 1.11912 15.5555 1.30951 18.5061C1.49991 21.4567 2.49687 24.2987 4.19203 26.7232L10.8134 38.2527Z" stroke="#DB5F42" stroke-width="2.52" stroke-miterlimit="10"/>
<path d="M17.4808 9.94521C18.9393 9.94521 20.365 10.3771 21.5775 11.1861C22.7901 11.9952 23.735 13.1451 24.2928 14.4904C24.8506 15.8357 24.9962 17.3159 24.7111 18.7438C24.426 20.1717 23.7231 21.4831 22.6912 22.512C21.6594 23.541 20.345 24.2414 18.9144 24.5245C17.4838 24.8076 16.0012 24.6608 14.6542 24.1026C13.3072 23.5443 12.1563 22.5998 11.3471 21.3885C10.538 20.1771 10.1069 18.7534 10.1084 17.2975C10.1104 15.3468 10.888 13.4768 12.2704 12.0982C13.6528 10.7196 15.5269 9.94521 17.4808 9.94521ZM17.4808 8.01725C15.6394 8.01575 13.839 8.55977 12.3075 9.58043C10.776 10.6011 9.58236 12.0525 8.87769 13.7508C8.17302 15.4492 7.98903 17.318 8.34902 19.1208C8.70901 20.9236 9.59678 22.5792 10.8999 23.878C12.2031 25.1768 13.863 26.0603 15.6694 26.4167C17.4759 26.7731 19.3477 26.5864 21.0477 25.8801C22.7478 25.1738 24.1997 23.9798 25.2196 22.4492C26.2394 20.9187 26.7814 19.1204 26.7769 17.2822C26.7769 14.8209 25.7975 12.4604 24.0541 10.7201C22.3108 8.97969 19.9463 8.00195 17.4808 8.00195V8.01725Z" fill="#DB5F42"/>
</svg>
