<svg xmlns="http://www.w3.org/2000/svg" xmlns:xlink="http://www.w3.org/1999/xlink" viewBox="0 0 2067.19 611.14"><defs><style>.cls-1{fill:#55895a;}.cls-2{fill:url(#linear-gradient);}.cls-3{fill:url(#linear-gradient-2);}.cls-4{fill:url(#linear-gradient-3);}.cls-5{fill:url(#linear-gradient-4);}.cls-6{fill:url(#linear-gradient-5);}.cls-7{fill:url(#linear-gradient-6);}.cls-8{fill:url(#linear-gradient-7);}.cls-9{fill:url(#linear-gradient-8);}.cls-10{fill:url(#linear-gradient-9);}</style><linearGradient id="linear-gradient" x1="189.89" y1="10.04" x2="187.84" y2="136.51" gradientUnits="userSpaceOnUse"><stop offset="0.03" stop-color="#007a37"/><stop offset="0.22" stop-color="#248046"/><stop offset="0.41" stop-color="#3f8551"/><stop offset="0.57" stop-color="#4f8858"/><stop offset="0.7" stop-color="#55895a"/></linearGradient><linearGradient id="linear-gradient-2" x1="623.31" y1="-24.9" x2="641.41" y2="156.09" xlink:href="#linear-gradient"/><linearGradient id="linear-gradient-3" x1="1303.59" y1="-11.98" x2="1299.94" y2="151.46" xlink:href="#linear-gradient"/><linearGradient id="linear-gradient-4" x1="434.64" y1="36.87" x2="440.07" y2="100.21" xlink:href="#linear-gradient"/><linearGradient id="linear-gradient-5" x1="871.17" y1="27.13" x2="869.53" y2="102.96" xlink:href="#linear-gradient"/><linearGradient id="linear-gradient-6" x1="1699.04" y1="-8.31" x2="1698.31" y2="136.89" xlink:href="#linear-gradient"/><linearGradient id="linear-gradient-7" x1="1487.72" y1="13.13" x2="1485.53" y2="118.93" xlink:href="#linear-gradient"/><linearGradient id="linear-gradient-8" x1="1017.65" y1="9.62" x2="1017.11" y2="112.71" xlink:href="#linear-gradient"/><linearGradient id="linear-gradient-9" x1="1986.99" y1="-57.17" x2="1842.83" y2="222.05" xlink:href="#linear-gradient"/></defs><title>HackIllinois_Website</title><g id="Overlay"><rect class="cls-1" y="58.34" width="2010.8" height="552.8"/><path class="cls-2" d="M66,100.3s-37.13,4-22.19-31.08c0,0-20.7-16.63,8.32-37.09a42.81,42.81,0,0,0,6.73-5.81c7.86-8.45,36.28-10.93,66.86,5.36,5.21,2.78,12.93-4.66,18.82-5,11.31-.7,25.27,2.53,29.4,18.92.52,2.05,2.56,3.23,4.27,2,6.47-4.72,19.28-15.09,38.48-7.27C228.29,45,234.55,52,237.27,58.37a6.73,6.73,0,0,0,11.27,1.81c4.22-4.92,8.75-8.4,15.44-9.63,15.31-2.81,26,1.57,34.22,11.08,1.36,1.58,5.32,4.5,7.4,4.65,9.32.65,34.48,4,35.32,20.63v14Z"/><path class="cls-3" d="M534.54,85.65H734.17s-.58-23.16-34.23-26.57a18.42,18.42,0,0,1-14.79-10.34c-3.83-8-12-18-28.85-18-16.5,0-25.22,9.37-29.61,17.16a13.43,13.43,0,0,1-15.42,6.42c-14-4-38-8.55-55.87,1C534.82,66.26,534.54,85.65,534.54,85.65Z"/><path class="cls-4" d="M1401.23,85.65H1201.6s.57-23.16,34.22-26.57a18.4,18.4,0,0,0,14.79-10.34c3.84-8,12-18,28.85-18,16.51,0,25.22,9.37,29.62,17.17a13.43,13.43,0,0,0,15.41,6.41c14-4,38-8.55,55.88,1C1400.94,66.27,1401.23,85.65,1401.23,85.65Z"/><path class="cls-5" d="M486,81.38H390.19s5.6-31,33.64-23.78a21.39,21.39,0,0,1,10.75,6.21c1.45,1.55,3.74.91,4.45-1.28,1.89-5.86,7.55-13.57,24.17-13.18C489.88,50,486,81.38,486,81.38Z"/><path class="cls-6" d="M821.07,80.26h98.21s-5.74-31.74-34.48-24.37a21.83,21.83,0,0,0-11,6.36c-1.49,1.59-3.84.94-4.57-1.31-1.94-6-7.74-13.91-24.78-13.51C817.1,48.07,821.07,80.26,821.07,80.26Z"/><path class="cls-7" d="M1604.94,77.64s-.5-19.3,14.34-25.28c10.09-4.07,18.08-2,26,1.15a9.61,9.61,0,0,0,12.19-4.28c5-8.74,21.26-23.7,43-22,21.48,1.67,37.53,14.2,43.29,20.77a12.22,12.22,0,0,0,12.9,3.76c5.59-1.74,13.36-2.93,20.85,0,15.73,6.25,14.79,25.85,14.79,25.85Z"/><path class="cls-8" d="M1437.39,79.26h98.21s-5.74-31.74-34.47-24.37a21.84,21.84,0,0,0-11,6.36c-1.49,1.59-3.83.94-4.56-1.31-2-6-7.74-13.91-24.78-13.51C1433.43,47.07,1437.39,79.26,1437.39,79.26Z"/><path class="cls-9" d="M923.59,83.64s-.5-19.3,14.34-25.28c10.09-4.07,18.08-2,26,1.15a9.61,9.61,0,0,0,12.19-4.28c5-8.74,21.26-23.7,43-22,21.48,1.67,37.53,14.2,43.29,20.77a12.22,12.22,0,0,0,12.9,3.76c5.59-1.74,13.36-2.93,20.85,0,15.73,6.25,14.79,25.85,14.79,25.85Z"/><path class="cls-10" d="M2039.07,97.64s37.13,3.94,22.19-31.08c0,0,18.7-26.63-10.32-47.09a42.81,42.81,0,0,1-6.73-5.81c-7.87-8.45-32.6-28.58-66.86,5.36a20.69,20.69,0,0,1-15.82,6c-11.31-.7-29.21.92-30.4,17.91a2.7,2.7,0,0,1-4.27,2c-6.47-4.72-19.28-15.09-38.48-7.27-11.61,4.73-17.86,15.66-20.58,22.07a6.73,6.73,0,0,1-11.27,1.8c-4.22-4.91-9.75-9.4-16.45-10.63-15.3-2.8-27,.58-35.21,10.09a7.82,7.82,0,0,1-5.4,2.64c-9.32.66-34.48,4-35.32,20.64v14Z"/></g></svg>