<svg xmlns="http://www.w3.org/2000/svg" viewBox="0 0 72.7 133.56"><defs><style>.cls-1{fill:#55895a;}.cls-2,.cls-3{fill:none;stroke:#0a093f;stroke-linecap:round;stroke-miterlimit:10;}.cls-2{stroke-width:3.84px;}.cls-3{stroke-width:2.56px;}</style></defs><title>HackIllinois_Website</title><g id="Overlay"><path class="cls-1" d="M70.47,32.61A24.77,24.77,0,0,1,69.81,29c-.06-.61-.14-1.22-.23-1.83C67.49,12.93,59.42,4,48.93,2.07,47,1.72,45.06,1.33,43.16.84A26.73,26.73,0,0,0,36.7,0C16.64-.13.23,22.21.05,49.9c0,1.26,0,2.5.08,3.72a16.49,16.49,0,0,1,0,2.11,51.52,51.52,0,0,0,.4,10.71c1.25,8.5,4.63,15.11,9.38,19.48,1.68,1.53,3.34,3.09,4.94,4.71,5.94,6,13.27,9.6,21.22,9.65,20.06.14,36.47-22.21,36.65-49.9A67.18,67.18,0,0,0,70.47,32.61Z"/><line class="cls-2" x1="36.78" y1="45.29" x2="36.21" y2="131.64"/><path class="cls-3" d="M28,58.19s6.8,4.92,9.48,3.69,8-8.46,8-8.46"/><path class="cls-3" d="M24.09,74.35s9.42,6.23,13.27,4.46S49.14,66.1,49.14,66.1"/></g></svg>