<svg xmlns="http://www.w3.org/2000/svg" viewBox="0 0 74.96 168.86"><defs><style>.cls-1{fill:#55895a;}.cls-2{fill:none;stroke:#0a093f;stroke-linecap:round;stroke-miterlimit:10;stroke-width:3px;}</style></defs><title>HackIllinois_Website</title><g id="Overlay"><path class="cls-1" d="M69.68,58.12a3.65,3.65,0,0,1-.49-2.28,32.91,32.91,0,0,0,.22-3.73,31.83,31.83,0,0,0-9.33-22.54,3.7,3.7,0,0,1-1-3.31A22,22,0,1,0,15.45,22a21.83,21.83,0,0,0,.41,4.23,3.68,3.68,0,0,1-1,3.31A31.82,31.82,0,0,0,5.55,52.11a32.91,32.91,0,0,0,.22,3.73,3.6,3.6,0,0,1-.48,2.27,37.48,37.48,0,1,0,64.39,0Z"/><line class="cls-2" x1="37.99" y1="167.36" x2="37.99" y2="53.54"/><polyline class="cls-2" points="26.2 63.74 38.03 74.25 49.98 63.42"/><polyline class="cls-2" points="20.33 75.38 38.01 91.06 55.85 74.89"/></g></svg>