<svg xmlns="http://www.w3.org/2000/svg" xmlns:xlink="http://www.w3.org/1999/xlink" viewBox="0 0 299.53 110.92"><defs><style>.cls-1,.cls-12{fill:none;}.cls-2{isolation:isolate;}.cls-3{fill:#ec2a39;}.cls-4{mix-blend-mode:multiply;}.cls-5{fill:#b1202b;}.cls-6{opacity:0.25;fill:url(#linear-gradient);}.cls-16,.cls-6{mix-blend-mode:overlay;}.cls-7,.cls-8,.cls-9{fill:#8b8ba6;opacity:0.1;}.cls-12,.cls-7,.cls-8,.cls-9{stroke:#fff;stroke-miterlimit:10;}.cls-7{stroke-width:4.64px;}.cls-8{stroke-width:7.42px;}.cls-9{stroke-width:11.13px;}.cls-10{fill:#0a093f;}.cls-11,.cls-15{fill:#fff;}.cls-11{opacity:0.5;}.cls-12{stroke-linecap:round;stroke-width:1.86px;opacity:0.6;}.cls-13{fill:#d55835;}.cls-14{clip-path:url(#clip-path);}.cls-15{opacity:0.3;}.cls-16{opacity:0.35;}.cls-17{fill:#247777;}.cls-18{fill:#f87481;}</style><linearGradient id="linear-gradient" x1="13.61" y1="-15.16" x2="297.75" y2="94.74" gradientUnits="userSpaceOnUse"><stop offset="0" stop-color="#646489" stop-opacity="0"/><stop offset="1" stop-color="#646489"/></linearGradient><clipPath id="clip-path"><path class="cls-1" d="M8.29,60.24H7.06c0-12.39,9.48-22.44,21.17-22.44H270.91c11.69,0,21.17,10.05,21.17,22.44h-.72a8.43,8.43,0,0,1,8.17,8.66v5c0,7.61-5.81,13.77-13,13.77H249.22q.12-1.23.12-2.49c0-14.23-10.89-25.76-24.32-25.76s-24.31,11.53-24.31,25.76q0,1.26.12,2.49h-110q.12-1.23.12-2.49c0-14.23-10.89-25.76-24.31-25.76S42.35,70.94,42.35,85.17q0,1.26.12,2.49H12.89C5.77,87.66,0,81.54,0,74V69A8.54,8.54,0,0,1,8.29,60.24Z"/></clipPath></defs><title>HackIllinois_Website</title><g class="cls-2"><g id="Overlay"><path class="cls-3" d="M94.49,0h66.23c19.07,0,29.52,7.81,46.22,25.27,3.67,3.84,14.8,15.17,14.8,15.17h-170L62.32,21C69.45,7.88,81.54,0,94.49,0Z"/><path class="cls-3" d="M94.49,0h66.23c19.07,0,29.52,7.81,46.22,25.27,3.67,3.84,14.8,15.17,14.8,15.17h-170L62.32,21C69.45,7.88,81.54,0,94.49,0Z"/><g class="cls-4"><path class="cls-5" d="M105.11,8.73h52.45c11.89,0,23.2,6,33.06,17,3.16,3.53,12.15,14.71,12.15,14.71L67.29,40,73,27.57C80.11,14.48,88.92,8.27,105.11,8.73Z"/><path class="cls-6" d="M105.11,8.73h52.45c11.89,0,23.2,6,33.06,17,3.16,3.53,12.15,14.71,12.15,14.71L67.29,40,73,27.57C80.11,14.48,88.92,8.27,105.11,8.73Z"/></g><line class="cls-7" x1="87.63" y1="40.44" x2="122.3" y2="4.96"/><line class="cls-8" x1="154.98" y1="40.44" x2="182.27" y2="12.51"/><line class="cls-9" x1="97.55" y1="47.23" x2="139.39" y2="4.42"/><ellipse class="cls-10" cx="225.02" cy="85.17" rx="24.31" ry="25.76"/><ellipse class="cls-11" cx="225.02" cy="85.17" rx="10.02" ry="10.61"/><ellipse class="cls-10" cx="66.67" cy="85.17" rx="24.31" ry="25.76"/><ellipse class="cls-11" cx="66.67" cy="85.17" rx="10.35" ry="10.96"/><path class="cls-12" d="M66.67,78a7,7,0,0,0-6.76,7.16"/><path class="cls-12" d="M225.12,78a7,7,0,0,0-6.76,7.16"/><rect class="cls-13" x="135.22" y="6.43" width="10.63" height="54.22"/><rect class="cls-3" x="135.22" y="6.43" width="10.63" height="54.22"/><g class="cls-14"><path class="cls-3" d="M8.29,60.24H7.06c0-12.39,9.48-22.44,21.17-22.44H270.91c11.69,0,21.17,10.05,21.17,22.44h-.72a8.43,8.43,0,0,1,8.17,8.66v5c0,7.61-5.81,13.77-13,13.77H249.22q.12-1.23.12-2.49c0-14.23-10.89-25.76-24.32-25.76s-24.31,11.53-24.31,25.76q0,1.26.12,2.49h-110q.12-1.23.12-2.49c0-14.23-10.89-25.76-24.31-25.76S42.35,70.94,42.35,85.17q0,1.26.12,2.49H12.89C5.77,87.66,0,81.54,0,74V69A8.54,8.54,0,0,1,8.29,60.24Z"/><path class="cls-3" d="M8.29,60.24H7.06c0-12.39,9.48-22.44,21.17-22.44H270.91c11.69,0,21.17,10.05,21.17,22.44h-.72a8.43,8.43,0,0,1,8.17,8.66v5c0,7.61-5.81,13.77-13,13.77H249.22q.12-1.23.12-2.49c0-14.23-10.89-25.76-24.32-25.76s-24.31,11.53-24.31,25.76q0,1.26.12,2.49h-110q.12-1.23.12-2.49c0-14.23-10.89-25.76-24.31-25.76S42.35,70.94,42.35,85.17q0,1.26.12,2.49H12.89C5.77,87.66,0,81.54,0,74V69A8.54,8.54,0,0,1,8.29,60.24Z"/><path class="cls-1" d="M221.76,76.86H96.64a33.17,33.17,0,0,0-9.83-16.62h144.4A34.07,34.07,0,0,0,221.76,76.86Z"/><path class="cls-15" d="M292.52,55.25v5H246.4a31.8,31.8,0,0,0-6.78-5Z"/><path class="cls-15" d="M4.71,60.24v-5H53.9a30.93,30.93,0,0,0-7.38,5Z"/><path class="cls-15" d="M86.81,60.24a30.73,30.73,0,0,0-7.38-5h131a31.74,31.74,0,0,0-6.77,5Z"/><g class="cls-16"><path class="cls-17" d="M36.69,76.86a33.17,33.17,0,0,1,9.83-16.62,30.93,30.93,0,0,1,7.38-5,29.54,29.54,0,0,1,25.53,0,30.73,30.73,0,0,1,7.38,5,33.17,33.17,0,0,1,9.83,16.62h97.6a34,34,0,0,1,9.46-16.62,31.74,31.74,0,0,1,6.77-5,30.19,30.19,0,0,1,29.11,0,31.74,31.74,0,0,1,6.77,5,34,34,0,0,1,9.46,16.62h46.08v39.05H265.46a30.11,30.11,0,0,1-25.83,0H77.52a29.36,29.36,0,0,1-21.71,0H-12.55v-39Z"/><path class="cls-10" d="M36.69,76.86a33.17,33.17,0,0,1,9.83-16.62,30.93,30.93,0,0,1,7.38-5,29.54,29.54,0,0,1,25.53,0,30.73,30.73,0,0,1,7.38,5,33.17,33.17,0,0,1,9.83,16.62h97.6a34,34,0,0,1,9.46-16.62,31.74,31.74,0,0,1,6.77-5,30.19,30.19,0,0,1,29.11,0,31.74,31.74,0,0,1,6.77,5,34,34,0,0,1,9.46,16.62h46.08v39.05H265.46a30.11,30.11,0,0,1-25.83,0H77.52a29.36,29.36,0,0,1-21.71,0H-12.55v-39Z"/></g><path class="cls-18" d="M295.61,60.24H269V56.35a5.92,5.92,0,0,1,5.74-6.08h19.76"/><polygon class="cls-18" points="7.06 60.24 16.47 60.24 16.47 47.78 1.57 47.78 7.06 60.24"/></g><rect class="cls-3" x="97.62" width="54.87" height="8.71"/><path class="cls-3" d="M184,19.28s-5.36-4.47-9.26-6.23l3.38-5.81,11.26,9.58Z"/></g></g></svg>