<svg width="1440" height="240" viewBox="0 0 1440 240" fill="none" xmlns="http://www.w3.org/2000/svg">
<path d="M104.069 71.3823C103.688 70.7404 103.527 69.991 103.612 69.2489C103.746 68.0904 103.815 66.9251 103.817 65.7588C103.82 61.842 103.052 57.9631 101.557 54.3441C100.062 50.7251 97.8695 47.4371 95.1046 44.6684C94.709 44.2674 94.4171 43.7756 94.2543 43.2359C94.0916 42.6961 94.0629 42.1247 94.1707 41.5713C94.6896 38.7668 94.6212 35.8849 93.9697 33.1083C93.3183 30.3317 92.0981 27.7211 90.3866 25.442C88.675 23.1628 86.5094 21.265 84.0272 19.8688C81.5449 18.4726 78.8002 17.6085 75.9671 17.3313C73.1339 17.0541 70.2742 17.3699 67.5693 18.2587C64.8644 19.1474 62.3733 20.5897 60.2541 22.494C58.1349 24.3983 56.4338 26.7232 55.2586 29.3211C54.0835 31.9189 53.46 34.7332 53.4277 37.5853C53.4265 38.9139 53.5547 40.2395 53.8105 41.5432C53.92 42.0966 53.8921 42.6685 53.7293 43.2085C53.5664 43.7486 53.2737 44.2402 52.8767 44.6403C50.1113 47.4136 47.9198 50.7068 46.4279 54.3308C44.9359 57.9549 44.1729 61.8385 44.1827 65.7588C44.1852 66.9251 44.2538 68.0904 44.3882 69.2489C44.4768 69.9871 44.3192 70.7339 43.9399 71.3729C40.7733 76.6963 39.071 82.7655 39.0065 88.9625C38.9421 95.1595 40.5176 101.263 43.5728 106.651C46.6281 112.04 51.0538 116.521 56.3994 119.638C61.745 122.755 67.8196 124.398 74.0046 124.398C80.1897 124.398 86.2642 122.755 91.6099 119.638C96.9555 116.521 101.381 112.04 104.436 106.651C107.492 101.263 109.067 95.1595 109.003 88.9625C108.938 82.7655 107.236 76.6963 104.069 71.3729V71.3823Z" fill="#55895A"/>
<path d="M74.4763 173.597V67.0967" stroke="#0A093F" stroke-width="3" stroke-miterlimit="10" stroke-linecap="round"/>
<path d="M63.4664 76.6407L74.5136 86.4748L85.6729 76.3413" stroke="#0A093F" stroke-width="3" stroke-miterlimit="10" stroke-linecap="round"/>
<path d="M57.9848 87.5317L74.4949 102.203L91.1545 87.0732" stroke="#0A093F" stroke-width="3" stroke-miterlimit="10" stroke-linecap="round"/>
<path d="M1270.11 188.504C1270.11 188.504 1239.61 191.705 1251.88 163.248C1251.88 163.248 1234.87 149.734 1258.71 133.108C1260.72 131.731 1262.57 130.148 1264.24 128.387C1270.71 121.521 1294.06 119.497 1319.17 132.751C1323.46 135.01 1329.81 128.964 1334.64 128.688C1343.94 128.119 1355.41 130.744 1358.8 144.054C1359.22 145.72 1360.9 146.687 1362.3 145.679C1367.6 141.819 1378.14 133.393 1393.89 139.747C1403.43 143.591 1408.57 149.222 1410.8 154.431C1411.17 155.285 1411.75 156.033 1412.49 156.605C1413.23 157.177 1414.1 157.554 1415.02 157.7C1415.95 157.846 1416.9 157.757 1417.78 157.441C1418.66 157.125 1419.45 156.593 1420.06 155.894C1423.52 151.904 1427.25 149.068 1432.75 148.077C1445.33 145.793 1454.11 149.352 1460.86 157.08C1461.98 158.356 1465.23 160.737 1466.94 160.851C1474.6 161.387 1495.27 164.101 1495.97 177.623V188.999L1270.11 188.504Z" fill="url(#paint0_linear)"/>
<path d="M157.895 188.498C157.895 188.498 188.403 191.746 176.127 162.875C176.127 162.875 191.501 140.92 167.648 124.052C165.645 122.655 163.794 121.049 162.126 119.262C155.66 112.296 135.331 95.7002 107.181 123.665C105.484 125.362 103.449 126.68 101.208 127.532C98.9682 128.385 96.5737 128.752 94.1819 128.611C84.8888 128.034 70.1891 129.37 69.2031 143.377C69.1767 143.772 69.0453 144.153 68.8227 144.48C68.6001 144.806 68.2943 145.068 67.937 145.236C67.5798 145.404 67.1842 145.473 66.7913 145.436C66.3984 145.399 66.0225 145.258 65.7027 145.026C60.3783 141.134 49.8609 132.585 34.0765 139.032C24.5451 142.932 19.4014 151.943 17.1665 157.227C16.801 158.094 16.2218 158.853 15.4836 159.433C14.7453 160.013 13.8721 160.395 12.9461 160.544C12.0201 160.692 11.0717 160.602 10.1901 160.281C9.30845 159.961 8.52252 159.42 7.9062 158.711C4.44696 154.663 -0.0968857 150.962 -5.6021 149.948C-18.1819 147.639 -27.738 150.426 -34.5332 158.291C-35.6664 159.577 -37.2623 160.36 -38.9703 160.467C-46.6365 160.987 -67.3016 163.707 -68 177.459V189.001L157.895 188.498Z" fill="url(#paint1_linear)"/>
<path d="M1440 169H0V240H1440V169Z" fill="#A7CAD0"/>
<g clip-path="url(#clip0)">
<path d="M1.11975 208.057L1438.88 204" stroke="#6DA6B0" stroke-width="3" stroke-miterlimit="10" stroke-linecap="round" stroke-dasharray="15 15"/>
</g>
<path d="M251 168.999C251 168.999 250.592 152.972 262.711 148.003C270.952 144.622 277.477 146.3 283.946 148.959C285.743 149.729 287.757 149.791 289.597 149.134C291.437 148.477 292.971 147.147 293.901 145.403C297.985 138.141 311.264 125.711 329.019 127.124C346.554 128.495 359.621 138.906 364.349 144.364C365.613 145.875 367.285 146.976 369.157 147.532C371.03 148.087 373.021 148.072 374.885 147.488C379.45 146.043 385.796 145.054 391.913 147.53C404.76 152.723 403.992 168.999 403.992 168.999H251Z" fill="url(#paint2_linear)"/>
<path d="M890.16 85.8576C889.905 84.8813 889.723 83.8875 889.615 82.8844C889.566 82.382 889.5 81.8796 889.425 81.3772C887.7 69.6491 881.04 62.2944 872.383 60.7048C870.79 60.4166 869.189 60.0954 867.621 59.6918C865.878 59.2451 864.088 59.0128 862.289 59C845.733 58.8929 832.19 77.2921 832.041 100.098C832.041 101.135 832.041 102.157 832.107 103.161C832.145 103.74 832.145 104.321 832.107 104.899C831.91 107.843 832.021 110.799 832.438 113.72C833.469 120.721 836.259 126.165 840.179 129.764C841.566 131.024 842.936 132.309 844.256 133.643C849.158 138.584 855.208 141.549 861.769 141.591C878.325 141.706 891.868 123.298 892.017 100.493C892.055 95.5536 891.431 90.6314 890.16 85.8576Z" fill="#55895A"/>
<path d="M862.355 96.3008L861.884 167.419" stroke="#0A093F" stroke-width="3.84" stroke-miterlimit="10" stroke-linecap="round"/>
<path d="M855.109 106.925C855.109 106.925 860.721 110.977 862.933 109.964C865.144 108.951 869.535 102.997 869.535 102.997" stroke="#0A093F" stroke-width="2.56" stroke-miterlimit="10" stroke-linecap="round"/>
<path d="M851.882 120.235C851.882 120.235 859.656 125.366 862.834 123.908C866.011 122.45 872.556 113.44 872.556 113.44" stroke="#0A093F" stroke-width="2.56" stroke-miterlimit="10" stroke-linecap="round"/>
<path d="M588 168.999C588 168.999 587.589 152.972 599.788 148.003C608.082 144.622 614.65 146.3 621.161 148.959C622.97 149.729 624.998 149.791 626.85 149.134C628.702 148.477 630.246 147.147 631.182 145.403C635.292 138.141 648.658 125.711 666.529 127.124C684.178 128.495 697.331 138.906 702.09 144.364C703.362 145.875 705.045 146.976 706.929 147.532C708.814 148.087 710.818 148.072 712.695 147.488C717.29 146.043 723.677 145.054 729.834 147.53C742.765 152.723 741.992 168.999 741.992 168.999H588Z" fill="url(#paint3_linear)"/>
<path d="M702.162 169H782C782 169 777.334 142.905 753.978 148.964C750.551 149.772 747.439 151.592 745.036 154.193C743.825 155.5 741.923 154.966 741.329 153.116C739.703 148.183 735.037 141.688 721.185 142.008C698.935 142.535 702.162 169 702.162 169Z" fill="url(#paint4_linear)"/>
<path d="M980.838 168.968H903C903 168.968 907.549 143.812 930.327 149.671C933.672 150.451 936.711 152.205 939.059 154.71C940.237 155.968 942.097 155.457 942.674 153.68C944.21 148.949 948.807 142.7 962.3 143.001C983.981 143.52 980.838 168.968 980.838 168.968Z" fill="url(#paint5_linear)"/>
<path d="M1106 169H942C942 169 942.476 150.023 970.121 147.229C972.702 146.972 975.174 146.057 977.299 144.571C979.424 143.086 981.131 141.081 982.254 138.749C985.417 132.194 992.113 124 1005.97 124C1019.53 124 1026.69 131.678 1030.3 138.06C1031.5 140.235 1033.41 141.939 1035.71 142.894C1038.01 143.849 1040.57 143.999 1042.96 143.321C1054.47 140.043 1074.18 136.315 1088.86 144.14C1105.76 153.112 1106 169 1106 169Z" fill="url(#paint6_linear)"/>
<path d="M1027 169H1191C1191 169 1190.52 150.023 1162.88 147.229C1160.29 146.975 1157.82 146.061 1155.69 144.575C1153.56 143.09 1151.85 141.083 1150.73 138.749C1147.58 132.194 1140.87 124 1127.03 124C1113.47 124 1106.31 131.678 1102.7 138.06C1101.5 140.235 1099.59 141.939 1097.29 142.894C1094.99 143.849 1092.43 143.999 1090.04 143.321C1078.53 140.043 1058.82 136.315 1044.14 144.14C1027.24 153.112 1027 169 1027 169Z" fill="url(#paint7_linear)"/>
<path d="M1414.68 58.1202C1414.27 57.4342 1414.1 56.6333 1414.19 55.8402C1414.33 54.602 1414.41 53.3567 1414.41 52.1102C1414.41 47.9242 1413.59 43.7787 1411.99 39.9109C1410.39 36.0432 1408.04 32.5292 1405.08 29.5702C1404.66 29.1416 1404.34 28.6161 1404.17 28.0392C1404 27.4624 1403.96 26.8517 1404.08 26.2602C1404.64 23.263 1404.56 20.1829 1403.86 17.2155C1403.17 14.2481 1401.86 11.458 1400.03 9.02224C1398.19 6.58648 1395.88 4.55818 1393.22 3.06601C1390.56 1.57384 1387.62 0.650353 1384.59 0.354126C1381.55 0.0578988 1378.49 0.395396 1375.59 1.34521C1372.7 2.29503 1370.03 3.83643 1367.76 5.87166C1365.49 7.90689 1363.67 10.3915 1362.41 13.168C1361.15 15.9444 1360.48 18.9521 1360.45 22.0002C1360.45 23.4202 1360.59 24.8369 1360.86 26.2302C1360.98 26.8216 1360.95 27.4328 1360.77 28.01C1360.6 28.5871 1360.29 29.1126 1359.86 29.5402C1356.9 32.5041 1354.55 36.0236 1352.95 39.8968C1351.36 43.7699 1350.54 47.9205 1350.55 52.1102C1350.55 53.3567 1350.63 54.602 1350.77 55.8402C1350.86 56.6291 1350.7 57.4272 1350.29 58.1102C1346.9 63.7996 1345.08 70.2859 1345.01 76.9088C1344.94 83.5318 1346.63 90.0547 1349.9 95.8135C1353.17 101.572 1357.91 106.361 1363.63 109.693C1369.36 113.024 1375.86 114.78 1382.49 114.78C1389.11 114.78 1395.61 113.024 1401.34 109.693C1407.06 106.361 1411.8 101.572 1415.07 95.8135C1418.34 90.0547 1420.03 83.5318 1419.96 76.9088C1419.89 70.2859 1418.07 63.7996 1414.68 58.1102V58.1202Z" fill="#55895A"/>
<path d="M1382.99 167.36V53.54" stroke="#0A093F" stroke-width="3" stroke-miterlimit="10" stroke-linecap="round"/>
<path d="M1371.2 63.7399L1383.03 74.2499L1394.98 63.4199" stroke="#0A093F" stroke-width="3" stroke-miterlimit="10" stroke-linecap="round"/>
<path d="M1365.33 75.3801L1383.01 91.0601L1400.85 74.8901" stroke="#0A093F" stroke-width="3" stroke-miterlimit="10" stroke-linecap="round"/>
<path d="M414.16 85.8576C413.905 84.8813 413.723 83.8875 413.615 82.8844C413.566 82.382 413.5 81.8796 413.425 81.3772C411.7 69.6491 405.04 62.2944 396.383 60.7048C394.79 60.4166 393.189 60.0954 391.621 59.6918C389.878 59.2451 388.088 59.0128 386.289 59C369.733 58.8929 356.19 77.2921 356.041 100.098C356.041 101.135 356.041 102.157 356.107 103.161C356.145 103.74 356.145 104.321 356.107 104.899C355.91 107.843 356.021 110.799 356.438 113.72C357.469 120.721 360.259 126.165 364.179 129.764C365.566 131.024 366.936 132.309 368.256 133.643C373.158 138.584 379.208 141.549 385.769 141.591C402.325 141.706 415.868 123.298 416.017 100.493C416.055 95.5536 415.431 90.6314 414.16 85.8576Z" fill="#55895A"/>
<path d="M386.355 96.3008L385.884 167.419" stroke="#0A093F" stroke-width="3.84" stroke-miterlimit="10" stroke-linecap="round"/>
<path d="M379.109 106.925C379.109 106.925 384.721 110.977 386.933 109.964C389.144 108.951 393.535 102.997 393.535 102.997" stroke="#0A093F" stroke-width="2.56" stroke-miterlimit="10" stroke-linecap="round"/>
<path d="M375.882 120.235C375.882 120.235 383.656 125.366 386.834 123.908C390.011 122.45 396.556 113.44 396.556 113.44" stroke="#0A093F" stroke-width="2.56" stroke-miterlimit="10" stroke-linecap="round"/>
<defs>
<linearGradient id="paint0_linear" x1="1371.9" y1="115.158" x2="1370.25" y2="217.929" gradientUnits="userSpaceOnUse">
<stop offset="0.03" stop-color="#007A37"/>
<stop offset="0.22" stop-color="#248046"/>
<stop offset="0.41" stop-color="#3F8551"/>
<stop offset="0.57" stop-color="#4F8858"/>
<stop offset="0.7" stop-color="#55895A"/>
</linearGradient>
<linearGradient id="paint1_linear" x1="115.11" y1="60.8681" x2="-3.97777" y2="290.74" gradientUnits="userSpaceOnUse">
<stop offset="0.03" stop-color="#007A37"/>
<stop offset="0.22" stop-color="#248046"/>
<stop offset="0.41" stop-color="#3F8551"/>
<stop offset="0.57" stop-color="#4F8858"/>
<stop offset="0.7" stop-color="#55895A"/>
</linearGradient>
<linearGradient id="paint2_linear" x1="327.819" y1="107.507" x2="327.362" y2="193.161" gradientUnits="userSpaceOnUse">
<stop offset="0.03" stop-color="#007A37"/>
<stop offset="0.22" stop-color="#248046"/>
<stop offset="0.41" stop-color="#3F8551"/>
<stop offset="0.57" stop-color="#4F8858"/>
<stop offset="0.7" stop-color="#55895A"/>
</linearGradient>
<linearGradient id="paint3_linear" x1="665.354" y1="97.5952" x2="664.74" y2="218.236" gradientUnits="userSpaceOnUse">
<stop offset="0.03" stop-color="#007A37"/>
<stop offset="0.22" stop-color="#248046"/>
<stop offset="0.41" stop-color="#3F8551"/>
<stop offset="0.57" stop-color="#4F8858"/>
<stop offset="0.7" stop-color="#55895A"/>
</linearGradient>
<linearGradient id="paint4_linear" x1="742.89" y1="125.327" x2="741.535" y2="187.663" gradientUnits="userSpaceOnUse">
<stop offset="0.03" stop-color="#007A37"/>
<stop offset="0.22" stop-color="#248046"/>
<stop offset="0.41" stop-color="#3F8551"/>
<stop offset="0.57" stop-color="#4F8858"/>
<stop offset="0.7" stop-color="#55895A"/>
</linearGradient>
<linearGradient id="paint5_linear" x1="939.108" y1="132.881" x2="943.51" y2="184.282" gradientUnits="userSpaceOnUse">
<stop offset="0.03" stop-color="#007A37"/>
<stop offset="0.22" stop-color="#248046"/>
<stop offset="0.41" stop-color="#3F8551"/>
<stop offset="0.57" stop-color="#4F8858"/>
<stop offset="0.7" stop-color="#55895A"/>
</linearGradient>
<linearGradient id="paint6_linear" x1="1025.79" y1="88.9964" x2="1022.81" y2="222.923" gradientUnits="userSpaceOnUse">
<stop offset="0.03" stop-color="#007A37"/>
<stop offset="0.22" stop-color="#248046"/>
<stop offset="0.41" stop-color="#3F8551"/>
<stop offset="0.57" stop-color="#4F8858"/>
<stop offset="0.7" stop-color="#55895A"/>
</linearGradient>
<linearGradient id="paint7_linear" x1="1099.93" y1="78.4264" x2="1114.72" y2="226.733" gradientUnits="userSpaceOnUse">
<stop offset="0.03" stop-color="#007A37"/>
<stop offset="0.22" stop-color="#248046"/>
<stop offset="0.41" stop-color="#3F8551"/>
<stop offset="0.57" stop-color="#4F8858"/>
<stop offset="0.7" stop-color="#55895A"/>
</linearGradient>
<clipPath id="clip0">
<rect width="1440" height="5.74783" fill="white" transform="translate(0 202.739)"/>
</clipPath>
</defs>
</svg>
