<svg width="316" height="100" viewBox="0 0 316 100" fill="none" xmlns="http://www.w3.org/2000/svg">
<path d="M307 13H311.732C311.899 12.9996 312.064 13.033 312.218 13.0981C312.372 13.1632 312.512 13.2588 312.63 13.3794C312.747 13.5001 312.841 13.6433 312.904 13.801C312.968 13.9587 313.001 14.1277 313 14.2983V28" stroke="#132E39" stroke-width="5" stroke-miterlimit="10" stroke-linecap="round"/>
<path d="M255.664 84.5882H212.02V59.0293H258.971L255.664 84.5882Z" fill="#08072F"/>
<path d="M102.507 84.5882H58.8636V59.0293H105.814C105.814 59.0293 102.515 84.5882 102.507 84.5882Z" fill="#08072F"/>
<path d="M234.859 99.0991C225.77 99.0991 218.401 91.7521 218.401 82.6892C218.401 73.6263 225.77 66.2793 234.859 66.2793C243.949 66.2793 251.317 73.6263 251.317 82.6892C251.317 91.7521 243.949 99.0991 234.859 99.0991Z" fill="#0A093F"/>
<path d="M234.859 94.0508C228.566 94.0508 223.464 88.9641 223.464 82.6895C223.464 76.4148 228.566 71.3281 234.859 71.3281C241.152 71.3281 246.254 76.4148 246.254 82.6895C246.254 88.9641 241.152 94.0508 234.859 94.0508Z" stroke="#646489" stroke-width="3" stroke-miterlimit="10"/>
<path d="M239.804 85.1802L243.605 90.4019L239.509 93.37L235.708 88.1483C235.611 88.0149 235.483 87.9063 235.336 87.8314C235.189 87.7566 235.026 87.7175 234.86 87.7175C234.695 87.7175 234.532 87.7566 234.385 87.8314C234.237 87.9063 234.11 88.0149 234.013 88.1483L230.212 93.37L226.113 90.4019L229.914 85.1802C230.012 85.0468 230.076 84.8924 230.102 84.7296C230.128 84.5667 230.115 84.4 230.063 84.2432C230.012 84.0864 229.925 83.9438 229.808 83.8272C229.691 83.7107 229.548 83.6233 229.391 83.5724L223.238 81.58L224.793 76.776L230.945 78.7685C231.103 78.8208 231.27 78.8349 231.434 78.8099C231.599 78.7848 231.754 78.7212 231.889 78.6243C232.024 78.5274 232.133 78.4 232.209 78.2525C232.284 78.1051 232.323 77.9419 232.323 77.7764V71.3262H237.392V77.7764C237.392 77.9419 237.431 78.1051 237.507 78.2525C237.582 78.4 237.692 78.5274 237.826 78.6243C237.961 78.7212 238.117 78.7848 238.281 78.8099C238.445 78.8349 238.613 78.8208 238.77 78.7685L244.914 76.776L246.48 81.58L240.33 83.5724C240.173 83.6235 240.03 83.7109 239.913 83.8274C239.796 83.9439 239.709 84.0863 239.658 84.243C239.606 84.3997 239.593 84.5662 239.618 84.7291C239.644 84.8919 239.707 85.0465 239.804 85.1802ZM237.392 82.6903C237.393 82.1906 237.245 81.702 236.967 81.2863C236.689 80.8706 236.293 80.5465 235.83 80.3549C235.368 80.1633 234.858 80.1129 234.367 80.21C233.875 80.3072 233.423 80.5475 233.069 80.9006C232.714 81.2537 232.473 81.7038 232.375 82.1938C232.277 82.6838 232.327 83.1917 232.519 83.6534C232.71 84.1151 233.035 84.5097 233.451 84.7873C233.868 85.065 234.358 85.2132 234.859 85.2132C235.192 85.2135 235.521 85.1485 235.828 85.0219C236.135 84.8953 236.415 84.7095 236.65 84.4752C236.885 84.2409 237.072 83.9626 237.199 83.6564C237.327 83.3501 237.392 83.0218 237.392 82.6903Z" fill="#646489"/>
<path d="M81.6613 99.0991C72.5718 99.0991 65.2034 91.7521 65.2034 82.6892C65.2034 73.6263 72.5718 66.2793 81.6613 66.2793C90.7507 66.2793 98.1191 73.6263 98.1191 82.6892C98.1191 91.7521 90.7507 99.0991 81.6613 99.0991Z" fill="#0A093F"/>
<path d="M81.661 94.0508C75.3679 94.0508 70.2664 88.9641 70.2664 82.6895C70.2664 76.4148 75.3679 71.3281 81.661 71.3281C87.954 71.3281 93.0555 76.4148 93.0555 82.6895C93.0555 88.9641 87.954 94.0508 81.661 94.0508Z" stroke="#646489" stroke-width="3" stroke-miterlimit="10"/>
<path d="M86.6086 85.1802L90.4095 90.4019L86.3109 93.37L82.51 88.1483C82.4128 88.0149 82.2854 87.9063 82.1381 87.8314C81.9907 87.7566 81.8278 87.7175 81.6624 87.7175C81.4971 87.7175 81.334 87.7566 81.1867 87.8314C81.0394 87.9063 80.912 88.0149 80.8148 88.1483L77.0139 93.37L72.9208 90.3964L76.7217 85.1747C76.819 85.0413 76.8833 84.8869 76.9092 84.7241C76.9351 84.5612 76.922 84.3945 76.8709 84.2377C76.8198 84.0809 76.7322 83.9383 76.6153 83.8217C76.4983 83.7052 76.3553 83.6178 76.198 83.567L70.0487 81.5745L71.6143 76.7705L77.7636 78.763C77.9211 78.8153 78.0889 78.8294 78.253 78.8044C78.4171 78.7793 78.5729 78.7157 78.7075 78.6188C78.8421 78.5219 78.9517 78.3945 79.0272 78.247C79.1027 78.0996 79.142 77.9364 79.1418 77.7709V71.3262H84.1941V77.7764C84.1939 77.9419 84.2331 78.1051 84.3087 78.2525C84.3842 78.4 84.4937 78.5274 84.6283 78.6243C84.7629 78.7212 84.9187 78.7848 85.0828 78.8099C85.2469 78.8349 85.4147 78.8208 85.5722 78.7685L91.7215 76.776L93.2871 81.58L87.1378 83.5724C86.98 83.6227 86.8365 83.7096 86.7189 83.8259C86.6013 83.9422 86.5131 84.0847 86.4614 84.2416C86.4098 84.3985 86.3962 84.5654 86.4218 84.7285C86.4474 84.8917 86.5114 85.0465 86.6086 85.1802ZM84.1941 82.6903C84.1946 82.1906 84.0465 81.702 83.7685 81.2863C83.4905 80.8706 83.0951 80.5465 82.6323 80.3549C82.1695 80.1633 81.6601 80.1129 81.1685 80.21C80.677 80.3072 80.2254 80.5475 79.8709 80.9006C79.5163 81.2537 79.2748 81.7038 79.1769 82.1938C79.0789 82.6838 79.1289 83.1917 79.3205 83.6534C79.5122 84.1151 79.8368 84.5097 80.2535 84.7873C80.6701 85.065 81.1599 85.2132 81.661 85.2132C81.9935 85.2135 82.3229 85.1485 82.6302 85.0219C82.9375 84.8953 83.2167 84.7095 83.452 84.4752C83.6872 84.2409 83.8739 83.9626 84.0012 83.6564C84.1285 83.3501 84.1941 83.0218 84.1941 82.6903Z" fill="#646489"/>
<path d="M303.778 0H4.21445C3.66077 -1.1807e-07 3.11255 0.108782 2.60104 0.320129C2.08954 0.531477 1.62485 0.841246 1.23346 1.23174C0.842072 1.62223 0.531708 2.08579 0.320068 2.59593C0.108429 3.10607 -0.000305176 3.65279 6.10352e-05 4.20485V60.5828C-0.0010376 63.735 0.620728 66.8564 1.82977 69.7689C3.03882 72.6814 4.81146 75.3279 7.04651 77.5572C9.28156 79.7865 11.9352 81.5549 14.8557 82.7614C17.7763 83.9679 20.9068 84.5889 24.0681 84.5889H60.8675C60.8124 83.9623 60.771 83.333 60.771 82.6954C60.7393 79.9398 61.2562 77.2052 62.2919 74.6502C63.3275 72.0952 64.8613 69.7704 66.8044 67.8106C68.7475 65.8508 71.0613 64.2949 73.6117 63.233C76.1621 62.171 78.8986 61.6242 81.6624 61.6242C84.4263 61.6242 87.1627 62.171 89.7131 63.233C92.2636 64.2949 94.5773 65.8508 96.5204 67.8106C98.4635 69.7704 99.9973 72.0952 101.033 74.6502C102.069 77.2052 102.586 79.9398 102.554 82.6954C102.554 83.333 102.512 83.9623 102.457 84.5889H214.066C214.008 83.9623 213.969 83.333 213.969 82.6954C213.969 77.1712 216.17 71.8732 220.088 67.967C224.005 64.0608 229.319 61.8663 234.859 61.8663C240.399 61.8663 245.713 64.0608 249.631 67.967C253.548 71.8732 255.749 77.1712 255.749 82.6954C255.749 83.333 255.711 83.9623 255.655 84.5889H303.072C304.288 84.5889 305.455 84.1071 306.315 83.2495C307.175 82.3919 307.659 81.2287 307.659 80.0158V3.87231C307.659 2.84579 307.25 1.86127 306.522 1.13515C305.794 0.409025 304.807 0.000728548 303.778 0Z" fill="#6BAEC5"/>
<path opacity="0.6" d="M252.993 82.6906C252.993 83.3282 252.954 83.9575 252.899 84.5841H303.072C304.288 84.5841 305.455 84.1023 306.315 83.2447C307.175 82.3871 307.659 81.2239 307.659 80.011V73.0469C307.659 73.6477 307.541 74.2426 307.31 74.7978C307.08 75.3529 306.742 75.8574 306.316 76.2823C305.89 76.7073 305.385 77.0444 304.828 77.2744C304.271 77.5044 303.675 77.6227 303.072 77.6227H252.34" fill="#285163" fill-opacity="0.25"/>
<path d="M62.1713 77.6217H24.0681C20.9073 77.6217 17.7773 77.0009 14.8571 75.7947C11.9368 74.5886 9.28344 72.8206 7.04848 70.5919C4.81353 68.3632 3.04076 65.7174 1.83139 62.8055C0.622025 59.8937 -0.000267029 56.7728 9.53674e-05 53.6211V60.5825C-0.000991821 63.7346 0.620766 66.8561 1.82981 69.7686C3.03886 72.6811 4.81153 75.3276 7.04657 77.5569C9.2816 79.7861 11.9352 81.5545 14.8558 82.7611C17.7764 83.9676 20.9068 84.5886 24.0681 84.5886H62.4469C62.389 83.962 62.7225 83.3326 62.7225 82.695" fill="#285163" fill-opacity="0.25"/>
<path opacity="0.6" d="M215.697 77.7173L100.252 77.6211L100.349 82.6889C100.349 83.3265 99.9906 83.9559 99.9327 84.5825H215.422C215.364 83.9586 215.146 83.299 215.146 82.6587" fill="#285163" fill-opacity="0.25"/>
<path opacity="0.6" d="M303.778 0H4.21451C3.66083 -1.1807e-07 3.11258 0.108782 2.60107 0.320129C2.0896 0.531477 1.62488 0.841246 1.23349 1.23174C0.842133 1.62223 0.531738 2.08579 0.320099 2.59593C0.108459 3.10607 -0.000274658 3.65279 9.15527e-05 4.20485V9.37984C9.15527e-05 8.26537 0.444122 7.19655 1.23447 6.4085C2.02484 5.62046 3.09677 5.17774 4.21451 5.17774H303.778C304.808 5.17774 305.796 5.58571 306.524 6.31191C307.252 7.03811 307.661 8.02305 307.661 9.05005V3.87231C307.661 2.84531 307.252 1.86037 306.524 1.13417C305.796 0.407974 304.808 0 303.778 0Z" fill="#285163" fill-opacity="0.25"/>
<path d="M219.057 10.6211H267.419C269.275 10.6211 270.779 12.121 270.779 13.9712V46.4063C270.779 48.2565 269.275 49.7564 267.419 49.7564H219.057C217.201 49.7564 215.697 48.2565 215.697 46.4063V13.9712C215.697 12.121 217.201 10.6211 219.057 10.6211Z" fill="#285163"/>
<path d="M161.45 10.6211H209.812C211.668 10.6211 213.172 12.121 213.172 13.9712V46.4063C213.172 48.2565 211.668 49.7564 209.812 49.7564H161.45C159.595 49.7564 158.09 48.2565 158.09 46.4063V13.9712C158.09 12.121 159.595 10.6211 161.45 10.6211Z" fill="#285163"/>
<path d="M103.844 10.6211H152.206C154.062 10.6211 155.566 12.121 155.566 13.9712V46.4063C155.566 48.2565 154.062 49.7564 152.206 49.7564H103.844C101.988 49.7564 100.484 48.2565 100.484 46.4063V13.9712C100.484 12.121 101.988 10.6211 103.844 10.6211Z" fill="#285163"/>
<path d="M46.237 10.6211H94.5991C96.4547 10.6211 97.959 12.121 97.959 13.9712V46.4063C97.959 48.2565 96.4547 49.7564 94.5991 49.7564H46.237C44.3814 49.7564 42.8771 48.2565 42.8771 46.4063V13.9712C42.8771 12.121 44.3814 10.6211 46.237 10.6211Z" fill="#285163"/>
<path d="M5.99486 10.6211H36.9922C38.8479 10.6211 40.3522 12.121 40.3522 13.9712V46.4063C40.3522 48.2565 38.8479 49.7564 36.9922 49.7564H5.99486C4.13923 49.7564 2.63495 48.2565 2.63495 46.4063V13.9712C2.63495 12.121 4.13923 10.6211 5.99486 10.6211Z" fill="#3D3D6B"/>
<path d="M276.033 10.6211H294.456C295.661 10.6211 296.639 11.5956 296.639 12.7977V60.2026C296.639 61.4047 295.661 62.3792 294.456 62.3792H276.033C274.827 62.3792 273.85 61.4047 273.85 60.2026V12.7977C273.85 11.5956 274.827 10.6211 276.033 10.6211Z" fill="#285163"/>
<path d="M307.788 10.8594H302.187C301.577 10.8601 300.991 11.1025 300.56 11.5333C300.128 11.9641 299.886 12.5481 299.886 13.1569V51.7041C299.886 53.0693 300.189 54.4175 300.772 55.6527C301.355 56.8878 302.205 57.9794 303.259 58.8496L308.017 62.7742L307.788 10.8594Z" fill="#285163"/>
</svg>
