<svg width="1276" height="46" viewBox="0 0 1276 46" fill="none" xmlns="http://www.w3.org/2000/svg">
<path d="M1122 45.9861C1122 45.9861 1121.59 29.9588 1133.71 24.9903C1141.95 21.6087 1148.48 23.287 1154.95 25.9458C1156.74 26.7157 1158.76 26.7782 1160.6 26.1209C1162.44 25.4637 1163.97 24.1337 1164.9 22.3897C1168.99 15.128 1182.27 2.6983 1200.02 4.11076C1217.56 5.48168 1230.62 15.8924 1235.35 21.3511C1236.61 22.8621 1238.29 23.9633 1240.16 24.5185C1242.03 25.0737 1244.02 25.0586 1245.89 24.4752C1250.45 23.0295 1256.8 22.0407 1262.91 24.5167C1275.76 29.7096 1274.99 45.9861 1274.99 45.9861H1122Z" fill="url(#paint0_linear)"/>
<path d="M881 45H717C717 45 717.476 26.0233 745.121 23.2292C747.702 22.9718 750.174 22.0566 752.299 20.5715C754.424 19.0864 756.131 17.0812 757.254 14.7487C760.417 8.19374 767.113 0 780.972 0C794.527 0 801.69 7.67753 805.297 14.0605C806.503 16.2351 808.411 17.9386 810.711 18.8938C813.011 19.8489 815.568 19.9995 817.965 19.3208C829.466 16.0433 849.183 12.3152 863.863 20.1402C880.762 29.1123 881 45 881 45Z" fill="url(#paint1_linear)"/>
<path d="M77.8375 44.9682H0C0 44.9682 4.54905 19.8121 27.3268 25.6711C30.6724 26.4515 33.7112 28.2052 36.0594 30.7104C37.2372 31.9682 39.0975 31.457 39.6742 29.6798C41.2095 24.9488 45.8073 18.7004 59.3002 19.0007C80.9813 19.52 77.8375 44.9682 77.8375 44.9682Z" fill="url(#paint2_linear)"/>
<path d="M101.163 45.0003H181C181 45.0003 176.334 18.9047 152.978 24.964C149.551 25.7722 146.439 27.5922 144.036 30.193C142.825 31.5003 140.923 30.9659 140.329 29.116C138.703 24.183 134.037 17.6878 120.185 18.0085C97.9352 18.5347 101.163 45.0003 101.163 45.0003Z" fill="url(#paint3_linear)"/>
<defs>
<linearGradient id="paint0_linear" x1="1198.82" y1="-15.5059" x2="1198.36" y2="70.1475" gradientUnits="userSpaceOnUse">
<stop offset="0.03" stop-color="#007A37"/>
<stop offset="0.22" stop-color="#248046"/>
<stop offset="0.41" stop-color="#3F8551"/>
<stop offset="0.57" stop-color="#4F8858"/>
<stop offset="0.7" stop-color="#55895A"/>
</linearGradient>
<linearGradient id="paint1_linear" x1="800.787" y1="-35.0036" x2="797.812" y2="98.9233" gradientUnits="userSpaceOnUse">
<stop offset="0.03" stop-color="#007A37"/>
<stop offset="0.22" stop-color="#248046"/>
<stop offset="0.41" stop-color="#3F8551"/>
<stop offset="0.57" stop-color="#4F8858"/>
<stop offset="0.7" stop-color="#55895A"/>
</linearGradient>
<linearGradient id="paint2_linear" x1="36.1081" y1="8.88143" x2="40.51" y2="60.2817" gradientUnits="userSpaceOnUse">
<stop offset="0.03" stop-color="#007A37"/>
<stop offset="0.22" stop-color="#248046"/>
<stop offset="0.41" stop-color="#3F8551"/>
<stop offset="0.57" stop-color="#4F8858"/>
<stop offset="0.7" stop-color="#55895A"/>
</linearGradient>
<linearGradient id="paint3_linear" x1="141.89" y1="1.32671" x2="140.535" y2="63.6628" gradientUnits="userSpaceOnUse">
<stop offset="0.03" stop-color="#007A37"/>
<stop offset="0.22" stop-color="#248046"/>
<stop offset="0.41" stop-color="#3F8551"/>
<stop offset="0.57" stop-color="#4F8858"/>
<stop offset="0.7" stop-color="#55895A"/>
</linearGradient>
</defs>
</svg>
