<svg xmlns="http://www.w3.org/2000/svg" viewBox="0 0 290.91 93.8"><defs><style>.cls-1{fill:#0a093f;}.cls-2{fill:#ec2a39;}</style></defs><title>HackIllinois_Website</title><g id="Layer_1" data-name="Layer 1"><path class="cls-1" d="M87.2,1.87h8.63v13.5h13.35V1.87h8.63V34.94h-8.63V22.25H95.83V34.94H87.2Z"/><path class="cls-1" d="M148.52,34.94l-2.26-5.85H132l-2.32,5.85h-8.86L135,1.87h8.86l13.87,33.07Zm-14-12.45h9.15L139.18,10.7Z"/><path class="cls-1" d="M179.89,9.87a9.13,9.13,0,0,0-4.38-1.2A8.49,8.49,0,0,0,171,9.92a8.87,8.87,0,0,0-3.24,3.44,10.21,10.21,0,0,0-1.18,4.88,10.25,10.25,0,0,0,1.18,4.89A8.87,8.87,0,0,0,171,26.57a8.57,8.57,0,0,0,4.55,1.25,10,10,0,0,0,4.24-1,13.42,13.42,0,0,0,4-2.83l5,5.43a20.13,20.13,0,0,1-6.39,4.5,17.69,17.69,0,0,1-16.2-.59,16.57,16.57,0,0,1-6.23-6.18,17.18,17.18,0,0,1-2.26-8.77,16.5,16.5,0,0,1,8.65-14.77,18.85,18.85,0,0,1,16.3-.68,18,18,0,0,1,6.09,4.17l-5,6A12.35,12.35,0,0,0,179.89,9.87Z"/><path class="cls-1" d="M224.24,34.94H213.91l-8.68-12.83-4.16,4.62v8.21h-8.63V1.87h8.63V16.21L213.48,1.87h10L211.22,15.51Z"/><path class="cls-1" d="M87.08,60.12h8.63V93.19H87.08Z"/><path class="cls-1" d="M102.12,60.12h8.64V85.83h14v7.36H102.12Z"/><path class="cls-1" d="M131.32,60.12H140V85.83h14v7.36H131.32Z"/><path class="cls-1" d="M158.78,60.12h8.63V93.19h-8.63Z"/><path class="cls-1" d="M197.32,60.12h8V93.19h-7.55l-15-19.76V93.19h-8.07V60.12h7.6l15,19.91Z"/><path class="cls-1" d="M237.58,61.82a16.48,16.48,0,0,1,8.75,14.77,16.76,16.76,0,0,1-8.75,15,19.65,19.65,0,0,1-18.26,0,16.49,16.49,0,0,1-6.41-6.18,16.88,16.88,0,0,1-2.34-8.79,16.48,16.48,0,0,1,8.75-14.77,19.88,19.88,0,0,1,18.26,0ZM224,68.19a9.12,9.12,0,0,0-3.32,3.51,10.52,10.52,0,0,0,0,9.91A9.61,9.61,0,0,0,224,85.15a8.4,8.4,0,0,0,4.53,1.29,8.3,8.3,0,0,0,4.5-1.29,9.2,9.2,0,0,0,3.23-3.54,11,11,0,0,0,0-9.91,9,9,0,0,0-3.23-3.51,8.37,8.37,0,0,0-4.5-1.27A8.62,8.62,0,0,0,224,68.19Z"/><path class="cls-1" d="M250.2,60.12h8.63V93.19H250.2Z"/><path class="cls-1" d="M282,67.53a16.67,16.67,0,0,0-5-1,4.56,4.56,0,0,0-2.52.59,1.91,1.91,0,0,0-.92,1.72,2.35,2.35,0,0,0,.8,1.81,6.06,6.06,0,0,0,2,1.18c.79.3,2,.69,3.49,1.16a45.66,45.66,0,0,1,5.69,2,10,10,0,0,1,3.84,3,8.47,8.47,0,0,1,1.61,5.36A9.19,9.19,0,0,1,289.16,89a10.56,10.56,0,0,1-4.79,3.51,18.71,18.71,0,0,1-6.77,1.18,24.45,24.45,0,0,1-8.18-1.44,22.33,22.33,0,0,1-7.05-3.94l3.35-6.74a21.07,21.07,0,0,0,5.92,3.63,16.21,16.21,0,0,0,6.06,1.41,5.63,5.63,0,0,0,3-.7,2.33,2.33,0,0,0,1.11-2.08A2.46,2.46,0,0,0,281,82a6.13,6.13,0,0,0-2.07-1.2c-.84-.3-2-.65-3.52-1.06a44.54,44.54,0,0,1-5.61-1.91,10,10,0,0,1-3.8-2.93,8.05,8.05,0,0,1-1.58-5.21,9.08,9.08,0,0,1,1.63-5.38,10.34,10.34,0,0,1,4.62-3.56,18,18,0,0,1,7-1.25,25.15,25.15,0,0,1,7.08,1,23.23,23.23,0,0,1,6.13,2.71l-3.26,6.89A29,29,0,0,0,282,67.53Z"/><polygon class="cls-2" points="18.04 37.63 44.98 37.63 44.98 20.59 62.78 20.59 62.78 0 11.95 0 0 20.59 18.04 20.59 18.04 37.63"/><polygon class="cls-2" points="44.98 55.61 18.04 55.61 18.04 72.65 0 72.65 0 93.23 51.3 93.23 62.78 72.65 44.98 72.65 44.98 55.61"/></g></svg>