<svg width="100" height="109" viewBox="0 0 100 109" fill="none" xmlns="http://www.w3.org/2000/svg">
<path d="M16.648 64.5234H20.8101V71.0838H27.3819V64.5234H31.6535V80.7056H27.3819V74.4733H20.8101V80.7056H16.5385V64.5234H16.648Z" fill="#0A093F"/>
<path d="M46.6596 80.7056L45.5643 77.8628H38.5545L37.4592 80.7056H33.078L40.0879 64.5234H44.469L51.2598 80.7056H46.6596ZM39.8688 74.6919H44.3595L42.1689 68.897L39.8688 74.6919Z" fill="#0A093F"/>
<path d="M62.1032 68.4596C61.3365 68.0222 60.6794 67.9129 59.9127 67.9129C59.1459 67.9129 58.3792 68.1315 57.7221 68.5689C57.0649 69.0062 56.5173 69.5529 56.1887 70.209C55.7505 70.9743 55.641 71.7397 55.641 72.6144C55.641 73.4891 55.8601 74.2545 56.1887 75.0199C56.6268 75.7852 57.0649 76.3319 57.7221 76.6599C58.3792 77.0973 59.1459 77.316 59.9127 77.316C60.5698 77.316 61.227 77.0973 61.9937 76.7693C62.7604 76.4413 63.4176 76.0039 63.9652 75.3479L66.4844 77.972C65.6082 78.8467 64.5129 79.6121 63.3081 80.1588C62.1032 80.7055 60.8984 81.0335 59.6936 81.0335C58.0507 81.0335 56.6268 80.7055 55.3124 79.9401C53.9981 79.1747 53.0123 78.1907 52.2456 76.8786C51.4789 75.5666 51.1503 74.1452 51.1503 72.6144C51.1503 71.0837 51.4789 69.6623 52.2456 68.3502C53.0123 67.0382 53.9981 66.0541 55.3124 65.3981C56.6268 64.742 58.1602 64.3047 59.6936 64.3047C60.8984 64.3047 62.1032 64.5234 63.3081 65.0701C64.5129 65.6168 65.4986 66.2728 66.2653 67.1475L63.8557 70.0996C63.4176 69.4436 62.7604 68.8969 62.1032 68.4596Z" fill="#0A093F"/>
<path d="M83.8993 80.7056H78.861L74.4798 74.4733L72.3988 76.7694V80.8149H68.1271V64.5234H72.3988V71.5211L78.5324 64.5234H83.4612L77.4371 71.1931L83.8993 80.7056Z" fill="#0A093F"/>
<path d="M0 92.2949H4.27163V108.477H0V92.2949Z" fill="#0A093F"/>
<path d="M7.33856 92.2949H11.6102V104.869H18.5105V108.477H7.33856V92.2949Z" fill="#0A093F"/>
<path d="M21.6866 92.2949H25.9582V104.869H32.8585V108.477H21.6866V92.2949Z" fill="#0A093F"/>
<path d="M35.1586 92.2949H39.4302V108.477H35.1586V92.2949Z" fill="#0A093F"/>
<path d="M54.107 92.2949H58.0501V108.477H54.3261L46.9877 98.7459V108.477H43.0446V92.2949H46.7686L54.107 102.026V92.2949Z" fill="#0A093F"/>
<path d="M73.8224 93.1696C75.1368 93.9349 76.2321 94.919 76.9988 96.1217C77.7655 97.4338 78.0941 98.8552 78.0941 100.386C78.0941 102.026 77.7655 103.447 76.9988 104.65C76.2321 105.962 75.1368 106.946 73.8224 107.712C72.5081 108.477 70.9747 108.805 69.3317 108.805C67.6888 108.805 66.1554 108.477 64.841 107.712C63.5267 106.946 62.4314 105.962 61.6647 104.65C60.898 103.338 60.5694 101.917 60.5694 100.386C60.5694 98.8552 60.898 97.4338 61.6647 96.1217C62.4314 94.8096 63.5267 93.8256 64.841 93.1696C66.1554 92.5135 67.6888 92.0762 69.3317 92.0762C70.9747 92.0762 72.5081 92.4042 73.8224 93.1696ZM67.1411 96.231C66.484 96.6684 65.9363 97.2151 65.4982 97.9805C65.0601 98.7458 64.9506 99.5112 64.9506 100.386C64.9506 101.261 65.1696 102.135 65.6077 102.791C66.0459 103.557 66.5935 104.103 67.2507 104.541C67.9078 104.978 68.6746 105.197 69.4413 105.197C70.208 105.197 70.9747 104.978 71.6318 104.541C72.289 104.103 72.8367 103.557 73.1652 102.791C73.6034 102.026 73.7129 101.261 73.7129 100.386C73.7129 99.5112 73.4938 98.7458 73.1652 97.9805C72.7271 97.2151 72.289 96.6684 71.6318 96.231C70.9747 95.7937 70.208 95.575 69.4413 95.575C68.6746 95.575 67.9078 95.7937 67.1411 96.231Z" fill="#0A093F"/>
<path d="M80.0653 92.2949H84.3369V108.477H80.0653V92.2949Z" fill="#0A093F"/>
<path d="M95.6188 95.903C94.6331 95.575 93.8664 95.4657 93.0997 95.4657C92.552 95.4657 92.1139 95.575 91.8948 95.7937C91.5663 96.0124 91.4567 96.231 91.4567 96.6684C91.4567 96.9964 91.5663 97.3244 91.8948 97.5431C92.1139 97.7618 92.4425 97.9805 92.8806 98.0898C93.3187 98.1991 93.8664 98.4178 94.6331 98.6365C95.7284 98.9645 96.7141 99.2925 97.3713 99.6205C98.138 99.9486 98.6856 100.495 99.2333 101.151C99.7809 101.807 100 102.682 100 103.775C100 104.869 99.6714 105.744 99.1238 106.509C98.5761 107.274 97.8094 107.821 96.8237 108.258C95.8379 108.696 94.7426 108.805 93.5378 108.805C92.2234 108.805 90.9091 108.586 89.4852 108.149C88.0613 107.712 86.966 107.056 85.9803 106.181L87.6232 102.901C88.3899 103.666 89.3757 104.213 90.5805 104.65C91.7853 105.087 92.6616 105.306 93.5378 105.306C94.195 105.306 94.6331 105.197 95.0712 104.978C95.3998 104.759 95.6188 104.431 95.6188 103.994C95.6188 103.666 95.5093 103.338 95.1807 103.119C94.9617 102.901 94.5235 102.682 94.195 102.573C93.8664 102.463 93.2092 102.245 92.4425 102.026C91.3472 101.698 90.3614 101.37 89.7043 101.042C88.9376 100.714 88.3899 100.277 87.8423 99.6205C87.2946 98.9645 87.0756 98.0898 87.0756 97.1058C87.0756 96.1217 87.2946 95.247 87.8423 94.4816C88.3899 93.7163 89.1566 93.1696 90.1424 92.7322C91.1281 92.2949 92.2234 92.0762 93.5378 92.0762C94.7426 92.0762 95.8379 92.2948 97.0427 92.6229C98.138 92.9509 99.2333 93.3882 100 93.9349L98.3571 97.3244C97.5904 96.6684 96.6046 96.231 95.6188 95.903Z" fill="#0A093F"/>
<path d="M43.1288 19.0249H56.8199V10.3872H65.8013V0H40.062L33.9283 10.3872H43.1288V19.0249Z" fill="#EC2A39"/>
<path d="M56.8197 28.209H43.1286V36.7374H33.9282V47.2339H59.9961L65.8011 36.7374H56.8197V28.209Z" fill="#EC2A39"/>
</svg>
