<svg xmlns="http://www.w3.org/2000/svg" xmlns:xlink="http://www.w3.org/1999/xlink" viewBox="0 0 296.15 227.55"><defs><style>.cls-1{fill:url(#linear-gradient);}.cls-2{fill:url(#linear-gradient-2);}.cls-3{fill:url(#linear-gradient-3);}.cls-4{fill:#6da6b0;}.cls-5{fill:url(#linear-gradient-4);}</style><linearGradient id="linear-gradient" x1="83.68" y1="131.67" x2="45.22" y2="56.46" gradientUnits="userSpaceOnUse"><stop offset="0.05" stop-color="#a7cad0"/><stop offset="0.12" stop-color="#abccd2"/><stop offset="0.53" stop-color="#c5dbdf"/><stop offset="0.7" stop-color="#c1d9dd"/><stop offset="0.86" stop-color="#b6d2d7"/><stop offset="0.98" stop-color="#a7cad0"/></linearGradient><linearGradient id="linear-gradient-2" x1="104.83" y1="109.52" x2="143.11" y2="172.44" gradientUnits="userSpaceOnUse"><stop offset="0.37" stop-color="#a7cad0"/><stop offset="0.4" stop-color="#abccd2"/><stop offset="0.61" stop-color="#c5dbdf"/><stop offset="0.69" stop-color="#c1d9dd"/><stop offset="0.76" stop-color="#b6d2d7"/><stop offset="0.82" stop-color="#a7cad0"/></linearGradient><linearGradient id="linear-gradient-3" x1="130.12" y1="174.02" x2="269.26" y2="211.46" gradientUnits="userSpaceOnUse"><stop offset="0" stop-color="#a7cad0"/><stop offset="0.07" stop-color="#abccd2"/><stop offset="0.53" stop-color="#c5dbdf"/><stop offset="0.7" stop-color="#c1d9dd"/><stop offset="0.86" stop-color="#b6d2d7"/><stop offset="0.98" stop-color="#a7cad0"/></linearGradient><linearGradient id="linear-gradient-4" x1="192.66" y1="20.15" x2="293.95" y2="69.61" gradientUnits="userSpaceOnUse"><stop offset="0.13" stop-color="#a7cad0"/><stop offset="0.16" stop-color="#abccd2"/><stop offset="0.41" stop-color="#c5dbdf"/><stop offset="0.57" stop-color="#c1d9dd"/><stop offset="0.71" stop-color="#b6d2d7"/><stop offset="0.82" stop-color="#a7cad0"/></linearGradient></defs><title>HackIllinois_Website</title><g id="Layer_1" data-name="Layer 1"><path class="cls-1" d="M109.73,140.2l-33.4,19.52L31.05,68.89a8.28,8.28,0,0,1,.13-7.61l9-16.57a1.87,1.87,0,0,1,1.65-1h1.91L42.25,56.89Z"/><path class="cls-2" d="M239.06,43.91,219.29,87.54c-1.16,6-9.46,16.73-25.68,29.17C165,138.63,147.12,161.46,50.53,215.56c-10.06,5.63-41,10.75-48.24,11.94-1.84.3-2.44-1-2.26-1.72,1.74-7.15,11-38.54,41.95-55.21C70.81,155,159.18,106.71,196.76,89l18.22-40,19.28-9.65A3.54,3.54,0,0,1,239.06,43.91Z"/><path class="cls-3" d="M296.15,201.09l-1.46,4.1a3.68,3.68,0,0,1-2.35,2.25l-17.55,5.47a7.66,7.66,0,0,1-3.62.24L101,183.78a.73.73,0,0,1-.29-1.32l31.86-22.34a3.72,3.72,0,0,1,3.14-.53l148.84,42.6Z"/><path class="cls-4" d="M11.35,199.61l2.05,3a.62.62,0,0,0,1,0l4.43-6.38a7.19,7.19,0,0,0,.5-7.35h0Z"/><rect class="cls-4" x="83.4" y="177.06" width="4.98" height="8.47" rx="2.24"/><rect class="cls-4" x="94.27" y="169.67" width="4.98" height="8.47" rx="2.24"/><rect class="cls-4" x="105.15" y="162.27" width="4.98" height="8.47" rx="2.24"/><rect class="cls-4" x="116.02" y="154.88" width="4.98" height="8.47" rx="2.24"/><rect class="cls-4" x="126.9" y="147.49" width="4.98" height="8.47" rx="2.24"/><rect class="cls-4" x="136.94" y="141.93" width="4.98" height="8.47" rx="2.24"/><rect class="cls-4" x="146.99" y="136.37" width="4.98" height="8.47" rx="2.24"/><path class="cls-4" d="M16.17,204l2.41-3.41a14.38,14.38,0,0,1,10.43-6l5.83-.54,13-1.3v8.41s-19,5.57-31.34,3.64A.5.5,0,0,1,16.17,204Z"/><path class="cls-5" d="M212.4,58.69,199.68,15.6a11.28,11.28,0,0,1,6.2-13.48L210.6,0l25.92,38.41,53,14.9-5.09,3.55a29.57,29.57,0,0,1-18.83,5.26Z"/></g></svg>