<svg width="164" height="37" viewBox="0 0 164 37" fill="none" xmlns="http://www.w3.org/2000/svg">
<path d="M164 37H0C0 37 0.47648 21.3969 28.1206 19.0996C30.7024 18.8879 33.1745 18.1354 35.2994 16.9143C37.4243 15.6932 39.1306 14.0446 40.2545 12.1267C43.4173 6.73707 50.1127 0 63.9717 0C77.5268 0 84.6905 6.31264 88.297 11.5608C89.5028 13.3489 91.411 14.7495 93.7112 15.5349C96.0114 16.3202 98.5679 16.444 100.965 15.886C112.466 13.1912 132.183 10.1258 146.863 16.5597C163.762 23.9368 164 37 164 37Z" fill="url(#paint0_linear)"/>
<defs>
<linearGradient id="paint0_linear" x1="82" y1="0" x2="82" y2="37" gradientUnits="userSpaceOnUse">
<stop stop-color="#2E824B"/>
<stop offset="1" stop-color="#2D7239"/>
</linearGradient>
</defs>
</svg>
