<svg xmlns="http://www.w3.org/2000/svg" viewBox="0 0 616.52 409.9"><defs><style>.cls-1{fill:#625e89;}.cls-2{fill:#3d3d6b;}.cls-3{fill:#0a093f;}.cls-4{fill:#ee695d;}.cls-5{fill:#b04567;}.cls-6{fill:#9c1641;}.cls-7{fill:#c4738d;}.cls-8{fill:none;}.cls-9{fill:#ec2a39;}.cls-10{fill:#f05561;}.cls-11{fill:#76151d;}.cls-12{fill:#b1202b;}</style></defs><title>HeroType</title><g id="Layer_2" data-name="Layer 2"><g id="Layer_1-2" data-name="Layer 1"><polygon class="cls-1" points="418.22 358.34 388.76 341.22 436.65 313.57 466.11 330.69 418.22 358.34"/><polygon class="cls-2" points="417.93 254.93 418.22 358.34 466.11 330.69 466.18 356.35 393.23 398.48 392.86 269.4 417.93 254.93"/><polygon class="cls-3" points="393.23 398.48 363.77 381.36 363.4 252.28 392.86 269.4 393.23 398.48"/><polygon class="cls-1" points="392.86 269.4 363.4 252.28 388.47 237.81 417.93 254.93 392.86 269.4"/><path class="cls-3" d="M198.8,378.2l-29.46-17.12q6,3.48,15.32-1.91,10.6-6.12,16.77-18.65a62.36,62.36,0,0,0,6.11-28L237,329.6a62.36,62.36,0,0,1-6.11,28q-6.16,12.53-16.77,18.65Q204.79,381.67,198.8,378.2Z"/><polygon class="cls-3" points="237 329.6 207.54 312.48 207.34 241.21 236.8 258.32 237 329.6"/><polygon class="cls-1" points="236.8 258.32 207.34 241.21 232.41 226.73 261.87 243.85 236.8 258.32"/><path class="cls-3" d="M178.93,406.48l-29.46-17.12q-13-7.58-13.11-34.85l29.45,17.12Q165.9,398.9,178.93,406.48Z"/><path class="cls-2" d="M261.87,243.85l.2,72.2q.09,28.07-13.37,50.91t-34.51,35q-21.06,12.15-34.67,4.85t-13.71-35.18l-.2-72.21L190.68,285l.2,71.28q0,15.51,6.34,20.85t16.9-.79q10.6-6.12,16.77-18.65a62.36,62.36,0,0,0,6.11-28l-.2-71.28Z"/><polygon class="cls-3" points="165.81 371.63 136.36 354.51 136.15 282.31 165.61 299.42 165.81 371.63"/><polygon class="cls-1" points="165.61 299.42 136.15 282.31 161.22 267.83 190.68 284.95 165.61 299.42"/><polygon class="cls-1" points="25.98 362.67 55.44 345.56 72.64 355.48 43.18 372.6 25.98 362.67"/><polygon class="cls-2" points="26.07 332.94 55.52 315.82 55.44 345.56 25.98 362.67 26.07 332.94"/><path class="cls-1" d="M43.18,372.6l29.46-17.12q10.76,6.22,16.16,6.28L59.34,378.88Q53.94,378.82,43.18,372.6Z"/><path class="cls-4" d="M91.26,361.17,61.8,378.29a4.74,4.74,0,0,1-2.46.59L88.8,361.76A4.77,4.77,0,0,0,91.26,361.17Z"/><polygon class="cls-1" points="26.13 310.23 55.59 293.11 67.48 299.98 38.02 317.1 26.13 310.23"/><polygon class="cls-2" points="26.21 282.35 55.67 265.23 55.59 293.11 26.13 310.23 26.21 282.35"/><path class="cls-1" d="M85.42,305.85,56,323a4.23,4.23,0,0,1-2.42.5q-5.07-.35-15.52-6.37L67.48,300q10.44,6,15.52,6.37A4.23,4.23,0,0,0,85.42,305.85Z"/><path class="cls-2" d="M111.16,391.11,81.7,408.23c.28-.16.55-.34.82-.52q8.06-5.7,8.1-19.19a51,51,0,0,0-6.13-24L114,347.43a51.05,51.05,0,0,1,6.13,24q0,13.47-8.11,19.18C111.71,390.77,111.44,391,111.16,391.11Z"/><path class="cls-2" d="M67.89,344.14,97.34,327A65.82,65.82,0,0,1,114,347.43L84.49,364.54A66,66,0,0,0,67.89,344.14Z"/><polygon class="cls-1" points="1.21 243.5 30.67 226.38 74.38 251.62 44.92 268.74 1.21 243.5"/><path class="cls-1" d="M107.64,325.35,78.19,342.47q6.28-3.66,6.33-16.66,0-12.56-7.49-26.88A64.39,64.39,0,0,0,64.6,283.24a101.75,101.75,0,0,0-19.68-14.5l29.46-17.12a102,102,0,0,1,19.67,14.5,64.21,64.21,0,0,1,12.44,15.69Q114,296.14,114,308.7,113.94,321.69,107.64,325.35Z"/><path class="cls-3" d="M84.49,364.54a51,51,0,0,1,6.13,24q0,13.49-8.1,19.19Q73.16,414.33,50,401L.85,372.58,1.21,243.5l43.71,25.24a101.75,101.75,0,0,1,19.68,14.5A64.39,64.39,0,0,1,77,298.93q7.52,14.32,7.49,26.88,0,15.15-8.58,17.61a15.91,15.91,0,0,1-4,.92c-.75,0-2.09-.07-4-.2A66,66,0,0,1,84.49,364.54ZM59.34,378.88q5.38.06,5.42-8.89a21.39,21.39,0,0,0-5.68-15.12q-5.69-6.15-18.23-13.39l-14.78-8.54L26,362.67l17.2,9.93q10.76,6.22,16.16,6.28M26.21,282.35l-.08,27.88L38,317.1q10.45,6,15.52,6.37t5.09-8.25q0-8.6-4.62-14.05T38.26,289.31l-12-7"/><polygon class="cls-3" points="310.62 269.4 310.25 398.47 285.18 384 285.55 254.93 310.62 269.4"/><polygon class="cls-2" points="310.62 269.4 340.07 252.28 339.71 381.36 310.25 398.47 310.62 269.4"/><polygon class="cls-1" points="285.55 254.93 315 237.81 340.07 252.28 310.62 269.4 285.55 254.93"/><polygon class="cls-1" points="509.29 362.77 538.75 345.66 554.65 354.84 525.2 371.96 509.29 362.77"/><path class="cls-1" d="M525.2,372l29.45-17.12q17.21,9.93,26.47,5.29l-29.46,17.12Q542.39,381.89,525.2,372Z"/><path d="M581.81,359.76l-29.46,17.12c-.22.13-.45.25-.69.37l29.46-17.12C581.35,360,581.58,359.89,581.81,359.76Z"/><polygon class="cls-2" points="509.51 284.3 538.97 267.18 538.75 345.66 509.29 362.77 509.51 284.3"/><polygon class="cls-1" points="484.51 244.71 513.97 227.59 553.66 250.51 524.21 267.63 484.51 244.71"/><path class="cls-1" d="M524.21,267.63l29.45-17.12q30.06,17.36,46.08,43.52l-29.46,17.12Q554.26,285,524.21,267.63Z"/><path class="cls-3" d="M570.28,311.15a105.39,105.39,0,0,1,15.94,56.28q-.09,30.09-15.81,38.59T522.56,396l-38.41-22.17.36-129.08,39.7,22.92Q554.26,285,570.28,311.15Zm-18.62,66.1q9.27-4.63,9.33-23.65A66.44,66.44,0,0,0,551.83,319q-9.21-15.58-28.34-26.62l-14-8.07-.22,78.47L525.2,372q17.19,9.93,26.46,5.29"/><path class="cls-1" d="M600.52,388.54l-29.46,17.12q15.08-8.76,15.16-38.23a105.39,105.39,0,0,0-15.94-56.28L599.74,294a105.3,105.3,0,0,1,15.93,56.28Q615.6,379.79,600.52,388.54Z"/><rect class="cls-5" x="379.53" y="124.18" width="63" height="17.28"/><rect class="cls-5" x="379.53" y="194.65" width="64.12" height="17.28"/><rect class="cls-6" x="379.53" y="160.09" width="58.54" height="17.28"/><path class="cls-6" d="M28.47,147.28a26.75,26.75,0,0,1,18.77-7.17q13.71,0,22.94,11.47l12.1-13.71Q67.8,121.54,46.37,121.53q-19.21,0-32.49,13T.61,166.61H20.68Q20.68,154.45,28.47,147.28Z"/><polygon class="cls-5" points="205.85 125.03 187.65 125.03 187.65 212.19 207.1 212.19 207.1 157.57 207.21 157.72 206.12 125.38 205.85 125.03"/><polygon class="cls-6" points="206.12 125.38 207.21 157.72 248.62 212.19 248.66 212.19 248.39 180.83 206.12 125.38"/><polygon class="cls-7" points="268.07 125.03 248.62 125.03 248.62 181.14 248.39 180.83 248.66 212.19 268.07 212.19 268.07 125.03"/><polygon class="cls-6" points="302.14 125.03 283.93 125.03 283.93 212.19 303.39 212.19 303.39 157.57 303.5 157.72 302.41 125.38 302.14 125.03"/><polygon class="cls-7" points="302.41 125.38 303.5 157.72 344.91 212.19 344.95 212.19 344.68 180.83 302.41 125.38"/><polygon class="cls-5" points="364.36 125.03 344.91 125.03 344.91 181.14 344.68 180.83 344.95 212.19 364.36 212.19 364.36 125.03"/><rect class="cls-7" x="344.68" y="159.81" width="86.97" height="17.28" transform="translate(219.72 556.62) rotate(-90)"/><path class="cls-5" d="M45.87,193.48A24.24,24.24,0,0,1,28,186.12q-7.37-7.35-7.36-19.51H.61c0,.08,0,.16,0,.25q0,19.38,13,32.1T46.8,211.68q20.14,0,35-16.71L69.31,182.13A28.69,28.69,0,0,1,45.87,193.48Z"/><path class="cls-5" d="M480.62,147.45a26.75,26.75,0,0,1,18.77-7.17q13.71,0,22.94,11.47L534.43,138Q520,121.71,498.52,121.7q-19.22,0-32.49,13t-13.27,32.11h20.07Q472.83,154.61,480.62,147.45Z"/><path class="cls-7" d="M498,193.65a24.24,24.24,0,0,1-17.83-7.36q-7.37-7.35-7.36-19.51H452.76c0,.08,0,.16,0,.25q0,19.38,13,32.11T499,211.85q20.15,0,35-16.7L521.46,182.3A28.69,28.69,0,0,1,498,193.65Z"/><rect class="cls-5" x="546.79" y="124.96" width="69.13" height="17.28"/><rect class="cls-6" x="537.03" y="159.81" width="86.97" height="17.28" transform="translate(412.06 748.97) rotate(-90)"/><path class="cls-8" d="M107.85,166.22v.06a28.27,28.27,0,0,0,7.48,19.83,24,24,0,0,0,18.33,8.17V166.22Z"/><path class="cls-8" d="M133.66,194.28h.06a24,24,0,0,0,18.4-8.17,28.32,28.32,0,0,0,7.48-19.83v-.06H133.66Z"/><path class="cls-8" d="M133.72,138.17h-.06v28.05H159.6a28.55,28.55,0,0,0-7.48-19.82A23.89,23.89,0,0,0,133.72,138.17Z"/><path class="cls-8" d="M133.66,138.17a23.84,23.84,0,0,0-18.33,8.23,28.55,28.55,0,0,0-7.48,19.82h25.81Z"/><path class="cls-5" d="M115.33,186.11a28.27,28.27,0,0,1-7.48-19.83v-.06H87.9q0,19.2,13.22,32.11t32.54,12.9V194.28A24,24,0,0,1,115.33,186.11Z"/><path class="cls-7" d="M159.6,166.22v.06a28.32,28.32,0,0,1-7.48,19.83,24,24,0,0,1-18.4,8.17h-.06v16.95q19.34,0,32.55-12.9t13.21-32.11Z"/><path class="cls-6" d="M133.72,138.17a23.89,23.89,0,0,1,18.4,8.23,28.55,28.55,0,0,1,7.48,19.82h19.82q0-19.2-13.21-32.11t-32.55-12.9v17Z"/><path class="cls-7" d="M115.33,146.4a23.84,23.84,0,0,1,18.33-8.23v-17q-19.32,0-32.54,12.9T87.9,166.22h19.95A28.55,28.55,0,0,1,115.33,146.4Z"/><path class="cls-9" d="M71.35,71.23V90.65H0V1.78H69.7V21.2H24.88v15H64.37V55H24.88V71.23Z"/><path class="cls-9" d="M140.67,90.65,122.26,63.1,104.11,90.65H75.41l32.38-44.94-31-43.93h28.31L122.9,27.42,140.42,1.78h27.17l-31,42.91,33,46Z"/><path class="cls-9" d="M237,5.78A31.06,31.06,0,0,1,250.75,17.2a31.4,31.4,0,0,1,4.82,17.46,31,31,0,0,1-4.82,17.39A31.3,31.3,0,0,1,237,63.42q-8.89,4-20.95,4H200.6V90.65H175.46V1.78h40.63Q228.15,1.78,237,5.78Zm-10.8,38.47q3.94-3.37,3.94-9.59T226.24,25q-3.93-3.42-11.68-3.43h-14v26h14Q222.32,47.61,226.24,44.25Z"/><path class="cls-9" d="M267.76,1.78H292.9V70.72h42.4V90.65H267.76Z"/><path class="cls-9" d="M363.3,86.46a44.46,44.46,0,0,1-24.06-40.25A44.46,44.46,0,0,1,363.3,6,56.72,56.72,0,0,1,414,6,44.51,44.51,0,0,1,438,46.21,44.51,44.51,0,0,1,414,86.46a56.72,56.72,0,0,1-50.66,0Zm37.52-18a22.88,22.88,0,0,0,8.63-9,27.15,27.15,0,0,0,3.17-13.27A27.14,27.14,0,0,0,409.45,33a22.88,22.88,0,0,0-8.63-9,25,25,0,0,0-24.38,0,22.74,22.74,0,0,0-8.63,9,27,27,0,0,0-3.18,13.26,27,27,0,0,0,3.18,13.27,22.74,22.74,0,0,0,8.63,9,25,25,0,0,0,24.38,0Z"/><path class="cls-10" d="M370.67,74.75a31.55,31.55,0,0,1-17.05-28.54,31.52,31.52,0,0,1,17.05-28.53,40.22,40.22,0,0,1,35.91,0,31.5,31.5,0,0,1,17.06,28.53,31.53,31.53,0,0,1-17.06,28.54,40.22,40.22,0,0,1-35.91,0Z"/><path class="cls-9" d="M490.07,67H476.36V90.65H451.22V1.78h40.63q12.06,0,20.95,4A31.06,31.06,0,0,1,526.51,17.2a31.4,31.4,0,0,1,4.82,17.46,31,31,0,0,1-4.5,16.82,30.53,30.53,0,0,1-12.89,11.24l19.17,27.93H506.19ZM502,25q-3.93-3.42-11.68-3.43h-14v26h14q7.76,0,11.68-3.36t3.94-9.59Q505.94,28.44,502,25Z"/><path class="cls-9" d="M616.52,71.23V90.65H545.17V1.78h69.7V21.2H570.05v15h39.49V55H570.05V71.23Z"/><polygon class="cls-11" points="390.75 43.48 402 23.68 382.45 40.15 390.75 43.48"/><polygon class="cls-12" points="402 23.68 390.75 43.48 397.99 48.84 402 23.68"/><polygon class="cls-11" points="386.51 50.15 375.26 69.95 394.8 53.49 386.51 50.15"/><polygon class="cls-12" points="375.26 69.95 386.51 50.15 379.27 44.79 375.26 69.95"/><circle class="cls-9" cx="388.52" cy="46.76" r="9.7"/></g></g></svg>