<svg width="932" height="117" viewBox="0 0 932 117" fill="none" xmlns="http://www.w3.org/2000/svg">
<path d="M0 0H932V117H0V0Z" fill="#5F9979"/>
<path d="M0 0H932V15H0V0Z" fill="#A8CBB7"/>
<rect x="332" y="22" width="12" height="95" fill="#285163"/>
<rect x="272" y="22" width="12" height="95" fill="#285163"/>
<rect x="212" y="22" width="12" height="95" fill="#285163"/>
<rect x="152" y="22" width="12" height="95" fill="#285163"/>
<rect x="92" y="22" width="12" height="95" fill="#285163"/>
<rect x="32" y="22" width="12" height="95" fill="#285163"/>
<rect x="392" y="22" width="12" height="95" fill="#285163"/>
<rect x="452" y="22" width="12" height="95" fill="#285163"/>
<rect x="572" y="22" width="12" height="95" fill="#285163"/>
<rect x="512" y="22" width="12" height="95" fill="#285163"/>
<rect x="692" y="22" width="12" height="95" fill="#285163"/>
<rect x="632" y="22" width="12" height="95" fill="#285163"/>
<rect x="812" y="22" width="12" height="95" fill="#285163"/>
<rect x="752" y="22" width="12" height="95" fill="#285163"/>
<rect x="872" y="22" width="12" height="95" fill="#285163"/>
</svg>
