<svg width="375" height="189" viewBox="0 0 375 189" fill="none" xmlns="http://www.w3.org/2000/svg">
<path d="M258.115 188.254C258.115 188.254 227.607 191.455 239.883 162.998C239.883 162.998 222.866 149.484 246.71 132.858C248.716 131.481 250.569 129.898 252.24 128.137C258.706 121.271 282.057 119.247 307.175 132.501C311.456 134.76 317.807 128.714 322.638 128.438C331.939 127.869 343.409 130.494 346.802 143.804C347.222 145.47 348.898 146.437 350.303 145.429C355.602 141.569 366.144 133.143 381.895 139.497C391.426 143.341 396.569 148.972 398.804 154.181C399.169 155.035 399.749 155.783 400.487 156.355C401.225 156.927 402.098 157.304 403.024 157.45C403.95 157.596 404.898 157.507 405.78 157.191C406.662 156.875 407.448 156.343 408.064 155.644C411.523 151.654 415.245 148.818 420.75 147.827C433.329 145.543 442.113 149.102 448.858 156.83C449.976 158.106 453.229 160.487 454.938 160.601C462.596 161.137 483.268 163.851 483.967 177.373V188.749L258.115 188.254Z" fill="url(#paint0_linear)"/>
<path d="M94 169.75H-70C-70 169.75 -69.5235 150.773 -41.8794 147.979C-39.2976 147.722 -36.8255 146.807 -34.7006 145.321C-32.5757 143.836 -30.8694 141.831 -29.7455 139.499C-26.5827 132.944 -19.8873 124.75 -6.02825 124.75C7.52682 124.75 14.6905 132.428 18.297 138.81C19.5028 140.985 21.411 142.689 23.7112 143.644C26.0114 144.599 28.5679 144.749 30.9648 144.071C42.4661 140.793 62.1825 137.065 76.8631 144.89C93.7618 153.862 94 169.75 94 169.75Z" fill="url(#paint1_linear)"/>
<path d="M15 169.75H179C179 169.75 178.524 150.773 150.879 147.979C148.295 147.725 145.819 146.811 143.691 145.325C141.563 143.84 139.854 141.833 138.729 139.499C135.583 132.944 128.871 124.75 115.028 124.75C101.473 124.75 94.3095 132.428 90.703 138.81C89.4972 140.985 87.589 142.689 85.2888 143.644C82.9886 144.599 80.4321 144.749 78.0352 144.071C66.5339 140.793 46.8175 137.065 32.1369 144.89C15.2382 153.862 15 169.75 15 169.75Z" fill="url(#paint2_linear)"/>
<path d="M64.1473 85.6081C63.8923 84.6318 63.7102 83.638 63.6026 82.6349C63.5531 82.1325 63.4871 81.6301 63.4128 81.1277C61.6879 69.3996 55.0276 62.0449 46.3701 60.4553C44.7773 60.1671 43.1762 59.8459 41.6081 59.4423C39.8658 58.9956 38.0754 58.7633 36.2766 58.7505C19.7209 58.6434 6.17756 77.0426 6.02901 99.8481C6.02901 100.886 6.02901 101.907 6.09503 102.912C6.13221 103.491 6.13221 104.071 6.09503 104.65C5.89748 107.593 6.00812 110.55 6.42516 113.47C7.45679 120.471 10.2463 125.915 14.1666 129.514C15.5531 130.774 16.9231 132.059 18.2436 133.393C23.1459 138.335 29.1954 141.3 35.7567 141.341C52.3124 141.456 65.8557 123.049 66.0042 100.243C66.0427 95.3041 65.4181 90.3819 64.1473 85.6081Z" fill="#55895A"/>
<path d="M36.3425 96.0508L35.8721 167.169" stroke="#0A093F" stroke-width="3.84" stroke-miterlimit="10" stroke-linecap="round"/>
<path d="M29.0962 106.676C29.0962 106.676 34.7083 110.728 36.9201 109.715C39.132 108.702 43.5226 102.747 43.5226 102.747" stroke="#0A093F" stroke-width="2.56" stroke-miterlimit="10" stroke-linecap="round"/>
<path d="M25.8691 119.985C25.8691 119.985 33.6436 125.116 36.821 123.658C39.9984 122.201 46.5431 113.19 46.5431 113.19" stroke="#0A093F" stroke-width="2.56" stroke-miterlimit="10" stroke-linecap="round"/>
<path d="M397.68 57.8702C397.272 57.1842 397.1 56.3833 397.19 55.5902C397.334 54.352 397.407 53.1067 397.41 51.8602C397.413 47.6742 396.591 43.5287 394.99 39.6609C393.389 35.7932 391.041 32.2792 388.08 29.3202C387.656 28.8916 387.344 28.3661 387.169 27.7892C386.995 27.2124 386.964 26.6017 387.08 26.0102C387.636 23.013 387.562 19.9329 386.865 16.9655C386.167 13.9981 384.86 11.208 383.028 8.77224C381.195 6.33648 378.876 4.30818 376.218 2.81601C373.559 1.32384 370.62 0.400353 367.586 0.104126C364.552 -0.192101 361.49 0.145396 358.594 1.09521C355.697 2.04503 353.029 3.58643 350.76 5.62166C348.491 7.65689 346.669 10.1415 345.411 12.918C344.152 15.6944 343.484 18.7021 343.45 21.7502C343.449 23.1702 343.586 24.5869 343.86 25.9802C343.977 26.5716 343.947 27.1828 343.773 27.76C343.598 28.3371 343.285 28.8626 342.86 29.2902C339.899 32.2541 337.552 35.7736 335.954 39.6468C334.356 43.5199 333.539 47.6705 333.55 51.8602C333.553 53.1067 333.626 54.352 333.77 55.5902C333.865 56.3791 333.696 57.1772 333.29 57.8602C329.899 63.5496 328.076 70.0359 328.007 76.6588C327.938 83.2818 329.625 89.8047 332.897 95.5635C336.168 101.322 340.908 106.111 346.632 109.443C352.357 112.774 358.862 114.53 365.485 114.53C372.108 114.53 378.613 112.774 384.338 109.443C390.062 106.111 394.801 101.322 398.073 95.5635C401.345 89.8047 403.032 83.2818 402.963 76.6588C402.894 70.0359 401.071 63.5496 397.68 57.8602V57.8702Z" fill="#55895A"/>
<path d="M365.99 167.109V53.2891" stroke="#0A093F" stroke-width="3" stroke-miterlimit="10" stroke-linecap="round"/>
<defs>
<linearGradient id="paint0_linear" x1="359.899" y1="114.908" x2="358.252" y2="217.679" gradientUnits="userSpaceOnUse">
<stop offset="0.03" stop-color="#007A37"/>
<stop offset="0.22" stop-color="#248046"/>
<stop offset="0.41" stop-color="#3F8551"/>
<stop offset="0.57" stop-color="#4F8858"/>
<stop offset="0.7" stop-color="#55895A"/>
</linearGradient>
<linearGradient id="paint1_linear" x1="13.7868" y1="89.7464" x2="10.8121" y2="223.673" gradientUnits="userSpaceOnUse">
<stop offset="0.03" stop-color="#007A37"/>
<stop offset="0.22" stop-color="#248046"/>
<stop offset="0.41" stop-color="#3F8551"/>
<stop offset="0.57" stop-color="#4F8858"/>
<stop offset="0.7" stop-color="#55895A"/>
</linearGradient>
<linearGradient id="paint2_linear" x1="87.9263" y1="79.1764" x2="102.719" y2="227.483" gradientUnits="userSpaceOnUse">
<stop offset="0.03" stop-color="#007A37"/>
<stop offset="0.22" stop-color="#248046"/>
<stop offset="0.41" stop-color="#3F8551"/>
<stop offset="0.57" stop-color="#4F8858"/>
<stop offset="0.7" stop-color="#55895A"/>
</linearGradient>
</defs>
</svg>
