<svg width="1688" height="225" viewBox="0 0 1688 225" fill="none" xmlns="http://www.w3.org/2000/svg">
<path d="M391 154H227C227 154 227.476 138.397 255.121 136.1C257.702 135.888 260.174 135.135 262.299 133.914C264.424 132.693 266.131 131.045 267.254 129.127C270.417 123.737 277.113 117 290.972 117C304.527 117 311.69 123.313 315.297 128.561C316.503 130.349 318.411 131.75 320.711 132.535C323.011 133.32 325.568 133.444 327.965 132.886C339.466 130.191 359.183 127.126 373.863 133.56C390.762 140.937 391 154 391 154Z" fill="url(#paint0_linear)"/>
<path d="M538.065 88.1484C537.683 87.5065 537.523 86.7571 537.607 86.015C537.742 84.8565 537.81 83.6912 537.813 82.5249C537.816 78.6081 537.048 74.7292 535.553 71.1102C534.058 67.4912 531.865 64.2032 529.1 61.4345C528.704 61.0335 528.412 60.5417 528.25 60.002C528.087 59.4622 528.058 58.8908 528.166 58.3374C528.685 55.5329 528.617 52.651 527.965 49.8744C527.314 47.0978 526.094 44.4872 524.382 42.2081C522.67 39.929 520.505 38.0311 518.023 36.6349C515.54 35.2387 512.796 34.3746 509.962 34.0974C507.129 33.8203 504.27 34.136 501.565 35.0248C498.86 35.9135 496.369 37.3558 494.249 39.2601C492.13 41.1644 490.429 43.4893 489.254 46.0872C488.079 48.6851 487.455 51.4993 487.423 54.3514C487.422 55.68 487.55 57.0056 487.806 58.3093C487.915 58.8627 487.887 59.4346 487.725 59.9746C487.562 60.5147 487.269 61.0064 486.872 61.4065C484.107 64.1797 481.915 67.4729 480.423 71.0969C478.931 74.721 478.168 78.6046 478.178 82.5249C478.181 83.6912 478.249 84.8565 478.384 86.015C478.472 86.7532 478.315 87.5 477.935 88.139C474.769 93.4625 473.066 99.5316 473.002 105.729C472.937 111.926 474.513 118.029 477.568 123.417C480.623 128.806 485.049 133.287 490.395 136.404C495.74 139.522 501.815 141.164 508 141.164C514.185 141.164 520.26 139.522 525.605 136.404C530.951 133.287 535.377 128.806 538.432 123.417C541.487 118.029 543.063 111.926 542.998 105.729C542.934 99.5316 541.231 93.4625 538.065 88.139V88.1484Z" fill="#55895A"/>
<path d="M508.472 190.363V83.8633" stroke="#0A093F" stroke-width="3" stroke-miterlimit="10" stroke-linecap="round"/>
<path d="M1538.68 57.8702C1538.27 57.1842 1538.1 56.3833 1538.19 55.5902C1538.33 54.352 1538.41 53.1067 1538.41 51.8602C1538.41 47.6742 1537.59 43.5287 1535.99 39.6609C1534.39 35.7932 1532.04 32.2792 1529.08 29.3202C1528.66 28.8916 1528.34 28.3661 1528.17 27.7892C1528 27.2124 1527.96 26.6017 1528.08 26.0102C1528.64 23.013 1528.56 19.9329 1527.86 16.9655C1527.17 13.9981 1525.86 11.208 1524.03 8.77224C1522.19 6.33648 1519.88 4.30818 1517.22 2.81601C1514.56 1.32384 1511.62 0.400353 1508.59 0.104126C1505.55 -0.192101 1502.49 0.145396 1499.59 1.09521C1496.7 2.04503 1494.03 3.58643 1491.76 5.62166C1489.49 7.65689 1487.67 10.1415 1486.41 12.918C1485.15 15.6944 1484.48 18.7021 1484.45 21.7502C1484.45 23.1702 1484.59 24.5869 1484.86 25.9802C1484.98 26.5716 1484.95 27.1828 1484.77 27.76C1484.6 28.3371 1484.28 28.8626 1483.86 29.2902C1480.9 32.2541 1478.55 35.7736 1476.95 39.6468C1475.36 43.5199 1474.54 47.6705 1474.55 51.8602C1474.55 53.1067 1474.63 54.352 1474.77 55.5902C1474.86 56.3791 1474.7 57.1772 1474.29 57.8602C1470.9 63.5496 1469.08 70.0359 1469.01 76.6588C1468.94 83.2818 1470.63 89.8047 1473.9 95.5635C1477.17 101.322 1481.91 106.111 1487.63 109.443C1493.36 112.774 1499.86 114.53 1506.48 114.53C1513.11 114.53 1519.61 112.774 1525.34 109.443C1531.06 106.111 1535.8 101.322 1539.07 95.5635C1542.34 89.8047 1544.03 83.2818 1543.96 76.6588C1543.89 70.0359 1542.07 63.5496 1538.68 57.8602V57.8702Z" fill="#55895A"/>
<path d="M1506.99 167.109V53.2891" stroke="#0A093F" stroke-width="3" stroke-miterlimit="10" stroke-linecap="round"/>
<path d="M497.461 93.4068L508.509 103.241L519.668 93.1074" stroke="#0A093F" stroke-width="3" stroke-miterlimit="10" stroke-linecap="round"/>
<path d="M491.98 104.298L508.49 118.97L525.15 103.84" stroke="#0A093F" stroke-width="3" stroke-miterlimit="10" stroke-linecap="round"/>
<path d="M1394.11 188.254C1394.11 188.254 1363.61 191.455 1375.88 162.998C1375.88 162.998 1358.87 149.484 1382.71 132.858C1384.72 131.481 1386.57 129.898 1388.24 128.137C1394.71 121.271 1418.06 119.247 1443.17 132.501C1447.46 134.76 1453.81 128.714 1458.64 128.438C1467.94 127.869 1479.41 130.494 1482.8 143.804C1483.22 145.47 1484.9 146.437 1486.3 145.429C1491.6 141.569 1502.14 133.143 1517.89 139.497C1527.43 143.341 1532.57 148.972 1534.8 154.181C1535.17 155.035 1535.75 155.783 1536.49 156.355C1537.23 156.927 1538.1 157.304 1539.02 157.45C1539.95 157.596 1540.9 157.507 1541.78 157.191C1542.66 156.875 1543.45 156.343 1544.06 155.644C1547.52 151.654 1551.24 148.818 1556.75 147.827C1569.33 145.543 1578.11 149.102 1584.86 156.83C1585.98 158.106 1589.23 160.487 1590.94 160.601C1598.6 161.137 1619.27 163.851 1619.97 177.373V188.749L1394.11 188.254Z" fill="url(#paint1_linear)"/>
<path d="M448.895 205.264C448.895 205.264 479.403 208.512 467.127 179.641C467.127 179.641 482.501 157.686 458.648 140.818C456.645 139.421 454.794 137.815 453.126 136.028C446.66 129.062 426.331 112.466 398.181 140.431C396.484 142.128 394.449 143.446 392.208 144.298C389.968 145.151 387.574 145.519 385.182 145.377C375.889 144.8 361.189 146.136 360.203 160.143C360.177 160.538 360.045 160.919 359.823 161.246C359.6 161.573 359.294 161.834 358.937 162.002C358.58 162.17 358.184 162.24 357.791 162.203C357.398 162.166 357.023 162.024 356.703 161.792C351.378 157.9 340.861 149.351 325.077 155.798C315.545 159.698 310.401 168.709 308.166 173.993C307.801 174.86 307.222 175.619 306.484 176.199C305.745 176.779 304.872 177.161 303.946 177.31C303.02 177.458 302.072 177.368 301.19 177.047C300.308 176.727 299.523 176.186 298.906 175.477C295.447 171.429 290.903 167.728 285.398 166.714C272.818 164.405 263.262 167.192 256.467 175.057C255.334 176.343 253.738 177.126 252.03 177.233C244.364 177.753 223.698 180.473 223 194.225V205.767L448.895 205.264Z" fill="url(#paint2_linear)"/>
<path d="M1688 187H0V225H1688V187Z" fill="#A7CAD0"/>
<path d="M436.001 187.016C436.001 187.016 435.692 174.8 444.88 171.014C451.128 168.436 456.075 169.715 460.979 171.742C462.342 172.329 463.869 172.376 465.264 171.875C466.659 171.374 467.822 170.361 468.527 169.031C471.623 163.497 481.691 154.024 495.152 155.1C508.446 156.145 518.353 164.079 521.938 168.24C522.896 169.392 524.164 170.231 525.583 170.654C527.003 171.077 528.512 171.066 529.926 170.621C533.387 169.519 538.198 168.765 542.836 170.653C552.575 174.61 551.993 187.016 551.993 187.016H436.001Z" fill="url(#paint3_linear)"/>
<path d="M1439.15 102.608C1438.89 101.632 1438.71 100.638 1438.6 99.6349C1438.55 99.1325 1438.49 98.6301 1438.41 98.1277C1436.69 86.3996 1430.03 79.0449 1421.37 77.4553C1419.78 77.1671 1418.18 76.8459 1416.61 76.4423C1414.87 75.9956 1413.08 75.7633 1411.28 75.7505C1394.72 75.6434 1381.18 94.0426 1381.03 116.848C1381.03 117.886 1381.03 118.907 1381.1 119.912C1381.13 120.491 1381.13 121.071 1381.1 121.65C1380.9 124.593 1381.01 127.55 1381.43 130.47C1382.46 137.471 1385.25 142.915 1389.17 146.514C1390.55 147.774 1391.92 149.059 1393.24 150.393C1398.15 155.335 1404.2 158.3 1410.76 158.341C1427.31 158.456 1440.86 140.049 1441 117.243C1441.04 112.304 1440.42 107.382 1439.15 102.608Z" fill="#55895A"/>
<path d="M1411.34 113.051L1410.87 184.169" stroke="#0A093F" stroke-width="3.84" stroke-miterlimit="10" stroke-linecap="round"/>
<path d="M1404.1 123.676C1404.1 123.676 1409.71 127.728 1411.92 126.715C1414.13 125.702 1418.52 119.747 1418.52 119.747" stroke="#0A093F" stroke-width="2.56" stroke-miterlimit="10" stroke-linecap="round"/>
<path d="M1400.87 136.985C1400.87 136.985 1408.64 142.116 1411.82 140.658C1415 139.201 1421.54 130.19 1421.54 130.19" stroke="#0A093F" stroke-width="2.56" stroke-miterlimit="10" stroke-linecap="round"/>
<path d="M712 186.986C712 186.986 711.589 170.959 723.788 165.99C732.082 162.609 738.651 164.287 745.161 166.946C746.97 167.716 748.998 167.778 750.85 167.121C752.702 166.464 754.246 165.134 755.182 163.39C759.292 156.128 772.658 143.698 790.529 145.111C808.178 146.482 821.331 156.892 826.09 162.351C827.363 163.862 829.045 164.963 830.93 165.519C832.814 166.074 834.818 166.059 836.695 165.475C841.29 164.029 847.677 163.041 853.834 165.517C866.765 170.71 865.992 186.986 865.992 186.986H712Z" fill="url(#paint4_linear)"/>
<path d="M826.162 186.986H906C906 186.986 901.333 160.89 877.978 166.949C874.551 167.758 871.438 169.578 869.036 172.178C867.825 173.486 865.922 172.951 865.329 171.101C863.703 166.168 859.037 159.673 845.185 159.994C822.935 160.52 826.162 186.986 826.162 186.986Z" fill="url(#paint5_linear)"/>
<path d="M1104.84 186.968H1027C1027 186.968 1031.55 161.812 1054.33 167.671C1057.67 168.451 1060.71 170.205 1063.06 172.71C1064.24 173.968 1066.1 173.457 1066.67 171.68C1068.21 166.949 1072.81 160.7 1086.3 161.001C1107.98 161.52 1104.84 186.968 1104.84 186.968Z" fill="url(#paint6_linear)"/>
<path d="M1230 187H1066C1066 187 1066.48 168.023 1094.12 165.229C1096.7 164.972 1099.17 164.057 1101.3 162.571C1103.42 161.086 1105.13 159.081 1106.25 156.749C1109.42 150.194 1116.11 142 1129.97 142C1143.53 142 1150.69 149.678 1154.3 156.06C1155.5 158.235 1157.41 159.939 1159.71 160.894C1162.01 161.849 1164.57 161.999 1166.96 161.321C1178.47 158.043 1198.18 154.315 1212.86 162.14C1229.76 171.112 1230 187 1230 187Z" fill="url(#paint7_linear)"/>
<path d="M1151 187H1315C1315 187 1314.52 168.023 1286.88 165.229C1284.29 164.975 1281.82 164.061 1279.69 162.575C1277.56 161.09 1275.85 159.083 1274.73 156.749C1271.58 150.194 1264.87 142 1251.03 142C1237.47 142 1230.31 149.678 1226.7 156.06C1225.5 158.235 1223.59 159.939 1221.29 160.894C1218.99 161.849 1216.43 161.999 1214.04 161.321C1202.53 158.043 1182.82 154.315 1168.14 162.14C1151.24 171.112 1151 187 1151 187Z" fill="url(#paint8_linear)"/>
<path d="M479 134H483.732C483.899 134 484.064 134.033 484.218 134.098C484.372 134.163 484.512 134.259 484.63 134.379C484.747 134.5 484.841 134.643 484.904 134.801C484.968 134.959 485.001 135.128 485 135.298V149" stroke="#132E39" stroke-width="5" stroke-miterlimit="10" stroke-linecap="round"/>
<path d="M427.664 205.589H384.02V180.03H430.971L427.664 205.589Z" fill="#08072F"/>
<path d="M274.507 205.589H230.864V180.03H277.814C277.814 180.03 274.515 205.589 274.507 205.589Z" fill="#08072F"/>
<path d="M406.859 220.1C397.77 220.1 390.401 212.753 390.401 203.69C390.401 194.627 397.77 187.28 406.859 187.28C415.949 187.28 423.317 194.627 423.317 203.69C423.317 212.753 415.949 220.1 406.859 220.1Z" fill="#0A093F"/>
<path d="M406.859 215.051C400.566 215.051 395.464 209.964 395.464 203.689C395.464 197.415 400.566 192.328 406.859 192.328C413.152 192.328 418.254 197.415 418.254 203.689C418.254 209.964 413.152 215.051 406.859 215.051Z" stroke="#646489" stroke-width="3" stroke-miterlimit="10"/>
<path d="M411.804 206.18L415.605 211.402L411.509 214.37L407.708 209.148C407.611 209.015 407.483 208.906 407.336 208.831C407.189 208.757 407.026 208.718 406.86 208.718C406.695 208.718 406.532 208.757 406.385 208.831C406.237 208.906 406.11 209.015 406.013 209.148L402.212 214.37L398.113 211.402L401.914 206.18C402.012 206.047 402.076 205.892 402.102 205.73C402.128 205.567 402.115 205.4 402.063 205.243C402.012 205.086 401.925 204.944 401.808 204.827C401.691 204.711 401.548 204.623 401.391 204.572L395.238 202.58L396.793 197.776L402.945 199.768C403.103 199.821 403.27 199.835 403.434 199.81C403.599 199.785 403.754 199.721 403.889 199.624C404.024 199.527 404.133 199.4 404.209 199.253C404.284 199.105 404.323 198.942 404.323 198.776V192.326H409.392V198.776C409.392 198.942 409.431 199.105 409.507 199.253C409.582 199.4 409.692 199.527 409.826 199.624C409.961 199.721 410.117 199.785 410.281 199.81C410.445 199.835 410.613 199.821 410.77 199.768L416.914 197.776L418.48 202.58L412.33 204.572C412.173 204.624 412.03 204.711 411.913 204.827C411.796 204.944 411.709 205.086 411.658 205.243C411.606 205.4 411.593 205.566 411.618 205.729C411.644 205.892 411.707 206.046 411.804 206.18ZM409.392 203.69C409.393 203.191 409.245 202.702 408.967 202.286C408.689 201.871 408.293 201.546 407.83 201.355C407.368 201.163 406.858 201.113 406.367 201.21C405.875 201.307 405.423 201.548 405.069 201.901C404.714 202.254 404.473 202.704 404.375 203.194C404.277 203.684 404.327 204.192 404.519 204.653C404.71 205.115 405.035 205.51 405.451 205.787C405.868 206.065 406.358 206.213 406.859 206.213C407.192 206.214 407.521 206.149 407.828 206.022C408.135 205.895 408.415 205.71 408.65 205.475C408.885 205.241 409.072 204.963 409.199 204.656C409.327 204.35 409.392 204.022 409.392 203.69Z" fill="#646489"/>
<path d="M253.661 220.1C244.572 220.1 237.203 212.753 237.203 203.69C237.203 194.627 244.572 187.28 253.661 187.28C262.751 187.28 270.119 194.627 270.119 203.69C270.119 212.753 262.751 220.1 253.661 220.1Z" fill="#0A093F"/>
<path d="M253.661 215.051C247.368 215.051 242.266 209.964 242.266 203.689C242.266 197.415 247.368 192.328 253.661 192.328C259.954 192.328 265.056 197.415 265.056 203.689C265.056 209.964 259.954 215.051 253.661 215.051Z" stroke="#646489" stroke-width="3" stroke-miterlimit="10"/>
<path d="M258.609 206.18L262.41 211.402L258.311 214.37L254.51 209.148C254.413 209.015 254.285 208.906 254.138 208.831C253.991 208.757 253.828 208.718 253.662 208.718C253.497 208.718 253.334 208.757 253.187 208.831C253.039 208.906 252.912 209.015 252.815 209.148L249.014 214.37L244.921 211.396L248.722 206.175C248.819 206.041 248.883 205.887 248.909 205.724C248.935 205.561 248.922 205.395 248.871 205.238C248.82 205.081 248.732 204.938 248.615 204.822C248.498 204.705 248.355 204.618 248.198 204.567L242.049 202.574L243.614 197.77L249.764 199.763C249.921 199.815 250.089 199.829 250.253 199.804C250.417 199.779 250.573 199.716 250.707 199.619C250.842 199.522 250.952 199.394 251.027 199.247C251.103 199.1 251.142 198.936 251.142 198.771V192.326H256.194V198.776C256.194 198.942 256.233 199.105 256.309 199.253C256.384 199.4 256.494 199.527 256.628 199.624C256.763 199.721 256.919 199.785 257.083 199.81C257.247 199.835 257.415 199.821 257.572 199.768L263.722 197.776L265.287 202.58L259.138 204.572C258.98 204.623 258.836 204.71 258.719 204.826C258.601 204.942 258.513 205.085 258.461 205.242C258.41 205.398 258.396 205.565 258.422 205.729C258.447 205.892 258.511 206.046 258.609 206.18ZM256.194 203.69C256.195 203.191 256.047 202.702 255.769 202.286C255.491 201.871 255.095 201.546 254.632 201.355C254.169 201.163 253.66 201.113 253.169 201.21C252.677 201.307 252.225 201.548 251.871 201.901C251.516 202.254 251.275 202.704 251.177 203.194C251.079 203.684 251.129 204.192 251.321 204.653C251.512 205.115 251.837 205.51 252.253 205.787C252.67 206.065 253.16 206.213 253.661 206.213C253.994 206.214 254.323 206.149 254.63 206.022C254.937 205.895 255.217 205.71 255.452 205.475C255.687 205.241 255.874 204.963 256.001 204.656C256.129 204.35 256.194 204.022 256.194 203.69Z" fill="#646489"/>
<path d="M475.778 121H176.214C175.661 121 175.113 121.109 174.601 121.32C174.09 121.531 173.625 121.841 173.233 122.232C172.842 122.622 172.532 123.086 172.32 123.596C172.108 124.106 172 124.653 172 125.205V181.583C171.999 184.735 172.621 187.856 173.83 190.769C175.039 193.681 176.811 196.328 179.047 198.557C181.282 200.786 183.935 202.555 186.856 203.761C189.776 204.968 192.907 205.589 196.068 205.589H232.867C232.812 204.962 232.771 204.333 232.771 203.695C232.739 200.94 233.256 198.205 234.292 195.65C235.327 193.095 236.861 190.77 238.804 188.811C240.747 186.851 243.061 185.295 245.612 184.233C248.162 183.171 250.899 182.624 253.662 182.624C256.426 182.624 259.163 183.171 261.713 184.233C264.264 185.295 266.577 186.851 268.52 188.811C270.464 190.77 271.997 193.095 273.033 195.65C274.069 198.205 274.586 200.94 274.554 203.695C274.554 204.333 274.512 204.962 274.457 205.589H386.066C386.008 204.962 385.969 204.333 385.969 203.695C385.969 198.171 388.17 192.873 392.088 188.967C396.005 185.061 401.319 182.866 406.859 182.866C412.399 182.866 417.713 185.061 421.631 188.967C425.548 192.873 427.749 198.171 427.749 203.695C427.749 204.333 427.711 204.962 427.655 205.589H475.072C476.288 205.589 477.455 205.107 478.315 204.25C479.175 203.392 479.659 202.229 479.659 201.016V124.872C479.659 123.846 479.25 122.861 478.522 122.135C477.794 121.409 476.807 121.001 475.778 121Z" fill="#6BAEC5"/>
<path opacity="0.6" d="M424.993 203.69C424.993 204.327 424.954 204.957 424.899 205.583H475.072C476.288 205.583 477.455 205.101 478.315 204.244C479.175 203.386 479.659 202.223 479.659 201.01V194.046C479.659 194.647 479.541 195.242 479.31 195.797C479.08 196.352 478.742 196.856 478.316 197.281C477.89 197.706 477.385 198.043 476.828 198.273C476.271 198.503 475.675 198.622 475.072 198.622H424.34" fill="#285163" fill-opacity="0.25"/>
<path d="M234.171 198.622H196.068C192.907 198.622 189.777 198.001 186.857 196.795C183.937 195.589 181.283 193.821 179.048 191.592C176.814 189.363 175.041 186.717 173.831 183.806C172.622 180.894 172 177.773 172 174.621V181.582C171.999 184.735 172.621 187.856 173.83 190.769C175.039 193.681 176.812 196.328 179.047 198.557C181.282 200.786 183.935 202.555 186.856 203.761C189.776 204.968 192.907 205.589 196.068 205.589H234.447C234.389 204.962 234.723 204.333 234.723 203.695" fill="#285163" fill-opacity="0.25"/>
<path opacity="0.6" d="M387.697 198.718L272.252 198.622L272.349 203.69C272.349 204.327 271.991 204.957 271.933 205.583H387.422C387.364 204.96 387.146 204.3 387.146 203.66" fill="#285163" fill-opacity="0.25"/>
<path opacity="0.6" d="M475.778 121H176.215C175.661 121 175.113 121.109 174.601 121.32C174.09 121.531 173.625 121.841 173.233 122.232C172.842 122.622 172.532 123.086 172.32 123.596C172.108 124.106 172 124.653 172 125.205V130.38C172 129.265 172.444 128.197 173.234 127.409C174.025 126.62 175.097 126.178 176.215 126.178H475.778C476.808 126.178 477.796 126.586 478.524 127.312C479.252 128.038 479.661 129.023 479.661 130.05V124.872C479.661 123.845 479.252 122.86 478.524 122.134C477.796 121.408 476.808 121 475.778 121Z" fill="#285163" fill-opacity="0.25"/>
<path d="M391.057 131.622H439.419C441.275 131.622 442.779 133.122 442.779 134.972V167.407C442.779 169.257 441.275 170.757 439.419 170.757H391.057C389.201 170.757 387.697 169.257 387.697 167.407V134.972C387.697 133.122 389.201 131.622 391.057 131.622Z" fill="#285163"/>
<path d="M333.45 131.622H381.812C383.668 131.622 385.172 133.122 385.172 134.972V167.407C385.172 169.257 383.668 170.757 381.812 170.757H333.45C331.595 170.757 330.09 169.257 330.09 167.407V134.972C330.09 133.122 331.595 131.622 333.45 131.622Z" fill="#285163"/>
<path d="M275.844 131.622H324.206C326.062 131.622 327.566 133.122 327.566 134.972V167.407C327.566 169.257 326.062 170.757 324.206 170.757H275.844C273.988 170.757 272.484 169.257 272.484 167.407V134.972C272.484 133.122 273.988 131.622 275.844 131.622Z" fill="#285163"/>
<path d="M218.237 131.622H266.599C268.455 131.622 269.959 133.122 269.959 134.972V167.407C269.959 169.257 268.455 170.757 266.599 170.757H218.237C216.381 170.757 214.877 169.257 214.877 167.407V134.972C214.877 133.122 216.381 131.622 218.237 131.622Z" fill="#285163"/>
<path d="M177.995 131.622H208.992C210.848 131.622 212.352 133.122 212.352 134.972V167.407C212.352 169.257 210.848 170.757 208.992 170.757H177.995C176.139 170.757 174.635 169.257 174.635 167.407V134.972C174.635 133.122 176.139 131.622 177.995 131.622Z" fill="#285163"/>
<path d="M448.033 131.622H466.456C467.661 131.622 468.639 132.597 468.639 133.799V181.204C468.639 182.406 467.661 183.38 466.456 183.38H448.033C446.827 183.38 445.85 182.406 445.85 181.204V133.799C445.85 132.597 446.827 131.622 448.033 131.622Z" fill="#285163"/>
<path d="M479.788 131.858H474.187C473.577 131.859 472.991 132.102 472.56 132.532C472.128 132.963 471.886 133.547 471.886 134.156V172.703C471.886 174.068 472.189 175.417 472.772 176.652C473.355 177.887 474.205 178.978 475.26 179.849L480.017 183.773L479.788 131.858Z" fill="#285163"/>
<path d="M1495.5 65L1507.01 75.8106L1518.5 63.5" stroke="#0A093F" stroke-width="3" stroke-miterlimit="10" stroke-linecap="round"/>
<path d="M1489.33 81.49L1507.01 97.17L1524.85 81" stroke="#0A093F" stroke-width="3" stroke-miterlimit="10" stroke-linecap="round"/>
<path d="M605.16 102.624C604.905 101.647 604.723 100.654 604.615 99.6505C604.566 99.1481 604.5 98.6457 604.425 98.1433C602.701 86.4152 596.04 79.0605 587.383 77.4709C585.79 77.1827 584.189 76.8615 582.621 76.4579C580.879 76.0113 579.088 75.7789 577.289 75.7661C560.734 75.659 547.19 94.0582 547.042 116.864C547.042 117.901 547.042 118.923 547.108 119.928C547.145 120.506 547.145 121.087 547.108 121.665C546.91 124.609 547.021 127.565 547.438 130.486C548.469 137.487 551.259 142.931 555.179 146.53C556.566 147.79 557.936 149.075 559.256 150.409C564.159 155.351 570.208 158.316 576.769 158.357C593.325 158.472 606.868 140.065 607.017 117.259C607.055 112.32 606.431 107.398 605.16 102.624Z" fill="#55895A"/>
<path d="M577.355 113.066L576.885 184.184" stroke="#0A093F" stroke-width="3.84" stroke-miterlimit="10" stroke-linecap="round"/>
<path d="M570.108 123.69C570.108 123.69 575.721 127.742 577.932 126.729C580.144 125.716 584.535 119.762 584.535 119.762" stroke="#0A093F" stroke-width="2.56" stroke-miterlimit="10" stroke-linecap="round"/>
<path d="M566.882 137C566.882 137 574.656 142.131 577.834 140.673C581.011 139.215 587.556 130.205 587.556 130.205" stroke="#0A093F" stroke-width="2.56" stroke-miterlimit="10" stroke-linecap="round"/>
<path d="M575.506 134.9H622.324C635.805 134.9 643.192 140.424 654.998 152.774C657.592 155.483 665.46 163.497 665.46 163.497H545.286L552.772 149.733C557.805 140.474 566.351 134.9 575.506 134.9Z" fill="#EC2A39"/>
<path d="M575.506 134.9H622.324C635.805 134.9 643.192 140.424 654.998 152.774C657.592 155.483 665.46 163.497 665.46 163.497H545.286L552.772 149.733C557.805 140.474 566.351 134.9 575.506 134.9Z" fill="#EC2A39"/>
<g style="mix-blend-mode:multiply">
<g style="mix-blend-mode:multiply">
<path d="M583.013 141.075H620.091C628.496 141.075 636.491 145.319 643.461 153.1C645.709 155.589 652.071 163.497 652.071 163.497L556.299 163.172L560.321 154.401C565.34 145.135 571.568 140.75 583.013 141.075Z" fill="#B1202B"/>
</g>
<path style="mix-blend-mode:overlay" opacity="0.25" d="M583.013 141.075H620.091C628.496 141.075 636.491 145.319 643.461 153.1C645.709 155.589 652.071 163.497 652.071 163.497L556.299 163.172L560.321 154.401C565.34 145.135 571.568 140.75 583.013 141.075Z" fill="url(#paint9_linear)"/>
</g>
<path opacity="0.1" d="M570.656 163.496L595.165 138.401" stroke="white" stroke-width="4.64" stroke-miterlimit="10"/>
<path opacity="0.1" d="M618.267 163.497L637.558 143.749" stroke="white" stroke-width="7.42" stroke-miterlimit="10"/>
<path opacity="0.1" d="M577.669 168.306L607.246 138.026" stroke="white" stroke-width="11.13" stroke-miterlimit="10"/>
<path d="M667.786 213.354C677.277 213.354 684.971 205.197 684.971 195.134C684.971 185.071 677.277 176.914 667.786 176.914C658.295 176.914 650.601 185.071 650.601 195.134C650.601 205.197 658.295 213.354 667.786 213.354Z" fill="#0A093F"/>
<path opacity="0.5" d="M667.786 202.639C671.698 202.639 674.869 199.279 674.869 195.134C674.869 190.99 671.698 187.63 667.786 187.63C663.874 187.63 660.702 190.99 660.702 195.134C660.702 199.279 663.874 202.639 667.786 202.639Z" fill="white"/>
<path d="M555.84 213.354C565.331 213.354 573.025 205.197 573.025 195.134C573.025 185.071 565.331 176.914 555.84 176.914C546.349 176.914 538.655 185.071 538.655 195.134C538.655 205.197 546.349 213.354 555.84 213.354Z" fill="#0A093F"/>
<path opacity="0.5" d="M555.84 202.886C559.88 202.886 563.156 199.415 563.156 195.134C563.156 190.853 559.88 187.382 555.84 187.382C551.799 187.382 548.523 190.853 548.523 195.134C548.523 199.415 551.799 202.886 555.84 202.886Z" fill="white"/>
<path opacity="0.6" d="M555.84 190.077C554.538 190.122 553.307 190.677 552.412 191.624C551.518 192.571 551.032 193.832 551.061 195.134" stroke="white" stroke-width="1.86" stroke-miterlimit="10" stroke-linecap="round"/>
<path opacity="0.6" d="M667.849 190.077C666.549 190.123 665.32 190.68 664.427 191.626C663.534 192.573 663.049 193.833 663.078 195.134" stroke="white" stroke-width="1.86" stroke-miterlimit="10" stroke-linecap="round"/>
<path d="M611.813 139.448H604.298V177.798H611.813V139.448Z" fill="#D55835"/>
<path d="M611.813 139.448H604.298V177.798H611.813V139.448Z" fill="#EC2A39"/>
<path opacity="0.1" d="M512.04 173.979V177.508H513.701L512.146 173.979H512.04Z" fill="white"/>
<g opacity="0.75">
<path opacity="0.75" d="M667.786 176.914C666.317 176.914 664.855 177.111 663.438 177.501H672.126C670.712 177.111 669.252 176.914 667.786 176.914Z" fill="#247777"/>
<path opacity="0.75" d="M667.786 176.914C666.317 176.914 664.855 177.111 663.438 177.501H672.126C670.712 177.111 669.252 176.914 667.786 176.914Z" fill="#B1202B"/>
</g>
<path d="M541.595 177.501H514.57C512.97 177.549 511.453 178.231 510.355 179.396C509.256 180.562 508.664 182.117 508.71 183.718V187.255C508.71 187.932 508.778 188.607 508.915 189.271H534.647C535.745 184.745 538.164 180.648 541.595 177.501Z" fill="#EC2A39"/>
<path d="M541.595 177.501H514.57C512.97 177.549 511.453 178.231 510.355 179.396C509.256 180.562 508.664 182.117 508.71 183.718V187.255C508.71 187.932 508.778 188.607 508.915 189.271H534.647C535.745 184.745 538.164 180.648 541.595 177.501Z" fill="#EC2A39"/>
<path d="M520.353 173.979H546.819C549.634 172.624 552.717 171.921 555.84 171.921C558.963 171.921 562.046 172.624 564.86 173.979H657.465C660.617 172.243 664.156 171.333 667.754 171.333C671.352 171.333 674.891 172.243 678.043 173.979C679.787 174.942 681.396 176.131 682.829 177.515C686.138 180.709 688.466 184.783 689.537 189.257H720.224C720.371 188.559 720.445 187.848 720.443 187.135V183.598C720.487 182.02 719.904 180.489 718.821 179.341C717.738 178.193 716.245 177.521 714.668 177.473H682.857C681.422 176.089 679.81 174.899 678.064 173.936H698.861C699.003 172.97 699.481 172.085 700.212 171.438C700.943 170.791 701.88 170.423 702.855 170.4H713.593C712.427 167.802 710.544 165.593 708.164 164.031C705.784 162.47 703.008 161.622 700.162 161.587H528.673C526.169 161.612 523.712 162.274 521.534 163.511C519.356 164.749 517.529 166.521 516.224 168.66H520.353V173.979Z" fill="#EC2A39"/>
<path d="M520.353 173.979H546.819C549.634 172.624 552.717 171.921 555.84 171.921C558.963 171.921 562.046 172.624 564.86 173.979H657.465C660.617 172.243 664.156 171.333 667.754 171.333C671.352 171.333 674.891 172.243 678.043 173.979C679.787 174.942 681.396 176.131 682.829 177.515C686.138 180.709 688.466 184.783 689.537 189.257H720.224C720.371 188.559 720.445 187.848 720.443 187.135V183.598C720.487 182.02 719.904 180.489 718.821 179.341C717.738 178.193 716.245 177.521 714.668 177.473H682.857C681.422 176.089 679.81 174.899 678.064 173.936H698.861C699.003 172.97 699.481 172.085 700.212 171.438C700.943 170.791 701.88 170.423 702.855 170.4H713.593C712.427 167.802 710.544 165.593 708.164 164.031C705.784 162.47 703.008 161.622 700.162 161.587H528.673C526.169 161.612 523.712 162.274 521.534 163.511C519.356 164.749 517.529 166.521 516.224 168.66H520.353V173.979Z" fill="#EC2A39"/>
<path d="M570.07 177.501C573.499 180.644 575.917 184.736 577.019 189.256H646.013C647.076 184.78 649.396 180.701 652.7 177.501H570.07Z" fill="#EC2A39"/>
<path d="M570.07 177.501C573.499 180.644 575.917 184.736 577.019 189.256H646.013C647.076 184.78 649.396 180.701 652.7 177.501H570.07Z" fill="#EC2A39"/>
<path d="M698.897 173.979H678.099C679.845 174.942 681.457 176.131 682.892 177.515H698.833V174.742C698.833 174.486 698.855 174.231 698.897 173.979Z" fill="#EC2A39"/>
<path d="M698.897 173.979H678.099C679.845 174.942 681.457 176.131 682.892 177.515H698.833V174.742C698.833 174.486 698.855 174.231 698.897 173.979Z" fill="#EC2A39"/>
<path opacity="0.1" d="M698.897 173.979H678.099C679.845 174.942 681.457 176.131 682.892 177.515H698.833V174.742C698.833 174.486 698.855 174.231 698.897 173.979Z" fill="white"/>
<path d="M520.353 177.501H541.595C543.156 176.075 544.916 174.883 546.82 173.965H520.353V177.501Z" fill="#EC2A39"/>
<path d="M520.353 177.501H541.595C543.156 176.075 544.916 174.883 546.82 173.965H520.353V177.501Z" fill="#EC2A39"/>
<path opacity="0.1" d="M520.353 177.501H541.595C543.156 176.075 544.916 174.883 546.82 173.965H520.353V177.501Z" fill="white"/>
<path d="M657.493 173.979H564.888C566.79 174.897 568.547 176.089 570.105 177.515H652.707C654.14 176.131 655.749 174.941 657.493 173.979Z" fill="#EC2A39"/>
<path d="M657.493 173.979H564.888C566.79 174.897 568.547 176.089 570.105 177.515H652.707C654.14 176.131 655.749 174.941 657.493 173.979Z" fill="#EC2A39"/>
<path opacity="0.1" d="M657.493 173.979H564.888C566.79 174.897 568.547 176.089 570.105 177.515H652.707C654.14 176.131 655.749 174.941 657.493 173.979Z" fill="white"/>
<path d="M689.537 189.257C688.474 184.78 686.154 180.701 682.85 177.501C681.417 176.117 679.808 174.928 678.064 173.965C674.912 172.229 671.373 171.319 667.775 171.319C664.177 171.319 660.638 172.229 657.486 173.965C655.742 174.928 654.133 176.117 652.7 177.501C649.396 180.701 647.076 184.78 646.013 189.257H577.019C575.917 184.736 573.499 180.645 570.07 177.501C568.512 176.075 566.754 174.883 564.853 173.965C562.039 172.61 558.956 171.907 555.833 171.907C552.71 171.907 549.627 172.61 546.812 173.965C544.908 174.883 543.149 176.075 541.588 177.501C538.16 180.645 535.741 184.736 534.639 189.257H508.915C509.289 191.364 510.38 193.276 512.004 194.669C513.628 196.062 515.684 196.848 517.822 196.896H538.732C538.676 196.316 538.648 195.728 538.648 195.134C538.648 185.077 546.346 176.914 555.84 176.914C565.333 176.914 573.025 185.077 573.025 195.134C573.025 195.728 572.996 196.316 572.94 196.896H650.657C650.601 196.316 650.572 195.728 650.572 195.134C650.571 193.139 650.881 191.156 651.491 189.257C652.353 186.464 653.894 183.928 655.975 181.877C658.056 179.825 660.613 178.322 663.417 177.501C666.26 176.718 669.262 176.718 672.105 177.501H672.14C679.513 179.545 684.956 186.696 684.956 195.12C684.956 195.714 684.928 196.301 684.872 196.881H711.254C713.398 196.835 715.461 196.05 717.094 194.658C718.727 193.267 719.83 191.354 720.217 189.243L689.537 189.257Z" fill="#247777"/>
<path d="M689.537 189.257C688.474 184.78 686.154 180.701 682.85 177.501C681.417 176.117 679.808 174.928 678.064 173.965C674.912 172.229 671.373 171.319 667.775 171.319C664.177 171.319 660.638 172.229 657.486 173.965C655.742 174.928 654.133 176.117 652.7 177.501C649.396 180.701 647.076 184.78 646.013 189.257H577.019C575.917 184.736 573.499 180.645 570.07 177.501C568.512 176.075 566.754 174.883 564.853 173.965C562.039 172.61 558.956 171.907 555.833 171.907C552.71 171.907 549.627 172.61 546.812 173.965C544.908 174.883 543.149 176.075 541.588 177.501C538.16 180.645 535.741 184.736 534.639 189.257H508.915C509.289 191.364 510.38 193.276 512.004 194.669C513.628 196.062 515.684 196.848 517.822 196.896H538.732C538.676 196.316 538.648 195.728 538.648 195.134C538.648 185.077 546.346 176.914 555.84 176.914C565.333 176.914 573.025 185.077 573.025 195.134C573.025 195.728 572.996 196.316 572.94 196.896H650.657C650.601 196.316 650.572 195.728 650.572 195.134C650.571 193.139 650.881 191.156 651.491 189.257C652.353 186.464 653.894 183.928 655.975 181.877C658.056 179.825 660.613 178.322 663.417 177.501C666.26 176.718 669.262 176.718 672.105 177.501H672.14C679.513 179.545 684.956 186.696 684.956 195.12C684.956 195.714 684.928 196.301 684.872 196.881H711.254C713.398 196.835 715.461 196.05 717.094 194.658C718.727 193.267 719.83 191.354 720.217 189.243L689.537 189.257Z" fill="#B1202B"/>
<path d="M714.809 173.979C714.551 172.759 714.155 171.573 713.629 170.442H702.891C701.915 170.465 700.979 170.833 700.248 171.48C699.517 172.128 699.038 173.013 698.897 173.979C698.854 174.236 698.833 174.496 698.833 174.757V177.501H715.184C715.186 176.317 715.06 175.136 714.809 173.979Z" fill="#F87481"/>
<path d="M516.224 168.688C515.211 170.313 514.493 172.104 514.104 173.979C513.855 175.142 513.73 176.327 513.729 177.516H520.381V168.688H516.224Z" fill="#F87481"/>
<path d="M616.507 134.9H577.718V141.061H616.507V134.9Z" fill="#EC2A39"/>
<path d="M638.788 148.53C638.788 148.53 634.999 145.369 632.242 144.124L634.632 140.021L642.591 146.79L638.788 148.53Z" fill="#EC2A39"/>
<defs>
<linearGradient id="paint0_linear" x1="309" y1="117" x2="309" y2="154" gradientUnits="userSpaceOnUse">
<stop stop-color="#2E824B"/>
<stop offset="1" stop-color="#2D7239"/>
</linearGradient>
<linearGradient id="paint1_linear" x1="1495.9" y1="114.908" x2="1494.25" y2="217.679" gradientUnits="userSpaceOnUse">
<stop offset="0.03" stop-color="#007A37"/>
<stop offset="0.22" stop-color="#248046"/>
<stop offset="0.41" stop-color="#3F8551"/>
<stop offset="0.57" stop-color="#4F8858"/>
<stop offset="0.7" stop-color="#55895A"/>
</linearGradient>
<linearGradient id="paint2_linear" x1="406.11" y1="77.6342" x2="287.022" y2="307.506" gradientUnits="userSpaceOnUse">
<stop offset="0.03" stop-color="#007A37"/>
<stop offset="0.22" stop-color="#248046"/>
<stop offset="0.41" stop-color="#3F8551"/>
<stop offset="0.57" stop-color="#4F8858"/>
<stop offset="0.7" stop-color="#55895A"/>
</linearGradient>
<linearGradient id="paint3_linear" x1="494.242" y1="140.149" x2="493.892" y2="205.43" gradientUnits="userSpaceOnUse">
<stop offset="0.03" stop-color="#007A37"/>
<stop offset="0.22" stop-color="#248046"/>
<stop offset="0.41" stop-color="#3F8551"/>
<stop offset="0.57" stop-color="#4F8858"/>
<stop offset="0.7" stop-color="#55895A"/>
</linearGradient>
<linearGradient id="paint4_linear" x1="789.354" y1="115.582" x2="788.741" y2="236.223" gradientUnits="userSpaceOnUse">
<stop offset="0.03" stop-color="#007A37"/>
<stop offset="0.22" stop-color="#248046"/>
<stop offset="0.41" stop-color="#3F8551"/>
<stop offset="0.57" stop-color="#4F8858"/>
<stop offset="0.7" stop-color="#55895A"/>
</linearGradient>
<linearGradient id="paint5_linear" x1="866.89" y1="143.312" x2="865.534" y2="205.648" gradientUnits="userSpaceOnUse">
<stop offset="0.03" stop-color="#007A37"/>
<stop offset="0.22" stop-color="#248046"/>
<stop offset="0.41" stop-color="#3F8551"/>
<stop offset="0.57" stop-color="#4F8858"/>
<stop offset="0.7" stop-color="#55895A"/>
</linearGradient>
<linearGradient id="paint6_linear" x1="1063.11" y1="150.881" x2="1067.51" y2="202.282" gradientUnits="userSpaceOnUse">
<stop offset="0.03" stop-color="#007A37"/>
<stop offset="0.22" stop-color="#248046"/>
<stop offset="0.41" stop-color="#3F8551"/>
<stop offset="0.57" stop-color="#4F8858"/>
<stop offset="0.7" stop-color="#55895A"/>
</linearGradient>
<linearGradient id="paint7_linear" x1="1149.79" y1="106.996" x2="1146.81" y2="240.923" gradientUnits="userSpaceOnUse">
<stop offset="0.03" stop-color="#007A37"/>
<stop offset="0.22" stop-color="#248046"/>
<stop offset="0.41" stop-color="#3F8551"/>
<stop offset="0.57" stop-color="#4F8858"/>
<stop offset="0.7" stop-color="#55895A"/>
</linearGradient>
<linearGradient id="paint8_linear" x1="1223.93" y1="96.4264" x2="1238.72" y2="244.733" gradientUnits="userSpaceOnUse">
<stop offset="0.03" stop-color="#007A37"/>
<stop offset="0.22" stop-color="#248046"/>
<stop offset="0.41" stop-color="#3F8551"/>
<stop offset="0.57" stop-color="#4F8858"/>
<stop offset="0.7" stop-color="#55895A"/>
</linearGradient>
<linearGradient id="paint9_linear" x1="518.331" y1="124.171" x2="719.221" y2="201.835" gradientUnits="userSpaceOnUse">
<stop stop-color="#646489" stop-opacity="0"/>
<stop offset="1" stop-color="#646489"/>
</linearGradient>
</defs>
</svg>
