<svg width="1440" height="240" viewBox="0 0 1440 240" fill="none" xmlns="http://www.w3.org/2000/svg">
<path d="M267 169H103C103 169 103.476 153.397 131.121 151.1C133.702 150.888 136.174 150.135 138.299 148.914C140.424 147.693 142.131 146.045 143.254 144.127C146.417 138.737 153.113 132 166.972 132C180.527 132 187.69 138.313 191.297 143.561C192.503 145.349 194.411 146.75 196.711 147.535C199.011 148.32 201.568 148.444 203.965 147.886C215.466 145.191 235.183 142.126 249.863 148.56C266.762 155.937 267 169 267 169Z" fill="url(#paint0_linear)"/>
<path d="M414.065 71.1327C413.683 70.4909 413.523 69.7415 413.607 68.9994C413.742 67.8408 413.81 66.6756 413.813 65.5093C413.816 61.5925 413.048 57.7136 411.553 54.0946C410.058 50.4756 407.865 47.1876 405.1 44.4189C404.704 44.0179 404.412 43.5261 404.25 42.9864C404.087 42.4466 404.058 41.8752 404.166 41.3218C404.685 38.5173 404.617 35.6354 403.965 32.8588C403.314 30.0822 402.094 27.4716 400.382 25.1924C398.67 22.9133 396.505 21.0155 394.023 19.6193C391.54 18.2231 388.796 17.359 385.962 17.0818C383.129 16.8046 380.27 17.1204 377.565 18.0091C374.86 18.8979 372.369 20.3402 370.249 22.2445C368.13 24.1488 366.429 26.4737 365.254 29.0715C364.079 31.6694 363.455 34.4837 363.423 37.3357C363.422 38.6644 363.55 39.99 363.806 41.2937C363.915 41.8471 363.887 42.419 363.725 42.959C363.562 43.4991 363.269 43.9907 362.872 44.3908C360.107 47.1641 357.915 50.4572 356.423 54.0813C354.931 57.7054 354.168 61.589 354.178 65.5093C354.181 66.6756 354.249 67.8408 354.384 68.9994C354.472 69.7375 354.315 70.4843 353.935 71.1234C350.769 76.4468 349.066 82.516 349.002 88.713C348.937 94.91 350.513 101.013 353.568 106.402C356.623 111.79 361.049 116.271 366.395 119.389C371.74 122.506 377.815 124.148 384 124.148C390.185 124.148 396.26 122.506 401.605 119.389C406.951 116.271 411.377 111.79 414.432 106.402C417.487 101.013 419.063 94.91 418.998 88.713C418.934 82.516 417.231 76.4468 414.065 71.1234V71.1327Z" fill="#55895A"/>
<path d="M384.472 173.347V66.8477" stroke="#0A093F" stroke-width="3" stroke-miterlimit="10" stroke-linecap="round"/>
<path d="M1414.68 57.8702C1414.27 57.1842 1414.1 56.3833 1414.19 55.5902C1414.33 54.352 1414.41 53.1067 1414.41 51.8602C1414.41 47.6742 1413.59 43.5287 1411.99 39.6609C1410.39 35.7932 1408.04 32.2792 1405.08 29.3202C1404.66 28.8916 1404.34 28.3661 1404.17 27.7892C1404 27.2124 1403.96 26.6017 1404.08 26.0102C1404.64 23.013 1404.56 19.9329 1403.86 16.9655C1403.17 13.9981 1401.86 11.208 1400.03 8.77224C1398.19 6.33648 1395.88 4.30818 1393.22 2.81601C1390.56 1.32384 1387.62 0.400353 1384.59 0.104126C1381.55 -0.192101 1378.49 0.145396 1375.59 1.09521C1372.7 2.04503 1370.03 3.58643 1367.76 5.62166C1365.49 7.65689 1363.67 10.1415 1362.41 12.918C1361.15 15.6944 1360.48 18.7021 1360.45 21.7502C1360.45 23.1702 1360.59 24.5869 1360.86 25.9802C1360.98 26.5716 1360.95 27.1828 1360.77 27.76C1360.6 28.3371 1360.28 28.8626 1359.86 29.2902C1356.9 32.2541 1354.55 35.7736 1352.95 39.6468C1351.36 43.5199 1350.54 47.6705 1350.55 51.8602C1350.55 53.1067 1350.63 54.352 1350.77 55.5902C1350.86 56.3791 1350.7 57.1772 1350.29 57.8602C1346.9 63.5496 1345.08 70.0359 1345.01 76.6588C1344.94 83.2818 1346.63 89.8047 1349.9 95.5635C1353.17 101.322 1357.91 106.111 1363.63 109.443C1369.36 112.774 1375.86 114.53 1382.48 114.53C1389.11 114.53 1395.61 112.774 1401.34 109.443C1407.06 106.111 1411.8 101.322 1415.07 95.5635C1418.34 89.8047 1420.03 83.2818 1419.96 76.6588C1419.89 70.0359 1418.07 63.5496 1414.68 57.8602V57.8702Z" fill="#55895A"/>
<path d="M1382.99 167.109V53.2891" stroke="#0A093F" stroke-width="3" stroke-miterlimit="10" stroke-linecap="round"/>
<path d="M373.461 76.3912L384.509 86.2253L395.668 76.0918" stroke="#0A093F" stroke-width="3" stroke-miterlimit="10" stroke-linecap="round"/>
<path d="M367.98 87.2827L384.49 101.954L401.15 86.8242" stroke="#0A093F" stroke-width="3" stroke-miterlimit="10" stroke-linecap="round"/>
<path d="M1270.11 188.254C1270.11 188.254 1239.61 191.455 1251.88 162.998C1251.88 162.998 1234.87 149.484 1258.71 132.858C1260.72 131.481 1262.57 129.898 1264.24 128.137C1270.71 121.271 1294.06 119.247 1319.17 132.501C1323.46 134.76 1329.81 128.714 1334.64 128.438C1343.94 127.869 1355.41 130.494 1358.8 143.804C1359.22 145.47 1360.9 146.437 1362.3 145.429C1367.6 141.569 1378.14 133.143 1393.89 139.497C1403.43 143.341 1408.57 148.972 1410.8 154.181C1411.17 155.035 1411.75 155.783 1412.49 156.355C1413.23 156.927 1414.1 157.304 1415.02 157.45C1415.95 157.596 1416.9 157.507 1417.78 157.191C1418.66 156.875 1419.45 156.343 1420.06 155.644C1423.52 151.654 1427.24 148.818 1432.75 147.827C1445.33 145.543 1454.11 149.102 1460.86 156.83C1461.98 158.106 1465.23 160.487 1466.94 160.601C1474.6 161.137 1495.27 163.851 1495.97 177.373V188.749L1270.11 188.254Z" fill="url(#paint1_linear)"/>
<path d="M324.895 188.248C324.895 188.248 355.403 191.496 343.127 162.625C343.127 162.625 358.501 140.671 334.648 123.803C332.645 122.405 330.794 120.8 329.126 119.013C322.66 112.046 302.331 95.4507 274.181 123.415C272.484 125.112 270.449 126.43 268.208 127.283C265.968 128.135 263.574 128.503 261.182 128.362C251.889 127.785 237.189 129.12 236.203 143.127C236.177 143.522 236.045 143.903 235.823 144.23C235.6 144.557 235.294 144.818 234.937 144.986C234.58 145.155 234.184 145.224 233.791 145.187C233.398 145.15 233.023 145.008 232.703 144.776C227.378 140.885 216.861 132.336 201.077 138.783C191.545 142.682 186.401 151.693 184.166 156.978C183.801 157.844 183.222 158.603 182.484 159.183C181.745 159.763 180.872 160.146 179.946 160.294C179.02 160.442 178.072 160.352 177.19 160.032C176.308 159.711 175.523 159.171 174.906 158.462C171.447 154.414 166.903 150.712 161.398 149.698C148.818 147.39 139.262 150.176 132.467 158.041C131.334 159.328 129.738 160.111 128.03 160.218C120.364 160.737 99.6984 163.458 99 177.209V188.751L324.895 188.248Z" fill="url(#paint2_linear)"/>
<path d="M1440 168.75H0V239.75H1440V168.75Z" fill="#A7CAD0"/>
<g clip-path="url(#clip0)">
<path d="M1.11975 207.806L1438.88 203.749" stroke="#6DA6B0" stroke-opacity="0.5" stroke-width="3" stroke-miterlimit="10" stroke-linecap="round" stroke-dasharray="15 15"/>
</g>
<path d="M312.001 170C312.001 170 311.692 157.785 320.88 153.998C327.128 151.421 332.075 152.7 336.979 154.726C338.342 155.313 339.869 155.361 341.264 154.86C342.659 154.359 343.822 153.345 344.527 152.016C347.623 146.481 357.691 137.008 371.152 138.084C384.446 139.129 394.353 147.064 397.938 151.224C398.896 152.376 400.164 153.215 401.583 153.638C403.003 154.061 404.512 154.05 405.926 153.605C409.387 152.503 414.198 151.75 418.836 153.637C428.575 157.595 427.993 170 427.993 170H312.001Z" fill="url(#paint3_linear)"/>
<path d="M1315.15 85.6081C1314.89 84.6318 1314.71 83.638 1314.6 82.6349C1314.55 82.1325 1314.49 81.6301 1314.41 81.1277C1312.69 69.3996 1306.03 62.0449 1297.37 60.4553C1295.78 60.1671 1294.18 59.8459 1292.61 59.4423C1290.87 58.9956 1289.08 58.7633 1287.28 58.7505C1270.72 58.6434 1257.18 77.0426 1257.03 99.8481C1257.03 100.886 1257.03 101.907 1257.1 102.912C1257.13 103.491 1257.13 104.071 1257.1 104.65C1256.9 107.593 1257.01 110.55 1257.43 113.47C1258.46 120.471 1261.25 125.915 1265.17 129.514C1266.55 130.774 1267.92 132.059 1269.24 133.393C1274.15 138.335 1280.2 141.3 1286.76 141.341C1303.31 141.456 1316.86 123.049 1317 100.243C1317.04 95.3041 1316.42 90.3819 1315.15 85.6081Z" fill="#55895A"/>
<path d="M1287.34 96.0508L1286.87 167.169" stroke="#0A093F" stroke-width="3.84" stroke-miterlimit="10" stroke-linecap="round"/>
<path d="M1280.1 106.676C1280.1 106.676 1285.71 110.728 1287.92 109.715C1290.13 108.702 1294.52 102.747 1294.52 102.747" stroke="#0A093F" stroke-width="2.56" stroke-miterlimit="10" stroke-linecap="round"/>
<path d="M1276.87 119.985C1276.87 119.985 1284.64 125.116 1287.82 123.658C1291 122.201 1297.54 113.19 1297.54 113.19" stroke="#0A093F" stroke-width="2.56" stroke-miterlimit="10" stroke-linecap="round"/>
<path d="M588 168.75C588 168.75 587.589 152.723 599.788 147.754C608.082 144.372 614.651 146.051 621.161 148.709C622.97 149.479 624.998 149.542 626.85 148.885C628.702 148.227 630.246 146.897 631.182 145.153C635.292 137.892 648.658 125.462 666.529 126.874C684.178 128.245 697.331 138.656 702.09 144.115C703.363 145.626 705.045 146.727 706.93 147.282C708.814 147.837 710.818 147.822 712.695 147.239C717.29 145.793 723.677 144.804 729.834 147.28C742.765 152.473 741.992 168.75 741.992 168.75H588Z" fill="url(#paint4_linear)"/>
<path d="M702.162 168.749H782C782 168.749 777.333 142.654 753.978 148.713C750.551 149.521 747.438 151.341 745.036 153.942C743.825 155.249 741.922 154.715 741.329 152.865C739.703 147.932 735.037 141.437 721.185 141.758C698.935 142.284 702.162 168.749 702.162 168.749Z" fill="url(#paint5_linear)"/>
<path d="M980.838 168.718H903C903 168.718 907.549 143.562 930.327 149.421C933.672 150.201 936.711 151.955 939.059 154.46C940.237 155.718 942.097 155.207 942.674 153.43C944.21 148.699 948.807 142.45 962.3 142.751C983.981 143.27 980.838 168.718 980.838 168.718Z" fill="url(#paint6_linear)"/>
<path d="M1106 168.75H942C942 168.75 942.476 149.773 970.121 146.979C972.702 146.722 975.174 145.807 977.299 144.321C979.424 142.836 981.131 140.831 982.254 138.499C985.417 131.944 992.113 123.75 1005.97 123.75C1019.53 123.75 1026.69 131.428 1030.3 137.81C1031.5 139.985 1033.41 141.689 1035.71 142.644C1038.01 143.599 1040.57 143.749 1042.96 143.071C1054.47 139.793 1074.18 136.065 1088.86 143.89C1105.76 152.862 1106 168.75 1106 168.75Z" fill="url(#paint7_linear)"/>
<path d="M1027 168.75H1191C1191 168.75 1190.52 149.773 1162.88 146.979C1160.29 146.725 1157.82 145.811 1155.69 144.325C1153.56 142.84 1151.85 140.833 1150.73 138.499C1147.58 131.944 1140.87 123.75 1127.03 123.75C1113.47 123.75 1106.31 131.428 1102.7 137.81C1101.5 139.985 1099.59 141.689 1097.29 142.644C1094.99 143.599 1092.43 143.749 1090.04 143.071C1078.53 139.793 1058.82 136.065 1044.14 143.89C1027.24 152.862 1027 168.75 1027 168.75Z" fill="url(#paint8_linear)"/>
<path d="M355 141.75H359.732C359.899 141.75 360.064 141.783 360.218 141.848C360.372 141.913 360.512 142.009 360.63 142.129C360.747 142.25 360.841 142.393 360.904 142.551C360.968 142.709 361.001 142.878 361 143.048V156.75" stroke="#132E39" stroke-width="5" stroke-miterlimit="10" stroke-linecap="round"/>
<path d="M303.664 213.339H260.02V187.78H306.971L303.664 213.339Z" fill="#08072F"/>
<path d="M150.507 213.339H106.864V187.78H153.814C153.814 187.78 150.515 213.339 150.507 213.339Z" fill="#08072F"/>
<path d="M282.859 227.85C273.77 227.85 266.401 220.503 266.401 211.44C266.401 202.377 273.77 195.03 282.859 195.03C291.949 195.03 299.317 202.377 299.317 211.44C299.317 220.503 291.949 227.85 282.859 227.85Z" fill="#0A093F"/>
<path d="M282.859 222.801C276.566 222.801 271.464 217.714 271.464 211.439C271.464 205.165 276.566 200.078 282.859 200.078C289.152 200.078 294.254 205.165 294.254 211.439C294.254 217.714 289.152 222.801 282.859 222.801Z" stroke="#646489" stroke-width="3" stroke-miterlimit="10"/>
<path d="M287.804 213.93L291.605 219.152L287.509 222.12L283.708 216.898C283.611 216.765 283.483 216.656 283.336 216.581C283.189 216.507 283.026 216.468 282.86 216.468C282.695 216.468 282.532 216.507 282.385 216.581C282.237 216.656 282.11 216.765 282.013 216.898L278.212 222.12L274.113 219.152L277.914 213.93C278.012 213.797 278.076 213.642 278.102 213.48C278.128 213.317 278.115 213.15 278.063 212.993C278.012 212.836 277.925 212.694 277.808 212.577C277.691 212.461 277.548 212.373 277.391 212.322L271.238 210.33L272.793 205.526L278.945 207.518C279.103 207.571 279.27 207.585 279.434 207.56C279.599 207.535 279.754 207.471 279.889 207.374C280.024 207.277 280.133 207.15 280.209 207.003C280.284 206.855 280.323 206.692 280.323 206.526V200.076H285.392V206.526C285.392 206.692 285.431 206.855 285.507 207.003C285.582 207.15 285.692 207.277 285.826 207.374C285.961 207.471 286.117 207.535 286.281 207.56C286.445 207.585 286.613 207.571 286.77 207.518L292.914 205.526L294.48 210.33L288.33 212.322C288.173 212.374 288.03 212.461 287.913 212.577C287.796 212.694 287.709 212.836 287.658 212.993C287.606 213.15 287.593 213.316 287.618 213.479C287.644 213.642 287.707 213.796 287.804 213.93ZM285.392 211.44C285.393 210.941 285.245 210.452 284.967 210.036C284.689 209.621 284.293 209.296 283.83 209.105C283.368 208.913 282.858 208.863 282.367 208.96C281.875 209.057 281.423 209.298 281.069 209.651C280.714 210.004 280.473 210.454 280.375 210.944C280.277 211.434 280.327 211.942 280.519 212.403C280.71 212.865 281.035 213.26 281.451 213.537C281.868 213.815 282.358 213.963 282.859 213.963C283.192 213.964 283.521 213.899 283.828 213.772C284.135 213.645 284.415 213.46 284.65 213.225C284.885 212.991 285.072 212.713 285.199 212.406C285.327 212.1 285.392 211.772 285.392 211.44Z" fill="#646489"/>
<path d="M129.661 227.85C120.572 227.85 113.203 220.503 113.203 211.44C113.203 202.377 120.572 195.03 129.661 195.03C138.751 195.03 146.119 202.377 146.119 211.44C146.119 220.503 138.751 227.85 129.661 227.85Z" fill="#0A093F"/>
<path d="M129.661 222.801C123.368 222.801 118.266 217.714 118.266 211.439C118.266 205.165 123.368 200.078 129.661 200.078C135.954 200.078 141.056 205.165 141.056 211.439C141.056 217.714 135.954 222.801 129.661 222.801Z" stroke="#646489" stroke-width="3" stroke-miterlimit="10"/>
<path d="M134.609 213.93L138.41 219.152L134.311 222.12L130.51 216.898C130.413 216.765 130.285 216.656 130.138 216.581C129.991 216.507 129.828 216.468 129.662 216.468C129.497 216.468 129.334 216.507 129.187 216.581C129.039 216.656 128.912 216.765 128.815 216.898L125.014 222.12L120.921 219.146L124.722 213.925C124.819 213.791 124.883 213.637 124.909 213.474C124.935 213.311 124.922 213.145 124.871 212.988C124.82 212.831 124.732 212.688 124.615 212.572C124.498 212.455 124.355 212.368 124.198 212.317L118.049 210.324L119.614 205.52L125.764 207.513C125.921 207.565 126.089 207.579 126.253 207.554C126.417 207.529 126.573 207.466 126.707 207.369C126.842 207.272 126.952 207.144 127.027 206.997C127.103 206.85 127.142 206.686 127.142 206.521V200.076H132.194V206.526C132.194 206.692 132.233 206.855 132.309 207.003C132.384 207.15 132.494 207.277 132.628 207.374C132.763 207.471 132.919 207.535 133.083 207.56C133.247 207.585 133.415 207.571 133.572 207.518L139.722 205.526L141.287 210.33L135.138 212.322C134.98 212.373 134.836 212.46 134.719 212.576C134.601 212.692 134.513 212.835 134.461 212.992C134.41 213.148 134.396 213.315 134.422 213.479C134.447 213.642 134.511 213.796 134.609 213.93ZM132.194 211.44C132.195 210.941 132.047 210.452 131.769 210.036C131.491 209.621 131.095 209.296 130.632 209.105C130.169 208.913 129.66 208.863 129.169 208.96C128.677 209.057 128.225 209.298 127.871 209.651C127.516 210.004 127.275 210.454 127.177 210.944C127.079 211.434 127.129 211.942 127.321 212.403C127.512 212.865 127.837 213.26 128.253 213.537C128.67 213.815 129.16 213.963 129.661 213.963C129.994 213.964 130.323 213.899 130.63 213.772C130.937 213.645 131.217 213.46 131.452 213.225C131.687 212.991 131.874 212.713 132.001 212.406C132.129 212.1 132.194 211.772 132.194 211.44Z" fill="#646489"/>
<path d="M351.778 128.75H52.2144C51.6608 128.75 51.1125 128.859 50.601 129.07C50.0895 129.281 49.6248 129.591 49.2335 129.982C48.8421 130.372 48.5317 130.836 48.3201 131.346C48.1084 131.856 47.9997 132.403 48.0001 132.955V189.333C47.999 192.485 48.6207 195.606 49.8298 198.519C51.0388 201.431 52.8115 204.078 55.0465 206.307C57.2816 208.536 59.9352 210.305 62.8557 211.511C65.7763 212.718 68.9068 213.339 72.0681 213.339H108.867C108.812 212.712 108.771 212.083 108.771 211.445C108.739 208.69 109.256 205.955 110.292 203.4C111.327 200.845 112.861 198.52 114.804 196.561C116.747 194.601 119.061 193.045 121.612 191.983C124.162 190.921 126.899 190.374 129.662 190.374C132.426 190.374 135.163 190.921 137.713 191.983C140.264 193.045 142.577 194.601 144.52 196.561C146.464 198.52 147.997 200.845 149.033 203.4C150.069 205.955 150.586 208.69 150.554 211.445C150.554 212.083 150.512 212.712 150.457 213.339H262.066C262.008 212.712 261.969 212.083 261.969 211.445C261.969 205.921 264.17 200.623 268.088 196.717C272.005 192.811 277.319 190.616 282.859 190.616C288.399 190.616 293.713 192.811 297.631 196.717C301.548 200.623 303.749 205.921 303.749 211.445C303.749 212.083 303.711 212.712 303.655 213.339H351.072C352.288 213.339 353.455 212.857 354.315 212C355.175 211.142 355.659 209.979 355.659 208.766V132.622C355.659 131.596 355.25 130.611 354.522 129.885C353.794 129.159 352.807 128.751 351.778 128.75Z" fill="#6BAEC5"/>
<path opacity="0.6" d="M300.993 211.44C300.993 212.077 300.954 212.707 300.899 213.333H351.072C352.288 213.333 353.455 212.851 354.315 211.994C355.175 211.136 355.659 209.973 355.659 208.76V201.796C355.659 202.397 355.541 202.992 355.31 203.547C355.08 204.102 354.742 204.606 354.316 205.031C353.89 205.456 353.385 205.793 352.828 206.023C352.271 206.253 351.675 206.372 351.072 206.372H300.34" fill="#285163" fill-opacity="0.25"/>
<path d="M110.171 206.372H72.0681C68.9073 206.372 65.7773 205.751 62.8571 204.545C59.9368 203.339 57.2834 201.571 55.0485 199.342C52.8135 197.113 51.0408 194.467 49.8314 191.556C48.622 188.644 47.9997 185.523 48.0001 182.371V189.332C47.999 192.485 48.6208 195.606 49.8298 198.519C51.0389 201.431 52.8115 204.078 55.0466 206.307C57.2816 208.536 59.9352 210.305 62.8558 211.511C65.7764 212.718 68.9068 213.339 72.0681 213.339H110.447C110.389 212.712 110.723 212.083 110.723 211.445" fill="#285163" fill-opacity="0.25"/>
<path opacity="0.6" d="M263.697 206.468L148.252 206.372L148.349 211.44C148.349 212.077 147.991 212.707 147.933 213.333H263.422C263.364 212.71 263.146 212.05 263.146 211.41" fill="#285163" fill-opacity="0.25"/>
<path opacity="0.6" d="M351.778 128.75H52.2145C51.6608 128.75 51.1126 128.859 50.6011 129.07C50.0896 129.281 49.6249 129.591 49.2335 129.982C48.8421 130.372 48.5317 130.836 48.3201 131.346C48.1085 131.856 47.9997 132.403 48.0001 132.955V138.13C48.0001 137.015 48.4441 135.947 49.2345 135.159C50.0248 134.37 51.0968 133.928 52.2145 133.928H351.778C352.808 133.928 353.796 134.336 354.524 135.062C355.252 135.788 355.661 136.773 355.661 137.8V132.622C355.661 131.595 355.252 130.61 354.524 129.884C353.796 129.158 352.808 128.75 351.778 128.75Z" fill="#285163" fill-opacity="0.25"/>
<path d="M267.057 139.372H315.419C317.275 139.372 318.779 140.872 318.779 142.722V175.157C318.779 177.007 317.275 178.507 315.419 178.507H267.057C265.201 178.507 263.697 177.007 263.697 175.157V142.722C263.697 140.872 265.201 139.372 267.057 139.372Z" fill="#285163"/>
<path d="M209.45 139.372H257.812C259.668 139.372 261.172 140.872 261.172 142.722V175.157C261.172 177.007 259.668 178.507 257.812 178.507H209.45C207.595 178.507 206.09 177.007 206.09 175.157V142.722C206.09 140.872 207.595 139.372 209.45 139.372Z" fill="#285163"/>
<path d="M151.844 139.372H200.206C202.062 139.372 203.566 140.872 203.566 142.722V175.157C203.566 177.007 202.062 178.507 200.206 178.507H151.844C149.988 178.507 148.484 177.007 148.484 175.157V142.722C148.484 140.872 149.988 139.372 151.844 139.372Z" fill="#285163"/>
<path d="M94.237 139.372H142.599C144.455 139.372 145.959 140.872 145.959 142.722V175.157C145.959 177.007 144.455 178.507 142.599 178.507H94.237C92.3814 178.507 90.8771 177.007 90.8771 175.157V142.722C90.8771 140.872 92.3814 139.372 94.237 139.372Z" fill="#285163"/>
<path d="M53.9949 139.372H84.9922C86.8479 139.372 88.3522 140.872 88.3522 142.722V175.157C88.3522 177.007 86.8479 178.507 84.9922 178.507H53.9949C52.1392 178.507 50.6349 177.007 50.6349 175.157V142.722C50.6349 140.872 52.1392 139.372 53.9949 139.372Z" fill="#3D3D6B"/>
<path d="M324.033 139.372H342.456C343.661 139.372 344.639 140.347 344.639 141.549V188.954C344.639 190.156 343.661 191.13 342.456 191.13H324.033C322.827 191.13 321.85 190.156 321.85 188.954V141.549C321.85 140.347 322.827 139.372 324.033 139.372Z" fill="#285163"/>
<path d="M355.788 139.608H350.187C349.577 139.609 348.991 139.852 348.56 140.282C348.128 140.713 347.886 141.297 347.886 141.906V180.453C347.886 181.818 348.189 183.167 348.772 184.402C349.355 185.637 350.205 186.728 351.26 187.599L356.017 191.523L355.788 139.608Z" fill="#285163"/>
<path d="M1371.2 63.4899L1383.03 73.9999L1394.98 63.1699" stroke="#0A093F" stroke-width="3" stroke-miterlimit="10" stroke-linecap="round"/>
<path d="M1365.33 75.1306L1383.01 90.8106L1400.85 74.6406" stroke="#0A093F" stroke-width="3" stroke-miterlimit="10" stroke-linecap="round"/>
<path d="M481.16 85.6081C480.905 84.6318 480.723 83.638 480.615 82.6349C480.566 82.1325 480.5 81.6301 480.425 81.1277C478.701 69.3996 472.04 62.0449 463.383 60.4553C461.79 60.1671 460.189 59.8459 458.621 59.4423C456.879 58.9956 455.088 58.7633 453.289 58.7505C436.734 58.6434 423.19 77.0426 423.042 99.8481C423.042 100.886 423.042 101.907 423.108 102.912C423.145 103.491 423.145 104.071 423.108 104.65C422.91 107.593 423.021 110.55 423.438 113.47C424.469 120.471 427.259 125.915 431.179 129.514C432.566 130.774 433.936 132.059 435.256 133.393C440.159 138.335 446.208 141.3 452.769 141.341C469.325 141.456 482.868 123.049 483.017 100.243C483.055 95.3041 482.431 90.3819 481.16 85.6081Z" fill="#55895A"/>
<path d="M453.355 96.0508L452.885 167.169" stroke="#0A093F" stroke-width="3.84" stroke-miterlimit="10" stroke-linecap="round"/>
<path d="M446.108 106.675C446.108 106.675 451.721 110.727 453.932 109.714C456.144 108.701 460.535 102.746 460.535 102.746" stroke="#0A093F" stroke-width="2.56" stroke-miterlimit="10" stroke-linecap="round"/>
<path d="M442.882 119.984C442.882 119.984 450.656 125.115 453.834 123.657C457.011 122.2 463.556 113.189 463.556 113.189" stroke="#0A093F" stroke-width="2.56" stroke-miterlimit="10" stroke-linecap="round"/>
<g clip-path="url(#clip1)">
<path d="M483.506 113.65H530.324C543.805 113.65 551.192 119.174 562.998 131.524C565.592 134.233 573.46 142.247 573.46 142.247H453.286L460.772 128.483C465.805 119.224 474.351 113.65 483.506 113.65Z" fill="#EC2A39"/>
<path d="M483.506 113.65H530.324C543.805 113.65 551.192 119.174 562.998 131.524C565.592 134.233 573.46 142.247 573.46 142.247H453.286L460.772 128.483C465.805 119.224 474.351 113.65 483.506 113.65Z" fill="#EC2A39"/>
<g style="mix-blend-mode:multiply">
<g style="mix-blend-mode:multiply">
<path d="M491.013 119.825H528.091C536.496 119.825 544.491 124.069 551.461 131.85C553.709 134.339 560.071 142.247 560.071 142.247L464.299 141.922L468.321 133.151C473.34 123.885 479.568 119.5 491.013 119.825Z" fill="#B1202B"/>
</g>
<path style="mix-blend-mode:overlay" opacity="0.25" d="M491.013 119.825H528.091C536.496 119.825 544.491 124.069 551.461 131.85C553.709 134.339 560.071 142.247 560.071 142.247L464.299 141.922L468.321 133.151C473.34 123.885 479.568 119.5 491.013 119.825Z" fill="url(#paint9_linear)"/>
</g>
<path opacity="0.1" d="M478.656 142.246L503.165 117.151" stroke="white" stroke-width="4.64" stroke-miterlimit="10"/>
<path opacity="0.1" d="M526.267 142.247L545.558 122.499" stroke="white" stroke-width="7.42" stroke-miterlimit="10"/>
<path opacity="0.1" d="M485.669 147.056L515.246 116.776" stroke="white" stroke-width="11.13" stroke-miterlimit="10"/>
<path d="M575.786 192.104C585.277 192.104 592.971 183.947 592.971 173.884C592.971 163.821 585.277 155.664 575.786 155.664C566.295 155.664 558.601 163.821 558.601 173.884C558.601 183.947 566.295 192.104 575.786 192.104Z" fill="#0A093F"/>
<path opacity="0.5" d="M575.786 181.389C579.698 181.389 582.869 178.029 582.869 173.884C582.869 169.74 579.698 166.38 575.786 166.38C571.874 166.38 568.702 169.74 568.702 173.884C568.702 178.029 571.874 181.389 575.786 181.389Z" fill="white"/>
<path d="M463.84 192.104C473.331 192.104 481.025 183.947 481.025 173.884C481.025 163.821 473.331 155.664 463.84 155.664C454.349 155.664 446.655 163.821 446.655 173.884C446.655 183.947 454.349 192.104 463.84 192.104Z" fill="#0A093F"/>
<path opacity="0.5" d="M463.84 181.636C467.88 181.636 471.156 178.165 471.156 173.884C471.156 169.603 467.88 166.132 463.84 166.132C459.799 166.132 456.523 169.603 456.523 173.884C456.523 178.165 459.799 181.636 463.84 181.636Z" fill="white"/>
<path opacity="0.6" d="M463.84 168.827C462.538 168.872 461.307 169.427 460.412 170.374C459.518 171.321 459.032 172.582 459.061 173.884" stroke="white" stroke-width="1.86" stroke-miterlimit="10" stroke-linecap="round"/>
<path opacity="0.6" d="M575.849 168.827C574.549 168.873 573.32 169.43 572.427 170.376C571.534 171.323 571.049 172.583 571.078 173.884" stroke="white" stroke-width="1.86" stroke-miterlimit="10" stroke-linecap="round"/>
<path d="M519.813 118.198H512.298V156.548H519.813V118.198Z" fill="#D55835"/>
<path d="M519.813 118.198H512.298V156.548H519.813V118.198Z" fill="#EC2A39"/>
<path opacity="0.1" d="M420.04 152.729V156.258H421.701L420.146 152.729H420.04Z" fill="white"/>
<g opacity="0.75">
<path opacity="0.75" d="M575.786 155.664C574.317 155.664 572.855 155.861 571.438 156.251H580.126C578.712 155.861 577.252 155.664 575.786 155.664Z" fill="#247777"/>
<path opacity="0.75" d="M575.786 155.664C574.317 155.664 572.855 155.861 571.438 156.251H580.126C578.712 155.861 577.252 155.664 575.786 155.664Z" fill="#B1202B"/>
</g>
<path d="M449.595 156.251H422.57C420.97 156.299 419.453 156.981 418.355 158.146C417.256 159.312 416.664 160.867 416.71 162.468V166.005C416.71 166.682 416.778 167.357 416.915 168.021H442.647C443.745 163.495 446.164 159.398 449.595 156.251Z" fill="#EC2A39"/>
<path d="M449.595 156.251H422.57C420.97 156.299 419.453 156.981 418.355 158.146C417.256 159.312 416.664 160.867 416.71 162.468V166.005C416.71 166.682 416.778 167.357 416.915 168.021H442.647C443.745 163.495 446.164 159.398 449.595 156.251Z" fill="#EC2A39"/>
<path d="M428.353 152.729H454.819C457.634 151.374 460.717 150.671 463.84 150.671C466.963 150.671 470.046 151.374 472.86 152.729H565.465C568.617 150.993 572.156 150.083 575.754 150.083C579.352 150.083 582.891 150.993 586.043 152.729C587.787 153.692 589.396 154.881 590.829 156.265C594.138 159.459 596.466 163.533 597.537 168.007H628.224C628.371 167.309 628.445 166.598 628.443 165.885V162.348C628.487 160.77 627.904 159.239 626.821 158.091C625.738 156.943 624.245 156.271 622.668 156.223H590.857C589.422 154.839 587.81 153.649 586.064 152.686H606.861C607.003 151.72 607.481 150.835 608.212 150.188C608.943 149.541 609.88 149.173 610.855 149.15H621.593C620.427 146.552 618.544 144.343 616.164 142.781C613.784 141.22 611.008 140.372 608.162 140.337H436.673C434.169 140.362 431.712 141.024 429.534 142.261C427.356 143.499 425.529 145.271 424.224 147.41H428.353V152.729Z" fill="#EC2A39"/>
<path d="M428.353 152.729H454.819C457.634 151.374 460.717 150.671 463.84 150.671C466.963 150.671 470.046 151.374 472.86 152.729H565.465C568.617 150.993 572.156 150.083 575.754 150.083C579.352 150.083 582.891 150.993 586.043 152.729C587.787 153.692 589.396 154.881 590.829 156.265C594.138 159.459 596.466 163.533 597.537 168.007H628.224C628.371 167.309 628.445 166.598 628.443 165.885V162.348C628.487 160.77 627.904 159.239 626.821 158.091C625.738 156.943 624.245 156.271 622.668 156.223H590.857C589.422 154.839 587.81 153.649 586.064 152.686H606.861C607.003 151.72 607.481 150.835 608.212 150.188C608.943 149.541 609.88 149.173 610.855 149.15H621.593C620.427 146.552 618.544 144.343 616.164 142.781C613.784 141.22 611.008 140.372 608.162 140.337H436.673C434.169 140.362 431.712 141.024 429.534 142.261C427.356 143.499 425.529 145.271 424.224 147.41H428.353V152.729Z" fill="#EC2A39"/>
<path d="M478.07 156.251C481.499 159.394 483.917 163.486 485.019 168.006H554.013C555.076 163.53 557.396 159.451 560.7 156.251H478.07Z" fill="#EC2A39"/>
<path d="M478.07 156.251C481.499 159.394 483.917 163.486 485.019 168.006H554.013C555.076 163.53 557.396 159.451 560.7 156.251H478.07Z" fill="#EC2A39"/>
<path d="M606.897 152.729H586.099C587.845 153.692 589.457 154.881 590.892 156.265H606.833V153.492C606.833 153.236 606.855 152.981 606.897 152.729Z" fill="#EC2A39"/>
<path d="M606.897 152.729H586.099C587.845 153.692 589.457 154.881 590.892 156.265H606.833V153.492C606.833 153.236 606.855 152.981 606.897 152.729Z" fill="#EC2A39"/>
<path opacity="0.1" d="M606.897 152.729H586.099C587.845 153.692 589.457 154.881 590.892 156.265H606.833V153.492C606.833 153.236 606.855 152.981 606.897 152.729Z" fill="white"/>
<path d="M428.353 156.251H449.595C451.156 154.825 452.916 153.633 454.82 152.715H428.353V156.251Z" fill="#EC2A39"/>
<path d="M428.353 156.251H449.595C451.156 154.825 452.916 153.633 454.82 152.715H428.353V156.251Z" fill="#EC2A39"/>
<path opacity="0.1" d="M428.353 156.251H449.595C451.156 154.825 452.916 153.633 454.82 152.715H428.353V156.251Z" fill="white"/>
<path d="M565.493 152.729H472.888C474.79 153.647 476.547 154.839 478.105 156.265H560.707C562.14 154.881 563.749 153.691 565.493 152.729Z" fill="#EC2A39"/>
<path d="M565.493 152.729H472.888C474.79 153.647 476.547 154.839 478.105 156.265H560.707C562.14 154.881 563.749 153.691 565.493 152.729Z" fill="#EC2A39"/>
<path opacity="0.1" d="M565.493 152.729H472.888C474.79 153.647 476.547 154.839 478.105 156.265H560.707C562.14 154.881 563.749 153.691 565.493 152.729Z" fill="white"/>
<path d="M597.537 168.007C596.474 163.53 594.154 159.451 590.85 156.251C589.417 154.867 587.808 153.678 586.064 152.715C582.912 150.979 579.373 150.069 575.775 150.069C572.177 150.069 568.638 150.979 565.486 152.715C563.742 153.678 562.133 154.867 560.7 156.251C557.396 159.451 555.076 163.53 554.013 168.007H485.019C483.917 163.486 481.499 159.395 478.07 156.251C476.512 154.825 474.754 153.633 472.853 152.715C470.039 151.36 466.956 150.657 463.833 150.657C460.71 150.657 457.627 151.36 454.812 152.715C452.908 153.633 451.149 154.825 449.588 156.251C446.16 159.395 443.741 163.486 442.639 168.007H416.915C417.289 170.114 418.38 172.026 420.004 173.419C421.628 174.812 423.684 175.598 425.822 175.646H446.732C446.676 175.066 446.648 174.478 446.648 173.884C446.648 163.827 454.346 155.664 463.84 155.664C473.333 155.664 481.025 163.827 481.025 173.884C481.025 174.478 480.996 175.066 480.94 175.646H558.657C558.601 175.066 558.572 174.478 558.572 173.884C558.571 171.889 558.881 169.906 559.491 168.007C560.353 165.214 561.894 162.678 563.975 160.627C566.056 158.575 568.613 157.072 571.417 156.251C574.26 155.468 577.262 155.468 580.105 156.251H580.14C587.513 158.295 592.956 165.446 592.956 173.87C592.956 174.464 592.928 175.051 592.872 175.631H619.254C621.398 175.585 623.461 174.8 625.094 173.408C626.727 172.017 627.83 170.104 628.217 167.993L597.537 168.007Z" fill="#247777"/>
<path d="M597.537 168.007C596.474 163.53 594.154 159.451 590.85 156.251C589.417 154.867 587.808 153.678 586.064 152.715C582.912 150.979 579.373 150.069 575.775 150.069C572.177 150.069 568.638 150.979 565.486 152.715C563.742 153.678 562.133 154.867 560.7 156.251C557.396 159.451 555.076 163.53 554.013 168.007H485.019C483.917 163.486 481.499 159.395 478.07 156.251C476.512 154.825 474.754 153.633 472.853 152.715C470.039 151.36 466.956 150.657 463.833 150.657C460.71 150.657 457.627 151.36 454.812 152.715C452.908 153.633 451.149 154.825 449.588 156.251C446.16 159.395 443.741 163.486 442.639 168.007H416.915C417.289 170.114 418.38 172.026 420.004 173.419C421.628 174.812 423.684 175.598 425.822 175.646H446.732C446.676 175.066 446.648 174.478 446.648 173.884C446.648 163.827 454.346 155.664 463.84 155.664C473.333 155.664 481.025 163.827 481.025 173.884C481.025 174.478 480.996 175.066 480.94 175.646H558.657C558.601 175.066 558.572 174.478 558.572 173.884C558.571 171.889 558.881 169.906 559.491 168.007C560.353 165.214 561.894 162.678 563.975 160.627C566.056 158.575 568.613 157.072 571.417 156.251C574.26 155.468 577.262 155.468 580.105 156.251H580.14C587.513 158.295 592.956 165.446 592.956 173.87C592.956 174.464 592.928 175.051 592.872 175.631H619.254C621.398 175.585 623.461 174.8 625.094 173.408C626.727 172.017 627.83 170.104 628.217 167.993L597.537 168.007Z" fill="#B1202B"/>
<path d="M622.809 152.729C622.551 151.509 622.155 150.323 621.629 149.192H610.891C609.915 149.215 608.979 149.583 608.248 150.23C607.517 150.878 607.038 151.763 606.897 152.729C606.854 152.986 606.833 153.246 606.833 153.507V156.251H623.184C623.186 155.067 623.06 153.886 622.809 152.729Z" fill="#F87481"/>
<path d="M424.224 147.438C423.211 149.063 422.493 150.854 422.104 152.729C421.855 153.892 421.73 155.077 421.729 156.266H428.381V147.438H424.224Z" fill="#F87481"/>
<path d="M524.507 113.65H485.718V119.811H524.507V113.65Z" fill="#EC2A39"/>
<path d="M546.788 127.28C546.788 127.28 542.999 124.119 540.242 122.874L542.632 118.771L550.591 125.54L546.788 127.28Z" fill="#EC2A39"/>
</g>
<defs>
<linearGradient id="paint0_linear" x1="185" y1="132" x2="185" y2="169" gradientUnits="userSpaceOnUse">
<stop stop-color="#2E824B"/>
<stop offset="1" stop-color="#2D7239"/>
</linearGradient>
<linearGradient id="paint1_linear" x1="1371.9" y1="114.908" x2="1370.25" y2="217.679" gradientUnits="userSpaceOnUse">
<stop offset="0.03" stop-color="#007A37"/>
<stop offset="0.22" stop-color="#248046"/>
<stop offset="0.41" stop-color="#3F8551"/>
<stop offset="0.57" stop-color="#4F8858"/>
<stop offset="0.7" stop-color="#55895A"/>
</linearGradient>
<linearGradient id="paint2_linear" x1="282.11" y1="60.6186" x2="163.022" y2="290.49" gradientUnits="userSpaceOnUse">
<stop offset="0.03" stop-color="#007A37"/>
<stop offset="0.22" stop-color="#248046"/>
<stop offset="0.41" stop-color="#3F8551"/>
<stop offset="0.57" stop-color="#4F8858"/>
<stop offset="0.7" stop-color="#55895A"/>
</linearGradient>
<linearGradient id="paint3_linear" x1="370.242" y1="123.133" x2="369.892" y2="188.415" gradientUnits="userSpaceOnUse">
<stop offset="0.03" stop-color="#007A37"/>
<stop offset="0.22" stop-color="#248046"/>
<stop offset="0.41" stop-color="#3F8551"/>
<stop offset="0.57" stop-color="#4F8858"/>
<stop offset="0.7" stop-color="#55895A"/>
</linearGradient>
<linearGradient id="paint4_linear" x1="665.354" y1="97.3456" x2="664.741" y2="217.987" gradientUnits="userSpaceOnUse">
<stop offset="0.03" stop-color="#007A37"/>
<stop offset="0.22" stop-color="#248046"/>
<stop offset="0.41" stop-color="#3F8551"/>
<stop offset="0.57" stop-color="#4F8858"/>
<stop offset="0.7" stop-color="#55895A"/>
</linearGradient>
<linearGradient id="paint5_linear" x1="742.89" y1="125.076" x2="741.534" y2="187.412" gradientUnits="userSpaceOnUse">
<stop offset="0.03" stop-color="#007A37"/>
<stop offset="0.22" stop-color="#248046"/>
<stop offset="0.41" stop-color="#3F8551"/>
<stop offset="0.57" stop-color="#4F8858"/>
<stop offset="0.7" stop-color="#55895A"/>
</linearGradient>
<linearGradient id="paint6_linear" x1="939.108" y1="132.631" x2="943.51" y2="184.032" gradientUnits="userSpaceOnUse">
<stop offset="0.03" stop-color="#007A37"/>
<stop offset="0.22" stop-color="#248046"/>
<stop offset="0.41" stop-color="#3F8551"/>
<stop offset="0.57" stop-color="#4F8858"/>
<stop offset="0.7" stop-color="#55895A"/>
</linearGradient>
<linearGradient id="paint7_linear" x1="1025.79" y1="88.7464" x2="1022.81" y2="222.673" gradientUnits="userSpaceOnUse">
<stop offset="0.03" stop-color="#007A37"/>
<stop offset="0.22" stop-color="#248046"/>
<stop offset="0.41" stop-color="#3F8551"/>
<stop offset="0.57" stop-color="#4F8858"/>
<stop offset="0.7" stop-color="#55895A"/>
</linearGradient>
<linearGradient id="paint8_linear" x1="1099.93" y1="78.1764" x2="1114.72" y2="226.483" gradientUnits="userSpaceOnUse">
<stop offset="0.03" stop-color="#007A37"/>
<stop offset="0.22" stop-color="#248046"/>
<stop offset="0.41" stop-color="#3F8551"/>
<stop offset="0.57" stop-color="#4F8858"/>
<stop offset="0.7" stop-color="#55895A"/>
</linearGradient>
<linearGradient id="paint9_linear" x1="426.331" y1="102.921" x2="627.221" y2="180.585" gradientUnits="userSpaceOnUse">
<stop stop-color="#646489" stop-opacity="0"/>
<stop offset="1" stop-color="#646489"/>
</linearGradient>
<clipPath id="clip0">
<rect y="202.488" width="1440" height="5.74783" fill="white"/>
</clipPath>
<clipPath id="clip1">
<rect x="416" y="112.75" width="213" height="80" fill="white"/>
</clipPath>
</defs>
</svg>
