<svg width="608" height="240" viewBox="0 0 608 240" fill="none" xmlns="http://www.w3.org/2000/svg">
<g clip-path="url(#clip0)">
<path d="M86.8375 181.718H9C9 181.718 13.5491 156.562 36.3268 162.421C39.6724 163.201 42.7112 164.955 45.0594 167.46C46.2372 168.718 48.0975 168.207 48.6742 166.43C50.2095 161.699 54.8073 155.45 68.3002 155.751C89.9813 156.27 86.8375 181.718 86.8375 181.718Z" fill="url(#paint0_linear)"/>
<path d="M521.68 57.8702C521.272 57.1842 521.1 56.3833 521.19 55.5902C521.334 54.352 521.407 53.1067 521.41 51.8602C521.413 47.6742 520.591 43.5287 518.99 39.6609C517.389 35.7932 515.041 32.2792 512.08 29.3202C511.656 28.8916 511.344 28.3661 511.169 27.7892C510.995 27.2124 510.964 26.6017 511.08 26.0102C511.636 23.013 511.562 19.9329 510.865 16.9655C510.167 13.9981 508.86 11.208 507.028 8.77224C505.195 6.33648 502.876 4.30818 500.218 2.81601C497.559 1.32384 494.62 0.400353 491.586 0.104126C488.552 -0.192101 485.49 0.145396 482.594 1.09521C479.697 2.04503 477.029 3.58643 474.76 5.62166C472.491 7.65689 470.669 10.1415 469.411 12.918C468.152 15.6944 467.484 18.7021 467.45 21.7502C467.449 23.1702 467.586 24.5869 467.86 25.9802C467.977 26.5716 467.947 27.1828 467.773 27.76C467.598 28.3371 467.285 28.8626 466.86 29.2902C463.899 32.2541 461.552 35.7736 459.954 39.6468C458.356 43.5199 457.539 47.6705 457.55 51.8602C457.553 53.1067 457.626 54.352 457.77 55.5902C457.865 56.3791 457.696 57.1772 457.29 57.8602C453.899 63.5496 452.076 70.0359 452.007 76.6588C451.938 83.2818 453.625 89.8047 456.897 95.5635C460.168 101.322 464.908 106.111 470.632 109.443C476.357 112.774 482.862 114.53 489.485 114.53C496.108 114.53 502.613 112.774 508.338 109.443C514.062 106.111 518.801 101.322 522.073 95.5635C525.345 89.8047 527.032 83.2818 526.963 76.6588C526.894 70.0359 525.071 63.5496 521.68 57.8602V57.8702Z" fill="#55895A"/>
<path d="M489.99 167.109V53.2891" stroke="#0A093F" stroke-width="3" stroke-miterlimit="10" stroke-linecap="round"/>
<path d="M382.115 188.254C382.115 188.254 351.607 191.455 363.883 162.998C363.883 162.998 346.866 149.484 370.71 132.858C372.716 131.481 374.569 129.898 376.24 128.137C382.706 121.271 406.057 119.247 431.175 132.501C435.456 134.76 441.807 128.714 446.638 128.438C455.939 127.869 467.409 130.494 470.802 143.804C471.222 145.47 472.898 146.437 474.303 145.429C479.602 141.569 490.144 133.143 505.895 139.497C515.426 143.341 520.569 148.972 522.804 154.181C523.169 155.035 523.749 155.783 524.487 156.355C525.225 156.927 526.098 157.304 527.024 157.45C527.95 157.596 528.898 157.507 529.78 157.191C530.662 156.875 531.448 156.343 532.064 155.644C535.523 151.654 539.245 148.818 544.75 147.827C557.329 145.543 566.113 149.102 572.858 156.83C573.976 158.106 577.229 160.487 578.938 160.601C586.596 161.137 607.268 163.851 607.967 177.373V188.749L382.115 188.254Z" fill="url(#paint1_linear)"/>
<path d="M621 169H-14V240H621V169Z" fill="#A7CAD0"/>
<path d="M-14 208L621 204" stroke="#6DA6B0" stroke-opacity="0.5" stroke-width="3" stroke-miterlimit="10" stroke-linecap="round" stroke-dasharray="15 15"/>
<path d="M218 169.75H54C54 169.75 54.4765 150.773 82.1206 147.979C84.7024 147.722 87.1745 146.807 89.2994 145.321C91.4243 143.836 93.1306 141.831 94.2545 139.499C97.4173 132.944 104.113 124.75 117.972 124.75C131.527 124.75 138.69 132.428 142.297 138.81C143.503 140.985 145.411 142.689 147.711 143.644C150.011 144.599 152.568 144.749 154.965 144.071C166.466 140.793 186.183 137.065 200.863 144.89C217.762 153.862 218 169.75 218 169.75Z" fill="url(#paint2_linear)"/>
<path d="M139 169.75H303C303 169.75 302.524 150.773 274.879 147.979C272.295 147.725 269.819 146.811 267.691 145.325C265.563 143.84 263.854 141.833 262.729 139.499C259.583 132.944 252.871 124.75 239.028 124.75C225.473 124.75 218.31 132.428 214.703 138.81C213.497 140.985 211.589 142.689 209.289 143.644C206.989 144.599 204.432 144.749 202.035 144.071C190.534 140.793 170.817 137.065 156.137 144.89C139.238 153.862 139 169.75 139 169.75Z" fill="url(#paint3_linear)"/>
<path d="M188.147 85.6081C187.892 84.6318 187.71 83.638 187.603 82.6349C187.553 82.1325 187.487 81.6301 187.413 81.1277C185.688 69.3996 179.028 62.0449 170.37 60.4553C168.777 60.1671 167.176 59.8459 165.608 59.4423C163.866 58.9956 162.075 58.7633 160.277 58.7505C143.721 58.6434 130.178 77.0426 130.029 99.8481C130.029 100.886 130.029 101.907 130.095 102.912C130.132 103.491 130.132 104.071 130.095 104.65C129.897 107.593 130.008 110.55 130.425 113.47C131.457 120.471 134.246 125.915 138.167 129.514C139.553 130.774 140.923 132.059 142.244 133.393C147.146 138.335 153.195 141.3 159.757 141.341C176.312 141.456 189.856 123.049 190.004 100.243C190.043 95.3041 189.418 90.3819 188.147 85.6081Z" fill="#55895A"/>
<path d="M160.342 96.0508L159.872 167.169" stroke="#0A093F" stroke-width="3.84" stroke-miterlimit="10" stroke-linecap="round"/>
<path d="M153.096 106.676C153.096 106.676 158.708 110.728 160.92 109.715C163.132 108.702 167.523 102.747 167.523 102.747" stroke="#0A093F" stroke-width="2.56" stroke-miterlimit="10" stroke-linecap="round"/>
<path d="M149.869 119.985C149.869 119.985 157.644 125.116 160.821 123.658C163.998 122.201 170.543 113.19 170.543 113.19" stroke="#0A093F" stroke-width="2.56" stroke-miterlimit="10" stroke-linecap="round"/>
</g>
<defs>
<linearGradient id="paint0_linear" x1="45.1081" y1="145.631" x2="49.51" y2="197.032" gradientUnits="userSpaceOnUse">
<stop offset="0.03" stop-color="#007A37"/>
<stop offset="0.22" stop-color="#248046"/>
<stop offset="0.41" stop-color="#3F8551"/>
<stop offset="0.57" stop-color="#4F8858"/>
<stop offset="0.7" stop-color="#55895A"/>
</linearGradient>
<linearGradient id="paint1_linear" x1="483.899" y1="114.908" x2="482.252" y2="217.679" gradientUnits="userSpaceOnUse">
<stop offset="0.03" stop-color="#007A37"/>
<stop offset="0.22" stop-color="#248046"/>
<stop offset="0.41" stop-color="#3F8551"/>
<stop offset="0.57" stop-color="#4F8858"/>
<stop offset="0.7" stop-color="#55895A"/>
</linearGradient>
<linearGradient id="paint2_linear" x1="137.787" y1="89.7464" x2="134.812" y2="223.673" gradientUnits="userSpaceOnUse">
<stop offset="0.03" stop-color="#007A37"/>
<stop offset="0.22" stop-color="#248046"/>
<stop offset="0.41" stop-color="#3F8551"/>
<stop offset="0.57" stop-color="#4F8858"/>
<stop offset="0.7" stop-color="#55895A"/>
</linearGradient>
<linearGradient id="paint3_linear" x1="211.926" y1="79.1764" x2="226.719" y2="227.483" gradientUnits="userSpaceOnUse">
<stop offset="0.03" stop-color="#007A37"/>
<stop offset="0.22" stop-color="#248046"/>
<stop offset="0.41" stop-color="#3F8551"/>
<stop offset="0.57" stop-color="#4F8858"/>
<stop offset="0.7" stop-color="#55895A"/>
</linearGradient>
<clipPath id="clip0">
<rect width="608" height="240" fill="white"/>
</clipPath>
</defs>
</svg>
