<?xml version="1.0" encoding="UTF-8" standalone="no"?>
<svg
   xmlns:dc="http://purl.org/dc/elements/1.1/"
   xmlns:cc="http://creativecommons.org/ns#"
   xmlns:rdf="http://www.w3.org/1999/02/22-rdf-syntax-ns#"
   xmlns:svg="http://www.w3.org/2000/svg"
   xmlns="http://www.w3.org/2000/svg"
   viewBox="0 0 912 158.81332"
   height="158.81332"
   width="912"
   xml:space="preserve"
   id="svg2"
   version="1.1"><metadata
     id="metadata8"><rdf:RDF><cc:Work
         rdf:about=""><dc:format>image/svg+xml</dc:format><dc:type
           rdf:resource="http://purl.org/dc/dcmitype/StillImage" /></cc:Work></rdf:RDF></metadata><defs
     id="defs6" /><g
     transform="matrix(1.3333333,0,0,-1.3333333,0,158.81333)"
     id="g10"><g
       transform="scale(0.1)"
       id="g12"><path
         id="path14"
         style="fill:#0c132d;fill-opacity:1;fill-rule:nonzero;stroke:none"
         d="m 3222.38,135.941 c 92.64,0 127.67,0 234.82,0 263.89,0 353.76,167.903 353.76,318.356 0,152.07 -89.83,318.363 -353.76,318.363 -107.79,0 -153.8,0 -234.82,0 -275.68,0 -355.95,-174.906 -355.95,-318.363 0,-127.875 71.67,-318.356 355.95,-318.356 z m -355.99,644.68 c 58.45,55.238 161.7,114.594 325.68,114.594 0,0 146.84,0 274.82,0 374,0 479.6,-253.531 479.6,-440.918 0,-211.07 -126.82,-440.9259 -479.6,-440.9259 -72.68,0 -159.71,0 -274.82,0 -267.61,0 -461.13,172.9609 -461.13,440.8629 0,89.625 0,736.836 0,736.836 0,0 27.49,0 41.97,0 59.79,0 93.48,-30.73 93.48,-87.1 0,-10.15 0,-323.349 0,-323.349 z M 1869.6,135.941 c 92.63,0 127.67,0 234.82,0 263.9,0 353.74,167.903 353.74,318.356 0,152.07 -89.8,318.363 -353.74,318.363 -107.8,0 -153.82,0 -234.82,0 -275.68,0 -355.97,-174.906 -355.97,-318.363 0,-127.875 71.69,-318.356 355.97,-318.356 z m -355.98,644.68 c 58.42,55.238 161.69,114.594 325.66,114.594 0,0 146.84,0 274.83,0 373.98,0 479.6,-253.531 479.6,-440.918 0,-211.07 -126.82,-440.9259 -479.6,-440.9259 -72.67,0 -159.73,0 -274.83,0 -267.61,0 -461.14,172.9609 -461.14,440.8629 0,89.625 0,736.836 0,736.836 0,0 27.51,0 41.99,0 59.79,0 93.49,-30.73 93.49,-87.1 0,-10.15 0,-323.349 0,-323.349 z m 3897.49,114.606 c 0,0 24.5,0 32.16,0 62.92,0 103.26,-28.262 103.26,-113.817 0,-10.14 0,-768.0311 0,-768.0311 0,0 -19.28,0 -33.76,0 -68.77,0 -101.66,37.332 -101.66,111.4021 0,10.168 0,770.446 0,770.446 z m 67.72,100.988 c 39.13,0 69.45,24.215 69.45,70.115 0,8.94 0,23.58 0,29.1 0,46.45 -30.66,70.1 -69.45,70.1 -38.43,0 -69.41,-23.29 -69.41,-70.1 0,-6.09 0,-19.02 0,-29.1 0,-46.2 30.36,-70.115 69.41,-70.115 z M 724.105,772.66 c -92.652,0 -127.675,0 -234.835,0 -263.899,0 -353.739,-167.906 -353.739,-318.363 0,-152.082 89.813,-318.356 353.739,-318.356 107.816,0 153.82,0 234.835,0 275.657,0 355.955,174.903 355.955,318.356 0,127.887 -71.68,318.363 -355.955,318.363 z M 1252.19,13.3711 c -55.13,0 -89.69,27.2109 -100.44,86.0781 L 1133.73,195.18 C 1104,140.031 993.457,13.3711 754.418,13.3711 c 0,0 -146.824,0 -274.816,0 C 105.602,13.3711 0,266.898 0,454.297 c 0,211.051 126.785,440.918 479.602,440.918 72.664,0 159.707,0 274.816,0 267.612,0 416.482,-155.918 452.292,-345.848 29.87,-158.57 100.11,-535.9959 100.11,-535.9959 0,0 -25.15,0 -54.63,0 z M 4700.43,69.1016 C 4662.98,17.9414 4637.21,0 4604.29,0 c -45.52,0 -63,24.6602 -95.56,69.0391 -78.98,107.6409 -604.82,826.1759 -604.82,826.1759 0,0 50.55,0 81.3,0 87.82,0 113.03,-31.043 149.48,-81.965 15.94,-22.246 473.14,-666.75 473.14,-666.75 0,0 456.75,643.676 475.44,670.215 33.59,47.637 59.64,78.5 147.8,78.5 24.89,0 71.47,0 71.47,0 0,0 -537.94,-738.434 -602.11,-826.1134 z M 6182.99,772.66 c 56.86,0 282.64,0 364.47,0 125.68,0 155.95,-78.328 155.95,-128.543 0,-45.062 -27.52,-128.527 -155.95,-128.527 -86.14,0 -709.2,0 -709.2,0 8.63,87.473 81.86,257.07 344.73,257.07 z m 634.3,-734.3397 c 0,72.4177 -41.78,97.6207 -111.48,97.6207 -38.69,0 -523.82,0 -523.82,0 -245.78,0 -332.51,152.247 -343.73,257.082 0,0 558.21,0 727.06,0 212.1,0 274.68,152.731 274.68,251.11 0,104.957 -67.96,251.082 -274.68,251.082 -186.92,0 -392.66,0 -392.66,0 -357.65,0 -475.19,-243.492 -475.19,-440.918 0,-216.918 133.92,-440.9259 474.2,-440.9259 h 645.62 c 0,0 0,18.418 0,24.9492" /></g></g></svg>