<svg width="100" height="133" viewBox="0 0 100 133" fill="none" xmlns="http://www.w3.org/2000/svg">
<g clip-path="url(#clip0)">
<path d="M76.9473 15.4387C76.9473 18.3159 75.9298 22.3159 71.8596 22.3159C66.9473 22.3159 66.9473 16.8071 66.9473 15.6492C66.9473 14.5264 66.9474 8.59656 72 8.59656C76.5965 8.59656 76.9473 13.6843 76.9473 15.4387ZM66.9824 0.0351562H63.6842V21.2632L63.614 24.4211H66.807L66.8772 21.7545C67.228 22.2808 67.614 22.8773 68.5965 23.5439C70.1052 24.5615 71.6842 24.6667 72.5263 24.6667C74.9474 24.6667 77.2982 23.6492 78.7368 21.6492C79.614 20.4913 80.421 18.6316 80.421 15.1931C80.421 11.3334 79.2281 9.57901 78.3509 8.56147C76.7368 6.73691 74.5263 6.31586 72.7368 6.31586C68.7368 6.31586 67.4386 8.52638 66.9824 9.3334V0.0351562Z" fill="#009900"/>
<path d="M86.1405 16.1394C86.1405 14.5604 86.1405 8.94637 91.4036 8.94637C95.2984 8.94637 96.2457 12.2446 96.2457 15.4376C96.2457 16.7008 96.0703 19.2271 94.8071 20.9464C93.6843 22.4902 91.9299 22.6657 91.0878 22.6657C86.4562 22.7008 86.1405 18.3148 86.1405 16.1394ZM82.9475 31.2622H86.2106V22.4902C87.158 24.0341 89.0527 25.1218 91.6141 25.1218C95.8247 25.1218 99.6492 22.2446 99.6492 15.6481C99.6492 9.08673 96.0352 6.49023 92.2457 6.49023C90.8071 6.49023 87.8949 6.91129 86.2106 9.68322L86.1405 6.77094H82.8071C82.8773 8.45515 82.9124 8.8762 82.9124 9.64813V31.2622H82.9475Z" fill="#009900"/>
<path fill-rule="evenodd" clip-rule="evenodd" d="M56.737 43.4391C54.2458 37.5444 51.1931 33.0531 49.9651 31.2637C48.737 33.0882 45.6843 37.5795 43.1931 43.4391C45.6493 46.0707 48.0352 49.1584 49.9651 52.6672C51.8949 49.1233 54.2808 46.0356 56.737 43.4391Z" fill="#009900"/>
<path fill-rule="evenodd" clip-rule="evenodd" d="M43.228 120.037C45.7193 125.931 48.7719 130.423 50 132.212C51.1929 130.388 54.2806 125.896 56.7719 120.037C54.3508 117.405 51.9298 114.317 50 110.809C48.0701 114.317 45.6491 117.405 43.228 120.037Z" fill="#009900"/>
<path fill-rule="evenodd" clip-rule="evenodd" d="M43.2281 43.4391C38.8772 38.7725 34.4562 35.5795 32.7018 34.2812C32.1755 36.3865 30.8422 41.6497 30.5264 48.0356C33.7193 49.6497 37.0176 51.7549 40.0351 54.3865C40.6316 50.4567 41.8246 46.7023 43.2281 43.4391Z" fill="#009900"/>
<path fill-rule="evenodd" clip-rule="evenodd" d="M56.7368 120.035C61.0877 124.702 65.4737 127.895 67.2631 129.193C67.7894 127.088 69.1228 121.79 69.4386 115.439C66.2456 113.79 62.9473 111.719 59.9298 109.088C59.3333 113.018 58.1052 116.737 56.7368 120.035Z" fill="#009900"/>
<path fill-rule="evenodd" clip-rule="evenodd" d="M30.5263 48.0352C24.8421 45.1229 19.6141 43.6492 17.5088 43.0527C17.7544 45.2282 18.2807 50.6317 20.1755 56.7369C23.7193 57.158 27.5439 58.0001 31.2632 59.4387C30.4912 55.544 30.3509 51.6141 30.5263 48.0352Z" fill="#009900"/>
<path fill-rule="evenodd" clip-rule="evenodd" d="M69.4036 115.439C75.0878 118.351 80.3159 119.825 82.4211 120.421C82.1755 118.246 81.6492 112.842 79.7545 106.737C76.2106 106.281 72.386 105.474 68.6667 104C69.4738 107.93 69.6141 111.86 69.4036 115.439Z" fill="#009900"/>
<path fill-rule="evenodd" clip-rule="evenodd" d="M24.7719 67.1949C22.7017 63.7914 21.2281 60.1423 20.1754 56.7388C13.8246 55.9318 8.42104 56.3528 6.24561 56.4932C7.22806 58.4581 9.57895 63.3353 13.4035 68.423C16.9123 67.616 20.7719 67.0897 24.7719 67.1949Z" fill="#009900"/>
<path fill-rule="evenodd" clip-rule="evenodd" d="M75.158 96.2807C77.2281 99.6842 78.7369 103.333 79.7544 106.737C86.1053 107.544 91.5088 107.123 93.6843 106.982C92.7018 105.018 90.3509 100.14 86.4913 95.0176C83.0527 95.8246 79.158 96.386 75.158 96.2807Z" fill="#009900"/>
<path fill-rule="evenodd" clip-rule="evenodd" d="M13.4035 68.4219C7.19297 69.8605 2.24561 72.071 0.245605 72.9482C1.82455 74.457 5.71929 78.2464 11.0877 81.7201C14.0702 79.7903 17.5438 77.9306 21.3333 76.6675C18.2105 74.1763 15.5789 71.264 13.4035 68.4219Z" fill="#009900"/>
<path fill-rule="evenodd" clip-rule="evenodd" d="M88.8772 81.7188C85.8948 83.6486 82.4211 85.5082 78.6316 86.7714C81.7544 89.2626 84.386 92.1749 86.5263 95.017C92.7719 93.5784 97.7193 91.3679 99.6842 90.4907C98.1404 88.9819 94.2456 85.1924 88.8772 81.7188Z" fill="#009900"/>
<path fill-rule="evenodd" clip-rule="evenodd" d="M21.3333 86.7714C17.5438 85.5082 14.0702 83.6486 11.0877 81.7188C5.71929 85.1924 1.82455 88.9819 0.245605 90.4907C2.24561 91.3679 7.19297 93.6135 13.4035 95.017C15.5789 92.1749 18.2105 89.2977 21.3333 86.7714Z" fill="#009900"/>
<path fill-rule="evenodd" clip-rule="evenodd" d="M78.6316 76.6675C82.4211 77.9306 85.8597 79.7903 88.8772 81.7201C94.2456 78.2464 98.1404 74.457 99.7193 72.9482C97.7193 72.071 92.772 69.8254 86.5614 68.4219C84.386 71.264 81.7544 74.1763 78.6316 76.6675Z" fill="#009900"/>
<path fill-rule="evenodd" clip-rule="evenodd" d="M13.4035 95.0527C9.54386 100.14 7.19297 105.053 6.24561 107.018C8.42104 107.158 13.8246 107.544 20.1754 106.772C21.2281 103.369 22.7017 99.7194 24.7719 96.3159C20.7719 96.3861 16.9123 95.8247 13.4035 95.0527Z" fill="#009900"/>
<path fill-rule="evenodd" clip-rule="evenodd" d="M86.5262 68.4205C90.3859 63.3328 92.7367 58.4205 93.7192 56.4556C91.5437 56.3153 86.1052 55.9293 79.7894 56.7012C78.7367 60.1048 77.263 63.7539 75.1929 67.1574C79.1578 67.0872 83.0525 67.6135 86.5262 68.4205Z" fill="#009900"/>
<path fill-rule="evenodd" clip-rule="evenodd" d="M31.2632 104C27.5439 105.439 23.7193 106.281 20.1755 106.737C18.2807 112.842 17.7544 118.246 17.5088 120.421C19.6141 119.825 24.8421 118.351 30.5263 115.439C30.3509 111.86 30.4912 107.93 31.2632 104Z" fill="#009900"/>
<path fill-rule="evenodd" clip-rule="evenodd" d="M68.6667 59.4387C72.386 58.0001 76.2106 57.158 79.7545 56.7369C81.6492 50.6317 82.1755 45.2282 82.4211 43.0527C80.3159 43.6492 75.0878 45.1229 69.4036 48.0352C69.6141 51.6141 69.4738 55.5089 68.6667 59.4387Z" fill="#009900"/>
<path fill-rule="evenodd" clip-rule="evenodd" d="M30.5264 115.439C30.8422 121.825 32.1755 127.088 32.7018 129.193C34.4562 127.895 38.8772 124.737 43.2281 120.035C41.8246 116.737 40.6316 113.018 40.0351 109.053C37.0176 111.719 33.7193 113.79 30.5264 115.439Z" fill="#009900"/>
<path fill-rule="evenodd" clip-rule="evenodd" d="M69.4034 48.0356C69.0876 41.6497 67.7543 36.3865 67.228 34.2812C65.4736 35.5795 61.0525 38.7374 56.7017 43.4391C58.0701 46.7374 59.2982 50.4567 59.8947 54.3865C62.9122 51.7549 66.2455 49.6848 69.4034 48.0356Z" fill="#009900"/>
<path fill-rule="evenodd" clip-rule="evenodd" d="M46.4912 62.106C47.1228 58.7025 48.386 55.5096 49.9649 52.6324C48.0351 49.1236 45.6491 46.0359 43.193 43.4043C41.7895 46.7025 40.5965 50.4218 40 54.3517C42.4912 56.5622 44.7368 59.1236 46.4912 62.106Z" fill="#99CC00"/>
<path fill-rule="evenodd" clip-rule="evenodd" d="M53.4385 101.369C52.8069 104.773 51.5438 107.931 49.9648 110.843C51.8596 114.352 54.2806 117.439 56.7368 120.071C58.1052 116.773 59.3333 113.053 59.9297 109.088C57.4385 106.913 55.1929 104.352 53.4385 101.369Z" fill="#99CC00"/>
<path fill-rule="evenodd" clip-rule="evenodd" d="M31.2632 59.4406C34.3158 60.6336 37.2983 62.2476 40 64.4582C39.4386 61.0196 39.5088 57.6511 40 54.388C37.0176 51.7564 33.6842 49.6862 30.4913 48.0371C30.3509 51.6161 30.4912 55.5459 31.2632 59.4406Z" fill="#99CC00"/>
<path fill-rule="evenodd" clip-rule="evenodd" d="M68.6667 104C65.6141 102.807 62.6316 101.193 59.9299 98.9824C60.4913 102.386 60.4211 105.789 59.8948 109.053C62.8772 111.684 66.2106 113.754 69.4035 115.403C69.6141 111.86 69.4737 107.93 68.6667 104Z" fill="#99CC00"/>
<path fill-rule="evenodd" clip-rule="evenodd" d="M34.7016 68.9137C32.9823 65.8962 31.9297 62.6681 31.263 59.44C27.5437 58.0014 23.7192 57.1593 20.1753 56.7383C21.2279 60.1418 22.7016 63.7909 24.7718 67.1944C28.07 67.2646 31.4385 67.7558 34.7016 68.9137Z" fill="#99CC00"/>
<path fill-rule="evenodd" clip-rule="evenodd" d="M65.228 94.5625C66.9473 97.58 68 100.808 68.6666 104.036C72.3859 105.475 76.2105 106.317 79.7543 106.773C78.7017 103.37 77.228 99.7204 75.1578 96.3169C71.8947 96.2116 68.5263 95.6853 65.228 94.5625Z" fill="#99CC00"/>
<path fill-rule="evenodd" clip-rule="evenodd" d="M21.3332 76.668C24.456 75.6154 27.7894 74.9487 31.263 74.9136C28.6315 72.668 26.4911 70.0014 24.8069 67.1943C20.8069 67.0891 16.9472 67.6505 13.4385 68.4224C15.5788 71.2645 18.2104 74.1768 21.3332 76.668Z" fill="#99CC00"/>
<path fill-rule="evenodd" clip-rule="evenodd" d="M78.6315 86.7734C75.5087 87.8261 72.1753 88.4927 68.7017 88.5278C71.3332 90.7734 73.4736 93.4401 75.1578 96.2471C79.1578 96.3524 83.0525 95.791 86.5262 94.984C84.3859 92.177 81.7543 89.2998 78.6315 86.7734Z" fill="#99CC00"/>
<path fill-rule="evenodd" clip-rule="evenodd" d="M30.035 81.7186C26.7718 80.4906 23.8947 78.7362 21.3333 76.666C17.5438 77.9292 14.0701 79.7888 11.0876 81.7186C14.0701 83.6485 17.5438 85.5081 21.3333 86.7713C23.8947 84.7362 26.7718 82.9467 30.035 81.7186Z" fill="#99CC00"/>
<path fill-rule="evenodd" clip-rule="evenodd" d="M69.8948 81.7186C73.1579 82.9467 76.0351 84.7011 78.6316 86.7713C82.4211 85.5081 85.8597 83.6485 88.8772 81.7186C85.8948 79.7888 82.4211 77.9292 78.6316 76.666C76.0702 78.7362 73.1579 80.5257 69.8948 81.7186Z" fill="#99CC00"/>
<path fill-rule="evenodd" clip-rule="evenodd" d="M24.772 96.2823C26.4913 93.4753 28.5965 90.8086 31.2281 88.563C27.7544 88.5279 24.4211 87.8612 21.2983 86.8086C18.1755 89.2998 15.5439 92.2121 13.4036 95.0542C16.9123 95.8261 20.772 96.3875 24.772 96.2823Z" fill="#99CC00"/>
<path fill-rule="evenodd" clip-rule="evenodd" d="M75.1578 67.1931C73.4385 70.0001 71.3332 72.6667 68.7017 74.9123C72.1753 74.9474 75.5087 75.6141 78.6315 76.6667C81.7543 74.1755 84.3859 71.2632 86.5262 68.4211C83.0525 67.6141 79.1578 67.0878 75.1578 67.1931Z" fill="#99CC00"/>
<path fill-rule="evenodd" clip-rule="evenodd" d="M34.7016 94.5625C31.4385 95.7204 28.07 96.2116 24.7718 96.2818C22.7016 99.6853 21.2279 103.334 20.1753 106.738C23.7192 106.282 27.5437 105.475 31.263 104.001C31.9297 100.808 32.9823 97.58 34.7016 94.5625Z" fill="#99CC00"/>
<path fill-rule="evenodd" clip-rule="evenodd" d="M65.228 68.9137C68.4912 67.7558 71.8596 67.2646 75.1578 67.1944C77.228 63.7909 78.7368 60.1418 79.7543 56.7383C76.2105 57.1593 72.3859 58.0014 68.6666 59.44C68.035 62.6681 66.9473 65.8962 65.228 68.9137Z" fill="#99CC00"/>
<path fill-rule="evenodd" clip-rule="evenodd" d="M46.4912 101.369C44.7368 104.352 42.4912 106.913 40 109.088C40.5965 113.018 41.7895 116.773 43.193 120.071C45.6491 117.439 48.0351 114.352 49.9649 110.843C48.386 107.931 47.1579 104.773 46.4912 101.369Z" fill="#99CC00"/>
<path fill-rule="evenodd" clip-rule="evenodd" d="M39.9998 99.0176C37.3331 101.228 34.3156 102.842 31.263 104.035C30.491 107.965 30.3156 111.86 30.5261 115.439C33.7191 113.79 37.0173 111.719 40.0349 109.088C39.5086 105.825 39.4384 102.421 39.9998 99.0176Z" fill="#99CC00"/>
<path fill-rule="evenodd" clip-rule="evenodd" d="M53.4385 62.1061C55.1929 59.1237 57.4736 56.5623 59.9297 54.3868C59.3333 50.457 58.1403 46.7026 56.7368 43.4395C54.3157 46.071 51.8947 49.1588 49.9648 52.6675C51.5438 55.5096 52.8069 58.7026 53.4385 62.1061Z" fill="#99CC00"/>
<path fill-rule="evenodd" clip-rule="evenodd" d="M59.9299 64.4582C62.5965 62.2476 65.579 60.6336 68.6667 59.4406C69.4386 55.5108 69.6141 51.6161 69.4035 48.0371C66.2106 49.6862 62.9123 51.7564 59.8948 54.388C60.4211 57.6511 60.4913 61.0547 59.9299 64.4582Z" fill="#99CC00"/>
<path fill-rule="evenodd" clip-rule="evenodd" d="M46.5264 72.2808C44.7369 69.0879 42.5264 66.5265 40.0001 64.4914C40.5264 67.6843 41.6492 70.9124 43.4738 74.0352C40.7018 71.6493 37.7545 70.0352 34.7018 68.9475C36.2808 71.7545 38.4211 74.4212 41.2281 76.737C37.8246 75.4387 34.4562 74.9124 31.2281 74.9475C33.6843 77.0528 36.5966 78.8072 40.0352 80.0001C36.386 79.9651 33.0527 80.5966 30.0352 81.7545C33.0878 82.8773 36.4211 83.544 40.0352 83.5089C36.5966 84.7019 33.6843 86.4563 31.2281 88.5615C34.4562 88.5966 37.8246 88.0703 41.2281 86.7721C38.4211 89.0879 36.2808 91.7194 34.7018 94.5615C37.7545 93.4738 40.7369 91.8247 43.4738 89.4738C41.6141 92.5966 40.5264 95.8247 40.0001 99.0177C42.4913 96.9475 44.7369 94.3861 46.5264 91.2282C45.8597 94.8072 45.9299 98.2107 46.5264 101.404C48.1755 98.5966 49.4036 95.4387 50.0001 91.8598C50.5966 95.4387 51.8247 98.6317 53.4738 101.404C54.0703 98.2107 54.1404 94.8072 53.4738 91.2282C55.2632 94.4212 57.5089 96.9475 60.0001 99.0177C59.4738 95.8247 58.351 92.5966 56.4913 89.4738C59.2632 91.8598 62.2457 93.4738 65.2983 94.5615C63.7194 91.7194 61.579 89.0879 58.772 86.7721C62.1755 88.0703 65.5439 88.5966 68.772 88.5615C66.3159 86.4563 63.4036 84.7019 59.965 83.4738C63.6141 83.5089 66.9475 82.8773 69.965 81.7194C66.9124 80.5966 63.6141 79.93 59.965 79.965C63.4036 78.7721 66.3159 77.0177 68.772 74.9124C65.5439 74.8773 62.1755 75.4037 58.772 76.7019C61.579 74.3861 63.7545 71.7545 65.3334 68.9124C62.2808 70.0001 59.2983 71.6142 56.5264 74.0001C58.386 70.8773 59.5088 67.6493 60.0352 64.4563C57.5439 66.5265 55.2983 69.0879 53.5089 72.2458C54.1755 68.6668 54.1053 65.2633 53.5089 62.0703C51.8597 64.8422 50.6317 68.0352 50.0352 71.6142C49.4387 68.0352 48.2106 64.8422 46.5615 62.0703C45.9299 65.2984 45.8597 68.6668 46.5264 72.2808Z" fill="white"/>
<path fill-rule="evenodd" clip-rule="evenodd" d="M46.5263 72.2815C45.8596 68.7025 45.9298 65.299 46.5263 62.106C44.7719 59.1236 42.5263 56.5622 40.0351 54.3867C39.5438 57.6499 39.4386 61.0534 40.0351 64.4569C42.4912 66.5271 44.7368 69.0885 46.5263 72.2815Z" fill="#FFE600"/>
<path fill-rule="evenodd" clip-rule="evenodd" d="M53.4036 91.1934C54.0702 94.7723 54.0001 98.1758 53.4036 101.369C55.158 104.351 57.4387 106.913 59.8948 109.088C60.386 105.825 60.4913 102.421 59.9299 99.0179C57.4386 96.9478 55.193 94.3863 53.4036 91.1934Z" fill="#FFE600"/>
<path fill-rule="evenodd" clip-rule="evenodd" d="M40 64.457C37.3334 62.2465 34.3158 60.6324 31.2632 59.4395C31.8948 62.6675 32.9825 65.8956 34.7018 68.9131C37.7544 70.0009 40.7369 71.6149 43.4737 74.0009C41.6492 70.8781 40.5263 67.6851 40 64.457Z" fill="#FFE600"/>
<path fill-rule="evenodd" clip-rule="evenodd" d="M59.9299 99.0185C62.5966 101.229 65.579 102.843 68.6668 104.036C68.0352 100.808 66.9475 97.5799 65.2282 94.5623C62.1755 93.4746 59.1931 91.8255 56.4211 89.4746C58.3159 92.5974 59.4036 95.7904 59.9299 99.0185Z" fill="#FFE600"/>
<path fill-rule="evenodd" clip-rule="evenodd" d="M41.2633 76.7021C38.4562 74.3863 36.3159 71.7548 34.7369 68.9127C31.4738 67.7548 28.1054 67.2635 24.8071 67.1934C26.5264 70.0004 28.6317 72.667 31.2633 74.9127C34.4913 74.8776 37.8247 75.4039 41.2633 76.7021Z" fill="#FFE600"/>
<path fill-rule="evenodd" clip-rule="evenodd" d="M58.7019 86.7734C61.5089 89.0892 63.6493 91.7208 65.2282 94.5629C68.4914 95.7208 71.8598 96.212 75.1581 96.2822C73.4388 93.4752 71.3335 90.8085 68.7019 88.5629C65.4738 88.598 62.1054 88.0717 58.7019 86.7734Z" fill="#FFE600"/>
<path fill-rule="evenodd" clip-rule="evenodd" d="M40.0352 80.0019C36.5966 78.8089 33.6843 77.0545 31.2282 74.9492C27.7545 74.9843 24.4211 75.651 21.2983 76.7036C23.8597 78.7738 26.772 80.5282 30.0001 81.7562C33.0878 80.5983 36.4211 79.9317 40.0352 80.0019Z" fill="#FFE600"/>
<path fill-rule="evenodd" clip-rule="evenodd" d="M59.8948 83.4752C63.3334 84.7032 66.2456 86.4576 68.7018 88.5629C72.1755 88.5278 75.5088 87.8611 78.6316 86.8085C76.0702 84.7383 73.1579 82.9839 69.8948 81.7559C66.8772 82.8787 63.5439 83.5453 59.8948 83.4752Z" fill="#FFE600"/>
<path fill-rule="evenodd" clip-rule="evenodd" d="M30.0352 81.7207C26.7721 82.9488 23.8949 84.7032 21.3335 86.7733C24.4563 87.826 27.7896 88.4926 31.2633 88.5277C33.7195 86.4225 36.6318 84.6681 40.0703 83.4751C36.4212 83.5453 33.0879 82.8786 30.0352 81.7207Z" fill="#FFE600"/>
<path fill-rule="evenodd" clip-rule="evenodd" d="M69.8948 81.7211C73.1579 80.493 76.0351 78.7386 78.6316 76.6684C75.5088 75.6158 72.1755 74.9492 68.7018 74.9141C66.2456 77.0193 63.3334 78.7737 59.8948 79.9667C63.5439 79.9316 66.8772 80.5983 69.8948 81.7211Z" fill="#FFE600"/>
<path fill-rule="evenodd" clip-rule="evenodd" d="M41.2633 86.7734C37.8597 88.0717 34.4913 88.598 31.2633 88.5629C28.6317 90.8085 26.4913 93.4752 24.8071 96.2822C28.1054 96.212 31.4738 95.6857 34.7369 94.5629C36.2808 91.7208 38.4212 89.0892 41.2633 86.7734Z" fill="#FFE600"/>
<path fill-rule="evenodd" clip-rule="evenodd" d="M58.7019 76.7021C62.1054 75.4039 65.4738 74.8776 68.7019 74.9127C71.3335 72.667 73.4739 70.0004 75.1581 67.1934C71.8598 67.2635 68.4914 67.7898 65.2282 68.9127C63.6493 71.7548 61.5089 74.3863 58.7019 76.7021Z" fill="#FFE600"/>
<path fill-rule="evenodd" clip-rule="evenodd" d="M46.4912 101.37C47.1228 104.774 48.386 107.931 49.9649 110.844C51.5438 107.967 52.7719 104.774 53.4386 101.37C51.7895 98.563 50.5614 95.4051 49.9649 91.8262C49.3684 95.4051 48.1754 98.563 46.4912 101.37Z" fill="#FFE600"/>
<path fill-rule="evenodd" clip-rule="evenodd" d="M46.5265 91.1934C44.737 94.3863 42.5265 96.9127 40.0002 98.9828C39.4388 102.386 39.5089 105.79 40.0002 109.053C42.4563 106.878 44.737 104.316 46.4914 101.334C45.93 98.1758 45.8598 94.7723 46.5265 91.1934Z" fill="#FFE600"/>
<path fill-rule="evenodd" clip-rule="evenodd" d="M34.7018 94.5623C32.9825 97.5799 31.9299 100.808 31.2632 104.036C34.3158 102.843 37.2983 101.229 40 99.0185C40.5263 95.8255 41.6492 92.5974 43.4737 89.4746C40.7369 91.8255 37.7544 93.4746 34.7018 94.5623Z" fill="#FFE600"/>
<path fill-rule="evenodd" clip-rule="evenodd" d="M53.4386 62.1065C52.807 58.703 51.5438 55.51 49.9649 52.6328C48.386 55.51 47.1579 58.6679 46.4912 62.1065C48.1403 64.8784 49.3684 68.0714 49.9649 71.6504C50.5614 68.0714 51.7895 64.8784 53.4386 62.1065Z" fill="#FFE600"/>
<path fill-rule="evenodd" clip-rule="evenodd" d="M53.4036 72.2815C55.193 69.0885 57.4386 66.5271 59.9299 64.492C60.4913 61.0534 60.4211 57.685 59.8948 54.4219C57.4387 56.5973 55.158 59.1587 53.4036 62.1412C54.0351 65.2991 54.1053 68.6675 53.4036 72.2815Z" fill="#FFE600"/>
<path fill-rule="evenodd" clip-rule="evenodd" d="M65.2282 68.9131C66.9475 65.8956 68.0001 62.6675 68.6668 59.4395C65.6141 60.6324 62.6317 62.2465 59.9299 64.457C59.4036 67.65 58.2808 70.8781 56.4211 74.0009C59.1931 71.65 62.1755 70.0009 65.2282 68.9131Z" fill="#FFE600"/>
</g>
<defs>
<clipPath id="clip0">
<rect width="100" height="132.281" fill="white"/>
</clipPath>
</defs>
</svg>
