<svg width="306" height="266" viewBox="0 0 306 266" fill="none" xmlns="http://www.w3.org/2000/svg">
<g clip-path="url(#clip0)">
<path d="M306 129.128V217.457C306.003 218.217 305.802 218.964 305.417 219.623C305.032 220.282 304.478 220.829 303.809 221.209L226.089 265.423C225.421 265.802 224.664 266.001 223.894 266V173.313L305.405 126.97C305.792 127.625 305.998 128.369 306 129.128ZM298.89 149.703C298.89 148.413 297.99 147.887 296.856 148.53L233.813 184.375C233.213 184.763 232.713 185.282 232.351 185.893C231.989 186.503 231.776 187.188 231.728 187.893L231.399 217.644C231.399 218.934 232.299 219.46 233.433 218.817L296.475 182.972C297.076 182.584 297.576 182.065 297.938 181.454C298.3 180.844 298.513 180.159 298.561 179.454L298.89 149.703ZM291.075 219.99C295.18 217.644 298.538 211.926 298.538 207.258C298.538 202.59 295.204 200.691 291.075 203.036C286.946 205.382 283.608 211.1 283.608 215.768C283.608 220.435 286.97 222.326 291.075 219.99ZM276.15 226.13V222.335C276.15 221.045 275.198 220.515 274.088 221.163L255.81 231.549C255.211 231.935 254.713 232.455 254.355 233.066C253.997 233.677 253.789 234.363 253.748 235.067V238.862C253.748 240.152 254.677 240.682 255.81 240.035L274.079 229.649C274.68 229.263 275.18 228.744 275.54 228.133C275.9 227.522 276.109 226.836 276.15 226.13ZM238.833 249.694C242.938 247.348 246.295 241.63 246.295 236.962C246.295 232.295 242.962 230.395 238.833 232.74C234.704 235.086 231.366 240.804 231.366 245.472C231.366 250.14 234.728 252.03 238.833 249.694Z" fill="#285163"/>
<path d="M305.414 126.969L223.903 173.313L0.585754 46.3245C0.971123 45.6695 1.5246 45.1259 2.19064 44.7482L79.8872 0.576763C80.5535 0.198887 81.3089 0 82.0778 0C82.8467 0 83.6021 0.198887 84.2685 0.576763L303.809 125.388C304.477 125.767 305.03 126.312 305.414 126.969Z" fill="#222B5C"/>
<path d="M296.856 148.53C297.99 147.887 298.904 148.413 298.89 149.703L298.561 179.454C298.513 180.159 298.3 180.844 297.938 181.455C297.576 182.065 297.075 182.584 296.475 182.972L233.432 218.817C232.299 219.46 231.385 218.934 231.399 217.644L231.728 187.893C231.776 187.188 231.989 186.503 232.351 185.893C232.713 185.282 233.213 184.763 233.813 184.375L296.856 148.53Z" fill="#6BADC4"/>
<path d="M298.538 207.258C298.538 211.925 295.204 217.653 291.075 219.989C286.946 222.326 283.608 220.416 283.608 215.767C283.608 211.119 286.97 205.353 291.075 203.008C295.18 200.662 298.538 202.59 298.538 207.258Z" fill="#E28B79"/>
<path d="M276.155 222.335V226.13C276.114 226.835 275.906 227.52 275.547 228.132C275.188 228.743 274.688 229.262 274.088 229.648L255.82 240.034C254.687 240.682 253.758 240.152 253.758 238.862V235.067C253.798 234.362 254.006 233.677 254.364 233.066C254.722 232.455 255.221 231.935 255.82 231.548L274.093 221.162C275.226 220.515 276.155 221.045 276.155 222.335Z" fill="#5F9979"/>
<path d="M246.295 236.962C246.295 241.653 242.962 247.357 238.833 249.693C234.704 252.03 231.366 250.12 231.366 245.471C231.366 240.823 234.728 235.076 238.833 232.74C242.938 230.404 246.295 232.294 246.295 236.962Z" fill="#E28B79"/>
<path d="M39.5221 142.694C34.0645 142.314 29.7214 144.959 27.5355 150.031C27.4248 150.286 27.2876 150.53 27.1259 150.758C26.577 151.533 25.7534 152.077 24.8173 152.284C23.8813 152.49 22.9005 152.344 22.0684 151.874L2.19064 140.569C1.52198 140.189 0.967163 139.642 0.582439 138.983C0.197715 138.324 -0.00322831 137.576 -1.20885e-05 136.816V48.5056C-0.00367606 47.7403 0.198425 46.9877 0.585748 46.3242L223.903 173.313V266C223.134 265.999 222.379 265.8 221.713 265.422L207.902 257.574L216.426 262.42L216.869 204.752C216.848 204.313 216.723 203.884 216.505 203.5C216.287 203.116 215.981 202.786 215.612 202.538L198.582 192.734L198.158 248.042L194.634 250.045L191.944 248.511C191.393 248.195 190.918 247.765 190.553 247.25C190.187 246.736 189.938 246.15 189.824 245.532C187.443 232.993 178.504 219.562 167.918 213.572C165.645 212.231 163.149 211.295 160.546 210.809C159.937 210.701 159.321 210.63 158.703 210.597C153.293 210.302 149.007 212.999 146.873 218.103C146.77 218.35 146.64 218.586 146.488 218.807C145.959 219.556 145.164 220.082 144.26 220.282C143.356 220.482 142.409 220.34 141.606 219.886L75.1249 182.057L72.5104 180.57C71.9601 180.255 71.4855 179.827 71.1197 179.314C70.7538 178.802 70.5052 178.217 70.3912 177.6C68.0101 165.066 59.0665 151.644 48.4847 145.654C46.1705 144.29 43.6269 143.347 40.9746 142.867C40.4936 142.786 40.0089 142.728 39.5221 142.694ZM179.119 187.93V167.158C179.079 166.453 178.872 165.768 178.514 165.156C178.156 164.545 177.656 164.026 177.057 163.639L158.798 153.282C157.665 152.634 156.736 153.164 156.736 154.454V175.217C156.776 175.922 156.983 176.607 157.341 177.218C157.7 177.83 158.199 178.349 158.798 178.735L177.038 189.103C178.195 189.746 179.119 189.22 179.119 187.93ZM149.269 170.958V150.19C149.229 149.485 149.022 148.8 148.663 148.189C148.305 147.578 147.806 147.058 147.207 146.672L128.939 136.286C127.805 135.638 126.877 136.168 126.877 137.458V158.221C126.919 158.923 127.127 159.606 127.485 160.215C127.843 160.823 128.341 161.341 128.939 161.726L147.202 172.116C148.34 172.773 149.269 172.248 149.269 170.958ZM119.414 153.985V133.218C119.374 132.513 119.167 131.828 118.809 131.216C118.45 130.605 117.952 130.086 117.352 129.699L99.0934 119.313C97.9553 118.671 97.0314 119.196 97.0314 120.486V141.249C97.0709 141.954 97.278 142.64 97.6362 143.252C97.9944 143.864 98.4936 144.385 99.0934 144.772L117.352 155.158C118.485 155.805 119.414 155.275 119.414 153.985ZM89.5594 137.013V116.245C89.5195 115.541 89.3121 114.855 88.954 114.244C88.5958 113.633 88.0968 113.113 87.4973 112.727L69.2387 102.341C68.1053 101.698 67.1767 102.223 67.1767 103.514V124.281C67.2172 124.985 67.4249 125.671 67.7831 126.282C68.1412 126.893 68.6397 127.413 69.2387 127.799L87.5068 138.186C88.6307 138.833 89.5594 138.303 89.5594 137.013ZM59.7046 120.045V99.2728C59.6641 98.5684 59.4564 97.8831 59.0983 97.2721C58.7401 96.6611 58.2416 96.1413 57.6426 95.7544L39.4078 85.3683C38.2744 84.7256 37.3458 85.251 37.3458 86.5411V107.309C37.3863 108.013 37.594 108.698 37.9521 109.309C38.3103 109.92 38.8088 110.44 39.4078 110.827L57.6664 121.218C58.776 121.851 59.7046 121.335 59.7046 120.045ZM29.8547 103.087V82.3003C29.8143 81.5953 29.6062 80.9096 29.2472 80.2984C28.8882 79.6872 28.3883 79.1678 27.7879 78.782L9.5293 68.4006C8.39588 67.7532 7.46724 68.2833 7.46724 69.5734V90.3362C7.50708 91.0408 7.71445 91.7263 8.07264 92.3374C8.43082 92.9486 8.92979 93.4683 9.5293 93.8545L27.7926 104.245C28.9308 104.888 29.8547 104.363 29.8547 103.087Z" fill="#515F85"/>
<path d="M198.158 248.043L198.582 192.758L215.612 202.539C215.988 202.785 216.301 203.115 216.524 203.502C216.747 203.889 216.875 204.322 216.898 204.767L216.455 262.435L207.931 257.589L198.144 252.025L198.158 248.043Z" fill="#E35058"/>
<path d="M198.158 248.019L198.13 252.011L194.634 250.022L198.158 248.019Z" fill="#515F85"/>
<path d="M194.658 250.022L179.419 258.691C182.371 256.617 184.181 252.686 184.181 247.282C184.181 235.615 175.785 221.293 165.527 215.458C162.355 213.652 159.36 212.864 156.736 212.981L160.584 210.79C163.187 211.277 165.683 212.212 167.956 213.553C178.533 219.544 187.481 232.974 189.862 245.514C189.969 246.131 190.211 246.719 190.57 247.237C190.929 247.754 191.398 248.189 191.943 248.511L194.658 250.022Z" fill="black"/>
<path d="M179.419 258.691C175.995 261.102 171.028 261.037 165.518 257.894C155.26 252.058 146.864 237.722 146.864 226.069C146.864 222.462 147.669 219.502 149.083 217.33L156.731 212.981C159.355 212.864 162.351 213.652 165.522 215.458C175.78 221.294 184.176 235.63 184.176 247.282C184.152 252.687 182.347 256.618 179.419 258.691ZM173.852 241.414C173.852 236.202 170.104 229.803 165.518 227.195C160.932 224.587 157.184 226.726 157.184 231.938C157.184 237.15 160.936 243.548 165.518 246.152C170.099 248.755 173.828 246.635 173.828 241.414H173.852Z" fill="#2B2B2B"/>
<path d="M179.119 167.158V187.931C179.119 189.221 178.195 189.746 177.057 189.103L158.798 178.713C158.199 178.326 157.7 177.807 157.341 177.196C156.983 176.584 156.776 175.899 156.736 175.194V154.432C156.736 153.141 157.665 152.611 158.798 153.259L177.038 163.64C177.641 164.024 178.144 164.543 178.505 165.154C178.867 165.765 179.077 166.452 179.119 167.158Z" fill="#6BADC4"/>
<path d="M165.494 227.195C170.08 229.804 173.833 236.202 173.828 241.414C173.823 246.626 170.08 248.76 165.494 246.152C160.908 243.544 157.16 237.15 157.16 231.938C157.16 226.726 160.913 224.587 165.494 227.195Z" fill="#8E8E8E"/>
<path d="M160.555 210.79L156.707 212.981C155.3 213.027 153.921 213.379 152.669 214.013L158.712 210.579C159.331 210.612 159.946 210.682 160.555 210.79Z" fill="black"/>
<path d="M152.012 214.389C150.818 215.141 149.809 216.145 149.059 217.33L146.497 218.789C146.65 218.568 146.779 218.332 146.883 218.085C149.016 212.981 153.302 210.284 158.712 210.58L152.669 214.013C152.443 214.127 152.224 214.252 152.012 214.389Z" fill="#222C5C"/>
<path d="M156.707 212.981L149.059 217.33C149.809 216.145 150.818 215.141 152.012 214.389L152.669 214.013C153.921 213.38 155.3 213.027 156.707 212.981Z" fill="#2B2B2B"/>
<path d="M152.669 214.013L152.012 214.388C152.224 214.251 152.443 214.126 152.669 214.013Z" fill="black"/>
<path d="M149.269 150.191V170.958C149.269 172.248 148.34 172.774 147.207 172.131L128.939 161.726C128.339 161.34 127.84 160.82 127.482 160.209C127.124 159.598 126.916 158.912 126.877 158.208V137.459C126.877 136.169 127.805 135.639 128.939 136.286L147.202 146.672C147.802 147.058 148.302 147.577 148.661 148.189C149.02 148.8 149.228 149.486 149.269 150.191Z" fill="#6BADC4"/>
<path d="M119.414 133.218V153.985C119.414 155.275 118.485 155.805 117.352 155.158L99.0934 144.772C98.4936 144.385 97.9944 143.864 97.6362 143.253C97.278 142.641 97.0709 141.954 97.0314 141.249V120.486C97.0314 119.196 97.9553 118.671 99.0934 119.313L117.352 129.699C117.952 130.086 118.45 130.605 118.809 131.217C119.167 131.828 119.374 132.513 119.414 133.218Z" fill="#6BADC4"/>
<path d="M89.5593 116.246V137.014C89.5593 138.304 88.6307 138.834 87.4973 138.186L69.2387 127.8C68.6397 127.413 68.1411 126.894 67.783 126.283C67.4249 125.672 67.2172 124.986 67.1766 124.282V103.514C67.1766 102.224 68.1053 101.699 69.2387 102.342L87.5068 112.728C88.1045 113.115 88.6017 113.635 88.9582 114.246C89.3146 114.857 89.5206 115.542 89.5593 116.246Z" fill="#6BADC4"/>
<path d="M75.1249 182.057L60.5571 190.342C63.1668 188.179 64.7383 184.426 64.7383 179.379C64.7383 167.712 56.3424 153.39 46.0797 147.554C42.8223 145.701 39.7507 144.918 37.079 145.087L41.0032 142.858C43.6554 143.338 46.199 144.281 48.5133 145.645C59.0808 151.635 68.0053 165.057 70.4197 177.591C70.5338 178.208 70.7823 178.793 71.1482 179.305C71.5141 179.818 71.9886 180.246 72.5389 180.561L75.1249 182.057Z" fill="black"/>
<path d="M60.5571 190.342C57.1283 193.194 51.9041 193.302 46.0798 189.99C35.8171 184.154 27.426 169.818 27.426 158.161C27.426 154.455 28.2736 151.443 29.7642 149.248L37.0791 145.087C39.7507 144.918 42.8224 145.701 46.0798 147.554C56.3425 153.39 64.7384 167.726 64.7384 179.379C64.7384 184.436 63.1669 188.189 60.5571 190.342ZM54.4138 173.51C54.4138 168.298 50.6659 161.9 46.0798 159.292C41.4937 156.683 37.7458 158.822 37.7458 164.034C37.7458 169.246 41.4985 175.645 46.0798 178.248C50.6611 180.852 54.4138 178.731 54.4138 173.52V173.51Z" fill="#2B2B2B"/>
<path d="M59.7047 99.2734V120.046C59.7047 121.336 58.7522 121.861 57.6426 121.218L39.4078 110.828C38.8088 110.441 38.3103 109.921 37.9522 109.31C37.594 108.699 37.3863 108.014 37.3458 107.309V86.5418C37.3458 85.2517 38.2744 84.7263 39.4078 85.369L57.6664 95.7551C58.261 96.1445 58.7549 96.6655 59.1088 97.2763C59.4627 97.8872 59.6667 98.5711 59.7047 99.2734Z" fill="#6BADC4"/>
<path d="M46.0751 159.301C50.6611 161.909 54.409 168.308 54.409 173.519C54.409 178.731 50.6611 180.866 46.0751 178.257C41.489 175.649 37.7411 169.255 37.7411 164.043C37.7411 158.832 41.4985 156.697 46.0751 159.301Z" fill="#8E8E8E"/>
<path d="M41.0032 142.868L37.0791 145.096C36.1317 145.149 35.1976 145.34 34.3074 145.664L39.5221 142.694C40.0184 142.728 40.5127 142.786 41.0032 142.868Z" fill="black"/>
<path d="M39.5221 142.694L34.3074 145.664C32.4361 146.342 30.8408 147.604 29.7642 149.257L27.1259 150.758C27.2876 150.53 27.4248 150.287 27.5355 150.031C29.7214 144.96 34.0645 142.314 39.5221 142.694Z" fill="#222C5C"/>
<path d="M34.3074 145.663C35.1976 145.34 36.1317 145.148 37.0791 145.096L29.7642 149.257C30.8408 147.603 32.4361 146.342 34.3074 145.663Z" fill="#2B2B2B"/>
<path d="M29.8546 82.3011V103.087C29.8546 104.377 28.926 104.903 27.7926 104.26L9.52923 93.8553C8.92971 93.469 8.43074 92.9493 8.07256 92.3382C7.71438 91.727 7.507 91.0415 7.46716 90.337V69.5741C7.46716 68.284 8.39581 67.7539 9.52923 68.4013L27.7878 78.7827C28.3882 79.1685 28.8881 79.688 29.2471 80.2991C29.6061 80.9103 29.8143 81.5961 29.8546 82.3011Z" fill="#6BADC4"/>
<path d="M165.494 227.195C170.08 229.804 173.833 236.202 173.828 241.414C173.823 246.626 170.08 248.76 165.494 246.152C160.908 243.544 157.16 237.15 157.16 231.938C157.16 226.726 160.913 224.587 165.494 227.195Z" stroke="#231F20" stroke-width="0.5" stroke-linecap="round" stroke-linejoin="round"/>
<path d="M46.0751 159.301C50.6611 161.909 54.4091 168.308 54.4091 173.519C54.4091 178.731 50.6611 180.866 46.0751 178.257C41.489 175.649 37.7411 169.255 37.7411 164.043C37.7411 158.832 41.4985 156.697 46.0751 159.301Z" stroke="#231F20" stroke-width="0.5" stroke-linecap="round" stroke-linejoin="round"/>
<path d="M152.669 214.013C153.921 213.379 155.301 213.027 156.708 212.981C159.332 212.864 162.327 213.652 165.499 215.458C175.757 221.294 184.152 235.63 184.152 247.282C184.152 252.687 182.348 256.618 179.39 258.691C175.966 261.102 170.999 261.037 165.489 257.894C155.231 252.058 146.835 237.722 146.835 226.069C146.835 222.462 147.64 219.502 149.055 217.33C149.804 216.145 150.813 215.14 152.007 214.388" stroke="#231F20" stroke-width="0.5" stroke-linecap="round" stroke-linejoin="round"/>
</g>
<defs>
<clipPath id="clip0">
<path d="M0 0H306V266H0V0Z" fill="white"/>
</clipPath>
</defs>
</svg>
