<svg width="300" height="105" viewBox="0 0 300 105" fill="none" xmlns="http://www.w3.org/2000/svg">
<path d="M278.57 9.69605C259.053 -11.8273 133.496 7.53356 80.09 19.1969L78.8487 19.4702C78.7877 19.4809 78.7294 19.5036 78.6772 19.5369C78.6249 19.5702 78.5798 19.6134 78.5442 19.6642C78.5087 19.7149 78.4835 19.7722 78.4701 19.8326C78.4567 19.8931 78.4554 19.9556 78.4662 20.0166C78.4769 20.0776 78.4996 20.1359 78.5329 20.1882C78.5662 20.2404 78.6094 20.2856 78.6602 20.3211C78.7109 20.3566 78.7682 20.3818 78.8286 20.3952C78.8891 20.4086 78.9516 20.4099 79.0126 20.3992L80.2461 20.1572C124.487 12.2801 216.483 1.35838 236.281 20.9925C242.323 26.9803 240.879 34.6934 233.876 43.7962C237.754 46.3459 240.502 50.2903 241.55 54.8116C268.874 36.6217 287.259 19.2906 278.57 9.69605ZM197.309 75.4762C184.928 84.2432 170.259 93.4319 154.489 103.112L153.864 103.471C153.763 103.544 153.694 103.653 153.672 103.775C153.65 103.898 153.677 104.024 153.747 104.127C153.782 104.178 153.827 104.222 153.879 104.255C153.931 104.289 153.99 104.312 154.051 104.323C154.112 104.334 154.174 104.332 154.235 104.319C154.295 104.305 154.352 104.28 154.403 104.244L154.926 103.971C168.307 96.9449 183.679 88.6931 199.136 80.1915L199.386 80.051C198.507 78.6139 197.819 77.0681 197.34 75.4528L197.309 75.4762Z" fill="#D03128"/>
<path d="M198.808 69.4184C198.363 56.4982 208.488 43.2812 223.197 43.2812C233.033 43.2812 239.474 49.8312 239.833 59.8707C240.301 73.5014 230.839 86.0157 215.444 86.0157C205.608 86.0157 199.167 79.4736 198.808 69.4184ZM205.21 69.8244C205.459 77.397 210.253 83.6034 216.498 83.6034C228.614 83.6034 233.767 68.7705 233.408 58.7934C233.15 51.1974 228.24 45.0144 221.994 45.0144C211.58 45.0144 204.819 59.8473 205.21 69.8244Z" fill="#084A77"/>
<path d="M72.2675 58.0524C72.1621 59.4109 71.9718 60.7616 71.6976 62.0963L69.5273 74.2359C69.4205 74.7297 69.4824 75.245 69.7032 75.6994C69.924 76.1537 70.2909 76.5208 70.7452 76.7419L70.6749 77.2181H58.2933L58.184 74.0954C56.3191 75.2021 54.3163 76.0578 52.2274 76.6404C50.2925 77.1538 48.296 77.3981 46.2943 77.3664C42.2972 77.3664 40.002 76.9527 38.425 75.5631C36.848 74.1735 36.0361 73.221 36.083 71.2147C36.2143 69.8928 36.736 68.64 37.5819 67.6157C38.4938 66.6112 39.6197 65.8241 40.8764 65.3127C42.456 64.6042 44.1318 64.1333 45.8493 63.9153C48.0352 63.564 51.0877 63.2049 55.1706 62.8614C56.5694 62.7731 57.9451 62.4621 59.2458 61.9402C60.0967 61.6123 60.4324 61.2454 60.5573 60.5506C60.7837 59.3015 60.3856 58.5911 58.7305 58.2632C54.265 57.3888 45.9039 58.8253 41.5946 59.9104L43.9366 53.5869C49.436 52.7269 54.9913 52.2728 60.5573 52.2285C69.4727 52.2285 72.33 54.7735 72.2675 58.0368V58.0524ZM59.4878 66.0075C58.8175 66.2453 58.1315 66.4357 57.4346 66.5774C56.5993 66.7648 55.0925 67.038 52.8364 67.3581C51.7079 67.4589 50.614 67.7996 49.6278 68.3574C49.3608 68.5344 49.133 68.7643 48.9585 69.0329C48.7839 69.3014 48.6663 69.6029 48.6129 69.9187C48.5489 70.2255 48.5787 70.5445 48.6985 70.8341C48.8182 71.1237 49.0223 71.3705 49.2843 71.5426C50.1944 72.0261 51.2235 72.24 52.2509 72.1593C53.2872 72.1561 54.3168 71.9928 55.3033 71.6753C56.2148 71.4004 57.0635 70.9495 57.8015 70.3481C58.2807 69.9233 58.648 69.3871 58.871 68.7868C59.1433 67.8658 59.3494 66.9266 59.4878 65.9763V66.0075Z" fill="#084A77"/>
<path d="M113.128 47.3411C113.48 45.3426 116.634 43.7266 120.155 43.7266C123.675 43.7266 126.244 45.3426 125.908 47.3411C125.573 49.3397 122.395 50.9479 118.882 50.9479C115.369 50.9479 112.793 49.3319 113.152 47.3411H113.128ZM108.171 77.2178L112.473 52.9542H124.331L120.03 77.2178H108.171Z" fill="#084A77"/>
<path d="M179.229 58.0993C179.126 59.459 178.93 60.8101 178.643 62.1432L176.496 74.2984C176.39 74.7903 176.45 75.3038 176.668 75.7576C176.885 76.2114 177.248 76.5798 177.698 76.8044L177.628 77.226H165.247L165.153 74.1032C163.289 75.2099 161.286 76.0631 159.196 76.6405C157.256 77.1679 155.25 77.415 153.24 77.3743C149.243 77.3743 146.994 76.9683 145.378 75.5787C143.762 74.1891 142.989 73.2367 143.075 71.2381C143.188 69.9109 143.709 68.651 144.566 67.6314C145.475 66.6101 146.604 65.8092 147.869 65.2894C149.446 64.594 151.111 64.1186 152.818 63.8763C155.028 63.5406 158.088 63.1659 162.186 62.8224C163.575 62.7339 164.942 62.4311 166.238 61.9246C167.105 61.5967 167.44 61.222 167.573 60.5194C167.792 59.3015 167.401 58.5677 165.754 58.2398C161.265 57.3498 152.927 58.8019 148.618 59.8792L150.96 53.5557C156.452 52.7346 161.997 52.3171 167.55 52.3066C176.457 52.3066 179.26 54.8673 179.26 58.1227L179.229 58.0993ZM166.449 66.0622C165.772 66.2879 165.084 66.4782 164.388 66.6321C163.56 66.8351 162.046 67.0771 159.782 67.4128C158.658 67.5112 157.568 67.8522 156.589 68.4121C156.052 68.7758 155.682 69.3372 155.558 69.9734C155.497 70.2798 155.529 70.5977 155.65 70.8858C155.771 71.1739 155.976 71.419 156.238 71.5894C157.155 72.0683 158.188 72.2794 159.22 72.1984C160.253 72.1981 161.279 72.0401 162.264 71.73C163.176 71.45 164.027 70.9997 164.77 70.4028C165.236 69.9692 165.596 69.4352 165.824 68.8415C166.093 67.9245 166.302 66.9909 166.449 66.0466V66.0622Z" fill="#084A77"/>
<path d="M34.4904 68.4975C31.2603 69.2264 27.9573 69.5826 24.646 69.5593C18.9783 69.5593 14.4972 66.741 14.7236 61.5885C14.8953 58.1535 18.9627 50.9088 29.2989 50.9088C32.5511 50.842 35.7531 51.7178 38.5187 53.4304L40.0176 45.0069C36.2973 43.5289 32.3069 42.8532 28.3074 43.0239C14.7548 43.1723 1.76426 49.3318 0.124829 61.8539C-1.52241 74.5868 14.0522 77.7876 20.93 77.7564C24.9114 77.7564 29.049 77.5847 32.9212 77.1787L34.4826 68.4975H34.4904Z" fill="#084A77"/>
<path d="M130.865 52.8128L131.716 47.8789L144.121 45.1777L142.802 52.8128H148.876L147.72 57.6999H141.826L138.251 77.2169C138.251 77.2169 126.306 77.131 126.267 77.2169L129.827 57.7701H125.323L126.236 52.8518L130.865 52.8128Z" fill="#084A77"/>
<path d="M191.267 77.2019L179.189 77.2175L185.263 43.3672L197.028 43.7029L191.267 77.2019Z" fill="#084A77"/>
<path d="M70.8936 85.5932L76.6628 53.0856H87.0771L86.2964 57.2311C87.4291 55.8114 88.9309 54.731 90.637 54.1083C92.7631 53.1989 95.0464 52.7136 97.3586 52.6797C100.083 52.6797 101.754 52.8202 103.791 53.8741C105.723 54.8508 107.215 56.5209 107.968 58.5504C108.755 60.6601 108.936 62.9477 108.491 65.155C108.196 67.0484 107.526 68.8637 106.519 70.494C105.512 72.1243 104.189 73.5367 102.628 74.648C99.4509 76.9901 96.5858 77.5756 92.4794 77.5912C91.2473 77.6069 90.0179 77.4732 88.818 77.1931C87.9933 77.0008 87.2033 76.6822 86.4759 76.2484C85.7557 75.7423 85.1002 75.1498 84.5242 74.4841L82.5803 85.6322L70.8936 85.5932ZM92.4872 58.6441C90.9653 58.6337 89.4828 59.1279 88.2715 60.0493C86.9851 61.0805 86.1462 62.5682 85.9295 64.2025C85.5547 66.326 85.7733 67.8405 86.6165 68.7851C87.0896 69.2687 87.6619 69.6439 88.294 69.8852C88.926 70.1264 89.6029 70.2279 90.2779 70.1826C91.3158 70.2028 92.3459 70.0005 93.2991 69.5892C94.2408 69.1389 95.0483 68.4499 95.6411 67.5907C96.3044 66.6318 96.7494 65.5393 96.9449 64.3899C97.2884 62.4694 96.9995 61.0408 96.1095 60.0883C95.6527 59.5979 95.0933 59.2141 94.4713 58.9645C93.8492 58.7149 93.1798 58.6055 92.5106 58.6441H92.4872Z" fill="#084A77"/>
<path d="M287.228 76.5541L288.173 77.1864C285.83 82.0188 280.959 85.9066 275.291 85.9066C270.646 85.9066 266.844 82.7839 266.641 77.0147C266.267 66.6238 276.01 56.959 283.988 56.959C287.407 56.959 290.577 58.4579 290.725 62.1427C291.014 70.4101 279.405 72.9395 271.755 73.1113C271.486 74.105 271.385 75.1368 271.458 76.1637C271.583 79.5909 273.66 82.4794 277.946 82.4794C281.654 82.4794 285.362 79.4894 287.228 76.5541ZM286.19 61.6196C286.127 59.6679 285.143 58.3486 283.122 58.3486C278.258 58.3486 273.082 67.8729 272.192 71.7217C280.171 71.7217 286.385 66.9673 286.19 61.6196Z" fill="#084A77"/>
<path d="M239.669 61.3463C240.496 61.237 241.824 61.0965 242.393 61.0965C243.268 61.0965 244.088 61.2604 244.127 62.1192C244.127 62.6344 243.221 66.3192 243.026 67.1702L241.176 75.3283C240.395 78.6618 239.614 82.1593 238.896 84.9229H243.65L246.32 72.0026C254.455 63.5088 257.625 60.7452 259.514 60.7452C259.715 60.7262 259.918 60.7516 260.108 60.8196C260.299 60.8876 260.472 60.9965 260.615 61.1387C260.759 61.2809 260.87 61.4529 260.94 61.6425C261.01 61.8322 261.037 62.0348 261.02 62.2363C261.067 63.7274 260.146 67.1233 259.818 68.0914L257.094 77.5142C256.502 79.2561 256.156 81.0716 256.063 82.9087C256.149 84.9775 257.398 85.8987 259.256 85.8987C262.73 85.8987 265.252 82.2764 267.453 78.7243L266.813 77.5532C265.915 78.9897 263.862 82.1046 262.231 82.1046C261.723 82.1046 261.239 81.7611 261.216 80.9024C261.297 79.5921 261.559 78.2994 261.996 77.0614L265.025 66.0226C265.639 64.0578 266.034 62.0314 266.204 59.9801C266.234 59.5669 266.173 59.1523 266.025 58.7653C265.877 58.3784 265.646 58.0286 265.348 57.7406C265.05 57.4525 264.693 57.2333 264.302 57.0982C263.91 56.9631 263.493 56.9156 263.081 56.9589C259.959 56.9589 255.798 59.2385 247.015 69.3561H246.89L247.991 64.4222C248.592 61.721 249.178 58.9028 249.747 56.9589C246.451 58.1245 243.081 59.0738 239.661 59.8006L239.7 61.3619L239.669 61.3463Z" fill="#084A77"/>
<path d="M295.714 52.3056C296.354 52.3056 296.901 52.3056 296.901 51.5249C296.901 50.9238 296.362 50.8067 295.839 50.8067H294.847V52.3056H295.714ZM294.847 55.0458H294.067V50.1431H295.925C297.08 50.1431 297.65 50.5647 297.65 51.5249C297.66 51.6972 297.634 51.8696 297.575 52.0317C297.516 52.1938 297.424 52.3421 297.306 52.4677C297.187 52.5933 297.045 52.6935 296.887 52.7623C296.728 52.8311 296.558 52.8669 296.385 52.8677L297.767 55.0146H296.971L295.69 52.8989H294.847V55.0146V55.0458ZM295.745 56.131C296.444 56.1465 297.132 55.9536 297.72 55.577C298.309 55.2003 298.773 54.6569 299.052 54.016C299.33 53.3751 299.412 52.6656 299.287 51.978C299.161 51.2905 298.834 50.6558 298.346 50.155C297.858 49.6541 297.233 49.3097 296.549 49.1657C295.865 49.0216 295.153 49.0844 294.505 49.346C293.857 49.6077 293.301 50.0563 292.909 50.6348C292.517 51.2133 292.306 51.8955 292.302 52.5945C292.285 53.0555 292.362 53.5152 292.528 53.9458C292.694 54.3763 292.945 54.7687 293.267 55.0993C293.589 55.4299 293.974 55.6918 294.4 55.8691C294.826 56.0464 295.284 56.1355 295.745 56.131ZM291.451 52.5945C291.444 51.7474 291.688 50.9171 292.152 50.2088C292.617 49.5005 293.281 48.9461 294.062 48.6158C294.842 48.2856 295.702 48.1944 296.534 48.3537C297.366 48.5131 298.132 48.9159 298.735 49.5111C299.338 50.1062 299.75 50.867 299.92 51.6968C300.09 52.5267 300.01 53.3884 299.69 54.1727C299.37 54.9569 298.824 55.6285 298.122 56.1022C297.419 56.5759 296.592 56.8305 295.745 56.8336C295.183 56.8451 294.624 56.7437 294.101 56.5354C293.579 56.3271 293.103 56.0162 292.703 55.621C292.303 55.2258 291.986 54.7543 291.771 54.2345C291.556 53.7146 291.447 53.157 291.451 52.5945Z" fill="#084A77"/>
</svg>
