<svg width="200" height="166" viewBox="0 0 200 166" fill="none" xmlns="http://www.w3.org/2000/svg">
<g clip-path="url(#clip0)">
<path d="M175.157 85.8945C174.037 86.2984 172.957 86.8027 171.928 87.4012C162.716 92.6943 155.094 105.325 154.358 116.107C154.335 116.436 154.263 116.758 154.144 117.065C153.888 117.743 153.406 118.313 152.777 118.678L130.195 132.06C129.946 132.205 129.665 132.284 129.377 132.29C129.089 132.295 128.804 132.228 128.55 132.093C128.295 131.958 128.08 131.761 127.924 131.52C127.768 131.278 127.676 131.002 127.658 130.715C127.634 130.206 127.574 129.699 127.478 129.197C126.01 122.201 120.56 119.115 113.71 121.484C112.504 121.905 111.342 122.439 110.239 123.081C101.24 128.262 93.7259 140.445 92.7248 151.087C92.6756 151.609 92.5308 152.118 92.2973 152.588C91.911 153.376 91.2957 154.029 90.5313 154.464L72.263 164.911C71.7457 165.212 71.1711 165.403 70.5757 165.471V138.546C70.6041 137.702 70.8501 136.881 71.29 136.16C71.699 135.419 72.2915 134.794 73.0111 134.345L94.5752 121.944C95.3144 121.486 95.98 120.919 96.5494 120.263C97.1928 119.582 97.726 118.806 98.1299 117.961L113.53 82.573C113.914 81.7539 114.423 80.9984 115.037 80.3325C115.629 79.6537 116.319 79.0666 117.084 78.5905L150.342 59.4736L159.054 64.5987L152.305 68.458C151.597 68.9192 151.007 69.5397 150.584 70.2694C150.161 70.9991 149.916 71.8176 149.869 72.6589V87.3172C149.869 88.8575 150.966 89.4904 152.305 88.7175L176.445 74.8489L198.605 87.8829C199.029 88.1258 199.378 88.478 199.618 88.9023L199.978 90.1234C200.013 90.6431 199.9 91.1622 199.652 91.621C199.405 92.0798 199.032 92.4596 198.577 92.7167L191.856 96.2791C191.568 96.4325 191.241 96.4994 190.916 96.4715C190.59 96.4437 190.28 96.3224 190.022 96.1223C189.847 95.9877 189.701 95.8189 189.594 95.6263C189.487 95.4336 189.42 95.2212 189.398 95.002C188.447 86.8859 182.609 83.2115 175.157 85.8945ZM141.078 92.4143V77.7391C141.078 76.1988 139.953 75.5715 138.637 76.3388L125.887 83.6764C124.372 84.65 123.193 86.0636 122.512 87.7261L115.571 107.767C115.065 109.223 115.746 109.784 117.084 109.016L138.632 96.6152C139.342 96.1552 139.933 95.5352 140.358 94.8054C140.783 94.0757 141.03 93.2565 141.078 92.4143V92.4143Z" fill="#E26856"/>
<path d="M185.933 42.166L199.634 88.9247C199.395 88.5004 199.045 88.1483 198.622 87.9053L176.462 74.8713L182.71 71.281C183.378 70.8649 183.892 70.2433 184.173 69.5105C184.454 68.7777 184.487 67.9736 184.268 67.2201L180.404 55.508C180.314 55.1757 180.146 54.8693 179.914 54.614C179.682 54.3586 179.393 54.1614 179.07 54.0386C178.747 53.9157 178.399 53.8706 178.056 53.9069C177.712 53.9433 177.381 54.0601 177.092 54.2477L159.043 64.6211L150.33 59.4961L182.71 40.8777C183.189 40.5885 183.756 40.4811 184.308 40.5752C184.702 40.6613 185.063 40.8562 185.35 41.1376C185.638 41.4189 185.84 41.7754 185.933 42.166V42.166Z" fill="#E26856"/>
<path d="M190.039 96.1448L185.961 93.7979C185.62 92.9129 185.098 92.1077 184.43 91.433C183.761 90.7583 182.959 90.2285 182.075 89.877L175.157 85.9002C182.609 83.2116 188.447 86.8916 189.415 95.0525C189.44 95.2668 189.509 95.4739 189.616 95.6615C189.723 95.849 189.867 96.0134 190.039 96.1448V96.1448Z" fill="#A43B5C"/>
<path d="M182.075 89.8716C182.959 90.2231 183.761 90.7528 184.43 91.4276C185.098 92.1023 185.62 92.9074 185.961 93.7924C186.599 95.3819 186.909 97.083 186.873 98.7943C186.873 107.151 180.922 117.413 173.65 121.591C169.926 123.731 166.551 123.882 164.139 122.398C161.838 120.981 160.421 118.074 160.421 113.996C160.421 105.639 166.371 95.3776 173.65 91.1991C176.844 89.3731 179.786 88.9922 182.075 89.8716ZM173.638 111.991C176.31 110.45 178.498 106.681 178.498 103.589C178.498 100.497 176.31 99.2592 173.638 100.788C170.967 102.317 168.773 106.104 168.773 109.19C168.773 112.276 170.972 113.525 173.65 111.991H173.638Z" fill="#2B2B2B"/>
<path d="M184.341 40.424L184.308 40.5752C183.756 40.4811 183.189 40.5885 182.71 40.8776L150.33 59.496L134.947 50.4445C134.192 49.999 133.321 49.7883 132.445 49.8396V49.6155L115.369 1.58526C115.199 1.07251 114.857 0.633462 114.401 0.341797L184.341 40.424Z" fill="#E35058"/>
<path d="M184.268 67.2199C184.487 67.9734 184.454 68.7775 184.173 69.5103C183.891 70.2431 183.378 70.8646 182.71 71.2808L176.462 74.8711L159.026 64.6209L177.075 54.2475C177.365 54.0599 177.695 53.9431 178.039 53.9067C178.382 53.8704 178.73 53.9155 179.053 54.0384C179.376 54.1612 179.665 54.3584 179.897 54.6137C180.129 54.8691 180.297 55.1755 180.387 55.5078L184.268 67.2199Z" fill="#6BAEC5"/>
<path d="M175.157 85.8945L182.075 89.8714C179.786 88.992 176.844 89.3617 173.638 91.1989C166.36 95.3774 160.409 105.639 160.409 113.996C160.409 118.079 161.827 120.986 164.127 122.398L164.032 122.56L154.639 117.16L154.133 117.06C154.252 116.753 154.324 116.43 154.346 116.102C155.083 105.297 162.704 92.6888 171.917 87.3957C172.949 86.7985 174.033 86.2961 175.157 85.8945V85.8945Z" fill="black"/>
<path d="M178.509 103.6C178.509 106.68 176.321 110.45 173.649 112.001C170.978 113.553 168.784 112.281 168.784 109.201C168.784 106.12 170.972 102.351 173.649 100.799C176.327 99.2475 178.509 100.525 178.509 103.6Z" fill="#8E8E8E"/>
<path d="M159.043 64.6211L176.479 74.8713L152.338 88.7398C151 89.5128 149.903 88.8799 149.903 87.3395V72.6812C149.95 71.8399 150.195 71.0214 150.618 70.2917C151.041 69.562 151.63 68.9416 152.338 68.4803L159.043 64.6211Z" fill="#6BAEC5"/>
<path d="M134.948 50.4444L150.33 59.496L117.073 78.6128C116.302 79.0876 115.606 79.6747 115.009 80.3548L114.621 80.0131L96.6788 69.7293L130.487 50.4108C131.085 50.0735 131.753 49.8816 132.439 49.8507C133.316 49.795 134.19 50.0017 134.948 50.4444Z" fill="#E35058"/>
<path d="M141.067 77.7385V92.4137C141.02 93.2549 140.775 94.0734 140.352 94.8031C139.929 95.5328 139.34 96.1533 138.632 96.6145L117.051 109.016C115.712 109.783 115.031 109.223 115.538 107.767L122.506 87.7255C123.188 86.063 124.366 84.6493 125.881 83.6758L138.632 76.3382C139.97 75.5709 141.067 76.1982 141.067 77.7385Z" fill="#6BAEC5"/>
<path d="M132.445 49.6046V49.8286C131.759 49.8595 131.09 50.0514 130.493 50.3887L96.6845 69.7073L44.377 39.7185C44.9474 39.0636 45.6128 38.4972 46.3512 38.0381L111.994 0.347652C112.322 0.144109 112.695 0.026107 113.081 0.00456752C113.466 -0.0169719 113.851 0.058647 114.199 0.224426L114.401 0.342051C114.858 0.633717 115.199 1.07276 115.369 1.58552L132.445 49.6046Z" fill="#E35058"/>
<path d="M128.434 132.042L124.385 129.718C123.792 128.036 122.588 126.637 121.01 125.797L121.066 125.685L113.698 121.45C120.549 119.103 125.999 122.167 127.467 129.163C127.563 129.664 127.623 130.171 127.647 130.681C127.657 130.955 127.734 131.222 127.871 131.459C128.008 131.696 128.202 131.896 128.434 132.042V132.042Z" fill="#A43B5C"/>
<path d="M124.368 129.746C124.925 131.261 125.196 132.866 125.167 134.479C125.167 142.836 119.216 153.097 111.943 157.276C108.378 159.326 105.127 159.55 102.742 158.251L102.421 158.066C100.132 156.649 98.7204 153.747 98.7204 149.664C98.7204 141.307 104.671 131.046 111.943 126.867C115.448 124.851 118.642 124.599 121.01 125.82C122.583 126.665 123.781 128.065 124.368 129.746V129.746ZM111.943 147.67C114.621 146.13 116.809 142.354 116.809 139.268C116.809 136.182 114.621 134.938 111.943 136.467C109.266 137.997 107.078 141.783 107.078 144.869C107.078 147.956 109.272 149.205 111.943 147.67V147.67Z" fill="#2B2B2B"/>
<path d="M121.066 125.719L121.01 125.831C118.642 124.61 115.448 124.862 111.944 126.878C104.671 131.057 98.7205 141.318 98.7205 149.675C98.7205 153.747 100.132 156.649 102.421 158.077L93.0735 152.7L92.2636 152.61C92.497 152.14 92.6419 151.631 92.6911 151.109C93.6922 140.467 101.184 128.262 110.206 123.103C111.308 122.462 112.47 121.927 113.676 121.507L121.066 125.719Z" fill="black"/>
<path d="M116.809 139.279C116.809 142.354 114.621 146.13 111.944 147.681C109.266 149.233 107.078 147.961 107.078 144.88C107.078 141.8 109.272 138.03 111.944 136.479C114.615 134.927 116.809 136.204 116.809 139.279Z" fill="#8E8E8E"/>
<path d="M114.638 80.0133L115.026 80.355C114.411 81.0208 113.903 81.7764 113.518 82.5954L98.1354 117.973C97.7316 118.817 97.1984 119.594 96.555 120.275L52.4536 95.0077L57.2232 92.2855L91.1724 111.817C91.4766 112.001 91.8174 112.117 92.1712 112.158C92.5249 112.198 92.8833 112.161 93.2213 112.05C93.5594 111.938 93.8691 111.755 94.1291 111.513C94.3891 111.27 94.5931 110.975 94.727 110.646L106.37 83.9173C106.66 83.2085 106.688 82.4197 106.446 81.6927C106.205 80.9657 105.711 80.3483 105.054 79.9517L91.9485 72.4293L96.6731 69.7295L114.638 80.0133Z" fill="#A43B5C"/>
<path d="M105.054 79.9511C105.711 80.3478 106.205 80.9652 106.446 81.6921C106.688 82.4191 106.66 83.208 106.37 83.9168L94.7271 110.657C94.5932 110.985 94.3892 111.281 94.1292 111.523C93.8692 111.766 93.5595 111.949 93.2214 112.06C92.8834 112.172 92.525 112.208 92.1713 112.168C91.8175 112.128 91.4767 112.012 91.1725 111.828L57.2233 92.285L91.9486 72.4287L105.054 79.9511Z" fill="#6BAEC5"/>
<path d="M96.6957 69.729L91.9711 72.4288L48.3816 47.3635C48.078 47.1781 47.7375 47.0608 47.3837 47.0197C47.03 46.9787 46.6715 47.0148 46.3332 47.1257C45.9949 47.2366 45.6849 47.4195 45.4248 47.6618C45.1647 47.904 44.9607 48.1998 44.827 48.5285L33.2068 75.2518C32.9169 75.9616 32.8902 76.7509 33.1313 77.4786C33.3725 78.2062 33.8658 78.8246 34.523 79.2231L57.2233 92.2851L52.4537 95.0072L26.2831 80.0072L25.6532 79.9288C26.3713 79.2005 26.9624 78.3581 27.4024 77.4363L42.8078 42.0479C43.2093 41.202 43.7406 40.4234 44.3826 39.7402L96.6957 69.729Z" fill="#A43B5C"/>
<path d="M52.4536 95.0078L96.5381 120.275C95.9687 120.931 95.3031 121.497 94.5639 121.955L72.9998 134.356C72.2802 134.805 71.6878 135.43 71.2787 136.171L70.5644 135.757L25.9287 110.165L52.4536 95.0078Z" fill="#E35058"/>
<path d="M91.9486 72.4294L57.2232 92.2857L34.5229 79.2237C33.8658 78.8252 33.3724 78.2068 33.1313 77.4792C32.8902 76.7515 32.9169 75.9622 33.2068 75.2524L44.8269 48.5291C44.9607 48.2004 45.1647 47.9046 45.4248 47.6624C45.6849 47.4201 45.9949 47.2372 46.3332 47.1263C46.6715 47.0154 47.03 46.9793 47.3837 47.0203C47.7375 47.0614 48.078 47.1787 48.3816 47.3641L91.9486 72.4294Z" fill="#6BAEC5"/>
<path d="M1.50738 124.576C1.68908 124.145 2.02046 123.793 2.44104 123.585L5.4445 121.86C6.20379 123.417 7.38417 124.732 8.85292 125.657C11.3052 127.063 13.3075 125.909 13.3131 123.092C13.2419 121.369 12.6929 119.7 11.727 118.269L25.9288 110.153L70.5757 135.745L71.29 136.16C70.8501 136.881 70.6041 137.703 70.5757 138.546V165.465C69.6276 165.579 68.668 165.383 67.8422 164.905L2.41854 126.402C1.57488 125.904 1.27116 125.221 1.50738 124.576ZM66.1886 153.512C66.1886 150.712 64.1807 147.233 61.7284 145.822C59.2762 144.41 57.2682 145.564 57.2682 148.381C57.2682 151.199 59.2762 154.66 61.7284 156.072C64.1807 157.483 66.2055 156.33 66.2055 153.512H66.1886Z" fill="#A43B5C"/>
<path d="M61.7453 145.822C64.1976 147.233 66.2055 150.689 66.2055 153.512C66.2055 156.335 64.1976 157.483 61.7453 156.072C59.293 154.66 57.2851 151.204 57.2851 148.381C57.2851 145.558 59.293 144.41 61.7453 145.822Z" fill="#5F9979"/>
<path d="M52.4537 95.0071L25.9288 110.164L0.618713 95.6457C1.0052 94.8949 1.58819 94.2621 2.30605 93.8141L23.8702 81.4074C24.537 80.9989 25.1445 80.5014 25.6757 79.9287L26.3056 80.0071L52.4537 95.0071Z" fill="#E35058"/>
<path d="M0.596103 95.6455L25.9062 110.164L11.7269 118.28C11.0043 117.116 10.0205 116.134 8.8528 115.412C6.40054 114.017 4.39261 115.138 4.39261 117.977C4.42893 119.349 4.78926 120.692 5.44438 121.898L2.44092 123.612C2.02034 123.82 1.68896 124.172 1.50727 124.604L0.0055356 98.0092C-0.0112394 97.1831 0.192562 96.3674 0.596103 95.6455V95.6455Z" fill="#A43B5C"/>
<path d="M11.727 118.28C12.6929 119.711 13.2419 121.38 13.3131 123.103C13.3131 125.904 11.3052 127.074 8.85294 125.668C7.38261 124.74 6.20208 123.421 5.44452 121.859L11.727 118.28Z" fill="#5F9979"/>
<path d="M11.7269 118.281L5.44441 121.86C4.78929 120.653 4.42896 119.31 4.39264 117.939C4.39264 115.138 6.40057 113.968 8.85283 115.374C10.025 116.107 11.0091 117.102 11.7269 118.281V118.281Z" fill="#5F9979"/>
</g>
<defs>
<clipPath id="clip0">
<path d="M0 0H200V165.493H0V0Z" fill="white"/>
</clipPath>
</defs>
</svg>
