<svg width="300" height="47" viewBox="0 0 300 47" fill="none" xmlns="http://www.w3.org/2000/svg">
<g clip-path="url(#clip0)">
<path d="M131.828 42.5517V31.4743C131.828 26.2391 129.97 23.1789 125.961 22.4582C130.615 21.1936 131.879 17.3241 131.879 12.3418C131.879 5.29832 129.35 0.960938 121.143 0.960938H106.424V46.5224H116.224V26.6817H118.639C121.004 26.6817 122.117 28.313 122.117 30.4754V42.615C122.042 43.9525 122.276 45.2894 122.8 46.5224H132.701C132.054 45.3029 131.753 43.93 131.828 42.5517ZM118.867 18.968L116.338 19.0312V8.73787H119.31C121.548 8.73787 122.281 10.3818 122.281 13.9731C122.281 17.5644 121.396 18.968 118.867 18.968Z" fill="white"/>
<path d="M21.9651 38.7582C22.6709 38.1633 23.2256 37.4097 23.5839 36.559C23.9422 35.7084 24.0938 34.785 24.0264 33.8644V27.0486H14.4917V36.305C14.4917 36.6189 14.4299 36.9296 14.3098 37.2196C14.1897 37.5096 14.0136 37.7731 13.7917 37.995C13.5698 38.2169 13.3063 38.393 13.0163 38.5131C12.7264 38.6332 12.4156 38.695 12.1017 38.695C11.7924 38.6935 11.4865 38.6299 11.2022 38.5082C10.9178 38.3864 10.6608 38.2089 10.4462 37.9861C10.2317 37.7633 10.0639 37.4997 9.953 37.211C9.84204 36.9222 9.79011 36.6142 9.80025 36.305V10.1163C9.78837 9.80614 9.83903 9.49672 9.9492 9.2065C10.0594 8.91629 10.2268 8.6512 10.4415 8.42703C10.6563 8.20286 10.9139 8.02418 11.1991 7.90163C11.4843 7.77909 11.7913 7.71518 12.1017 7.71371C12.4166 7.7137 12.7285 7.77594 13.0193 7.89684C13.31 8.01773 13.5741 8.19491 13.7962 8.41818C14.0183 8.64145 14.1941 8.90642 14.3134 9.19785C14.4328 9.48927 14.4934 9.80142 14.4917 10.1163V19.4234H24.0264V9.73697C24.0264 4.40061 20.5236 0 12.0258 0C3.3005 0 4.94058e-05 4.41325 4.94058e-05 9.74962V37.1143C-0.00401642 38.3596 0.242904 39.593 0.726068 40.7408C1.20923 41.8886 1.91873 42.9272 2.8122 43.7947C3.70567 44.6622 4.76479 45.3408 5.92632 45.7899C7.08785 46.239 8.32797 46.4495 9.57263 46.4087H12.519L21.9651 38.7582Z" fill="white"/>
<path d="M283.599 42.5263V31.449C283.599 26.2137 281.74 23.1536 277.732 22.4328C282.385 21.1682 283.65 17.2987 283.65 12.3164C283.65 5.27293 281.12 0.935547 272.914 0.935547H258.194V46.497H268.083V26.6563H270.473C272.838 26.6563 273.951 28.2876 273.951 30.45V42.5769C273.876 43.9145 274.11 45.2513 274.633 46.4844H284.522C283.875 45.2648 283.574 43.892 283.65 42.5137L283.599 42.5263ZM270.612 18.9679H268.007V8.71248H270.979C273.23 8.71248 273.963 10.3564 273.963 13.9477C273.963 17.539 273.141 18.9679 270.612 18.9679Z" fill="white"/>
<path d="M246.914 0.796875H233.738L225.91 46.4974H235.837L236.798 38.4297H243.88L244.853 46.4974H254.78L246.914 0.796875ZM237.797 30.0837L240.326 8.80143L242.855 30.0837H237.797Z" fill="white"/>
<path d="M181.234 46.4978V0.898438H191.275V37.8357H201.745V46.4978H181.234Z" fill="white"/>
<path d="M165.87 46.4978H175.923V0.898438H165.87V46.4978Z" fill="white"/>
<path d="M181.234 46.4978V0.898438H191.275V37.8357H201.745V46.4978H181.234Z" fill="white"/>
<path d="M204.16 46.4978V0.898438H214.214V37.8357H224.684V46.4978H204.16Z" fill="white"/>
<path d="M151.96 0.898438H136.646V46.5105H146.459V28.4022H151.947C160.964 28.4022 162.494 22.6612 162.494 14.6567C162.494 6.6521 160.976 0.898438 151.96 0.898438ZM149.431 20.3344H146.434V8.72595H149.418C151.947 8.72595 152.39 10.471 152.39 14.6567C152.39 18.8423 151.96 20.3344 149.431 20.3344Z" fill="white"/>
<path d="M89.4664 9.58482V18.6136H99.8736V27.554H89.4664V37.6829H101.821V46.4715L79.4133 46.4842V0.884766H79.4006H101.404V9.58482H89.4664Z" fill="white"/>
<path d="M59.5092 39.8337V9.76288H52.9336V0.898438H76.7196V9.76288H70.1187V46.3587H67.2988L59.5092 39.8337Z" fill="white"/>
<path d="M63.7583 46.4215L40.6045 27.0234L16.6035 46.4215H63.7583Z" fill="white"/>
<path d="M47.2179 0.949219H33.9529L26.2139 35.623L40.6044 24.0271L55.6398 36.584L47.2179 0.949219ZM38.05 21.7889L40.5791 8.67557L43.1082 21.7889H38.05Z" fill="white"/>
<path d="M300 7.04427C300.002 8.37053 299.611 9.66759 298.874 10.7707C298.138 11.8737 297.09 12.733 295.864 13.2393C294.639 13.7457 293.29 13.8762 291.99 13.6144C290.69 13.3525 289.497 12.7101 288.562 11.7687C287.628 10.8274 286.995 9.62954 286.743 8.32743C286.491 7.02532 286.632 5.6777 287.147 4.45579C287.663 3.23387 288.53 2.19281 289.639 1.46487C290.748 0.736922 292.048 0.354953 293.374 0.367486C294.251 0.36413 295.12 0.534632 295.931 0.86914C296.742 1.20365 297.478 1.69553 298.098 2.31636C298.718 2.9372 299.208 3.67467 299.541 4.48618C299.874 5.29768 300.043 6.16712 300.038 7.04427H300ZM298.735 7.04427C298.73 5.96671 298.405 4.91497 297.801 4.02255C297.197 3.13013 296.342 2.43727 295.343 2.03193C294.345 1.62658 293.249 1.52703 292.193 1.74591C291.138 1.96479 290.172 2.49223 289.417 3.26127C288.662 4.03032 288.153 5.00629 287.954 6.06531C287.755 7.12432 287.875 8.21862 288.299 9.2093C288.723 10.2 289.432 11.0424 290.335 11.6295C291.239 12.2167 292.296 12.5221 293.374 12.5071C294.088 12.5038 294.794 12.3598 295.453 12.0835C296.111 11.8072 296.709 11.4039 297.211 10.8966C297.714 10.3893 298.112 9.78804 298.382 9.12706C298.652 8.46607 298.789 7.75834 298.786 7.04427H298.735ZM292.489 10.9138H290.731V3.12419H293.981C294.247 3.11157 294.514 3.15698 294.761 3.25727C295.009 3.35755 295.232 3.51034 295.414 3.70509C295.597 3.89984 295.735 4.13191 295.82 4.38529C295.904 4.63868 295.932 4.90734 295.903 5.17275C295.933 5.40135 295.916 5.63364 295.853 5.8554C295.79 6.07717 295.682 6.28374 295.536 6.46249C295.391 6.64124 295.21 6.78839 295.006 6.89495C294.801 7.00151 294.577 7.06522 294.347 7.08221C294.556 7.05829 294.768 7.08164 294.967 7.15053C295.165 7.21941 295.346 7.33207 295.496 7.48018C295.645 7.62829 295.759 7.80806 295.829 8.0062C295.9 8.20435 295.925 8.41581 295.903 8.62495C295.877 9.39267 295.94 10.1608 296.092 10.9138H294.373C294.172 10.4347 294.089 9.9141 294.132 9.39632C294.132 8.48585 294.284 7.68919 292.868 7.68919H292.413V10.9138H292.489ZM292.489 6.60168H293.285C293.981 6.60168 294.196 5.95676 294.196 5.45095C294.196 4.70487 293.842 4.42667 293.285 4.42667H292.489V6.60168Z" fill="white"/>
</g>
<defs>
<clipPath id="clip0">
<rect width="300" height="46.5225" fill="white"/>
</clipPath>
</defs>
</svg>
