<svg width="200" height="37" viewBox="0 0 200 37" fill="none" xmlns="http://www.w3.org/2000/svg">
<g clip-path="url(#clip0)">
<path d="M5.41176 0.0117188V36.1187L0 30.7069V5.41814H0.00534759L5.41176 0.0117188Z" fill="#4A78F2"/>
<path d="M26.3636 12.2247V14.0536C26.3665 14.5255 26.1825 14.9793 25.8518 15.3159C25.5212 15.6526 25.0707 15.8447 24.5989 15.8504H10.1604V10.4707H24.5989C24.8987 10.4703 25.1936 10.5477 25.4545 10.6953C25.7283 10.8464 25.9569 11.0678 26.1166 11.3366C26.2764 11.6054 26.3617 11.912 26.3636 12.2247Z" fill="#4A78F2"/>
<path d="M26.3636 21.6416V23.4704C26.3643 23.7024 26.3192 23.9322 26.2307 24.1466C26.1423 24.361 26.0123 24.5558 25.8483 24.7199C25.6843 24.8839 25.4895 25.0138 25.2751 25.1023C25.0606 25.1907 24.8308 25.2359 24.5989 25.2351H10.1604V19.8555H24.5989C24.8321 19.8569 25.0626 19.9042 25.2775 19.9947C25.4924 20.0852 25.6873 20.2172 25.8512 20.383C26.015 20.5489 26.1446 20.7454 26.2326 20.9613C26.3205 21.1773 26.365 21.4084 26.3636 21.6416Z" fill="#4A78F2"/>
<path d="M36.1069 5.38554H0L5.41176 0.00585938H30.7005L33.4118 2.70105L36.1069 5.38554Z" fill="#4A78F2"/>
<path d="M36.1069 30.7109V30.7163L30.7059 36.112V36.1013L30.7005 36.0906H5.41176V36.1067L0 30.7109H36.1069Z" fill="#4A78F2"/>
<path d="M36.1444 23.7695V30.7054L36.123 30.7107H36.1123L30.6952 36.1118H30.6685V36.1171V23.7695H36.1444Z" fill="#4A78F2"/>
<path d="M36.1444 5.41176V12.3262H30.6685V0L33.4118 2.71123L36.1444 5.41176Z" fill="#4A78F2"/>
<path d="M73.1229 11.9308L70.7112 14.3426C69.1069 12.5351 67.2192 11.6314 65.1604 11.6314C64.3427 11.6169 63.5311 11.7746 62.7784 12.0943C62.0257 12.414 61.3487 12.8885 60.7914 13.487C60.206 14.0931 59.7468 14.8093 59.4402 15.5941C59.1336 16.3789 58.9858 17.2168 59.0053 18.0592C58.9785 19.2282 59.247 20.3851 59.786 21.4228C60.3035 22.3881 61.0817 23.1886 62.032 23.733C63.0079 24.2919 64.1161 24.5782 65.2406 24.5619C66.1844 24.5714 67.1189 24.3742 67.9785 23.9843C69.0062 23.4322 69.9321 22.7088 70.7165 21.8453L73.0534 24.38C71.9742 25.5509 70.6891 26.5134 69.262 27.2196C67.976 27.765 66.5889 28.0311 65.1925 28.0004C63.9108 28.0451 62.634 27.8202 61.4448 27.3403C60.2555 26.8603 59.1803 26.136 58.2887 25.2143C57.3923 24.2575 56.6945 23.1325 56.2355 21.9044C55.7766 20.6763 55.5656 19.3693 55.6149 18.0592C55.5769 16.3064 56.0011 14.5746 56.8449 13.0378C57.6718 11.5599 58.8866 10.3358 60.3582 9.49768C61.8342 8.61793 63.5223 8.15755 65.2406 8.16613C66.7387 8.16172 68.2176 8.50397 69.5614 9.16613C70.947 9.78903 72.1615 10.7375 73.1015 11.9308" fill="#4A78F2"/>
<path d="M75.7861 8.11328H79.1444V14.9208C79.7308 14.3744 80.4005 13.9249 81.1284 13.5892C81.7579 13.2943 82.4439 13.1392 83.1391 13.1347C83.7718 13.1215 84.3999 13.2452 84.9804 13.4971C85.5609 13.7491 86.0802 14.1234 86.5027 14.5946C87.2835 15.4234 87.6845 16.6534 87.6845 18.263V27.5037H84.369V21.3914C84.4112 20.2902 84.3359 19.1877 84.1444 18.1026C84.0416 17.6033 83.7765 17.1521 83.3904 16.8192C83.007 16.5314 82.5381 16.3807 82.0589 16.3914C81.7332 16.3847 81.4096 16.4438 81.1073 16.5651C80.805 16.6863 80.5302 16.8673 80.2995 17.0972C79.7806 17.6269 79.4307 18.2989 79.2942 19.0277C79.1618 19.9878 79.1117 20.9575 79.1444 21.9261V27.5304H75.8075V8.11328" fill="#4A78F2"/>
<path d="M104.337 21.5526H93.5401C93.6492 22.4682 94.0976 23.3097 94.7968 23.9109C95.5223 24.5122 96.4433 24.8262 97.3851 24.7932C97.9866 24.7969 98.5823 24.6757 99.1346 24.4373C99.6869 24.1989 100.184 23.8485 100.594 23.4082L103.433 24.7932C102.803 25.7701 101.929 26.5663 100.898 27.1034C99.8023 27.6312 98.5959 27.8897 97.3797 27.8574C96.4269 27.8917 95.4776 27.7235 94.5945 27.364C93.7115 27.0045 92.9147 26.4619 92.2567 25.7718C91.5974 25.0806 91.0824 24.2649 90.7418 23.3725C90.4012 22.4801 90.2417 21.5287 90.2728 20.574C90.2354 19.5959 90.3914 18.6201 90.7318 17.7025C91.0723 16.7848 91.5905 15.9434 92.2567 15.2264C92.8808 14.5375 93.6452 13.9902 94.4984 13.6213C95.3516 13.2523 96.2739 13.0703 97.2032 13.0873C98.1644 13.0571 99.1209 13.2322 100.009 13.6011C100.897 13.9699 101.696 14.524 102.353 15.2264C103.685 16.6328 104.337 18.4884 104.337 20.8253V21.5312V21.5526ZM100.973 18.7611C100.761 17.9998 100.302 17.3304 99.6685 16.8574C99.0083 16.3694 98.2059 16.112 97.3851 16.1248C96.4928 16.1116 95.6229 16.4041 94.9198 16.9536C94.3738 17.4514 93.9525 18.0705 93.6899 18.7611H100.973Z" fill="#4A78F2"/>
<path d="M120.16 16.3526L117.374 17.9568C116.942 17.455 116.413 17.0457 115.818 16.7536C115.245 16.5196 114.629 16.4085 114.011 16.4274C113.452 16.3991 112.894 16.4881 112.373 16.6887C111.851 16.8893 111.377 17.197 110.981 17.5921C110.586 17.9871 110.277 18.4606 110.076 18.9822C109.875 19.5037 109.785 20.0616 109.813 20.6199C109.789 21.1614 109.879 21.7018 110.076 22.2064C110.274 22.711 110.575 23.1685 110.961 23.5495C111.346 23.9304 111.807 24.2263 112.314 24.4181C112.821 24.6098 113.363 24.6932 113.904 24.6627C114.576 24.6961 115.246 24.5678 115.858 24.2887C116.471 24.0095 117.007 23.5877 117.422 23.0584L120.059 24.9408C119.363 25.8892 118.444 26.6514 117.384 27.1598C116.323 27.6682 115.154 27.907 113.979 27.8552C111.62 27.8552 109.786 27.1226 108.455 25.6681C107.366 24.4897 106.68 22.9963 106.494 21.403C106.309 19.8097 106.634 18.1986 107.422 16.8018C108.071 15.6824 109.01 14.7587 110.139 14.128C111.285 13.5085 112.561 13.1713 113.864 13.1443C115.166 13.1174 116.455 13.4014 117.626 13.9729C118.657 14.5559 119.534 15.3751 120.187 16.3633" fill="#4A78F2"/>
<path d="M123.225 8.11328H126.588V19.2898L131.551 13.5144H135.77L130.005 20.2202L136.46 27.5037H132.289L126.615 21.0491V27.5037H123.251V8.11328" fill="#4A78F2"/>
<path d="M141.176 8.11328V15.0652C141.736 14.4696 142.401 13.9836 143.139 13.632C143.847 13.3089 144.618 13.1464 145.396 13.1561C146.249 13.152 147.092 13.3369 147.865 13.6975C148.638 14.0581 149.321 14.5854 149.866 15.2416C151.132 16.7279 151.788 18.6388 151.701 20.5892C151.76 22.5051 151.087 24.3715 149.818 25.8085C149.272 26.4739 148.586 27.0107 147.809 27.3804C147.031 27.7502 146.182 27.9438 145.321 27.9475C144.587 27.9465 143.86 27.8012 143.182 27.5197C142.431 27.1619 141.752 26.6709 141.176 26.0705V27.5518H137.84V8.11328H141.176ZM144.722 16.4021C144.226 16.39 143.734 16.4844 143.278 16.6791C142.823 16.8738 142.414 17.1641 142.08 17.5304C141.349 18.3415 140.965 19.4071 141.011 20.4983C140.965 21.6023 141.348 22.6812 142.08 23.509C142.409 23.8836 142.816 24.1812 143.272 24.3808C143.729 24.5805 144.224 24.6772 144.722 24.6641C145.213 24.6692 145.699 24.566 146.145 24.3617C146.592 24.1574 146.988 23.8571 147.305 23.4823C148.03 22.6613 148.413 21.5932 148.374 20.4983C148.419 19.423 148.052 18.3712 147.348 17.5571C147.023 17.1862 146.621 16.8906 146.17 16.6911C145.72 16.4916 145.231 16.393 144.738 16.4021H144.722Z" fill="#4A78F2"/>
<path d="M160.77 13.1605C162.03 13.1548 163.266 13.5032 164.337 14.1659C165.433 14.8044 166.335 15.7286 166.947 16.8397C167.569 17.9594 167.89 19.2217 167.877 20.5028C167.881 21.8083 167.561 23.0944 166.947 24.2461C166.352 25.3518 165.468 26.2758 164.39 26.9199C163.306 27.572 162.062 27.9107 160.797 27.8985C159.872 27.9041 158.957 27.7167 158.109 27.3484C157.261 26.9801 156.499 26.4389 155.872 25.7594C154.533 24.3644 153.802 22.495 153.84 20.5616C153.819 19.5394 154.013 18.5242 154.411 17.5825C154.81 16.6407 155.402 15.7935 156.15 15.0963C156.747 14.4759 157.465 13.9841 158.26 13.6512C159.054 13.3183 159.909 13.1513 160.77 13.1605ZM160.824 16.476C160.332 16.4653 159.844 16.5606 159.393 16.7553C158.942 16.95 158.538 17.2396 158.209 17.6044C157.5 18.4051 157.132 19.4507 157.182 20.5188C157.132 21.6013 157.5 22.6616 158.209 23.4814C158.537 23.847 158.941 24.1366 159.392 24.3296C159.844 24.5227 160.333 24.6146 160.824 24.599C161.317 24.6129 161.807 24.5165 162.259 24.3166C162.71 24.1168 163.112 23.8186 163.433 23.4439C164.162 22.6422 164.547 21.5856 164.503 20.5028C164.55 19.4351 164.182 18.3905 163.476 17.5883C163.142 17.2235 162.734 16.9342 162.28 16.7396C161.825 16.545 161.334 16.4497 160.84 16.46L160.824 16.476Z" fill="#4A78F2"/>
<path d="M176.893 13.1611C178.153 13.1549 179.389 13.5033 180.46 14.1665C181.556 14.8064 182.459 15.7301 183.075 16.8403C183.693 17.9614 184.012 19.2231 184 20.5034C184.003 21.8081 183.685 23.0937 183.075 24.2467C182.476 25.3514 181.591 26.2749 180.513 26.9205C179.429 27.5726 178.185 27.9113 176.92 27.8991C175.996 27.9053 175.081 27.7182 174.234 27.3498C173.386 26.9814 172.626 26.4399 172 25.7601C171.335 25.0702 170.813 24.256 170.463 23.3641C170.114 22.4722 169.944 21.52 169.962 20.5622C169.94 19.5382 170.134 18.521 170.532 17.5773C170.93 16.6336 171.523 15.7847 172.273 15.0863C172.874 14.4703 173.592 13.9815 174.386 13.6489C175.18 13.3163 176.032 13.1468 176.893 13.1504V13.1611ZM176.946 16.4767C176.456 16.4687 175.968 16.5652 175.518 16.7598C175.067 16.9543 174.663 17.2424 174.331 17.605C173.623 18.4058 173.255 19.4513 173.305 20.5194C173.255 21.6019 173.623 22.6622 174.331 23.482C174.66 23.8471 175.064 24.1362 175.516 24.3293C175.967 24.5223 176.456 24.6145 176.946 24.5996C177.44 24.6136 177.93 24.5171 178.382 24.3173C178.833 24.1174 179.235 23.8193 179.556 23.4446C180.285 22.6428 180.669 21.5862 180.626 20.5034C180.673 19.4357 180.305 18.3912 179.599 17.589C179.268 17.22 178.861 16.9277 178.406 16.7328C177.95 16.5379 177.458 16.445 176.962 16.4606L176.946 16.4767Z" fill="#4A78F2"/>
<path d="M186.765 8.11328H190.128V19.2898L195.075 13.5144H199.294L193.545 20.2202L200 27.5037H195.829L190.155 21.0491V27.5037H186.791V8.11328" fill="#4A78F2"/>
<path style="mix-blend-mode:multiply" opacity="0.3" d="M30.706 30.7012H22.583V36.1022H30.706V30.7012Z" fill="url(#paint0_linear)"/>
<path style="mix-blend-mode:multiply" opacity="0.3" d="M30.706 0H22.583V5.40107H30.706V0Z" fill="url(#paint1_linear)"/>
<path style="mix-blend-mode:multiply" opacity="0.3" d="M5.40107 5.40039H0V12.3095H5.40107V5.40039Z" fill="url(#paint2_linear)"/>
<path style="mix-blend-mode:multiply" opacity="0.3" d="M5.40107 23.7852H0V30.6942H5.40107V23.7852Z" fill="url(#paint3_linear)"/>
</g>
<defs>
<linearGradient id="paint0_linear" x1="22.583" y1="33.4017" x2="30.706" y2="33.4017" gradientUnits="userSpaceOnUse">
<stop stop-color="white"/>
<stop offset="1"/>
</linearGradient>
<linearGradient id="paint1_linear" x1="-181.304" y1="-1342.81" x2="-57.9159" y2="-1342.81" gradientUnits="userSpaceOnUse">
<stop stop-color="white"/>
<stop offset="1"/>
</linearGradient>
<linearGradient id="paint2_linear" x1="27.2754" y1="164.517" x2="27.2754" y2="75.1822" gradientUnits="userSpaceOnUse">
<stop stop-color="white"/>
<stop offset="1"/>
</linearGradient>
<linearGradient id="paint3_linear" x1="27.2754" y1="331.101" x2="27.2754" y2="420.367" gradientUnits="userSpaceOnUse">
<stop stop-color="white"/>
<stop offset="1"/>
</linearGradient>
<clipPath id="clip0">
<rect width="200" height="36.1176" fill="white"/>
</clipPath>
</defs>
</svg>
