<svg width="200" height="37" viewBox="0 0 200 37" fill="none" xmlns="http://www.w3.org/2000/svg">
<g clip-path="url(#clip0)">
<path d="M25.0882 35.2857L23.8895 30.9902L24.0378 30.9329L26.3891 34.7052C27.5441 34.1854 28.6825 33.4497 29.6049 32.6767L27.4569 29.2178L27.5792 29.1157L30.635 31.8024C31.6567 30.9326 32.5938 29.8319 33.2884 28.7838L30.4885 26.2894L30.5748 26.156L33.992 27.7003C34.7472 26.5291 35.374 25.1583 35.7468 23.8062L32.6483 22.3704L32.687 22.2164L36.0781 22.618C36.4431 21.2654 36.6062 19.7905 36.5905 18.3025H25.3836C25.3708 22.1747 22.2275 25.3111 18.3521 25.3111C14.4686 25.3111 11.3206 22.1629 11.3206 18.2797C11.3206 14.7235 13.9609 11.7833 17.388 11.313L14.5379 0.409318C13.9316 0.508889 13.1724 0.706571 12.6115 0.924106L15.435 11.1342L15.2792 11.1945L10.0368 1.99322C9.4083 2.27165 8.70357 2.69393 8.17282 3.08374L13.3586 11.6586L13.2317 11.7587L6.10856 4.68495C5.58198 5.11768 4.96641 5.72547 4.55609 6.25493L11.4335 12.8078L11.3298 12.9326L3.08625 8.17329C2.63891 8.76159 2.18956 9.57131 1.89616 10.237L9.77385 14.5751L9.71415 14.7264L1.02925 12.314C0.74477 13.0445 0.489561 13.9858 0.368432 14.763L8.63579 16.784L8.60684 16.9483L0.0750323 16.9526C0.047274 17.3643 0 17.8814 0 18.2994C0 18.7062 0.0449183 19.1975 0.0708262 19.5966L8.09996 19.5289L8.11574 19.6831L0.327551 21.6254C0.470383 22.5487 0.706753 23.4625 1.03582 24.3088L8.27342 22.3236L8.33566 22.4705L1.77066 26.1046C2.16264 26.9783 2.65052 27.8228 3.21108 28.6155L9.16736 25.1701L9.26546 25.2954L4.3332 30.0892C4.9508 30.8623 5.66714 31.5753 6.44353 32.212L10.8783 27.824L11.0079 27.9165L7.83802 33.2899C8.6726 33.8994 9.56714 34.4255 10.5343 34.8541L13.3991 29.9425L13.5483 30.0014L12.064 35.4895C13.0386 35.8757 14.0963 36.149 15.1982 36.3203L16.5815 31.2459L16.7396 31.2711L16.7732 36.52C17.2806 36.5625 17.79 36.6075 18.3082 36.6075C18.9288 36.6075 19.5422 36.5528 20.147 36.4927L20.1494 31.624L20.3072 31.6017L21.6379 36.2816C22.8852 36.0848 24.0701 35.7251 25.082 35.2877L25.0882 35.2857ZM19.3009 0.0459093C18.9969 0.0173124 18.6161 0 18.3166 0C18.0456 0 17.6684 0.0134359 17.4073 0.0412146L17.508 11.2977C17.7848 11.2649 18.0666 11.2483 18.3521 11.2483C18.6398 11.2483 18.9243 11.2658 19.2032 11.2988L19.3009 0.0459093ZM19.4041 11.326C19.9497 11.4081 20.4751 11.5526 20.9718 11.7525L24.0179 0.929143C23.512 0.73482 22.8154 0.54304 22.2748 0.451349L19.4041 11.326ZM21.2382 11.8661C21.7143 12.0805 22.1623 12.3463 22.575 12.6567L28.3782 3.0405C27.9591 2.73933 27.3551 2.36503 26.8773 2.14801L21.2382 11.8661ZM32.0317 6.22215C31.7378 5.8643 31.2817 5.3705 30.915 5.06134L22.902 12.9188C23.261 13.2228 23.5886 13.5627 23.8801 13.9331L32.0317 6.22215ZM24.2917 14.5152C24.4842 14.8168 24.6538 15.1356 24.799 15.4674L34.6529 10.1034C34.5031 9.75351 34.2295 9.24749 34.0111 8.93454L24.2917 14.5152ZM25.2964 17.1684C25.242 16.823 25.1615 16.4862 25.0584 16.1599L35.9226 13.3897C36.0379 13.7183 36.1539 14.2339 36.2098 14.5724L25.2964 17.1684Z" fill="black"/>
<path d="M53.1703 16.3072V14.4332C53.1703 13.5986 52.8731 13.1619 52.138 13.1619C51.3032 13.1619 51.0855 13.6981 51.1053 14.4332V21.7992C51.0855 22.5344 51.3032 23.0705 52.138 23.0705C52.8731 23.0705 53.1703 22.6345 53.1703 21.7992V19.9252H56.9638V21.4425C56.9638 23.9639 55.6928 25.9108 52.1178 25.9108C49.1587 25.9108 47.3118 24.5002 47.3118 21.4425V14.7902C47.3118 11.7326 49.1587 10.3223 52.1178 10.3223C55.6928 10.3223 56.9638 12.2689 56.9638 14.7902V16.3072H53.1703ZM163.516 22.7514C163.516 23.1681 163.873 23.5062 164.33 23.5062C164.759 23.5062 165.145 23.2081 165.145 22.7514V17.3099C165.145 16.8533 164.796 16.5347 164.33 16.5347C163.855 16.5347 163.516 16.873 163.516 17.2897V22.7514ZM163.258 14.4465L163.283 15.3642H163.323C163.56 14.9758 163.905 14.1289 165.759 14.1289C167.842 14.1289 168.641 15.5581 168.641 17.1896V22.7736C168.641 24.3693 167.966 25.9108 165.723 25.9108C164.282 25.9108 163.861 25.3358 163.555 24.9371H163.516V29.3024H160.039V14.4465H163.258ZM158.053 18.0459H154.796V17.3706C154.796 16.8358 154.44 16.4174 153.863 16.4174C153.254 16.4174 152.968 16.7221 152.968 17.1526C152.968 17.6765 153.276 17.9891 154.074 18.3768C154.57 18.6182 155.104 18.8775 155.72 19.1749C157.844 20.2018 158.371 21.0399 158.371 22.3959C158.371 24.387 156.914 25.9305 153.882 25.9305C150.995 25.9305 149.552 24.4682 149.552 22.1769V21.76H152.85V22.6538C152.85 23.2707 153.21 23.6467 153.882 23.6467C154.472 23.6467 154.835 23.2224 154.835 22.7525C154.835 22.4789 154.796 22.0196 153.541 21.408C153.256 21.2684 152.656 20.9829 152.338 20.8268C150.808 20.0797 149.752 19.4138 149.752 17.4701C149.752 15.5422 151.222 14.1333 153.902 14.1333C156.962 14.1333 158.053 15.8331 158.053 17.7486V18.0459ZM139.364 17.947C139.364 15.4246 141.092 14.1333 143.654 14.1333C146.474 14.1333 147.964 15.663 147.964 17.947V22.118C147.964 24.4018 146.494 25.9305 143.654 25.9305C141.112 25.9305 139.364 24.66 139.364 22.1377V17.947ZM142.849 22.7531C142.849 23.1703 143.205 23.5085 143.662 23.5085C144.091 23.5085 144.477 23.2101 144.477 22.7531V17.3119C144.477 16.8548 144.129 16.5365 143.662 16.5365C143.187 16.5365 142.849 16.875 142.849 17.2915V22.7531ZM189.792 21.3031V22.118C189.792 24.4018 188.283 25.9305 185.463 25.9305C182.901 25.9305 181.134 24.6393 181.134 22.118V17.947C181.134 15.4246 182.901 14.1333 185.463 14.1333C188.283 14.1333 189.792 15.663 189.792 17.947V18.6421H186.198V17.3119C186.198 16.8548 185.861 16.5767 185.463 16.5767C185.006 16.5767 184.708 16.8944 184.708 17.3119V22.7531C184.708 23.1706 185.006 23.4877 185.463 23.4877C185.861 23.4877 186.198 23.2101 186.198 22.7531V21.3031H189.792ZM130.788 21.76V22.1579C130.748 24.4017 129.477 25.9305 126.697 25.9305C124.135 25.9305 122.566 24.6398 122.566 22.118V17.947C122.566 15.4246 124.135 14.1333 126.697 14.1333C129.517 14.1333 130.808 15.663 130.808 17.947V20.787H125.922V22.7728C125.922 23.1905 126.24 23.5471 126.697 23.5471C127.094 23.5471 127.472 23.23 127.472 22.7728V21.76H130.788ZM127.472 18.563V17.2716C127.472 16.8153 127.094 16.5168 126.697 16.5168C126.24 16.5168 125.922 16.8548 125.922 17.2919V18.563H127.472ZM199.786 21.76V22.1579C199.746 24.4017 198.475 25.9305 195.694 25.9305C193.131 25.9305 191.563 24.6398 191.563 22.118V17.947C191.563 15.4246 193.131 14.1333 195.694 14.1333C198.514 14.1333 199.805 15.663 199.805 17.947V20.787H194.919V22.7728C194.919 23.1905 195.238 23.5471 195.694 23.5471C196.091 23.5471 196.469 23.23 196.469 22.7728V21.76H199.786ZM196.469 18.563V17.2716C196.469 16.8153 196.091 16.5168 195.694 16.5168C195.238 16.5168 194.919 16.8548 194.919 17.2919V18.563H196.469ZM175.695 20.1589C175.695 20.1589 175.186 20.3934 174.896 20.5194C173.917 20.9444 173.847 21.6868 173.847 22.3909C173.847 23.0427 174.173 23.4824 174.74 23.4824C175.509 23.4824 175.695 22.8448 175.695 22.3623V20.1589ZM175.812 24.5616C175.571 24.9371 174.712 25.9108 173.123 25.9108C171.338 25.9108 170.402 24.7937 170.402 23.0285C170.402 23.0024 170.402 22.4329 170.402 22.3055C170.402 20.4626 171.746 19.6359 172.92 19.1774C173.348 19.0101 173.71 18.8746 174.096 18.7276C174.941 18.4042 175.695 18.1233 175.695 17.2395C175.695 16.8474 175.407 16.55 174.882 16.55C174.386 16.55 174.06 16.9184 174.06 17.3721C174.06 17.4049 174.06 18.1409 174.06 18.1409H170.589C170.589 18.1409 170.589 17.651 170.589 17.5987C170.589 15.4013 172.599 14.1289 174.604 14.1289C177.959 14.1289 179.181 15.8555 179.181 17.8679V23.2687C179.181 24.4012 179.301 25.1563 179.44 25.5537H175.904L175.812 24.5616ZM135.969 14.4465L136.017 15.8708H136.057C136.154 15.4502 136.726 14.1289 138.498 14.1289V17.6997C138.393 17.6793 138.007 17.6199 137.545 17.6199C136.736 17.6199 136.237 18.1186 136.237 19.0942V25.5537H132.779V14.4465H135.969ZM116.095 13.375H116.055L115.044 20.0396H117.067L116.095 13.375ZM110.739 25.5537L113.678 10.6777H118.725L121.43 25.5537H117.9L117.404 22.6575H114.667L114.251 25.5537H110.739ZM74.8679 10.5547H78.5793V25.5827H74.8679V10.5547ZM69.2154 10.5547H72.9273V25.5827H69.2154V10.5547ZM89.3522 14.5697L89.4305 15.5547H89.4898C89.8047 15.1013 90.652 14.2154 92.0903 14.2154C93.9225 14.2154 94.8683 15.535 94.8683 17.1307C94.8683 18.3327 94.8683 25.5827 94.8683 25.5827H91.3023C91.3023 25.5827 91.3023 18.4707 91.3023 17.8793C91.3221 17.2883 90.9475 16.9928 90.5535 16.9928C90.1987 16.9928 89.7655 17.2883 89.7655 17.8403V25.5827H86.2193V14.5697H89.3522ZM80.5814 14.55H84.2064V25.5827H80.5814V14.55ZM80.5814 10.8068H84.2064V13.4666H80.5814V10.8068ZM104.926 17.9983H101.668V17.3232C101.668 16.7884 101.312 16.3698 100.736 16.3698C100.127 16.3698 99.8412 16.6744 99.8412 17.1049C99.8412 17.6288 100.15 17.9416 100.947 18.3294C101.443 18.5707 101.978 18.83 102.593 19.1273C104.716 20.1542 105.243 20.9925 105.243 22.3485C105.243 24.3395 103.786 25.8831 100.755 25.8831C97.8688 25.8831 96.4249 24.4206 96.4249 22.1292V21.7125H99.7225V22.6062C99.7225 23.2233 100.084 23.5993 100.755 23.5993C101.345 23.5993 101.709 23.1748 101.709 22.7051C101.709 22.4312 101.668 21.9719 100.415 21.3604C100.129 21.2208 99.529 20.9355 99.2103 20.7792C97.6808 20.032 96.6245 19.3662 96.6245 17.4226C96.6245 15.4948 98.0946 14.0858 100.775 14.0858C103.836 14.0858 104.926 15.7857 104.926 17.7012V17.9983ZM58.7776 17.9273C58.7776 15.4048 60.5057 14.1136 63.0675 14.1136C65.8877 14.1136 67.3784 15.6433 67.3784 17.9273V22.0981C67.3784 24.3819 65.9075 25.9108 63.0675 25.9108C60.5255 25.9108 58.7776 24.6401 58.7776 22.118V17.9273ZM62.2627 22.7332C62.2627 23.1504 62.6193 23.4886 63.0761 23.4886C63.5049 23.4886 63.8911 23.1905 63.8911 22.7332V17.2922C63.8911 16.835 63.5427 16.5168 63.0761 16.5168C62.6012 16.5168 62.2627 16.8552 62.2627 17.2716V22.7332Z" fill="black"/>
</g>
<defs>
<clipPath id="clip0">
<rect width="200" height="36.9892" fill="white"/>
</clipPath>
</defs>
</svg>
