<svg width="200" height="22" viewBox="0 0 200 22" fill="none" xmlns="http://www.w3.org/2000/svg">
<g clip-path="url(#clip0)">
<path d="M15.87 0.695386V3.48139C15.8724 3.52183 15.8661 3.56232 15.8516 3.60016C15.8372 3.638 15.8148 3.67233 15.7861 3.70088C15.7573 3.72944 15.7229 3.75156 15.6849 3.76578C15.647 3.78 15.6065 3.786 15.566 3.78339H3.60203V9.47739H13.476C13.5163 9.47506 13.5566 9.48128 13.5943 9.49564C13.632 9.50999 13.6662 9.53216 13.6947 9.56068C13.7233 9.5892 13.7454 9.62343 13.7598 9.66112C13.7741 9.69882 13.7804 9.73912 13.778 9.77938V12.5674C13.7804 12.6077 13.7741 12.648 13.7598 12.6856C13.7454 12.7233 13.7233 12.7576 13.6947 12.7861C13.6662 12.8146 13.632 12.8368 13.5943 12.8511C13.5566 12.8655 13.5163 12.8717 13.476 12.8694H3.60203V21.2874C3.60492 21.3278 3.59918 21.3684 3.58521 21.4064C3.57124 21.4444 3.54935 21.4791 3.52098 21.508C3.49262 21.5369 3.45843 21.5595 3.42068 21.5742C3.38294 21.5889 3.34249 21.5955 3.30203 21.5934H0.302029C0.2615 21.5957 0.220937 21.5894 0.183002 21.575C0.145067 21.5605 0.110616 21.5382 0.0819107 21.5095C0.0532049 21.4808 0.0308929 21.4463 0.0164367 21.4084C0.0019806 21.3705 -0.00429174 21.3299 -0.00196995 21.2894V0.689387C-0.00429174 0.648857 0.0019806 0.608294 0.0164367 0.570359C0.0308929 0.532424 0.0532049 0.497974 0.0819107 0.469268C0.110616 0.440562 0.145067 0.418249 0.183002 0.403792C0.220937 0.389336 0.2615 0.383064 0.302029 0.385386H15.564C15.6053 0.382676 15.6466 0.38887 15.6852 0.403547C15.7238 0.418224 15.7589 0.441039 15.7879 0.470446C15.8169 0.499852 15.8393 0.535161 15.8534 0.573974C15.8676 0.612786 15.8733 0.654194 15.87 0.695386Z" fill="#677B8C"/>
<path d="M40.278 21.5947H36.978C36.8961 21.6004 36.815 21.5755 36.7504 21.5249C36.6858 21.4743 36.6422 21.4016 36.628 21.3207C36.19 19.5807 35.66 17.7487 35.054 15.9007H24.924C24.324 17.7487 23.788 19.5807 23.364 21.3207C23.3503 21.4014 23.3071 21.4741 23.2428 21.5248C23.1785 21.5754 23.0977 21.6003 23.016 21.5947H19.836C19.624 21.5947 19.504 21.4727 19.564 21.2607C21.472 14.5087 24.378 7.06071 27.316 0.788709C27.3562 0.664101 27.4374 0.556754 27.5463 0.484129C27.6552 0.411505 27.7855 0.377875 27.916 0.388708H32.202C32.3325 0.377875 32.4628 0.411505 32.5717 0.484129C32.6807 0.556754 32.7618 0.664101 32.802 0.788709C35.9219 7.3976 38.5139 14.243 40.554 21.2607C40.612 21.4707 40.49 21.5947 40.278 21.5947ZM33.934 12.6307C32.828 9.57071 31.602 6.51271 30.334 3.72671H29.624C28.366 6.51271 27.124 9.57071 26.024 12.6307H33.934Z" fill="#677B8C"/>
<path d="M45.698 11.1741C45.698 4.59414 50.028 -0.00585938 56.202 -0.00585938H56.656C60.534 -0.00585938 63.532 1.96214 65.122 4.80814C65.1499 4.84063 65.1695 4.87932 65.1793 4.92097C65.1892 4.96261 65.1889 5.006 65.1785 5.04751C65.1681 5.08902 65.148 5.12744 65.1197 5.15956C65.0914 5.19169 65.0559 5.21657 65.016 5.23214L62.35 6.55014C62.307 6.57841 62.2585 6.59738 62.2077 6.60584C62.1569 6.61429 62.1049 6.61205 62.055 6.59925C62.0051 6.58644 61.9584 6.56337 61.918 6.53149C61.8775 6.49962 61.8441 6.45965 61.82 6.41414C60.7 4.47614 59.02 3.44614 56.536 3.44614H56.082C52.19 3.44614 49.51 6.53414 49.51 11.0161C49.51 15.4981 52.144 18.5261 56.082 18.5261H56.536C59.08 18.5261 60.564 17.6641 61.7 16.3461C61.7561 16.2705 61.8379 16.2181 61.93 16.1985C62.022 16.179 62.1181 16.1938 62.2 16.2401L64.94 17.5721C64.982 17.5906 65.0183 17.62 65.045 17.6573C65.0718 17.6946 65.088 17.7384 65.092 17.7841C65.0861 17.8679 65.0539 17.9477 65 18.0121C63.32 20.4661 60.292 21.9801 56.6 21.9801H56.146C49.862 21.9941 45.698 17.6701 45.698 11.1741Z" fill="#677B8C"/>
<path d="M89.246 18.5013V21.2873C89.2483 21.3276 89.2421 21.368 89.2278 21.4058C89.2134 21.4436 89.1913 21.478 89.1628 21.5066C89.1343 21.5353 89.1001 21.5577 89.0624 21.5722C89.0248 21.5868 88.9844 21.5933 88.944 21.5913H73.044C73.0036 21.5936 72.9631 21.5874 72.9253 21.5729C72.8874 21.5584 72.8531 21.5361 72.8246 21.5073C72.796 21.4786 72.7739 21.4441 72.7597 21.4062C72.7454 21.3682 72.7394 21.3277 72.7421 21.2873V0.687295C72.7394 0.646866 72.7454 0.606342 72.7597 0.568407C72.7739 0.530471 72.796 0.49599 72.8246 0.467248C72.8531 0.438506 72.8874 0.416159 72.9253 0.401686C72.9631 0.387213 73.0036 0.380943 73.044 0.383295H88.6701C88.7106 0.380973 88.7511 0.387247 88.7891 0.401703C88.827 0.416159 88.8615 0.438471 88.8902 0.467177C88.9189 0.495882 88.9412 0.530333 88.9556 0.568268C88.9701 0.606203 88.9764 0.646766 88.974 0.687295V3.4733C88.9764 3.51374 88.9701 3.55422 88.9557 3.59207C88.9412 3.62991 88.9188 3.66424 88.8901 3.69279C88.8614 3.72134 88.8269 3.74347 88.7889 3.75769C88.751 3.77191 88.7105 3.77791 88.6701 3.7753H76.344V9.2873H86.368C86.4086 9.28497 86.4491 9.29125 86.4871 9.3057C86.525 9.32016 86.5595 9.34247 86.5882 9.37118C86.6169 9.39988 86.6392 9.43433 86.6536 9.47227C86.6681 9.5102 86.6744 9.55077 86.672 9.5913V12.3473C86.6741 12.3877 86.6676 12.428 86.653 12.4657C86.6384 12.5034 86.6161 12.5376 86.5874 12.5661C86.5587 12.5946 86.5244 12.6167 86.4866 12.631C86.4488 12.6454 86.4084 12.6516 86.368 12.6493H76.344V18.1933H88.944C88.9849 18.1909 89.0257 18.1972 89.0638 18.212C89.102 18.2267 89.1365 18.2494 89.1651 18.2786C89.1938 18.3077 89.2158 18.3427 89.2297 18.3812C89.2437 18.4196 89.2493 18.4605 89.246 18.5013Z" fill="#677B8C"/>
<path d="M116.622 15.7773C116.622 19.4853 113.776 21.5913 108.748 21.5913H98.3301C98.2896 21.5936 98.2491 21.5874 98.2113 21.5729C98.1735 21.5584 98.1391 21.5361 98.1106 21.5073C98.082 21.4786 98.0599 21.4441 98.0457 21.4062C98.0314 21.3682 98.0254 21.3277 98.0281 21.2873V0.687295C98.0254 0.646866 98.0314 0.606342 98.0457 0.568407C98.0599 0.530471 98.082 0.49599 98.1106 0.467248C98.1391 0.438506 98.1735 0.416159 98.2113 0.401686C98.2491 0.387213 98.2896 0.380943 98.3301 0.383295H107.824C112.716 0.383295 115.38 2.3213 115.38 5.86529C115.38 8.19729 114.2 9.72729 111.806 10.4373C115.168 11.1573 116.622 13.1713 116.622 15.7773ZM107.748 3.6933H101.632V9.39329H107.748C110.49 9.39329 111.748 8.49929 111.748 6.54529C111.748 4.59129 110.49 3.6933 107.748 3.6933ZM112.928 15.4593C112.928 13.4893 111.626 12.5973 108.764 12.5973H101.632V18.2893H108.764C111.67 18.2893 112.928 17.4413 112.928 15.4593Z" fill="#677B8C"/>
<path d="M122.966 10.9941C122.966 4.60414 127.206 -0.00585938 133.868 -0.00585938H134.322C140.984 -0.00585938 145.224 4.59414 145.224 10.9941C145.224 17.3941 140.984 21.9941 134.322 21.9941H133.868C127.202 21.9941 122.966 17.3821 122.966 10.9941ZM134.322 18.5341C138.668 18.5341 141.408 15.5521 141.408 10.9941C141.408 6.43614 138.668 3.45414 134.322 3.45414H133.868C129.522 3.45414 126.782 6.43614 126.782 10.9941C126.782 15.5521 129.522 18.5341 133.868 18.5341H134.322Z" fill="#677B8C"/>
<path d="M151.372 10.9941C151.372 4.60414 155.612 -0.00585938 162.274 -0.00585938H162.728C169.39 -0.00585938 173.63 4.59414 173.63 10.9941C173.63 17.3941 169.39 21.9941 162.728 21.9941H162.274C155.612 21.9941 151.372 17.3821 151.372 10.9941ZM162.728 18.5341C167.074 18.5341 169.814 15.5521 169.814 10.9941C169.814 6.43614 167.074 3.45414 162.728 3.45414H162.274C157.928 3.45414 155.188 6.43614 155.188 10.9941C155.188 15.5521 157.928 18.5341 162.274 18.5341H162.728Z" fill="#677B8C"/>
<path d="M199.75 21.5933H195.842C195.739 21.602 195.635 21.5826 195.541 21.5372C195.448 21.4918 195.369 21.422 195.312 21.3353C192.624 18.1873 189.704 15.2457 186.576 12.5353H184.82V21.2873C184.822 21.3278 184.816 21.3684 184.802 21.4063C184.787 21.4443 184.765 21.4787 184.736 21.5074C184.707 21.5361 184.673 21.5584 184.635 21.5729C184.597 21.5873 184.556 21.5936 184.516 21.5913H181.516C181.476 21.5936 181.435 21.5874 181.397 21.5729C181.359 21.5584 181.325 21.5361 181.296 21.5073C181.268 21.4786 181.246 21.4441 181.232 21.4062C181.217 21.3682 181.211 21.3277 181.214 21.2873V0.687295C181.211 0.646866 181.217 0.606342 181.232 0.568407C181.246 0.530471 181.268 0.49599 181.296 0.467248C181.325 0.438506 181.359 0.416159 181.397 0.401686C181.435 0.387213 181.476 0.380943 181.516 0.383295H184.516C184.556 0.380973 184.597 0.387247 184.635 0.401703C184.673 0.416159 184.707 0.438471 184.736 0.467177C184.765 0.495882 184.787 0.530333 184.802 0.568268C184.816 0.606203 184.822 0.646766 184.82 0.687295V9.0533H186.602C189.482 6.48207 192.127 3.65959 194.506 0.619295C194.553 0.543269 194.621 0.481775 194.701 0.441557C194.781 0.401339 194.871 0.383949 194.96 0.391295H198.656C198.836 0.391295 198.928 0.483296 198.928 0.603296C198.92 0.689339 198.883 0.769999 198.822 0.831296C195.971 4.39077 192.803 7.68487 189.358 10.6733C193.157 13.8923 196.687 17.4168 199.912 21.2113C200.082 21.4093 200.002 21.5933 199.75 21.5933Z" fill="#677B8C"/>
</g>
<defs>
<clipPath id="clip0">
<rect width="200" height="21.986" fill="white"/>
</clipPath>
</defs>
</svg>
