<svg width="200" height="66" viewBox="0 0 200 66" fill="none" xmlns="http://www.w3.org/2000/svg">
<g clip-path="url(#clip0)">
<path d="M25.7884 51.0489C19.0025 51.0408 12.4926 48.3618 7.66663 43.5912C2.84065 38.8207 0.0865495 32.3422 0 25.5569C0.0693534 18.7601 2.81588 12.2648 7.64371 7.48014C12.4715 2.69547 18.9913 0.00738266 25.7884 -0.000933329C29.0163 -0.0516115 32.2216 0.54609 35.2144 1.75676C38.2071 2.96744 40.9264 4.76645 43.2112 7.04724L38.2709 11.9875C36.6116 10.3822 34.6523 9.11964 32.5048 8.27195C30.3573 7.42427 28.0638 7.0081 25.7555 7.04724C23.341 7.05574 20.9522 7.54249 18.727 8.47938C16.5017 9.41626 14.4841 10.7847 12.7907 12.5057C11.0972 14.2267 9.76154 16.2661 8.8607 18.5062C7.95986 20.7463 7.51173 23.1427 7.5422 25.5569C7.50511 27.978 7.94943 30.3824 8.84936 32.6304C9.74929 34.8784 11.0869 36.9251 12.7845 38.6518C14.4821 40.3785 16.5058 41.7507 18.7381 42.6888C20.9705 43.6268 23.367 44.1119 25.7884 44.116C28.1653 44.2142 30.5363 43.8103 32.7466 42.9307C34.957 42.0511 36.9572 40.7155 38.6167 39.011C40.8369 36.5921 42.172 33.4924 42.4043 30.2173H25.7884V23.2514H49.1725C49.4318 24.6857 49.5531 26.1415 49.5348 27.5989C49.5348 32.8356 48.1186 39.3239 43.5241 43.9348C41.2431 46.3128 38.4814 48.1772 35.4232 49.4039C32.365 50.6306 29.0804 51.1914 25.7884 51.0489Z" fill="#547DBF"/>
<path d="M84.8416 34.581C84.8416 38.9485 83.1066 43.1371 80.0183 46.2254C76.93 49.3137 72.7414 51.0486 68.3739 51.0486C64.0064 51.0486 59.8178 49.3137 56.7295 46.2254C53.6412 43.1371 51.9063 38.9485 51.9062 34.581C51.9063 30.2135 53.6412 26.0248 56.7295 22.9366C59.8178 19.8483 64.0064 18.1133 68.3739 18.1133C72.7414 18.1133 76.93 19.8483 80.0183 22.9366C83.1066 26.0248 84.8416 30.2135 84.8416 34.581ZM77.6452 34.581C77.7382 33.3098 77.5681 32.0332 77.1455 30.8308C76.723 29.6284 76.0571 28.526 75.1893 27.5925C74.3216 26.659 73.2708 25.9144 72.1024 25.4053C70.934 24.8961 69.6731 24.6333 68.3986 24.6333C67.1241 24.6333 65.8633 24.8961 64.6949 25.4053C63.5265 25.9144 62.4756 26.659 61.6079 27.5925C60.7402 28.526 60.0743 29.6284 59.6517 30.8308C59.2292 32.0332 59.0591 33.3098 59.152 34.581C59.0591 35.8521 59.2292 37.1287 59.6517 38.3311C60.0743 39.5336 60.7402 40.6359 61.6079 41.5694C62.4756 42.503 63.5265 43.2475 64.6949 43.7567C65.8633 44.2658 67.1241 44.5286 68.3986 44.5286C69.6731 44.5286 70.934 44.2658 72.1024 43.7567C73.2708 43.2475 74.3216 42.503 75.1893 41.5694C76.0571 40.6359 76.723 39.5336 77.1455 38.3311C77.5681 37.1287 77.7382 35.8521 77.6452 34.581Z" fill="#EA4435"/>
<path d="M120.494 34.581C120.494 38.9485 118.759 43.1371 115.671 46.2254C112.582 49.3137 108.394 51.0486 104.026 51.0486C99.6588 51.0486 95.4702 49.3137 92.3819 46.2254C89.2936 43.1371 87.5586 38.9485 87.5586 34.581C87.5586 30.2135 89.2936 26.0248 92.3819 22.9366C95.4702 19.8483 99.6588 18.1133 104.026 18.1133C108.394 18.1133 112.582 19.8483 115.671 22.9366C118.759 26.0248 120.494 30.2135 120.494 34.581ZM113.298 34.581C113.406 33.3022 113.247 32.0149 112.832 30.8006C112.417 29.5863 111.754 28.4714 110.885 27.5265C110.017 26.5816 108.962 25.8273 107.787 25.3113C106.612 24.7953 105.343 24.5289 104.059 24.5289C102.776 24.5289 101.507 24.7953 100.331 25.3113C99.1565 25.8273 98.1013 26.5816 97.2329 27.5265C96.3645 28.4714 95.7018 29.5863 95.2866 30.8006C94.8713 32.0149 94.7128 33.3022 94.8208 34.581C94.7128 35.8597 94.8713 37.147 95.2866 38.3613C95.7018 39.5756 96.3645 40.6905 97.2329 41.6354C98.1013 42.5803 99.1565 43.3346 100.331 43.8506C101.507 44.3666 102.776 44.6331 104.059 44.6331C105.343 44.6331 106.612 44.3666 107.787 43.8506C108.962 43.3346 110.017 42.5803 110.885 41.6354C111.754 40.6905 112.417 39.5756 112.832 38.3613C113.247 37.147 113.406 35.8597 113.298 34.581Z" fill="#F9BC15"/>
<path d="M154.648 19.1353V48.7772C154.648 60.9303 147.517 65.8706 139.086 65.8706C135.972 65.8866 132.924 64.9697 130.335 63.2381C127.746 61.5064 125.736 59.0394 124.562 56.1547L130.836 53.5363C131.471 55.2193 132.594 56.6747 134.06 57.7161C135.527 58.7575 137.271 59.3376 139.07 59.3824C144.454 59.3824 147.814 56.0888 147.814 49.7323V47.3609H147.567C146.484 48.563 145.153 49.5155 143.666 50.1524C142.179 50.7894 140.571 51.0955 138.954 51.0497C134.587 51.0497 130.398 49.3147 127.31 46.2264C124.222 43.1381 122.487 38.9495 122.487 34.582C122.487 30.2145 124.222 26.0259 127.31 22.9376C130.398 19.8493 134.587 18.1143 138.954 18.1143C140.571 18.0771 142.177 18.3854 143.665 19.0187C145.153 19.652 146.489 20.5957 147.583 21.7866H147.83V19.1353H154.648ZM148.324 34.7138C148.324 28.9171 144.471 24.6849 139.58 24.6849C134.689 24.6849 130.457 28.9171 130.457 34.7138C130.395 35.9644 130.583 37.2149 131.01 38.392C131.437 39.5691 132.095 40.6492 132.944 41.5692C133.794 42.4892 134.818 43.2306 135.958 43.75C137.097 44.2694 138.328 44.5565 139.58 44.5944C144.52 44.5944 148.324 40.4116 148.324 34.7138Z" fill="#547DBF"/>
<path d="M166.488 1.74414H159.292V50.1097H166.488V1.74414Z" fill="#33A851"/>
<path d="M194.104 40.0647L199.687 43.8029C198.195 46.0408 196.172 47.874 193.798 49.1385C191.424 50.403 188.774 51.0593 186.085 51.0486C183.926 51.0737 181.784 50.6632 179.788 49.8415C177.791 49.0199 175.981 47.804 174.465 46.2667C172.949 44.7294 171.759 42.9022 170.966 40.8943C170.172 38.8864 169.792 36.7392 169.848 34.581C169.848 24.7992 176.846 18.1133 185.294 18.1133C193.742 18.1133 197.941 24.898 199.308 28.5867L200.049 30.4476L178.147 39.5542C178.826 41.0757 179.945 42.3591 181.36 43.2396C182.774 44.12 184.42 44.557 186.085 44.4945C187.71 44.5025 189.31 44.0858 190.725 43.2857C192.141 42.4857 193.322 41.33 194.154 39.933L194.104 40.0647ZM176.978 34.0211L191.568 27.9939C191.011 26.8791 190.137 25.9534 189.056 25.3324C187.976 24.7115 186.736 24.4229 185.492 24.5027C184.295 24.5592 183.122 24.8538 182.041 25.3692C180.959 25.8847 179.991 26.6106 179.194 27.5046C178.397 28.3987 177.786 29.4427 177.397 30.5758C177.008 31.7089 176.849 32.9081 176.929 34.1034" fill="#EA4435"/>
</g>
<defs>
<clipPath id="clip0">
<rect width="200" height="65.8707" fill="white"/>
</clipPath>
</defs>
</svg>
