<svg width="200" height="46" viewBox="0 0 200 46" fill="none" xmlns="http://www.w3.org/2000/svg">
<g clip-path="url(#clip0)">
<path d="M171.526 0.875L170.171 9.25454H163.534L163.968 6.53223H158.986L158.361 10.4594H164.197L163.155 16.9004H157.327L156.539 21.6738H161.829L162.355 18.2969H169.179L167.657 27.6437H146.454L147.426 21.6738H149.439L151.916 6.53223H149.935L150.857 0.875H171.526Z" fill="#231F20"/>
<path d="M112.177 14.1739L113.424 6.53223H111.444L112.352 0.875H123.496L122.583 6.53223H120.59L117.155 27.6437H111.164L103.573 12.6522L102.126 21.6738H104.115L103.156 27.6437H91.9331L92.892 21.6738H94.8722L97.3444 6.53223H95.3558L96.2604 0.875H105.232L112.177 14.1739Z" fill="#231F20"/>
<path d="M65.2103 13.8279L67.9534 7.5286L68.5121 13.8279H65.2103ZM78.013 27.6437L78.9844 21.6779H76.9875L73.4481 0.875H60.6411L59.7323 6.53223H61.725L53.975 21.6779H52.0073L51.0276 27.6437H62.2378L63.2259 21.6779H61.2164L62.2086 19.4684H69.1541L69.4334 21.6779H67.449L66.486 27.6478L78.013 27.6437Z" fill="#231F20"/>
<path d="M43.7154 11.9266C42.4231 13.1147 40.4136 12.652 38.6585 12.7312L39.6049 6.86548C41.5976 6.91551 44.3324 6.31102 45.0703 8.57891C45.1657 9.20613 45.0893 9.84747 44.8493 10.4347C44.6092 11.022 44.2145 11.5332 43.7071 11.9141L43.7154 11.9266ZM45.4956 16.8834C46.8254 16.5707 47.9719 15.7661 49.0558 14.824C51.4988 12.5894 52.8621 9.34599 51.8782 5.99418C50.9402 2.85498 47.6259 1.09152 44.5534 0.878906H31.242L30.3415 6.53614H32.3176L29.8579 21.6777H27.8568L26.8896 27.6476H37.7497L38.7294 21.6777H37.2161L37.7914 18.1049L43.1234 27.6476H49.7937L50.7859 21.6777H48.2846L45.4914 16.8834H45.4956Z" fill="#231F20"/>
<path d="M90.7449 27.6314L91.7079 21.6699H89.7193L92.1957 6.52416H94.1759L95.0764 0.871094H83.5618L82.6405 6.52416H84.6207L82.1736 21.6699H80.1725L79.2095 27.6481L90.7449 27.6314Z" fill="#231F20"/>
<path d="M185.68 11.9227C184.387 13.1066 182.378 12.648 180.623 12.7273L181.578 6.86158C183.57 6.9116 186.305 6.30294 187.043 8.57084C187.136 9.19793 187.059 9.83852 186.819 10.4254C186.579 11.0122 186.186 11.5236 185.68 11.906V11.9227ZM187.456 16.8795C188.792 16.4917 190.014 15.7849 191.016 14.8201C193.463 12.5855 194.822 9.34209 193.843 5.99027C192.9 2.8469 189.586 1.08345 186.514 0.875H173.206L172.302 6.52806H174.282L171.822 21.6779H169.817L168.842 27.6437H179.681L180.694 21.6779H179.18L179.752 18.1052L185.1 27.6437H191.771L192.746 21.6779H190.245L187.452 16.8837L187.456 16.8795Z" fill="#231F20"/>
<path d="M39.8592 33.6152L37.929 45.5467H188.852L190.795 33.6152H39.8592Z" fill="#CC2030"/>
<path d="M12.2107 33.6152H9.53009L7.5957 45.5467H10.2763L12.2107 33.6152Z" fill="#CC2030"/>
<path d="M20.8989 33.6152H17.1219L15.1917 45.5467H18.9645L20.8989 33.6152Z" fill="#CC2030"/>
<path d="M3.52274 33.6152H1.93438L0 45.5467H1.58836L3.52274 33.6152Z" fill="#CC2030"/>
<path d="M38.2792 33.6152H32.3177L30.3833 45.5467H36.349L38.2792 33.6152Z" fill="#CC2030"/>
<path d="M29.5908 33.6152H24.7215L22.7871 45.5467H27.6564L29.5908 33.6152Z" fill="#CC2030"/>
<path d="M199.733 24.7335C199.732 25.269 199.572 25.7922 199.274 26.2368C198.976 26.6815 198.552 27.0276 198.057 27.2314C197.562 27.4351 197.017 27.4874 196.492 27.3815C195.967 27.2756 195.486 27.0164 195.108 26.6366C194.731 26.2567 194.474 25.7735 194.372 25.2479C194.269 24.7224 194.325 24.1782 194.532 23.6843C194.738 23.1903 195.087 22.7689 195.534 22.4733C195.98 22.1777 196.504 22.0212 197.04 22.0237C197.395 22.022 197.748 22.0911 198.076 22.2269C198.405 22.3627 198.703 22.5625 198.954 22.8147C199.204 23.0668 199.402 23.3664 199.536 23.6958C199.67 24.0252 199.737 24.378 199.733 24.7335ZM200 24.7335C200.004 24.1453 199.833 23.569 199.51 23.0778C199.186 22.5865 198.724 22.2023 198.182 21.9737C197.64 21.7452 197.043 21.6826 196.465 21.7939C195.887 21.9053 195.356 22.1855 194.937 22.5991C194.519 23.0127 194.233 23.5411 194.115 24.1174C193.997 24.6938 194.053 25.2921 194.276 25.8366C194.498 26.3812 194.877 26.8475 195.365 27.1766C195.852 27.5056 196.427 27.6826 197.015 27.6851C197.406 27.6906 197.793 27.6183 198.156 27.4724C198.518 27.3264 198.848 27.1097 199.126 26.835C199.404 26.5602 199.624 26.2329 199.774 25.8721C199.924 25.5113 200.001 25.1242 200 24.7335ZM195.831 22.8491V26.5595H196.356V24.8419H196.623C197.157 24.8419 197.457 24.9169 197.565 25.4672C197.565 25.5589 197.64 25.9758 197.657 26.0592C197.682 26.235 197.733 26.4063 197.807 26.5678H198.441C198.284 26.2289 198.191 25.8645 198.165 25.4922C198.169 25.3071 198.112 25.1259 198.004 24.9757C197.896 24.8254 197.742 24.7142 197.565 24.6585C197.791 24.6417 198.002 24.5406 198.156 24.3753C198.311 24.21 198.397 23.9926 198.399 23.7663C198.399 23.5864 198.346 23.4104 198.244 23.2616C198.143 23.1128 197.999 22.9981 197.832 22.9325C197.55 22.8522 197.256 22.8239 196.965 22.8491H195.831ZM196.381 23.266H196.89C197.34 23.266 197.523 23.266 197.682 23.4078C197.74 23.4602 197.785 23.5247 197.816 23.5968C197.846 23.6688 197.86 23.7466 197.857 23.8247C197.857 24.4167 197.24 24.4083 197.023 24.4083H196.398V23.2744L196.381 23.266Z" fill="#231F20"/>
<path d="M23.25 0.833884H28.7655L27.298 9.92214H21.0238C20.7878 9.15239 20.3566 8.45682 19.7722 7.90307C19.1878 7.34932 18.47 6.95625 17.6886 6.7621C16.3805 6.45749 15.0127 6.5309 13.7447 6.97375C12.4766 7.41661 11.3605 8.21068 10.5264 9.26345C8.65458 11.9065 7.81246 16.3131 9.58842 19.1772C10.8141 21.099 13.1695 21.8119 15.3749 21.4659C17.0883 21.1491 18.8143 19.6316 19.5438 18.0265H12.5359L13.4113 12.6069H28.1902L25.7388 27.6526H20.0483L20.3984 25.9475C19.7272 26.8396 17.9263 28.3488 13.478 28.3488C7.86249 28.3488 1.72583 23.6087 1.72583 15.2292C1.72583 8.33795 6.94532 -0.0332521 16.2045 9.93375e-05C18.5641 9.93375e-05 21.2072 0.604594 22.9165 2.23464L23.25 0.833884Z" fill="#231F20"/>
<path d="M142.794 0.833884H148.326L146.859 9.92214H140.568C140.332 9.15239 139.901 8.45682 139.316 7.90307C138.732 7.34932 138.014 6.95625 137.233 6.76209C135.924 6.45749 134.557 6.5309 133.289 6.97375C132.021 7.41661 130.904 8.21068 130.07 9.26345C128.186 11.8899 127.344 16.2964 129.124 19.1605C130.35 21.0823 132.705 21.7952 134.91 21.4492C136.624 21.1324 138.35 19.6149 139.079 18.0099H132.071L132.947 12.5903H147.717L145.266 27.6609H139.592L139.942 25.9558C139.271 26.848 137.466 28.3655 133.022 28.3655C127.406 28.3655 121.27 23.6171 121.27 15.2375C121.27 8.33795 126.489 -0.0332521 135.748 9.93374e-05C138.108 9.93374e-05 140.751 0.604594 142.46 2.23464L142.794 0.842222V0.833884Z" fill="#231F20"/>
</g>
<defs>
<clipPath id="clip0">
<rect width="200" height="45.5455" fill="white"/>
</clipPath>
</defs>
</svg>
