<svg width="100" height="77" viewBox="0 0 100 77" fill="none" xmlns="http://www.w3.org/2000/svg">
<g clip-path="url(#clip0)">
<path d="M97.142 68.4922C97.3371 68.4815 97.5322 68.5118 97.7148 68.5812C97.8974 68.6505 98.0634 68.7574 98.2022 68.895C98.5378 69.2167 98.7392 69.6866 98.7392 70.3174C98.7533 70.8074 98.5751 71.2835 98.2427 71.6438C98.1027 71.7944 97.932 71.9131 97.742 71.9918C97.5521 72.0704 97.3475 72.1073 97.142 72.0998C96.7726 72.0998 96.4155 71.9666 96.1362 71.7248C95.789 71.4158 95.5726 70.866 95.5726 70.3024C95.5665 70.0364 95.6147 69.772 95.7142 69.5252C95.8137 69.2785 95.9624 69.0546 96.1513 68.8672C96.2831 68.741 96.4389 68.6427 96.6095 68.5781C96.7801 68.5135 96.962 68.4839 97.1443 68.491L97.142 68.4922ZM98.6582 68.0767C98.4541 67.8313 98.1974 67.6351 97.907 67.5026C97.6167 67.3702 97.3002 67.3049 96.9811 67.3116C96.6248 67.3012 96.2703 67.365 95.9399 67.4989C95.6096 67.6328 95.3107 67.8339 95.0622 68.0894C94.62 68.5327 94.2311 69.2468 94.2311 70.2769C94.2113 71.1052 94.5143 71.9087 95.076 72.5177C95.6119 73.0813 96.2161 73.2827 96.9406 73.2827C97.2711 73.2965 97.5999 73.23 97.8991 73.0889C98.1982 72.9478 98.4587 72.7363 98.6582 72.4725V73.2109C98.6582 73.6264 98.6582 74.2167 98.2288 74.6334C98.0679 74.7943 97.7462 75.0084 97.1964 75.0084C96.6466 75.0084 96.3365 74.7943 96.1756 74.6195C95.9608 74.3666 95.8174 74.0609 95.7601 73.7341H94.4869C94.5734 74.3922 94.8641 75.0067 95.3179 75.491C95.855 76.0281 96.5124 76.1855 97.1698 76.1855C98.0957 76.1855 98.686 75.8776 99.0482 75.5825C99.8272 74.9239 99.9742 73.9714 99.9742 72.6438V67.4586H98.6582V68.0767Z" fill="#191919"/>
<path d="M88.3887 73.1078H89.6989V70.3971C89.6989 68.5731 90.303 68.4921 90.8933 68.4921C91.3898 68.4921 91.9269 68.5326 91.9269 69.9678V73.1078H93.2417V69.646C93.2417 68.7733 93.1074 68.3844 92.8945 68.0765C92.7208 67.8346 92.2776 67.3115 91.2313 67.3115C90.9421 67.3025 90.6546 67.3579 90.3895 67.4738C90.1245 67.5898 89.8885 67.7632 89.6989 67.9816V67.4585H88.3887V73.1078Z" fill="#191919"/>
<path d="M85.5471 65.8815C85.5471 66.0488 85.5968 66.2125 85.6898 66.3516C85.7828 66.4908 85.915 66.5992 86.0697 66.6632C86.2244 66.7272 86.3945 66.7439 86.5587 66.7112C86.7228 66.6784 86.8736 66.5978 86.9918 66.4793C87.1101 66.3609 87.1906 66.21 87.2231 66.0458C87.2556 65.8816 87.2387 65.7115 87.1745 65.5569C87.1103 65.4023 87.0017 65.2703 86.8624 65.1774C86.7231 65.0846 86.5594 65.0352 86.392 65.0354C86.2802 65.0327 86.1691 65.0527 86.0653 65.0943C85.9615 65.1359 85.8672 65.1981 85.7882 65.2773C85.7092 65.3564 85.647 65.4507 85.6056 65.5546C85.5642 65.6585 85.5443 65.7697 85.5471 65.8815ZM85.7346 67.4579V73.1072H87.0494V67.4579H85.7346Z" fill="#191919"/>
<path d="M81.5717 68.492C82.4039 68.492 83.1689 69.0822 83.1689 70.3172C83.1689 71.4978 82.4039 72.1008 81.5717 72.1008C80.6192 72.1008 80.0023 71.2825 80.0023 70.3033C80.0023 69.2975 80.6192 68.492 81.5717 68.492ZM83.0879 68.1158C82.8911 67.8595 82.6367 67.6532 82.3454 67.5134C82.054 67.3737 81.7339 67.3045 81.4108 67.3114C79.9212 67.3114 78.6597 68.4387 78.6597 70.2767C78.6597 71.8334 79.6527 73.286 81.3969 73.286C81.7178 73.2913 82.0359 73.2255 82.3283 73.0932C82.6207 72.9609 82.8801 72.7655 83.0879 72.5209V73.1112H84.4027V65.1621H83.0879V68.1123V68.1158Z" fill="#191919"/>
<path d="M74.8158 68.4917C75.648 68.4917 76.413 69.0819 76.413 70.3169C76.413 71.4974 75.648 72.1004 74.8158 72.1004C73.8632 72.1004 73.2463 71.2822 73.2463 70.303C73.2463 69.2972 73.8632 68.4917 74.8158 68.4917ZM76.332 68.1155C76.1351 67.8588 75.8803 67.6521 75.5885 67.5123C75.2967 67.3726 74.9761 67.3036 74.6526 67.3111C73.163 67.3111 71.9026 68.4384 71.9026 70.2764C71.9026 71.8331 72.8956 73.2856 74.6399 73.2856C74.9605 73.2908 75.2784 73.2249 75.5706 73.0926C75.8627 72.9604 76.122 72.765 76.3297 72.5206V73.1109H77.6445V67.4581H76.332V68.1155Z" fill="#191919"/>
<path d="M68.2048 73.1087H69.5197V70.1839C69.5197 69.8078 69.5197 69.2707 69.8819 68.8819C70.1366 68.6133 70.4178 68.574 70.7002 68.574C70.9386 68.5719 71.1721 68.6417 71.3703 68.7742L71.9074 67.5809C71.5947 67.3967 71.2366 67.3037 70.8738 67.3124C70.5916 67.2984 70.311 67.3634 70.0636 67.4999C69.8564 67.6261 69.6708 67.7848 69.5139 67.9698V67.4594H68.2048V73.1087Z" fill="#191919"/>
<path d="M67.0903 68.6678V67.4594H66.0834V65.1504H64.7685V67.4594H63.7859V68.6678H64.7685V73.1087H66.0834V68.6678H67.0903Z" fill="#191919"/>
<path d="M57.7126 73.1087H59.0275V70.1839C59.0275 69.8078 59.0275 69.2707 59.3897 68.8819C59.6455 68.6133 59.9268 68.574 60.2092 68.574C60.4476 68.5721 60.681 68.6418 60.8793 68.7742L61.4163 67.5809C61.1036 67.3968 60.7456 67.3038 60.3828 67.3124C60.1005 67.2984 59.82 67.3634 59.5726 67.4999C59.365 67.6261 59.179 67.7847 59.0217 67.9698V67.4594H57.7126V73.1087Z" fill="#191919"/>
<path d="M52.7431 69.5256C52.8045 69.2505 52.944 68.9989 53.1447 68.801C53.3901 68.5752 53.7093 68.4466 54.0427 68.4391C54.3761 68.4317 54.7008 68.5459 54.956 68.7605C55.1699 68.965 55.3113 69.2336 55.3588 69.5256H52.7431ZM55.5556 71.2027C55.4236 71.4408 55.2458 71.6505 55.0324 71.8196C54.7746 72.0152 54.4565 72.1147 54.1331 72.1008C53.8114 72.1008 53.4387 72.0476 53.1273 71.7385C52.8406 71.425 52.6698 71.0226 52.6435 70.5985H56.6944V70.4376C56.6944 69.8473 56.6273 68.801 55.9028 68.0487C55.6684 67.8071 55.3863 67.6168 55.0745 67.4899C54.7627 67.363 54.428 67.3022 54.0914 67.3115C53.7407 67.3032 53.392 67.3668 53.0667 67.4983C52.7415 67.6299 52.4466 67.8267 52.2002 68.0765C51.61 68.7036 51.2874 69.536 51.3009 70.3971C51.3009 71.2432 51.5961 72.0175 52.1331 72.558C52.6702 73.0985 53.2905 73.2825 54.0382 73.2825C54.6424 73.2825 55.2454 73.1483 55.7026 72.8531C56.0983 72.5899 56.425 72.2354 56.6551 71.8196L55.5556 71.2027Z" fill="#191919"/>
<path d="M45.4607 67.459L48.3854 73.5111L51.3102 67.459H49.8345L48.3854 70.68L46.9364 67.459H45.4607Z" fill="#191919"/>
<path d="M43.2962 65.8815C43.2962 66.0488 43.3458 66.2125 43.4388 66.3516C43.5319 66.4908 43.6641 66.5992 43.8187 66.6632C43.9734 66.7272 44.1436 66.7439 44.3077 66.7112C44.4719 66.6784 44.6226 66.5978 44.7409 66.4793C44.8592 66.3609 44.9397 66.21 44.9722 66.0458C45.0047 65.8816 44.9878 65.7115 44.9236 65.5569C44.8593 65.4023 44.7507 65.2703 44.6114 65.1774C44.4722 65.0846 44.3085 65.0352 44.1411 65.0354C44.0293 65.0327 43.9181 65.0527 43.8143 65.0943C43.7105 65.1359 43.6162 65.1981 43.5372 65.2773C43.4582 65.3564 43.3961 65.4507 43.3546 65.5546C43.3132 65.6585 43.2933 65.7697 43.2962 65.8815ZM43.4837 67.4579V73.1072H44.7985V67.4579H43.4837Z" fill="#191919"/>
<path d="M39.1028 73.1087H40.4176V70.1839C40.4176 69.8077 40.4176 69.2707 40.7799 68.8818C41.0345 68.6133 41.3157 68.5739 41.5982 68.5739C41.8366 68.5719 42.0701 68.6417 42.2683 68.7742L42.8053 67.5809C42.493 67.3968 42.1354 67.3038 41.7729 67.3124C41.4907 67.2985 41.2102 67.3634 40.9627 67.4999C40.7555 67.6261 40.5699 67.7848 40.413 67.9698V67.4594H39.1028V73.1087Z" fill="#191919"/>
<path d="M30.2083 73.1077H31.5231V70.3971C31.5231 68.573 32.1272 68.492 32.7175 68.492C33.214 68.492 33.7499 68.5325 33.7499 69.9677V73.1077H35.0694V69.6459C35.0694 68.7732 34.9351 68.3843 34.7221 68.0765C34.5474 67.8346 34.1052 67.3114 33.0578 67.3114C32.7692 67.3028 32.4823 67.3584 32.2178 67.4743C31.9534 67.5902 31.7181 67.7635 31.5289 67.9816V67.4584H30.2083V73.1077Z" fill="#191919"/>
<path d="M26.206 72.1058C25.1724 72.1058 24.5277 71.3951 24.5277 70.3083C24.5277 69.0201 25.3738 68.497 26.206 68.497C27.0381 68.497 27.883 69.0201 27.883 70.3083C27.883 71.3951 27.2384 72.1058 26.206 72.1058ZM26.206 67.3164C24.5011 67.3164 23.1863 68.5502 23.1863 70.2944C23.1863 72.0386 24.5011 73.2875 26.206 73.2875C27.9108 73.2875 29.2245 72.0259 29.2245 70.2944C29.2245 68.5629 27.9097 67.3164 26.206 67.3164Z" fill="#191919"/>
<path d="M22.3033 68.3052C22.1494 68.0238 21.9278 67.7851 21.6586 67.6108C21.3509 67.4055 20.9865 67.3022 20.6169 67.3156C19.9225 67.3156 19.4896 67.5841 19.235 67.8515C18.9309 68.1802 18.763 68.6121 18.7651 69.0598C18.7591 69.2383 18.7921 69.416 18.8616 69.5804C18.9312 69.7449 19.0357 69.8923 19.1678 70.0124C19.3983 70.2118 19.6599 70.3721 19.9421 70.4869L20.4248 70.7184C20.633 70.7974 20.8242 70.9152 20.9884 71.0656C21.1005 71.1804 21.1629 71.3346 21.1621 71.495C21.1572 71.6607 21.0903 71.8185 20.9746 71.9372C20.8256 72.0646 20.6346 72.1318 20.4387 72.1258C20.2249 72.1332 20.0169 72.0559 19.86 71.9105C19.7207 71.7554 19.6155 71.5729 19.5509 71.3746L18.478 71.8839C18.6137 72.2916 18.8655 72.6509 19.2026 72.9175C19.5576 73.1715 19.9875 73.299 20.4236 73.2797C21.0139 73.2797 21.5637 73.1316 22.007 72.649C22.3302 72.2983 22.5077 71.8377 22.5035 71.3608C22.5103 71.1677 22.4768 70.9753 22.405 70.796C22.3333 70.6166 22.2249 70.4542 22.0868 70.3191C21.8566 70.0981 21.5889 69.9198 21.2963 69.7925L20.6262 69.4568C20.3438 69.3087 20.2639 69.2821 20.1829 69.2253C20.1253 69.1935 20.0775 69.1467 20.0445 69.0898C20.0115 69.0329 19.9945 68.9682 19.9954 68.9024C19.9946 68.7928 20.036 68.6871 20.1111 68.6073C20.2207 68.507 20.3655 68.4542 20.5139 68.4603C20.6793 68.4632 20.8411 68.5092 20.9832 68.5939C21.1253 68.6785 21.2428 68.7989 21.3241 68.9429L22.3033 68.2994V68.3052Z" fill="#191919"/>
<path d="M14.9304 68.492C15.7626 68.492 16.5276 69.0822 16.5276 70.3172C16.5276 71.4977 15.7626 72.1007 14.9304 72.1007C13.9779 72.1007 13.361 71.2825 13.361 70.3033C13.361 69.2975 13.9779 68.492 14.9304 68.492ZM16.4466 68.1158C16.25 67.8593 15.9956 67.6528 15.7043 67.5131C15.4129 67.3733 15.0926 67.3042 14.7695 67.3114C13.2799 67.3114 12.0195 68.4387 12.0195 70.2767C12.0195 71.8334 13.0126 73.2859 14.7568 73.2859C15.0775 73.2911 15.3953 73.2252 15.6875 73.0929C15.9797 72.9606 16.2389 72.7653 16.4466 72.5209V73.1111H17.7614V65.1621H16.4431V68.1123L16.4466 68.1158Z" fill="#191919"/>
<path d="M6.19653 67.459V70.7333C6.19653 71.4578 6.27755 72.062 6.8007 72.5851C7.32385 73.1083 8.00788 73.2796 8.58426 73.2796C9.21505 73.2796 9.91297 73.0909 10.4234 72.5851C10.9338 72.0793 11.0264 71.4578 11.0264 70.7333V67.459H9.71158V70.6928C9.71158 71.0284 9.69885 71.4173 9.47084 71.7125C9.36362 71.8347 9.23155 71.9326 9.08345 71.9997C8.93535 72.0668 8.77463 72.1015 8.61204 72.1015C8.44945 72.1015 8.28874 72.0668 8.14063 71.9997C7.99253 71.9326 7.86046 71.8347 7.75325 71.7125C7.52176 71.4173 7.51135 71.0284 7.51135 70.6928V67.459H6.19653Z" fill="#191919"/>
<path d="M0 73.1077H1.31481V70.3843C1.31481 69.6598 1.39583 69.2269 1.58333 68.9619C1.69456 68.8122 1.84005 68.6915 2.00761 68.6097C2.17517 68.5279 2.3599 68.4876 2.5463 68.492C2.6829 68.4877 2.81892 68.5116 2.9458 68.5624C3.07268 68.6132 3.18768 68.6897 3.28356 68.7871C3.53935 69.0684 3.53935 69.4306 3.53935 69.7663V73.1077H4.86111V69.6459C4.86111 69.2431 4.84722 68.5857 4.49884 68.0765C4.33796 67.845 3.86806 67.3114 2.83449 67.3114C2.55135 67.3043 2.26986 67.3565 2.00812 67.4648C1.74639 67.573 1.51022 67.7349 1.31481 67.9399V65.1621H0V73.1042V73.1077Z" fill="#191919"/>
<path d="M84.1041 57.2292H0.636497C0.468374 57.2295 0.30698 57.1631 0.187666 57.0447C0.0683511 56.9262 0.000841524 56.7653 -7.69013e-05 56.5972V15.9097C-0.00195255 15.8325 0.0119657 15.7557 0.0408243 15.6841C0.0696828 15.6124 0.112873 15.5474 0.167747 15.4931L15.493 0.166667C15.5461 0.11371 15.6091 0.0717332 15.6784 0.0431355C15.7477 0.0145377 15.8219 -0.000119794 15.8969 7.37355e-07H99.3645C99.4481 5.98766e-07 99.5308 0.0164744 99.6079 0.0484794C99.6851 0.0804845 99.7552 0.127392 99.8142 0.186519C99.8733 0.245646 99.92 0.31583 99.9519 0.393056C99.9838 0.470282 100 0.553033 99.9999 0.636575V41.3322C99.9993 41.4834 99.9395 41.6284 99.8333 41.7361L84.5069 57.0602C84.454 57.1131 84.3912 57.1551 84.3221 57.1837C84.253 57.2123 84.1789 57.2269 84.1041 57.2268V57.2292Z" fill="#F99C3A"/>
<path d="M31.5349 15.8961C31.4433 15.8947 31.3524 15.9117 31.2675 15.9461C31.1826 15.9805 31.1055 16.0316 31.0407 16.0964C30.9759 16.1612 30.9248 16.2383 30.8904 16.3232C30.856 16.4081 30.839 16.499 30.8404 16.5906V24.7295C30.8462 24.9105 30.781 25.0866 30.6587 25.2202C30.5992 25.2856 30.5261 25.3374 30.4445 25.3717C30.363 25.4061 30.2749 25.4223 30.1865 25.4193H22.9874C22.5245 25.4193 22.293 25.1878 22.293 24.7248V16.5871C22.293 16.1241 22.0615 15.8927 21.5985 15.8927H16.5858C16.1228 15.8927 15.8914 16.1241 15.8914 16.5871V40.6415C15.8914 41.1044 16.1228 41.3359 16.5858 41.3359H21.6043C22.0673 41.3359 22.2988 41.1044 22.2988 40.6415V32.248C22.2958 32.1593 22.3121 32.071 22.3467 31.9892C22.3813 31.9074 22.4332 31.8342 22.499 31.7746C22.6338 31.6536 22.8099 31.589 22.9909 31.594H30.1923C30.2794 31.5894 30.3665 31.6031 30.448 31.6343C30.5294 31.6655 30.6034 31.7135 30.6651 31.7752C30.7268 31.8369 30.7748 31.9108 30.806 31.9923C30.8372 32.0737 30.8509 32.1609 30.8462 32.248V40.6415C30.8445 40.7331 30.8613 40.8242 30.8956 40.9093C30.9298 40.9943 30.9809 41.0715 31.0458 41.1364C31.1106 41.2012 31.1878 41.2523 31.2729 41.2866C31.3579 41.3209 31.449 41.3376 31.5407 41.3359H36.5962C36.6879 41.3376 36.779 41.3209 36.864 41.2866C36.949 41.2523 37.0263 41.2012 37.0911 41.1364C37.1559 41.0715 37.207 40.9943 37.2413 40.9093C37.2756 40.8242 37.2924 40.7331 37.2907 40.6415V16.5871C37.2921 16.4955 37.2751 16.4046 37.2407 16.3197C37.2063 16.2348 37.1552 16.1577 37.0904 16.0929C37.0256 16.0282 36.9485 15.9771 36.8636 15.9427C36.7787 15.9083 36.6878 15.8913 36.5962 15.8927L31.5349 15.8961Z" fill="white"/>
<path d="M57.0394 27.9964H48.2871V21.8193H57.0394V27.9964ZM60.3797 34.0276L60.3438 33.9547C60.2466 33.8587 60.2825 33.7857 60.4526 33.7371L60.5614 33.7001C61.4054 33.4258 62.141 32.8914 62.6628 32.1735C63.1847 31.4556 63.466 30.5911 63.4665 29.7036V20.148C63.4685 19.5788 63.3501 19.0156 63.1193 18.4952C62.688 17.4815 61.8814 16.674 60.8681 16.2418C60.3476 16.0115 59.7845 15.8932 59.2153 15.8945H42.8033C42.3404 15.8945 42.1089 16.126 42.1089 16.589V40.6422C42.1089 41.1052 42.3404 41.3367 42.8033 41.3367H47.8149C48.2779 41.3367 48.5093 41.1052 48.5093 40.6422V33.883C48.5059 33.8583 48.5082 33.8332 48.5161 33.8095C48.524 33.7859 48.5373 33.7644 48.5549 33.7468C48.5725 33.7292 48.594 33.7159 48.6176 33.708C48.6412 33.7001 48.6664 33.6978 48.691 33.7013H53.0093C53.0613 33.6976 53.1132 33.7095 53.1583 33.7354C53.2035 33.7614 53.2399 33.8003 53.2628 33.8471L57.1123 40.751C57.2163 40.928 57.3674 41.0726 57.5487 41.1688C57.7241 41.2726 57.9236 41.3288 58.1274 41.332H63.9017C64.0946 41.332 64.2277 41.2776 64.301 41.1688C64.3739 41.0601 64.3612 40.9212 64.2639 40.751L60.3797 34.0276Z" fill="white"/>
<path d="M85.9466 16.5871C85.948 16.4955 85.931 16.4046 85.8966 16.3197C85.8622 16.2348 85.8111 16.1577 85.7464 16.0929C85.6816 16.0282 85.6045 15.9771 85.5196 15.9427C85.4347 15.9083 85.3438 15.8913 85.2522 15.8927H67.1596C66.6966 15.8927 66.4652 16.1241 66.4652 16.5871V21.3834C66.4638 21.475 66.4808 21.5659 66.5152 21.6508C66.5496 21.7357 66.6007 21.8128 66.6654 21.8776C66.7302 21.9423 66.8073 21.9934 66.8922 22.0278C66.9771 22.0622 67.068 22.0792 67.1596 22.0778H72.3297C72.4169 22.0732 72.5041 22.0869 72.5856 22.1181C72.6671 22.1493 72.7411 22.1973 72.8029 22.2589C72.8647 22.3206 72.9128 22.3946 72.9441 22.476C72.9755 22.5575 72.9893 22.6446 72.9848 22.7318V40.6415C72.9831 40.7332 72.9999 40.8242 73.0342 40.9093C73.0685 40.9943 73.1196 41.0716 73.1844 41.1364C73.2492 41.2012 73.3265 41.2523 73.4115 41.2866C73.4965 41.3209 73.5876 41.3377 73.6793 41.3359H78.7383C78.8269 41.3389 78.9151 41.3227 78.9968 41.2883C79.0786 41.254 79.1519 41.2023 79.2117 41.1369C79.3328 41.0025 79.3978 40.8269 79.3934 40.6461V22.7271C79.3903 22.6386 79.4065 22.5504 79.4411 22.4688C79.4757 22.3872 79.5278 22.3142 79.5936 22.2549C79.7283 22.1337 79.9044 22.0686 80.0855 22.0732H85.2545C85.3461 22.0746 85.437 22.0576 85.5219 22.0232C85.6068 21.9888 85.6839 21.9377 85.7487 21.8729C85.8135 21.8082 85.8646 21.7311 85.899 21.6462C85.9334 21.5613 85.9504 21.4704 85.9489 21.3788V16.5871H85.9466Z" fill="white"/>
</g>
<defs>
<clipPath id="clip0">
<rect width="100" height="76.1933" fill="white"/>
</clipPath>
</defs>
</svg>
