<svg width="300" height="55" viewBox="0 0 300 55" fill="none" xmlns="http://www.w3.org/2000/svg">
<g clip-path="url(#clip0)">
<path d="M297.348 38.03C294.394 42.6512 289.242 45.3784 283.788 45.2269C277.576 44.9996 272.045 39.9239 269.621 31.3633C266.591 20.833 269.167 13.636 275.985 10.4542C281.212 8.02995 287.348 10.6057 289.091 13.1057C286.667 14.2421 286.288 17.2724 286.818 19.0906C287.348 20.7572 288.636 22.0451 290.303 22.4996C291.97 23.03 293.788 22.6512 295.152 21.5906C296.97 20.2269 297.424 17.9542 296.97 15.6815C296.439 13.2572 294.394 11.3633 292.121 9.84813C288.788 7.72692 284.924 6.66631 280.985 6.74207C270 6.66631 259.773 15.9087 259.773 28.636C259.773 41.7421 271.061 49.6966 280.833 49.6966C288.485 49.8481 295.53 45.833 299.318 39.2421C299.167 39.2421 297.5 38.1815 297.348 38.03ZM251.818 44.0148V22.3481C251.818 17.8027 251.288 14.6209 249.167 11.8178C246.515 8.33298 243.258 7.0451 239.015 7.0451C233.03 7.0451 228.182 10.6815 225 14.9239C224.621 13.8633 224.091 12.8027 223.333 11.8936C220.682 8.40874 217.424 7.12086 213.182 7.12086C207.803 7.0451 203.333 9.99965 200.152 13.636V7.87844H187.121V9.16631H187.955C189.697 9.16631 190.833 10.2269 190.833 12.3481V44.0148C190.833 46.136 189.697 47.1966 187.955 47.1966H187.121V48.4845H203.864V47.1966H203.03C201.288 47.1966 200.152 46.136 200.152 44.0148V18.4845C202.273 15.6815 205.758 12.5754 209.545 12.5754C211.742 12.4239 213.939 13.4087 215.227 15.2269C216.212 16.7421 216.742 18.636 216.591 20.4542V44.0148C216.591 46.136 215.455 47.1966 213.712 47.1966H212.879V48.4845H229.621V47.1966H228.788C227.045 47.1966 225.909 46.136 225.909 44.0148V22.3481C225.909 21.136 225.833 19.9239 225.758 18.7118C227.803 15.833 231.439 12.5754 235.303 12.5754C237.5 12.4239 239.697 13.4087 240.985 15.2269C241.97 16.7421 242.5 18.636 242.348 20.4542V44.0148C242.348 46.136 241.212 47.1966 239.47 47.1966H238.636V48.4845H255.379V47.1966H254.545C252.955 47.1966 251.818 46.136 251.818 44.0148ZM163.636 9.16631H164.47C166.212 9.16631 167.348 10.2269 167.348 12.3481V43.7118C167.348 45.833 166.212 47.2724 164.47 47.2724H163.636V48.5603H180.379V47.2724H179.545C177.803 47.2724 176.667 46.2118 176.667 44.0906V12.3481C176.667 10.2269 177.803 9.16631 179.545 9.16631H180.379V7.87844H163.636V9.16631Z" fill="#1180C4"/>
<path fill-rule="evenodd" clip-rule="evenodd" d="M9.09091 18.1818C13.6364 18.1818 15.9091 14.3939 18.1818 14.3939C20.4545 14.3939 22.3485 18.1818 27.2727 18.1818C32.197 18.1818 36.3636 14.3939 36.3636 9.09091C36.3636 3.78788 32.197 0 27.2727 0C22.3485 0 20.4545 3.78788 18.1818 3.78788C15.9091 3.78788 14.0152 0 9.09091 0C4.16667 0 0 3.78788 0 9.09091C0 14.3939 4.54545 18.1818 9.09091 18.1818Z" fill="#D9E2F0"/>
<path fill-rule="evenodd" clip-rule="evenodd" d="M9.09091 36.3635C13.6364 36.3635 15.9091 32.5756 18.1818 32.5756C20.4545 32.5756 22.3485 36.3635 27.2727 36.3635C32.197 36.3635 36.3636 32.5756 36.3636 27.2726C36.3636 21.9695 32.197 18.1816 27.2727 18.1816C22.3485 18.1816 20.4545 21.9695 18.1818 21.9695C15.9091 21.9695 14.0152 18.1816 9.09091 18.1816C4.16667 18.1816 0 21.9695 0 27.2726C0 32.5756 4.54545 36.3635 9.09091 36.3635Z" fill="#C8E4E2"/>
<path fill-rule="evenodd" clip-rule="evenodd" d="M9.09091 54.5451C13.6364 54.5451 15.9091 50.7572 18.1818 50.7572C20.4545 50.7572 22.3485 54.5451 27.2727 54.5451C32.197 54.5451 36.3636 50.7572 36.3636 45.4542C36.3636 40.1512 32.197 36.3633 27.2727 36.3633C22.3485 36.3633 20.4545 40.1512 18.1818 40.1512C15.9091 40.1512 14.0152 36.3633 9.09091 36.3633C4.16667 36.3633 0 40.1512 0 45.4542C0 50.7572 4.54545 54.5451 9.09091 54.5451Z" fill="#9BD3D0"/>
<path fill-rule="evenodd" clip-rule="evenodd" d="M27.2727 18.1818C31.8181 18.1818 34.0909 14.3939 36.3636 14.3939C38.6363 14.3939 40.5302 18.1818 45.4545 18.1818C50.3787 18.1818 54.5454 14.3939 54.5454 9.09091C54.5454 3.78788 50.3787 0 45.4545 0C40.5302 0 38.6363 3.78788 36.3636 3.78788C34.0909 3.78788 32.1969 0 27.2727 0C22.3484 0 18.1818 3.78788 18.1818 9.09091C18.1818 14.3939 22.7272 18.1818 27.2727 18.1818Z" fill="#CDDBEE"/>
<path fill-rule="evenodd" clip-rule="evenodd" d="M27.2727 36.3635C31.8181 36.3635 34.0909 32.5756 36.3636 32.5756C38.6363 32.5756 40.5302 36.3635 45.4545 36.3635C50.3787 36.3635 54.5454 32.5756 54.5454 27.2726C54.5454 21.9695 50.3787 18.1816 45.4545 18.1816C40.5302 18.1816 38.6363 21.9695 36.3636 21.9695C34.0909 21.9695 32.1969 18.1816 27.2727 18.1816C22.3484 18.1816 18.1818 21.9695 18.1818 27.2726C18.1818 32.5756 22.7272 36.3635 27.2727 36.3635Z" fill="#91CFCE"/>
<path fill-rule="evenodd" clip-rule="evenodd" d="M27.2727 54.5451C31.8181 54.5451 34.0909 50.7572 36.3636 50.7572C38.6363 50.7572 40.5302 54.5451 45.4545 54.5451C50.3787 54.5451 54.5454 50.7572 54.5454 45.4542C54.5454 40.1512 50.3787 36.3633 45.4545 36.3633C40.5302 36.3633 38.6363 40.1512 36.3636 40.1512C34.0909 40.1512 32.1969 36.3633 27.2727 36.3633C22.3484 36.3633 18.1818 40.1512 18.1818 45.4542C18.1818 50.7572 22.7272 54.5451 27.2727 54.5451Z" fill="#D0E1F0"/>
<path fill-rule="evenodd" clip-rule="evenodd" d="M45.4546 18.1818C50 18.1818 52.2727 14.3939 54.5455 14.3939C56.8182 14.3939 58.7121 18.1818 63.6364 18.1818C68.5606 18.1818 72.7273 14.3939 72.7273 9.09091C72.7273 3.78788 68.5606 0 63.6364 0C58.7121 0 56.8182 3.78788 54.5455 3.78788C52.2727 3.78788 50.3788 0 45.4546 0C40.5303 0 36.3636 3.78788 36.3636 9.09091C36.3636 14.3939 40.9091 18.1818 45.4546 18.1818Z" fill="#CDDBEE"/>
<path fill-rule="evenodd" clip-rule="evenodd" d="M45.4546 36.3635C50 36.3635 52.2727 32.5756 54.5455 32.5756C56.8182 32.5756 58.7121 36.3635 63.6364 36.3635C68.5606 36.3635 72.7273 32.5756 72.7273 27.2726C72.7273 21.9695 68.5606 18.1816 63.6364 18.1816C58.7121 18.1816 56.8182 21.9695 54.5455 21.9695C52.2727 21.9695 50.3788 18.1816 45.4546 18.1816C40.5303 18.1816 36.3636 21.9695 36.3636 27.2726C36.3636 32.5756 40.9091 36.3635 45.4546 36.3635Z" fill="#90C6CA"/>
<path fill-rule="evenodd" clip-rule="evenodd" d="M45.4546 54.5451C50 54.5451 52.2727 50.7572 54.5455 50.7572C56.8182 50.7572 58.7121 54.5451 63.6364 54.5451C68.5606 54.5451 72.7273 50.7572 72.7273 45.4542C72.7273 40.1512 68.5606 36.3633 63.6364 36.3633C58.7121 36.3633 56.8182 40.1512 54.5455 40.1512C52.2727 40.1512 50.3788 36.3633 45.4546 36.3633C40.5303 36.3633 36.3636 40.1512 36.3636 45.4542C36.3636 50.7572 40.9091 54.5451 45.4546 54.5451Z" fill="#D0E1F0"/>
<path fill-rule="evenodd" clip-rule="evenodd" d="M63.6363 18.1818C68.1818 18.1818 70.4545 14.3939 72.7272 14.3939C75 14.3939 76.8939 18.1818 81.8181 18.1818C86.7424 18.1818 90.909 14.3939 90.909 9.09091C90.909 3.78788 86.7424 0 81.8181 0C76.8939 0 75 3.78788 72.7272 3.78788C70.4545 3.78788 68.5606 0 63.6363 0C58.7121 0 54.5454 3.78788 54.5454 9.09091C54.5454 14.3939 59.0909 18.1818 63.6363 18.1818Z" fill="#BFD3EA"/>
<path fill-rule="evenodd" clip-rule="evenodd" d="M63.6363 36.3635C68.1818 36.3635 70.4545 32.5756 72.7272 32.5756C75 32.5756 76.8939 36.3635 81.8181 36.3635C86.7424 36.3635 90.909 32.5756 90.909 27.2726C90.909 21.9695 86.7424 18.1816 81.8181 18.1816C76.8939 18.1816 75 21.9695 72.7272 21.9695C70.4545 21.9695 68.5606 18.1816 63.6363 18.1816C58.7121 18.1816 54.5454 21.9695 54.5454 27.2726C54.5454 32.5756 59.0909 36.3635 63.6363 36.3635Z" fill="#9CBFE2"/>
<path fill-rule="evenodd" clip-rule="evenodd" d="M63.6363 54.5451C68.1818 54.5451 70.4545 50.7572 72.7272 50.7572C75 50.7572 76.8939 54.5451 81.8181 54.5451C86.7424 54.5451 90.909 50.7572 90.909 45.4542C90.909 40.1512 86.7424 36.3633 81.8181 36.3633C76.8939 36.3633 75 40.1512 72.7272 40.1512C70.4545 40.1512 68.5606 36.3633 63.6363 36.3633C58.7121 36.3633 54.5454 40.1512 54.5454 45.4542C54.5454 50.7572 59.0909 54.5451 63.6363 54.5451Z" fill="#CDDBEE"/>
<path fill-rule="evenodd" clip-rule="evenodd" d="M81.8182 18.1818C86.3637 18.1818 88.6364 14.3939 90.9091 14.3939C93.1818 14.3939 95.0758 18.1818 100 18.1818C104.924 18.1818 109.091 14.3939 109.091 9.09091C109.091 3.78788 104.924 0 100 0C95.0758 0 93.1818 3.78788 90.9091 3.78788C88.6364 3.78788 86.7424 0 81.8182 0C76.894 0 72.7273 3.78788 72.7273 9.09091C72.7273 14.3939 77.2727 18.1818 81.8182 18.1818Z" fill="#B6CEE7"/>
<path fill-rule="evenodd" clip-rule="evenodd" d="M81.8182 36.3635C86.3637 36.3635 88.6364 32.5756 90.9091 32.5756C93.1818 32.5756 95.0758 36.3635 100 36.3635C104.924 36.3635 109.091 32.5756 109.091 27.2726C109.091 21.9695 104.924 18.1816 100 18.1816C95.0758 18.1816 93.1818 21.9695 90.9091 21.9695C88.6364 21.9695 86.7424 18.1816 81.8182 18.1816C76.894 18.1816 72.7273 21.9695 72.7273 27.2726C72.7273 32.5756 77.2727 36.3635 81.8182 36.3635Z" fill="#8FBAE0"/>
<path fill-rule="evenodd" clip-rule="evenodd" d="M81.8182 54.5451C86.3637 54.5451 88.6364 50.7572 90.9091 50.7572C93.1818 50.7572 95.0758 54.5451 100 54.5451C104.924 54.5451 109.091 50.7572 109.091 45.4542C109.091 40.1512 104.924 36.3633 100 36.3633C95.0758 36.3633 93.1818 40.1512 90.9091 40.1512C88.6364 40.1512 86.7424 36.3633 81.8182 36.3633C76.894 36.3633 72.7273 40.1512 72.7273 45.4542C72.7273 50.7572 77.2727 54.5451 81.8182 54.5451Z" fill="#B9D0E9"/>
<path fill-rule="evenodd" clip-rule="evenodd" d="M100 18.1818C104.545 18.1818 106.818 14.3939 109.091 14.3939C111.364 14.3939 113.258 18.1818 118.182 18.1818C123.106 18.1818 127.273 14.3939 127.273 9.09091C127.273 3.78788 123.106 0 118.182 0C113.258 0 111.364 3.78788 109.091 3.78788C106.818 3.78788 104.924 0 100 0C95.0757 0 90.9091 3.78788 90.9091 9.09091C90.9091 14.3939 95.4545 18.1818 100 18.1818ZM100 36.3636C104.545 36.3636 106.818 32.5758 109.091 32.5758C111.364 32.5758 113.258 36.3636 118.182 36.3636C123.106 36.3636 127.273 32.5758 127.273 27.2727C127.273 21.9697 123.106 18.1818 118.182 18.1818C113.258 18.1818 111.364 21.9697 109.091 21.9697C106.818 21.9697 104.924 18.1818 100 18.1818C95.0757 18.1818 90.9091 21.9697 90.9091 27.2727C90.9091 32.5758 95.4545 36.3636 100 36.3636Z" fill="#8BB7DF"/>
<path fill-rule="evenodd" clip-rule="evenodd" d="M100 54.5451C104.545 54.5451 106.818 50.7572 109.091 50.7572C111.364 50.7572 113.258 54.5451 118.182 54.5451C123.106 54.5451 127.273 50.7572 127.273 45.4542C127.273 40.1512 123.106 36.3633 118.182 36.3633C113.258 36.3633 111.364 40.1512 109.091 40.1512C106.818 40.1512 104.924 36.3633 100 36.3633C95.0757 36.3633 90.9091 40.1512 90.9091 45.4542C90.9091 50.7572 95.4545 54.5451 100 54.5451Z" fill="#98BDE0"/>
<path fill-rule="evenodd" clip-rule="evenodd" d="M118.182 18.1818C122.727 18.1818 125 14.3939 127.273 14.3939C129.545 14.3939 131.439 18.1818 136.364 18.1818C141.288 18.1818 145.455 14.3939 145.455 9.09091C145.455 3.78788 141.288 0 136.364 0C131.439 0 129.545 3.78788 127.273 3.78788C125 3.78788 123.106 0 118.182 0C113.258 0 109.091 3.78788 109.091 9.09091C109.091 14.3939 113.636 18.1818 118.182 18.1818ZM118.182 36.3636C122.727 36.3636 125 32.5758 127.273 32.5758C129.545 32.5758 131.439 36.3636 136.364 36.3636C141.288 36.3636 145.455 32.5758 145.455 27.2727C145.455 21.9697 141.288 18.1818 136.364 18.1818C131.439 18.1818 129.545 21.9697 127.273 21.9697C125 21.9697 123.106 18.1818 118.182 18.1818C113.258 18.1818 109.091 21.9697 109.091 27.2727C109.091 32.5758 113.636 36.3636 118.182 36.3636Z" fill="#8BB7DF"/>
<path fill-rule="evenodd" clip-rule="evenodd" d="M118.182 54.5451C122.727 54.5451 125 50.7572 127.273 50.7572C129.545 50.7572 131.439 54.5451 136.364 54.5451C141.288 54.5451 145.455 50.7572 145.455 45.4542C145.455 40.1512 141.288 36.3633 136.364 36.3633C131.439 36.3633 129.545 40.1512 127.273 40.1512C125 40.1512 123.106 36.3633 118.182 36.3633C113.258 36.3633 109.091 40.1512 109.091 45.4542C109.091 50.7572 113.636 54.5451 118.182 54.5451Z" fill="#98BBE0"/>
<path fill-rule="evenodd" clip-rule="evenodd" d="M0 9.09091C0 13.6364 3.78788 15.9091 3.78788 18.1818C3.78788 20.4545 0 22.3485 0 27.2727C0 32.197 3.78788 36.3636 9.09091 36.3636C14.3939 36.3636 18.1818 32.197 18.1818 27.2727C18.1818 22.3485 14.3939 20.4545 14.3939 18.1818C14.3939 15.9091 18.1818 14.0152 18.1818 9.09091C18.1818 4.16667 14.3939 0 9.09091 0C3.78788 0 0 4.54545 0 9.09091Z" fill="#D9E2F0"/>
<path fill-rule="evenodd" clip-rule="evenodd" d="M0 27.2725C0 31.818 3.78788 34.0907 3.78788 36.3635C3.78788 38.6362 0 40.5301 0 45.4544C0 50.3786 3.78788 54.5453 9.09091 54.5453C14.3939 54.5453 18.1818 50.3786 18.1818 45.4544C18.1818 40.5301 14.3939 38.6362 14.3939 36.3635C14.3939 34.0907 18.1818 32.1968 18.1818 27.2725C18.1818 22.3483 14.3939 18.1816 9.09091 18.1816C3.78788 18.1816 0 22.7271 0 27.2725Z" fill="#A6D7D5"/>
<path fill-rule="evenodd" clip-rule="evenodd" d="M18.1818 9.09091C18.1818 13.6364 21.9696 15.9091 21.9696 18.1818C21.9696 20.4545 18.1818 22.3485 18.1818 27.2727C18.1818 32.197 21.9696 36.3636 27.2727 36.3636C32.5757 36.3636 36.3636 32.197 36.3636 27.2727C36.3636 22.3485 32.5757 20.4545 32.5757 18.1818C32.5757 15.9091 36.3636 14.0152 36.3636 9.09091C36.3636 4.16667 32.5757 0 27.2727 0C21.9696 0 18.1818 4.54545 18.1818 9.09091Z" fill="#D9E2F0"/>
<path fill-rule="evenodd" clip-rule="evenodd" d="M18.1818 27.2725C18.1818 31.818 21.9696 34.0907 21.9696 36.3635C21.9696 38.6362 18.1818 40.5301 18.1818 45.4544C18.1818 50.3786 21.9696 54.5453 27.2727 54.5453C32.5757 54.5453 36.3636 50.3786 36.3636 45.4544C36.3636 40.5301 32.5757 38.6362 32.5757 36.3635C32.5757 34.0907 36.3636 32.1968 36.3636 27.2725C36.3636 22.3483 32.5757 18.1816 27.2727 18.1816C21.9696 18.1816 18.1818 22.7271 18.1818 27.2725Z" fill="#CDE7E3"/>
<path fill-rule="evenodd" clip-rule="evenodd" d="M36.3636 9.09091C36.3636 13.6364 40.1515 15.9091 40.1515 18.1818C40.1515 20.4545 36.3636 22.3485 36.3636 27.2727C36.3636 32.197 40.1515 36.3636 45.4546 36.3636C50.7576 36.3636 54.5455 32.197 54.5455 27.2727C54.5455 22.3485 50.7576 20.4545 50.7576 18.1818C50.7576 15.9091 54.5455 14.0152 54.5455 9.09091C54.5455 4.16667 50.7576 0 45.4546 0C40.1515 0 36.3636 4.54545 36.3636 9.09091Z" fill="#CDDBEE"/>
<path fill-rule="evenodd" clip-rule="evenodd" d="M36.3636 27.2725C36.3636 31.818 40.1515 34.0907 40.1515 36.3635C40.1515 38.6362 36.3636 40.5301 36.3636 45.4544C36.3636 50.3786 40.1515 54.5453 45.4546 54.5453C50.7576 54.5453 54.5455 50.3786 54.5455 45.4544C54.5455 40.5301 50.7576 38.6362 50.7576 36.3635C50.7576 34.0907 54.5455 32.1968 54.5455 27.2725C54.5455 22.3483 50.7576 18.1816 45.4546 18.1816C40.1515 18.1816 36.3636 22.7271 36.3636 27.2725Z" fill="#CDDBEE"/>
<path fill-rule="evenodd" clip-rule="evenodd" d="M54.5454 9.09091C54.5454 13.6364 58.3333 15.9091 58.3333 18.1818C58.3333 20.4545 54.5454 22.3485 54.5454 27.2727C54.5454 32.197 58.3333 36.3636 63.6363 36.3636C68.9393 36.3636 72.7272 32.197 72.7272 27.2727C72.7272 22.3485 68.9393 20.4545 68.9393 18.1818C68.9393 15.9091 72.7272 14.0152 72.7272 9.09091C72.7272 4.16667 68.9393 0 63.6363 0C58.3333 0 54.5454 4.54545 54.5454 9.09091Z" fill="#BFD3EA"/>
<path fill-rule="evenodd" clip-rule="evenodd" d="M54.5454 27.2725C54.5454 31.818 58.3333 34.0907 58.3333 36.3635C58.3333 38.6362 54.5454 40.5301 54.5454 45.4544C54.5454 50.3786 58.3333 54.5453 63.6363 54.5453C68.9393 54.5453 72.7272 50.3786 72.7272 45.4544C72.7272 40.5301 68.9393 38.6362 68.9393 36.3635C68.9393 34.0907 72.7272 32.1968 72.7272 27.2725C72.7272 22.3483 68.9393 18.1816 63.6363 18.1816C58.3333 18.1816 54.5454 22.7271 54.5454 27.2725Z" fill="#BFD3EA"/>
<path fill-rule="evenodd" clip-rule="evenodd" d="M72.7273 9.09091C72.7273 13.6364 76.5152 15.9091 76.5152 18.1818C76.5152 20.4545 72.7273 22.3485 72.7273 27.2727C72.7273 32.197 76.5152 36.3636 81.8182 36.3636C87.1212 36.3636 90.9091 32.197 90.9091 27.2727C90.9091 22.3485 87.1212 20.4545 87.1212 18.1818C87.1212 15.9091 90.9091 14.0152 90.9091 9.09091C90.9091 4.16667 87.1212 0 81.8182 0C76.5152 0 72.7273 4.54545 72.7273 9.09091Z" fill="#A4C2E3"/>
<path fill-rule="evenodd" clip-rule="evenodd" d="M72.7273 27.2725C72.7273 31.818 76.5152 34.0907 76.5152 36.3635C76.5152 38.6362 72.7273 40.5301 72.7273 45.4544C72.7273 50.3786 76.5152 54.5453 81.8182 54.5453C87.1212 54.5453 90.9091 50.3786 90.9091 45.4544C90.9091 40.5301 87.1212 38.6362 87.1212 36.3635C87.1212 34.0907 90.9091 32.1968 90.9091 27.2725C90.9091 22.3483 87.1212 18.1816 81.8182 18.1816C76.5152 18.1816 72.7273 22.7271 72.7273 27.2725Z" fill="#BFD3EA"/>
<path fill-rule="evenodd" clip-rule="evenodd" d="M90.9091 9.09091C90.9091 13.6364 94.6969 15.9091 94.6969 18.1818C94.6969 20.4545 90.9091 22.3485 90.9091 27.2727C90.9091 32.197 94.6969 36.3636 100 36.3636C105.303 36.3636 109.091 32.197 109.091 27.2727C109.091 22.3485 105.303 20.4545 105.303 18.1818C105.303 15.9091 109.091 14.0152 109.091 9.09091C109.091 4.16667 105.303 0 100 0C94.6969 0 90.9091 4.54545 90.9091 9.09091Z" fill="#80AFDC"/>
<path fill-rule="evenodd" clip-rule="evenodd" d="M90.9091 27.2725C90.9091 31.818 94.6969 34.0907 94.6969 36.3635C94.6969 38.6362 90.9091 40.5301 90.9091 45.4544C90.9091 50.3786 94.6969 54.5453 100 54.5453C105.303 54.5453 109.091 50.3786 109.091 45.4544C109.091 40.5301 105.303 38.6362 105.303 36.3635C105.303 34.0907 109.091 32.1968 109.091 27.2725C109.091 22.3483 105.303 18.1816 100 18.1816C94.6969 18.1816 90.9091 22.7271 90.9091 27.2725Z" fill="#A4C2E3"/>
<path fill-rule="evenodd" clip-rule="evenodd" d="M109.091 9.09091C109.091 13.6364 112.879 15.9091 112.879 18.1818C112.879 20.4545 109.091 22.3485 109.091 27.2727C109.091 32.197 112.879 36.3636 118.182 36.3636C123.485 36.3636 127.273 32.197 127.273 27.2727C127.273 22.3485 123.485 20.4545 123.485 18.1818C123.485 15.9091 127.273 14.0152 127.273 9.09091C127.273 4.16667 123.485 0 118.182 0C112.879 0 109.091 4.54545 109.091 9.09091Z" fill="#80AFDC"/>
<path fill-rule="evenodd" clip-rule="evenodd" d="M109.091 27.2725C109.091 31.818 112.879 34.0907 112.879 36.3635C112.879 38.6362 109.091 40.5301 109.091 45.4544C109.091 50.3786 112.879 54.5453 118.182 54.5453C123.485 54.5453 127.273 50.3786 127.273 45.4544C127.273 40.5301 123.485 38.6362 123.485 36.3635C123.485 34.0907 127.273 32.1968 127.273 27.2725C127.273 22.3483 123.485 18.1816 118.182 18.1816C112.879 18.1816 109.091 22.7271 109.091 27.2725Z" fill="#8BB7DF"/>
<path fill-rule="evenodd" clip-rule="evenodd" d="M127.273 9.09091C127.273 13.6364 131.061 15.9091 131.061 18.1818C131.061 20.4545 127.273 22.3485 127.273 27.2727C127.273 32.197 131.061 36.3636 136.364 36.3636C141.667 36.3636 145.455 32.197 145.455 27.2727C145.455 22.3485 141.667 20.4545 141.667 18.1818C141.667 15.9091 145.455 14.0152 145.455 9.09091C145.455 4.16667 141.667 0 136.364 0C131.061 0 127.273 4.54545 127.273 9.09091Z" fill="#6BA3D6"/>
<path fill-rule="evenodd" clip-rule="evenodd" d="M127.273 27.2725C127.273 31.818 131.061 34.0907 131.061 36.3635C131.061 38.6362 127.273 40.5301 127.273 45.4544C127.273 50.3786 131.061 54.5453 136.364 54.5453C141.667 54.5453 145.455 50.3786 145.455 45.4544C145.455 40.5301 141.667 38.6362 141.667 36.3635C141.667 34.0907 145.455 32.1968 145.455 27.2725C145.455 22.3483 141.667 18.1816 136.364 18.1816C131.061 18.1816 127.273 22.7271 127.273 27.2725Z" fill="#79A8D8"/>
<path d="M9.09091 18.1818C14.1117 18.1818 18.1818 14.1117 18.1818 9.09091C18.1818 4.07014 14.1117 0 9.09091 0C4.07014 0 0 4.07014 0 9.09091C0 14.1117 4.07014 18.1818 9.09091 18.1818Z" fill="#BFD3E7"/>
<path d="M27.2727 18.1818C32.2934 18.1818 36.3636 14.1117 36.3636 9.09091C36.3636 4.07014 32.2934 0 27.2727 0C22.2519 0 18.1818 4.07014 18.1818 9.09091C18.1818 14.1117 22.2519 18.1818 27.2727 18.1818Z" fill="#A5C3E1"/>
<path d="M45.4546 18.1818C50.4753 18.1818 54.5455 14.1117 54.5455 9.09091C54.5455 4.07014 50.4753 0 45.4546 0C40.4338 0 36.3636 4.07014 36.3636 9.09091C36.3636 14.1117 40.4338 18.1818 45.4546 18.1818Z" fill="#8CB7DD"/>
<path d="M63.6363 18.1818C68.6571 18.1818 72.7272 14.1117 72.7272 9.09091C72.7272 4.07014 68.6571 0 63.6363 0C58.6155 0 54.5454 4.07014 54.5454 9.09091C54.5454 14.1117 58.6155 18.1818 63.6363 18.1818Z" fill="#82B0DA"/>
<path d="M81.8182 18.1818C86.839 18.1818 90.9091 14.1117 90.9091 9.09091C90.9091 4.07014 86.839 0 81.8182 0C76.7974 0 72.7273 4.07014 72.7273 9.09091C72.7273 14.1117 76.7974 18.1818 81.8182 18.1818Z" fill="#519AD0"/>
<path d="M100 18.1818C105.021 18.1818 109.091 14.1117 109.091 9.09091C109.091 4.07014 105.021 0 100 0C94.9792 0 90.9091 4.07014 90.9091 9.09091C90.9091 14.1117 94.9792 18.1818 100 18.1818Z" fill="#1386C6"/>
<path d="M118.182 18.1818C123.203 18.1818 127.273 14.1117 127.273 9.09091C127.273 4.07014 123.203 0 118.182 0C113.161 0 109.091 4.07014 109.091 9.09091C109.091 14.1117 113.161 18.1818 118.182 18.1818Z" fill="#1181C0"/>
<path d="M136.364 18.1818C141.384 18.1818 145.455 14.1117 145.455 9.09091C145.455 4.07014 141.384 0 136.364 0C131.343 0 127.273 4.07014 127.273 9.09091C127.273 14.1117 131.343 18.1818 136.364 18.1818Z" fill="#1386C6"/>
<path d="M9.09091 36.3635C14.1117 36.3635 18.1818 32.2933 18.1818 27.2726C18.1818 22.2518 14.1117 18.1816 9.09091 18.1816C4.07014 18.1816 0 22.2518 0 27.2726C0 32.2933 4.07014 36.3635 9.09091 36.3635Z" fill="#81BFC5"/>
<path d="M27.2727 36.3635C32.2934 36.3635 36.3636 32.2933 36.3636 27.2726C36.3636 22.2518 32.2934 18.1816 27.2727 18.1816C22.2519 18.1816 18.1818 22.2518 18.1818 27.2726C18.1818 32.2933 22.2519 36.3635 27.2727 36.3635Z" fill="#64B7BC"/>
<path d="M45.4546 36.3635C50.4753 36.3635 54.5455 32.2933 54.5455 27.2726C54.5455 22.2518 50.4753 18.1816 45.4546 18.1816C40.4338 18.1816 36.3636 22.2518 36.3636 27.2726C36.3636 32.2933 40.4338 36.3635 45.4546 36.3635Z" fill="#42A5B2"/>
<path d="M63.6363 36.3635C68.6571 36.3635 72.7272 32.2933 72.7272 27.2726C72.7272 22.2518 68.6571 18.1816 63.6363 18.1816C58.6155 18.1816 54.5454 22.2518 54.5454 27.2726C54.5454 32.2933 58.6155 36.3635 63.6363 36.3635Z" fill="#2E9AB3"/>
<path d="M81.8182 36.3635C86.839 36.3635 90.9091 32.2933 90.9091 27.2726C90.9091 22.2518 86.839 18.1816 81.8182 18.1816C76.7974 18.1816 72.7273 22.2518 72.7273 27.2726C72.7273 32.2933 76.7974 36.3635 81.8182 36.3635Z" fill="#0888B6"/>
<path d="M100 36.3635C105.021 36.3635 109.091 32.2933 109.091 27.2726C109.091 22.2518 105.021 18.1816 100 18.1816C94.9792 18.1816 90.9091 22.2518 90.9091 27.2726C90.9091 32.2933 94.9792 36.3635 100 36.3635Z" fill="#1881C1"/>
<path d="M118.182 36.3635C123.203 36.3635 127.273 32.2933 127.273 27.2726C127.273 22.2518 123.203 18.1816 118.182 18.1816C113.161 18.1816 109.091 22.2518 109.091 27.2726C109.091 32.2933 113.161 36.3635 118.182 36.3635Z" fill="#1881C1"/>
<path d="M136.364 36.3635C141.384 36.3635 145.455 32.2933 145.455 27.2726C145.455 22.2518 141.384 18.1816 136.364 18.1816C131.343 18.1816 127.273 22.2518 127.273 27.2726C127.273 32.2933 131.343 36.3635 136.364 36.3635Z" fill="#1881C1"/>
<path d="M9.09091 54.5451C14.1117 54.5451 18.1818 50.475 18.1818 45.4542C18.1818 40.4334 14.1117 36.3633 9.09091 36.3633C4.07014 36.3633 0 40.4334 0 45.4542C0 50.475 4.07014 54.5451 9.09091 54.5451Z" fill="#6CC0BD"/>
<path d="M27.2727 54.5451C32.2934 54.5451 36.3636 50.475 36.3636 45.4542C36.3636 40.4334 32.2934 36.3633 27.2727 36.3633C22.2519 36.3633 18.1818 40.4334 18.1818 45.4542C18.1818 50.475 22.2519 54.5451 27.2727 54.5451Z" fill="#81C4C5"/>
<path d="M45.4546 54.5451C50.4753 54.5451 54.5455 50.475 54.5455 45.4542C54.5455 40.4334 50.4753 36.3633 45.4546 36.3633C40.4338 36.3633 36.3636 40.4334 36.3636 45.4542C36.3636 50.475 40.4338 54.5451 45.4546 54.5451Z" fill="#B2CBE4"/>
<path d="M63.6363 54.5451C68.6571 54.5451 72.7272 50.475 72.7272 45.4542C72.7272 40.4334 68.6571 36.3633 63.6363 36.3633C58.6155 36.3633 54.5454 40.4334 54.5454 45.4542C54.5454 50.475 58.6155 54.5451 63.6363 54.5451Z" fill="#9CC0E1"/>
<path d="M81.8182 54.5451C86.839 54.5451 90.9091 50.475 90.9091 45.4542C90.9091 40.4334 86.839 36.3633 81.8182 36.3633C76.7974 36.3633 72.7273 40.4334 72.7273 45.4542C72.7273 50.475 76.7974 54.5451 81.8182 54.5451Z" fill="#7AA9D6"/>
<path d="M100 54.5451C105.021 54.5451 109.091 50.475 109.091 45.4542C109.091 40.4334 105.021 36.3633 100 36.3633C94.9792 36.3633 90.9091 40.4334 90.9091 45.4542C90.9091 50.475 94.9792 54.5451 100 54.5451Z" fill="#619ED1"/>
<path d="M118.182 54.5451C123.203 54.5451 127.273 50.475 127.273 45.4542C127.273 40.4334 123.203 36.3633 118.182 36.3633C113.161 36.3633 109.091 40.4334 109.091 45.4542C109.091 50.475 113.161 54.5451 118.182 54.5451Z" fill="#1386C6"/>
<path d="M136.364 54.5451C141.384 54.5451 145.455 50.475 145.455 45.4542C145.455 40.4334 141.384 36.3633 136.364 36.3633C131.343 36.3633 127.273 40.4334 127.273 45.4542C127.273 50.475 131.343 54.5451 136.364 54.5451Z" fill="#1386C6"/>
<path fill-rule="evenodd" clip-rule="evenodd" d="M9.09083 30.9085C11.212 30.9085 12.6514 29.1661 12.7272 27.3479C12.7272 25.454 9.92417 20.1509 9.92417 17.8782C9.92417 15.6055 12.7272 11.1358 12.7272 9.16607C12.7272 7.19638 11.212 5.60547 9.09083 5.60547C6.96962 5.60547 5.45447 7.12062 5.45447 9.09032C5.45447 11.06 8.2575 15.5297 8.2575 17.8024C8.2575 20.0752 5.45447 25.3782 5.45447 27.2721C5.45447 29.1661 6.96962 30.9085 9.09083 30.9085Z" fill="#0D4F90" fill-opacity="0.2"/>
<path fill-rule="evenodd" clip-rule="evenodd" d="M9.09083 49.0903C11.212 49.0903 12.6514 47.3479 12.7272 45.5297C12.7272 43.6358 9.92417 38.3327 9.92417 36.06C9.92417 33.7873 12.7272 29.3176 12.7272 27.3479C12.7272 25.3782 11.212 23.7115 9.09083 23.7115C6.96962 23.7115 5.45447 25.3024 5.45447 27.2721C5.45447 29.2418 8.2575 33.7115 8.2575 35.9843C8.2575 38.257 5.45447 43.56 5.45447 45.454C5.45447 47.3479 6.96962 49.0903 9.09083 49.0903ZM27.2726 30.9085C29.3939 30.9085 30.8333 29.1661 30.909 27.3479C30.9848 25.5297 28.106 20.1509 28.106 17.8782C28.106 15.6055 30.909 11.1358 30.909 9.16608C30.909 7.19638 29.3939 5.60547 27.2726 5.60547C25.1514 5.60547 23.6363 7.27214 23.6363 9.16608C23.6363 11.06 26.4393 15.6055 26.4393 17.8782C26.4393 20.1509 23.6363 25.454 23.6363 27.3479C23.6363 29.2418 25.1514 30.9085 27.2726 30.9085Z" fill="#0D4F90" fill-opacity="0.2"/>
<path fill-rule="evenodd" clip-rule="evenodd" d="M27.2726 49.0903C29.3938 49.0903 30.8332 47.3479 30.909 45.5297C30.9847 43.7115 28.1059 38.3327 28.1059 36.06C28.1059 33.7873 30.909 29.3176 30.909 27.3479C30.909 25.3782 29.3938 23.7115 27.2726 23.7115C25.1514 23.7115 23.6362 25.3782 23.6362 27.3479C23.6362 29.3176 26.4393 33.7873 26.4393 36.06C26.4393 38.3327 23.6362 43.6358 23.6362 45.5297C23.6362 47.4237 25.1514 49.0903 27.2726 49.0903ZM45.4544 30.9085C47.5756 30.9085 49.015 29.1661 49.0908 27.3479C49.1665 25.5297 46.2877 20.1509 46.2877 17.8782C46.2877 15.6055 49.0908 11.1358 49.0908 9.16608C49.0908 7.19638 47.5756 5.60547 45.4544 5.60547C43.3332 5.60547 41.8181 7.27214 41.8181 9.16608C41.8181 11.06 44.6211 15.6055 44.6211 17.8782C44.6211 20.1509 41.8181 25.454 41.8181 27.3479C41.8181 29.2418 43.3332 30.9085 45.4544 30.9085Z" fill="#0D4F90" fill-opacity="0.2"/>
<path fill-rule="evenodd" clip-rule="evenodd" d="M45.4545 49.0903C47.5757 49.0903 49.0151 47.3479 49.0908 45.5297C49.1666 43.7115 46.2878 38.3327 46.2878 36.06C46.2878 33.7873 49.0908 29.3176 49.0908 27.3479C49.0908 25.3782 47.5757 23.7115 45.4545 23.7115C43.3333 23.7115 41.8181 25.3782 41.8181 27.3479C41.8181 29.3176 44.6211 33.7873 44.6211 36.06C44.6211 38.3327 41.8181 43.6358 41.8181 45.5297C41.8181 47.4237 43.3333 49.0903 45.4545 49.0903ZM63.6363 30.9085C65.7575 30.9085 67.1969 29.1661 67.2727 27.3479C67.3484 25.5297 64.4696 20.1509 64.4696 17.8782C64.4696 15.6055 67.2727 11.1358 67.2727 9.16608C67.2727 7.19638 65.7575 5.60547 63.6363 5.60547C61.5151 5.60547 59.9999 7.27214 59.9999 9.16608C59.9999 11.06 62.803 15.6055 62.803 17.8782C62.803 20.1509 59.9999 25.454 59.9999 27.3479C59.9999 29.2418 61.5151 30.9085 63.6363 30.9085Z" fill="#0D4F90" fill-opacity="0.2"/>
<path fill-rule="evenodd" clip-rule="evenodd" d="M63.6362 49.0903C65.7575 49.0903 67.1969 47.3479 67.2726 45.5297C67.3484 43.7115 64.4696 38.3327 64.4696 36.06C64.4696 33.7873 67.2726 29.3176 67.2726 27.3479C67.2726 25.3782 65.7575 23.7115 63.6362 23.7115C61.515 23.7115 59.9999 25.3782 59.9999 27.3479C59.9999 29.3176 62.8029 33.7873 62.8029 36.06C62.8029 38.3327 59.9999 43.6358 59.9999 45.5297C59.9999 47.4237 61.515 49.0903 63.6362 49.0903ZM81.8181 30.9085C83.9393 30.9085 85.3787 29.1661 85.4544 27.3479C85.5302 25.5297 82.6514 20.1509 82.6514 17.8782C82.6514 15.6055 85.4544 11.1358 85.4544 9.16608C85.4544 7.19638 83.9393 5.60547 81.8181 5.60547C79.6968 5.60547 78.1817 7.27214 78.1817 9.16608C78.1817 11.06 80.9847 15.6055 80.9847 17.8782C80.9847 20.1509 78.1817 25.454 78.1817 27.3479C78.1817 29.2418 79.6968 30.9085 81.8181 30.9085Z" fill="#0D4F90" fill-opacity="0.2"/>
<path fill-rule="evenodd" clip-rule="evenodd" d="M81.8181 49.0903C83.9393 49.0903 85.3787 47.3479 85.4545 45.5297C85.5303 43.7115 82.6515 38.3327 82.6515 36.06C82.6515 33.7873 85.4545 29.3176 85.4545 27.3479C85.4545 25.3782 83.9393 23.7115 81.8181 23.7115C79.6969 23.7115 78.1818 25.3782 78.1818 27.3479C78.1818 29.3176 80.9848 33.7873 80.9848 36.06C80.9848 38.3327 78.1818 43.6358 78.1818 45.5297C78.1818 47.4237 79.6969 49.0903 81.8181 49.0903ZM99.9999 30.9085C102.121 30.9085 103.561 29.1661 103.636 27.3479C103.712 25.5297 100.833 20.1509 100.833 17.8782C100.833 15.6055 103.636 11.1358 103.636 9.16608C103.636 7.19638 102.121 5.60547 99.9999 5.60547C97.8787 5.60547 96.3636 7.27214 96.3636 9.16608C96.3636 11.06 99.1666 15.6055 99.1666 17.8782C99.1666 20.1509 96.3636 25.454 96.3636 27.3479C96.3636 29.2418 97.8787 30.9085 99.9999 30.9085Z" fill="#0D4F90" fill-opacity="0.2"/>
<path fill-rule="evenodd" clip-rule="evenodd" d="M99.9999 49.0903C102.121 49.0903 103.56 47.3479 103.636 45.5297C103.712 43.7115 100.833 38.3327 100.833 36.06C100.833 33.7873 103.636 29.3176 103.636 27.3479C103.636 25.3782 102.121 23.7115 99.9999 23.7115C97.8787 23.7115 96.3635 25.3782 96.3635 27.3479C96.3635 29.3176 99.1666 33.7873 99.1666 36.06C99.1666 38.3327 96.3635 43.6358 96.3635 45.5297C96.3635 47.4237 97.8787 49.0903 99.9999 49.0903ZM118.182 30.9085C120.303 30.9085 121.742 29.1661 121.818 27.3479C121.894 25.5297 119.015 20.1509 119.015 17.8782C119.015 15.6055 121.818 11.1358 121.818 9.16608C121.818 7.19638 120.303 5.60547 118.182 5.60547C116.06 5.60547 114.545 7.27214 114.545 9.16608C114.545 11.06 117.348 15.6055 117.348 17.8782C117.348 20.1509 114.545 25.454 114.545 27.3479C114.545 29.1661 116.06 30.9085 118.182 30.9085Z" fill="#0D4F90" fill-opacity="0.2"/>
<path fill-rule="evenodd" clip-rule="evenodd" d="M118.182 49.0903C120.303 49.0903 121.742 47.3479 121.818 45.5297C121.894 43.7115 119.015 38.3327 119.015 36.06C119.015 33.7873 121.818 29.3176 121.818 27.3479C121.818 25.3782 120.303 23.7115 118.182 23.7115C116.061 23.7115 114.545 25.3782 114.545 27.3479C114.545 29.3176 117.348 33.7873 117.348 36.06C117.348 38.3327 114.545 43.6358 114.545 45.5297C114.545 47.3479 116.061 49.0903 118.182 49.0903ZM136.364 30.9085C138.485 30.9085 139.924 29.1661 140 27.3479C140.076 25.5297 137.197 20.1509 137.197 17.8782C137.197 15.6055 140 11.1358 140 9.16608C140 7.19638 138.485 5.60547 136.364 5.60547C134.242 5.60547 132.727 7.27214 132.727 9.16608C132.727 11.06 135.53 15.6055 135.53 17.8782C135.53 20.1509 132.727 25.454 132.727 27.3479C132.727 29.1661 134.242 30.9085 136.364 30.9085Z" fill="#0D4F90" fill-opacity="0.2"/>
<path fill-rule="evenodd" clip-rule="evenodd" d="M136.364 49.0897C138.485 49.0897 139.924 47.3473 140 45.5291C140.076 43.7109 137.197 38.3322 137.197 36.0594C137.197 33.7867 140 29.317 140 27.3473C140 25.3776 138.485 23.7109 136.364 23.7109C134.242 23.7109 132.727 25.3776 132.727 27.3473C132.727 29.317 135.53 33.7867 135.53 36.0594C135.53 38.3322 132.727 43.6352 132.727 45.5291C132.727 47.3473 134.242 49.0897 136.364 49.0897Z" fill="#0D4F90" fill-opacity="0.2"/>
<path fill-rule="evenodd" clip-rule="evenodd" d="M5.45447 9.09067C5.45447 11.2119 7.19689 12.6513 9.01507 12.727C10.909 12.727 16.212 9.924 18.4848 9.924C20.7575 9.924 25.2272 12.727 27.1969 12.727C29.1666 12.727 30.8333 11.2119 30.8333 9.09067C30.8333 6.96946 29.1666 5.53006 27.1969 5.53006C25.2272 5.53006 20.7575 8.33309 18.4848 8.33309C16.212 8.33309 10.909 5.53006 9.01507 5.53006C7.19689 5.45431 5.45447 6.96946 5.45447 9.09067Z" fill="#114D8F" fill-opacity="0.2"/>
<path fill-rule="evenodd" clip-rule="evenodd" d="M23.6362 9.09067C23.6362 11.2119 25.3787 12.6513 27.1968 12.727C29.0908 12.727 34.3938 9.924 36.6665 9.924C38.9393 9.924 43.409 12.727 45.3787 12.727C47.3484 12.727 49.015 11.2119 49.015 9.09067C49.015 6.96946 47.3484 5.53006 45.3787 5.53006C43.409 5.53006 38.9393 8.33309 36.6665 8.33309C34.3938 8.33309 29.0908 5.53006 27.1968 5.53006C25.3787 5.45431 23.6362 6.96946 23.6362 9.09067Z" fill="#114D8F" fill-opacity="0.2"/>
<path fill-rule="evenodd" clip-rule="evenodd" d="M41.8181 9.09067C41.8181 11.2119 43.5605 12.6513 45.3787 12.727C47.2727 12.727 52.5757 9.924 54.8484 9.924C57.1211 9.924 61.5908 12.727 63.5605 12.727C65.5302 12.727 67.1969 11.2119 67.1969 9.09067C67.1969 6.96946 65.5302 5.53006 63.5605 5.53006C61.5908 5.53006 57.1211 8.33309 54.8484 8.33309C52.5757 8.33309 47.2727 5.53006 45.3787 5.53006C43.5605 5.45431 41.8181 6.96946 41.8181 9.09067Z" fill="#114D8F" fill-opacity="0.2"/>
<path fill-rule="evenodd" clip-rule="evenodd" d="M59.9999 9.09067C59.9999 11.2119 61.7423 12.6513 63.5605 12.727C65.4544 12.727 70.7575 9.924 73.0302 9.924C75.3029 9.924 79.7726 12.727 81.7423 12.727C83.712 12.727 85.3787 11.2119 85.3787 9.09067C85.3787 6.96946 83.712 5.53006 81.7423 5.53006C79.7726 5.53006 75.3029 8.33309 73.0302 8.33309C70.7575 8.33309 65.4544 5.53006 63.5605 5.53006C61.7423 5.45431 59.9999 6.96946 59.9999 9.09067Z" fill="#114D8F" fill-opacity="0.2"/>
<path fill-rule="evenodd" clip-rule="evenodd" d="M78.1818 9.09067C78.1818 11.2119 79.9242 12.6513 81.7424 12.727C83.6363 12.727 88.9393 9.924 91.2121 9.924C93.4848 9.924 97.9545 12.727 99.9242 12.727C101.894 12.727 103.561 11.2119 103.561 9.09067C103.561 6.96946 101.894 5.53006 99.9242 5.53006C97.9545 5.53006 93.4848 8.33309 91.2121 8.33309C88.9393 8.33309 83.6363 5.53006 81.7424 5.53006C79.9242 5.45431 78.1818 6.96946 78.1818 9.09067Z" fill="#114D8F" fill-opacity="0.2"/>
<path fill-rule="evenodd" clip-rule="evenodd" d="M96.3635 9.09067C96.3635 11.2119 98.1059 12.6513 99.9241 12.727C101.818 12.727 107.121 9.924 109.394 9.924C111.667 9.924 116.136 12.727 118.106 12.727C120.076 12.727 121.742 11.2119 121.742 9.09067C121.742 6.96946 120.076 5.53006 118.106 5.53006C116.136 5.53006 111.667 8.33309 109.394 8.33309C107.121 8.33309 101.818 5.53006 99.9241 5.53006C98.1059 5.45431 96.3635 6.96946 96.3635 9.09067Z" fill="#114D8F" fill-opacity="0.2"/>
<path fill-rule="evenodd" clip-rule="evenodd" d="M114.545 9.09067C114.545 11.2119 116.288 12.6513 118.106 12.727C120 12.727 125.303 9.924 127.576 9.924C129.848 9.924 134.318 12.727 136.288 12.727C138.257 12.727 139.924 11.2119 139.924 9.09067C139.924 6.96946 138.257 5.53006 136.288 5.53006C134.318 5.53006 129.848 8.33309 127.576 8.33309C125.303 8.33309 120 5.53006 118.106 5.53006C116.288 5.45431 114.545 6.96946 114.545 9.09067ZM5.45447 27.2725C5.45447 29.3937 7.19689 30.8331 9.01507 30.9089C10.8333 30.9846 16.212 28.1058 18.4848 28.1058C20.7575 28.1058 25.2272 30.9089 27.1969 30.9089C29.1666 30.9089 30.8333 29.3937 30.8333 27.2725C30.8333 25.1513 29.1666 23.6361 27.1969 23.6361C25.2272 23.6361 20.7575 26.4392 18.4848 26.4392C16.212 26.4392 10.909 23.6361 9.01507 23.6361C7.19689 23.6361 5.45447 25.1513 5.45447 27.2725Z" fill="#114D8F" fill-opacity="0.2"/>
<path fill-rule="evenodd" clip-rule="evenodd" d="M23.6362 27.2731C23.6362 29.3943 25.3787 30.8337 27.1968 30.9094C29.015 30.9852 34.3938 28.1064 36.6665 28.1064C38.9393 28.1064 43.409 30.9094 45.3787 30.9094C47.3484 30.9094 49.015 29.3943 49.015 27.2731C49.015 25.1519 47.3484 23.6367 45.3787 23.6367C43.409 23.6367 38.9393 26.4397 36.6665 26.4397C34.3938 26.4397 29.0908 23.6367 27.1968 23.6367C25.3787 23.6367 23.6362 25.1519 23.6362 27.2731Z" fill="#114D8F" fill-opacity="0.2"/>
<path fill-rule="evenodd" clip-rule="evenodd" d="M41.8181 27.2731C41.8181 29.3943 43.5605 30.8337 45.3787 30.9094C47.1969 30.9852 52.5757 28.1064 54.8484 28.1064C57.1211 28.1064 61.5908 30.9094 63.5605 30.9094C65.5302 30.9094 67.1969 29.3943 67.1969 27.2731C67.1969 25.1519 65.5302 23.6367 63.5605 23.6367C61.5908 23.6367 57.1211 26.4397 54.8484 26.4397C52.5757 26.4397 47.2727 23.6367 45.3787 23.6367C43.5605 23.6367 41.8181 25.1519 41.8181 27.2731Z" fill="#114D8F" fill-opacity="0.2"/>
<path fill-rule="evenodd" clip-rule="evenodd" d="M59.9999 27.2731C59.9999 29.3943 61.7423 30.8337 63.5605 30.9094C65.3787 30.9852 70.7575 28.1064 73.0302 28.1064C75.3029 28.1064 79.7726 30.9094 81.7423 30.9094C83.712 30.9094 85.3787 29.3943 85.3787 27.2731C85.3787 25.1519 83.712 23.6367 81.7423 23.6367C79.7726 23.6367 75.3029 26.4397 73.0302 26.4397C70.7575 26.4397 65.4544 23.6367 63.5605 23.6367C61.7423 23.6367 59.9999 25.1519 59.9999 27.2731Z" fill="#114D8F" fill-opacity="0.2"/>
<path fill-rule="evenodd" clip-rule="evenodd" d="M78.1818 27.2731C78.1818 29.3943 79.9242 30.8337 81.7424 30.9094C83.5606 30.9852 88.9393 28.1064 91.2121 28.1064C93.4848 28.1064 97.9545 30.9094 99.9242 30.9094C101.894 30.9094 103.561 29.3943 103.561 27.2731C103.561 25.1519 101.894 23.6367 99.9242 23.6367C97.9545 23.6367 93.4848 26.4397 91.2121 26.4397C88.9393 26.4397 83.6363 23.6367 81.7424 23.6367C79.9242 23.6367 78.1818 25.1519 78.1818 27.2731Z" fill="#114D8F" fill-opacity="0.2"/>
<path fill-rule="evenodd" clip-rule="evenodd" d="M96.3635 27.2731C96.3635 29.3943 98.1059 30.8337 99.9241 30.9094C101.818 30.9094 107.121 28.1064 109.394 28.1064C111.667 28.1064 116.136 30.9094 118.106 30.9094C120.076 30.9094 121.742 29.3943 121.742 27.2731C121.742 25.1519 120.076 23.6367 118.106 23.6367C116.136 23.6367 111.667 26.4397 109.394 26.4397C107.121 26.4397 101.818 23.6367 99.9241 23.6367C98.1059 23.6367 96.3635 25.1519 96.3635 27.2731Z" fill="#114D8F" fill-opacity="0.2"/>
<path fill-rule="evenodd" clip-rule="evenodd" d="M114.545 27.2731C114.545 29.3943 116.288 30.8337 118.106 30.9094C120 30.9094 125.303 28.1064 127.576 28.1064C129.848 28.1064 134.318 30.9094 136.288 30.9094C138.257 30.9094 139.924 29.3943 139.924 27.2731C139.924 25.1519 138.257 23.6367 136.288 23.6367C134.318 23.6367 129.848 26.4397 127.576 26.4397C125.303 26.4397 120 23.6367 118.106 23.6367C116.288 23.6367 114.545 25.1519 114.545 27.2731ZM5.45447 45.4549C5.45447 47.5761 7.19689 49.0155 9.01507 49.0155C10.8333 49.0155 16.212 46.2125 18.4848 46.2125C20.7575 46.2125 25.2272 49.0155 27.1969 49.0155C29.1666 49.0155 30.8333 47.5004 30.8333 45.4549C30.8333 43.3337 29.1666 41.8185 27.1969 41.8185C25.2272 41.8185 20.7575 44.6216 18.4848 44.6216C16.212 44.6216 10.909 41.8185 9.01507 41.8185C7.19689 41.8185 5.45447 43.3337 5.45447 45.4549Z" fill="#114D8F" fill-opacity="0.2"/>
<path fill-rule="evenodd" clip-rule="evenodd" d="M23.6362 45.4547C23.6362 47.5759 25.3787 49.0153 27.1968 49.0153C29.015 49.0153 34.3938 46.2123 36.6665 46.2123C38.9393 46.2123 43.409 49.0153 45.3787 49.0153C47.3484 49.0153 49.015 47.5002 49.015 45.4547C49.015 43.3335 47.3484 41.8184 45.3787 41.8184C43.409 41.8184 38.9393 44.6214 36.6665 44.6214C34.3938 44.6214 29.0908 41.8184 27.1968 41.8184C25.3787 41.8184 23.6362 43.3335 23.6362 45.4547Z" fill="#114D8F" fill-opacity="0.2"/>
<path fill-rule="evenodd" clip-rule="evenodd" d="M41.8181 45.4547C41.8181 47.5759 43.5605 49.0153 45.3787 49.0153C47.1969 49.0153 52.5757 46.2123 54.8484 46.2123C57.1211 46.2123 61.5908 49.0153 63.5605 49.0153C65.5302 49.0153 67.1969 47.5002 67.1969 45.4547C67.1969 43.3335 65.5302 41.8184 63.5605 41.8184C61.5908 41.8184 57.1211 44.6214 54.8484 44.6214C52.5757 44.6214 47.2727 41.8184 45.3787 41.8184C43.5605 41.8184 41.8181 43.3335 41.8181 45.4547Z" fill="#114D8F" fill-opacity="0.2"/>
<path fill-rule="evenodd" clip-rule="evenodd" d="M59.9999 45.4547C59.9999 47.5759 61.7423 49.0153 63.5605 49.0153C65.3787 49.0153 70.7575 46.2123 73.0302 46.2123C75.3029 46.2123 79.7726 49.0153 81.7423 49.0153C83.712 49.0153 85.3787 47.5002 85.3787 45.4547C85.3787 43.3335 83.712 41.8184 81.7423 41.8184C79.7726 41.8184 75.3029 44.6214 73.0302 44.6214C70.7575 44.6214 65.4544 41.8184 63.5605 41.8184C61.7423 41.8184 59.9999 43.3335 59.9999 45.4547Z" fill="#114D8F" fill-opacity="0.2"/>
<path fill-rule="evenodd" clip-rule="evenodd" d="M78.1818 45.4547C78.1818 47.5759 79.9242 49.0153 81.7424 49.0153C83.5606 49.0153 88.9393 46.2123 91.2121 46.2123C93.4848 46.2123 97.9545 49.0153 99.9242 49.0153C101.894 49.0153 103.561 47.5002 103.561 45.4547C103.561 43.3335 101.894 41.8184 99.9242 41.8184C97.9545 41.8184 93.4848 44.6214 91.2121 44.6214C88.9393 44.6214 83.6363 41.8184 81.7424 41.8184C79.9242 41.8184 78.1818 43.3335 78.1818 45.4547Z" fill="#114D8F" fill-opacity="0.2"/>
<path fill-rule="evenodd" clip-rule="evenodd" d="M96.3635 45.4547C96.3635 47.5759 98.1059 49.0153 99.9241 49.0153C101.818 49.0153 107.121 46.2123 109.394 46.2123C111.667 46.2123 116.136 49.0153 118.106 49.0153C120.076 49.0153 121.742 47.5002 121.742 45.4547C121.742 43.3335 120.076 41.8184 118.106 41.8184C116.136 41.8184 111.667 44.6214 109.394 44.6214C107.121 44.6214 101.818 41.8184 99.9241 41.8184C98.1059 41.8184 96.3635 43.3335 96.3635 45.4547Z" fill="#114D8F" fill-opacity="0.2"/>
<path fill-rule="evenodd" clip-rule="evenodd" d="M114.545 45.4547C114.545 47.5759 116.288 49.0153 118.106 49.0153C120 49.0153 125.303 46.2123 127.576 46.2123C129.848 46.2123 134.318 49.0153 136.288 49.0153C138.258 49.0153 139.924 47.5002 139.924 45.4547C139.924 43.3335 138.258 41.8184 136.288 41.8184C134.318 41.8184 129.848 44.6214 127.576 44.6214C125.303 44.6214 120 41.8184 118.106 41.8184C116.288 41.8184 114.545 43.3335 114.545 45.4547Z" fill="#114D8F" fill-opacity="0.2"/>
<path d="M9.1288 12.7649C11.1371 12.7649 12.7652 11.1369 12.7652 9.12855C12.7652 7.12024 11.1371 5.49219 9.1288 5.49219C7.12049 5.49219 5.49243 7.12024 5.49243 9.12855C5.49243 11.1369 7.12049 12.7649 9.1288 12.7649Z" fill="#76A1CC"/>
<path d="M27.3106 12.7649C29.3189 12.7649 30.9469 11.1369 30.9469 9.12855C30.9469 7.12024 29.3189 5.49219 27.3106 5.49219C25.3022 5.49219 23.6742 7.12024 23.6742 9.12855C23.6742 11.1369 25.3022 12.7649 27.3106 12.7649Z" fill="#6A91C2"/>
<path d="M45.4924 12.7649C47.5008 12.7649 49.1288 11.1369 49.1288 9.12855C49.1288 7.12024 47.5008 5.49219 45.4924 5.49219C43.4841 5.49219 41.8561 7.12024 41.8561 9.12855C41.8561 11.1369 43.4841 12.7649 45.4924 12.7649Z" fill="#4981B3"/>
<path d="M63.6742 12.7649C65.6825 12.7649 67.3106 11.1369 67.3106 9.12855C67.3106 7.12024 65.6825 5.49219 63.6742 5.49219C61.6659 5.49219 60.0378 7.12024 60.0378 9.12855C60.0378 11.1369 61.6659 12.7649 63.6742 12.7649Z" fill="#406EA7"/>
<path d="M81.8561 12.7649C83.8644 12.7649 85.4924 11.1369 85.4924 9.12855C85.4924 7.12024 83.8644 5.49219 81.8561 5.49219C79.8478 5.49219 78.2197 7.12024 78.2197 9.12855C78.2197 11.1369 79.8478 12.7649 81.8561 12.7649Z" fill="#055293"/>
<path d="M100.038 12.7649C102.046 12.7649 103.674 11.1369 103.674 9.12855C103.674 7.12024 102.046 5.49219 100.038 5.49219C98.0295 5.49219 96.4015 7.12024 96.4015 9.12855C96.4015 11.1369 98.0295 12.7649 100.038 12.7649Z" fill="#1C4787"/>
<path d="M118.22 12.7649C120.228 12.7649 121.856 11.1369 121.856 9.12855C121.856 7.12024 120.228 5.49219 118.22 5.49219C116.211 5.49219 114.583 7.12024 114.583 9.12855C114.583 11.1369 116.211 12.7649 118.22 12.7649Z" fill="#1F4686"/>
<path d="M136.402 12.7649C138.41 12.7649 140.038 11.1369 140.038 9.12855C140.038 7.12024 138.41 5.49219 136.402 5.49219C134.393 5.49219 132.765 7.12024 132.765 9.12855C132.765 11.1369 134.393 12.7649 136.402 12.7649Z" fill="#114D8F"/>
<path d="M9.1288 30.9466C11.1371 30.9466 12.7652 29.3185 12.7652 27.3102C12.7652 25.3019 11.1371 23.6738 9.1288 23.6738C7.12049 23.6738 5.49243 25.3019 5.49243 27.3102C5.49243 29.3185 7.12049 30.9466 9.1288 30.9466Z" fill="#0492A0"/>
<path d="M27.3106 30.9466C29.3189 30.9466 30.9469 29.3185 30.9469 27.3102C30.9469 25.3019 29.3189 23.6738 27.3106 23.6738C25.3022 23.6738 23.6742 25.3019 23.6742 27.3102C23.6742 29.3185 25.3022 30.9466 27.3106 30.9466Z" fill="#018188"/>
<path d="M45.4924 30.9466C47.5008 30.9466 49.1288 29.3185 49.1288 27.3102C49.1288 25.3019 47.5008 23.6738 45.4924 23.6738C43.4841 23.6738 41.8561 25.3019 41.8561 27.3102C41.8561 29.3185 43.4841 30.9466 45.4924 30.9466Z" fill="#067581"/>
<path d="M63.6742 30.9466C65.6825 30.9466 67.3106 29.3185 67.3106 27.3102C67.3106 25.3019 65.6825 23.6738 63.6742 23.6738C61.6659 23.6738 60.0378 25.3019 60.0378 27.3102C60.0378 29.3185 61.6659 30.9466 63.6742 30.9466Z" fill="#056B80"/>
<path d="M81.8561 30.9466C83.8644 30.9466 85.4924 29.3185 85.4924 27.3102C85.4924 25.3019 83.8644 23.6738 81.8561 23.6738C79.8478 23.6738 78.2197 25.3019 78.2197 27.3102C78.2197 29.3185 79.8478 30.9466 81.8561 30.9466Z" fill="#005782"/>
<path d="M100.038 30.9466C102.046 30.9466 103.674 29.3185 103.674 27.3102C103.674 25.3019 102.046 23.6738 100.038 23.6738C98.0295 23.6738 96.4015 25.3019 96.4015 27.3102C96.4015 29.3185 98.0295 30.9466 100.038 30.9466Z" fill="#204580"/>
<path d="M118.22 30.9466C120.228 30.9466 121.856 29.3185 121.856 27.3102C121.856 25.3019 120.228 23.6738 118.22 23.6738C116.211 23.6738 114.583 25.3019 114.583 27.3102C114.583 29.3185 116.211 30.9466 118.22 30.9466Z" fill="#1F4686"/>
<path d="M136.402 30.9466C138.41 30.9466 140.038 29.3185 140.038 27.3102C140.038 25.3019 138.41 23.6738 136.402 23.6738C134.393 23.6738 132.765 25.3019 132.765 27.3102C132.765 29.3185 134.393 30.9466 136.402 30.9466Z" fill="#1A4888"/>
<path d="M9.1288 49.1282C11.1371 49.1282 12.7652 47.5001 12.7652 45.4918C12.7652 43.4835 11.1371 41.8555 9.1288 41.8555C7.12049 41.8555 5.49243 43.4835 5.49243 45.4918C5.49243 47.5001 7.12049 49.1282 9.1288 49.1282Z" fill="#029DA2"/>
<path d="M27.3106 49.1282C29.3189 49.1282 30.9469 47.5001 30.9469 45.4918C30.9469 43.4835 29.3189 41.8555 27.3106 41.8555C25.3022 41.8555 23.6742 43.4835 23.6742 45.4918C23.6742 47.5001 25.3022 49.1282 27.3106 49.1282Z" fill="#0598A6"/>
<path d="M45.4924 49.1282C47.5008 49.1282 49.1288 47.5001 49.1288 45.4918C49.1288 43.4835 47.5008 41.8555 45.4924 41.8555C43.4841 41.8555 41.8561 43.4835 41.8561 45.4918C41.8561 47.5001 43.4841 49.1282 45.4924 49.1282Z" fill="#3A98BF"/>
<path d="M63.6742 49.1282C65.6825 49.1282 67.3106 47.5001 67.3106 45.4918C67.3106 43.4835 65.6825 41.8555 63.6742 41.8555C61.6659 41.8555 60.0378 43.4835 60.0378 45.4918C60.0378 47.5001 61.6659 49.1282 63.6742 49.1282Z" fill="#467EB3"/>
<path d="M81.8561 49.1282C83.8644 49.1282 85.4924 47.5001 85.4924 45.4918C85.4924 43.4835 83.8644 41.8555 81.8561 41.8555C79.8478 41.8555 78.2197 43.4835 78.2197 45.4918C78.2197 47.5001 79.8478 49.1282 81.8561 49.1282Z" fill="#2A5F9D"/>
<path d="M100.038 49.1282C102.046 49.1282 103.674 47.5001 103.674 45.4918C103.674 43.4835 102.046 41.8555 100.038 41.8555C98.0295 41.8555 96.4015 43.4835 96.4015 45.4918C96.4015 47.5001 98.0295 49.1282 100.038 49.1282Z" fill="#1C4787"/>
<path d="M118.22 49.1282C120.228 49.1282 121.856 47.5001 121.856 45.4918C121.856 43.4835 120.228 41.8555 118.22 41.8555C116.211 41.8555 114.583 43.4835 114.583 45.4918C114.583 47.5001 116.211 49.1282 118.22 49.1282Z" fill="#1F4686"/>
<path d="M136.402 49.1282C138.41 49.1282 140.038 47.5001 140.038 45.4918C140.038 43.4835 138.41 41.8555 136.402 41.8555C134.393 41.8555 132.765 43.4835 132.765 45.4918C132.765 47.5001 134.393 49.1282 136.402 49.1282Z" fill="#19498A"/>
</g>
<defs>
<clipPath id="clip0">
<rect width="300" height="54.5455" fill="white"/>
</clipPath>
</defs>
</svg>
