<svg width="200" height="58" viewBox="0 0 200 58" fill="none" xmlns="http://www.w3.org/2000/svg">
<g clip-path="url(#clip0)">
<path d="M65.6352 37.1821C66.2458 37.1572 66.857 37.2142 67.4525 37.3514C67.7954 37.4475 68.1032 37.6406 68.3391 37.9075C68.5546 38.1501 68.6737 38.4634 68.6737 38.7879C68.6737 39.1125 68.5546 39.4258 68.3391 39.6684C68.0974 39.9509 67.7756 40.1533 67.4163 40.2487C66.8162 40.3922 66.1993 40.4532 65.5828 40.43H63.4551V37.2063L65.6352 37.1821ZM62.2462 45.8056H63.4551V41.373H64.1361L68.5365 45.8056H70.0597L65.6593 41.373C66.4764 41.4 67.2926 41.2966 68.0771 41.0667C68.6057 40.9041 69.076 40.592 69.4311 40.1681C69.744 39.7777 69.9107 39.2902 69.9026 38.79C69.9072 38.4941 69.8489 38.2006 69.7315 37.9289C69.6141 37.6573 69.4403 37.4137 69.2216 37.2144C68.7256 36.764 68.1071 36.4709 67.4445 36.3722C66.5277 36.2586 65.6036 36.2141 64.6801 36.2392H62.2382V45.8137" fill="#231F20"/>
<path d="M79.9927 36.2305H86.9519V37.1815H81.2016V40.1634H86.8915V41.1104H81.2016V44.862H86.8915V45.8049H79.9927V36.2305Z" fill="#231F20"/>
<path d="M97.2277 44.0294L98.2633 43.5418C98.9886 44.5949 99.8295 45.1201 100.786 45.1174C101.18 45.1193 101.57 45.0426 101.934 44.8917C102.251 44.7656 102.529 44.5586 102.74 44.2913C102.922 44.0619 103.021 43.7781 103.022 43.4854C103.011 43.1328 102.867 42.7974 102.619 42.5465C101.999 41.9395 101.296 41.4227 100.532 41.0112C99.8539 40.6485 99.2198 40.209 98.6421 39.7015C98.4429 39.5125 98.283 39.286 98.1716 39.0349C98.0603 38.7839 97.9997 38.5133 97.9933 38.2388C97.9909 37.8286 98.1241 37.4291 98.3721 37.1024C98.6505 36.7407 99.0226 36.462 99.448 36.2965C99.9232 36.0952 100.435 35.995 100.951 36.0023C101.506 35.997 102.055 36.1096 102.563 36.3328C103.177 36.6386 103.725 37.0632 104.175 37.582L103.159 38.1783C102.825 37.7945 102.425 37.4725 101.979 37.2273C101.645 37.0728 101.282 36.9943 100.915 36.9976C100.484 36.9804 100.06 37.1034 99.7059 37.3482C99.5633 37.4427 99.4461 37.5707 99.3646 37.7211C99.2831 37.8714 99.2398 38.0395 99.2385 38.2106C99.2382 38.4227 99.2938 38.6312 99.3997 38.815C99.5612 39.0645 99.7691 39.2807 100.012 39.4517C100.173 39.5726 100.697 39.8909 101.592 40.4067C102.402 40.821 103.138 41.3655 103.772 42.0186C103.988 42.2428 104.152 42.5126 104.25 42.8082C104.348 43.1038 104.379 43.4176 104.341 43.7268C104.302 44.0359 104.195 44.3325 104.027 44.5947C103.858 44.857 103.634 45.0783 103.369 45.2423C102.661 45.7646 101.798 46.0343 100.919 46.008C100.22 46.0157 99.53 45.8583 98.904 45.5486C98.2318 45.1739 97.6607 44.6415 97.2397 43.9972" fill="#231F20"/>
<path d="M114.632 36.2305H121.591V37.1815H115.845V40.1634H121.53V41.1104H115.845V44.862H121.53V45.8049H114.632V36.2305Z" fill="#231F20"/>
<path d="M137.528 41.735H133.337L135.441 38.2453L137.528 41.735ZM135.312 36.2305L129.566 45.8049H130.895L132.773 42.686H138.096L139.966 45.8049H141.3L135.61 36.2305H135.312Z" fill="#231F20"/>
<path d="M152.232 37.182C152.844 37.1567 153.457 37.2137 154.054 37.3513C154.395 37.4485 154.701 37.6415 154.936 37.9073C155.153 38.1473 155.273 38.4586 155.275 38.7818C155.274 39.1072 155.157 39.4216 154.944 39.6683C154.7 39.951 154.375 40.1533 154.014 40.2486C153.415 40.3922 152.799 40.4532 152.184 40.4299H150.056V37.2062L152.232 37.182ZM148.848 45.8055H150.056V41.3729H150.737L155.138 45.8055H156.657L152.261 41.3729C153.078 41.3999 153.894 41.2965 154.678 41.0666C155.206 40.9039 155.675 40.5918 156.028 40.168C156.343 39.7784 156.51 39.2904 156.5 38.7898C156.506 38.4938 156.448 38.2 156.33 37.9282C156.213 37.6564 156.038 37.4129 155.819 37.2142C155.326 36.7623 154.708 36.4689 154.046 36.3721C153.129 36.2588 152.205 36.2143 151.281 36.2391H148.839V45.8135" fill="#231F20"/>
<path d="M176.011 37.9922L175.048 38.5685C174.505 38.0317 173.852 37.6193 173.134 37.3596C172.348 37.0789 171.518 36.9424 170.684 36.9566C169.756 36.947 168.836 37.1338 167.984 37.5046C167.222 37.8167 166.555 38.3239 166.05 38.9755C165.603 39.5777 165.364 40.3089 165.369 41.0588C165.369 41.6322 165.509 42.1969 165.775 42.7044C166.042 43.212 166.428 43.647 166.9 43.9723C168.02 44.7833 169.379 45.1961 170.761 45.1449C172.34 45.193 173.876 44.6284 175.048 43.5693L176.011 44.1415C175.369 44.7751 174.596 45.2606 173.747 45.564C172.773 45.9101 171.746 46.0806 170.712 46.0677C168.582 46.0677 166.904 45.5116 165.679 44.3994C165.19 43.9774 164.798 43.4539 164.53 42.8652C164.263 42.2765 164.127 41.6368 164.132 40.9903C164.132 40.2884 164.304 39.5973 164.634 38.9776C164.963 38.358 165.44 37.8286 166.022 37.4361C167.377 36.4446 169.027 35.9404 170.704 36.0056C171.752 35.9905 172.794 36.1667 173.779 36.5254C174.632 36.833 175.402 37.3352 176.028 37.9922" fill="#231F20"/>
<path d="M183.071 36.2305L184.284 36.2385V40.2359H190.502V36.2385L191.711 36.2305V45.8049H190.502V41.1829H184.284V45.8049H183.071V36.2305Z" fill="#231F20"/>
<path d="M111.803 2.95042C111.806 3.37845 111.682 3.79778 111.446 4.15518C111.211 4.51257 110.874 4.79192 110.48 4.95775C110.085 5.12358 109.65 5.16843 109.23 5.08659C108.81 5.00475 108.424 4.79992 108.12 4.4981C107.817 4.19628 107.61 3.81108 107.525 3.39141C107.441 2.97173 107.484 2.53649 107.647 2.14095C107.811 1.74541 108.088 1.40741 108.444 1.16984C108.8 0.932271 109.219 0.805858 109.647 0.806644C109.931 0.806642 110.212 0.862671 110.474 0.971517C110.736 1.08036 110.974 1.23988 111.174 1.44093C111.375 1.64198 111.533 1.88059 111.641 2.14308C111.749 2.40557 111.804 2.68678 111.803 2.97057V2.95042Z" fill="#231F20"/>
<path d="M109.647 5.89551C109.063 5.89631 108.492 5.72389 108.007 5.40008C107.521 5.07626 107.142 4.61562 106.919 4.07647C106.695 3.53732 106.636 2.9439 106.75 2.37133C106.863 1.79877 107.144 1.27281 107.557 0.860045C107.97 0.447278 108.496 0.166263 109.068 0.0525767C109.641 -0.06111 110.234 -0.00235635 110.774 0.2214C111.313 0.445155 111.773 0.823852 112.097 1.30955C112.421 1.79524 112.593 2.36609 112.593 2.94983C112.592 3.73075 112.281 4.47937 111.729 5.03156C111.177 5.58376 110.428 5.89445 109.647 5.89551ZM109.647 1.57572C109.375 1.57492 109.109 1.65483 108.882 1.80534C108.656 1.95584 108.479 2.17017 108.375 2.42118C108.27 2.6722 108.242 2.94861 108.295 3.21543C108.347 3.48225 108.478 3.72747 108.67 3.92004C108.862 4.11262 109.107 4.24389 109.373 4.29724C109.64 4.35059 109.917 4.32361 110.168 4.21973C110.419 4.11584 110.634 3.93972 110.785 3.71367C110.936 3.48761 111.017 3.22178 111.017 2.94983C111.017 2.58609 110.873 2.23719 110.616 1.97961C110.359 1.72203 110.011 1.57678 109.647 1.57572Z" fill="black"/>
<path d="M62.7781 10.2638H65.3853V13.7857C66.1258 12.6572 67.085 11.6885 68.206 10.9368C69.474 10.1825 70.9215 9.78309 72.3969 9.78027C73.3676 9.77629 74.3284 9.97531 75.2176 10.3646C76.0415 10.7132 76.7768 11.2419 77.3695 11.912C78.0314 12.7306 78.5294 13.6692 78.8363 14.6763C79.593 13.1995 80.7171 11.9422 82.1003 11.0254C83.3538 10.2113 84.8167 9.77876 86.3113 9.78027C87.6285 9.7577 88.9224 10.1296 90.0266 10.8481C91.1104 11.5732 91.9447 12.6143 92.4162 13.8301C92.9401 15.1034 93.202 17.0135 93.202 19.5602V30.6902H90.5988V19.5562C90.5988 17.3681 90.4417 15.8691 90.1314 15.047C89.8201 14.2318 89.2551 13.5381 88.5195 13.0685C87.7167 12.5599 86.7819 12.2993 85.8318 12.3189C84.5772 12.3121 83.3532 12.706 82.338 13.4432C81.2843 14.1885 80.4786 15.2329 80.025 16.4413C79.5374 17.6945 79.2957 19.7778 79.2957 22.7074V30.6902H76.6885V20.2493C76.6885 17.7832 76.5353 16.1149 76.2251 15.2324C75.9333 14.3701 75.3672 13.627 74.6132 13.1168C73.8115 12.5706 72.859 12.2888 71.8891 12.3109C70.6744 12.3236 69.4928 12.709 68.5042 13.415C67.4466 14.1459 66.6291 15.1737 66.1549 16.3688C65.6472 17.6018 65.3974 19.4998 65.3974 22.0506V30.6902H62.7902V10.2638H62.7781Z" fill="#F58220"/>
<path d="M93.9998 31.4803H89.821V19.5566C89.821 16.9655 89.5953 15.8251 89.418 15.3295C89.1705 14.6652 88.7137 14.0995 88.1165 13.7176C87.4319 13.2931 86.6367 13.0814 85.8316 13.1091C84.7397 13.107 83.6759 13.456 82.7973 14.1044C81.872 14.7644 81.1637 15.6845 80.7623 16.7479C80.311 17.9044 80.0854 19.9152 80.0854 22.7279V31.4803H75.9026V20.2497C75.9026 17.308 75.6769 16.0387 75.4996 15.4947C75.2626 14.7892 74.8012 14.1806 74.1859 13.7619C73.5156 13.3112 72.7205 13.0828 71.9132 13.1091C70.8504 13.1099 69.8145 13.4439 68.9514 14.0641C68.0189 14.7068 67.3014 15.6153 66.8923 16.6713C66.4288 17.7956 66.1911 19.609 66.1911 22.0509V31.4803H61.9922V9.47839H66.1709V11.5859C66.6546 11.0849 67.1956 10.6426 67.7828 10.2682C69.1765 9.43933 70.7671 8.99958 72.3887 8.99483C73.4661 8.99118 74.5325 9.21214 75.5198 9.64361C76.4574 10.0372 77.2957 10.6346 77.9738 11.3925C78.3746 11.8703 78.7131 12.397 78.9812 12.96C79.7042 11.9308 80.618 11.0498 81.673 10.3649C83.0542 9.46952 84.6652 8.99363 86.3112 8.99483C87.7831 8.97467 89.2273 9.39572 90.4577 10.2037C91.674 11.0164 92.612 12.1823 93.1455 13.5443C93.7137 14.9225 93.9877 16.897 93.9877 19.5888L93.9998 31.4803ZM91.3966 29.9047H92.4242V19.5606C92.4242 17.1428 92.1824 15.3012 91.7029 14.1286C91.2897 13.0578 90.5548 12.1413 89.5994 11.5053C88.6252 10.8736 87.4841 10.548 86.3233 10.5704C84.9774 10.564 83.6591 10.952 82.5314 11.6866C81.2652 12.5345 80.2361 13.6912 79.5414 15.0474L78.6871 16.6189L78.1028 14.9265C77.8286 14.0174 77.3827 13.1693 76.7891 12.4281C76.2662 11.8419 75.6173 11.3818 74.8911 11.0822C74.1016 10.7391 73.2495 10.5635 72.3887 10.5664C71.0525 10.5705 69.7419 10.9322 68.5928 11.6141C67.5758 12.3117 66.7052 13.2015 66.0299 14.2334L64.5953 16.2724V11.0338H63.5678V29.9047H64.5953V22.0509C64.5953 19.3631 64.8653 17.4088 65.4013 16.0709C65.9356 14.7365 66.8507 13.5887 68.0326 12.7706C69.1596 11.9702 70.5067 11.538 71.889 11.5335C73.0257 11.5115 74.1407 11.847 75.0765 12.4926C75.9556 13.0967 76.618 13.9667 76.9664 14.9748C77.3049 15.95 77.4701 17.6747 77.4701 20.2497V29.9209H78.5017V22.7078C78.5017 19.6573 78.7596 17.5135 79.2875 16.1555C79.7971 14.8055 80.6979 13.6382 81.8745 12.8029C83.0262 11.9721 84.4116 11.5277 85.8316 11.5335C86.9399 11.5107 88.0303 11.8148 88.9667 12.408C89.839 12.9702 90.5072 13.7981 90.8727 14.7693C91.2233 15.6841 91.3926 17.2516 91.3926 19.5566L91.3966 29.9047Z" fill="#F58220"/>
<path d="M108.495 10.2637H111.098V30.69H108.495V10.2637Z" fill="#F58220"/>
<path d="M111.888 31.4785H107.705V9.47656H111.888V31.4785ZM109.28 29.9029H110.312V11.0481H109.28V29.9029Z" fill="#F58220"/>
<path d="M125.471 10.2648H128.083V13.2387C128.748 12.2089 129.613 11.3225 130.625 10.6315C131.455 10.0861 132.425 9.79099 133.418 9.78125C134.245 9.81032 135.051 10.0503 135.759 10.4784L134.385 12.6745C133.948 12.4652 133.474 12.3447 132.991 12.3199C132.036 12.3489 131.126 12.7341 130.44 13.3999C129.634 14.1172 129.012 15.232 128.574 16.7445C128.249 17.905 128.085 20.2557 128.083 23.7964V30.6912H125.471V10.2648Z" fill="#F58220"/>
<path d="M128.868 31.4796H124.686V9.4777H128.868V11.0493C129.273 10.6414 129.72 10.278 130.202 9.96529C131.162 9.33992 132.281 9.00288 133.426 8.99414C134.388 9.02603 135.326 9.30347 136.15 9.80007L136.875 10.203L134.703 13.6847L134.079 13.4147C133.742 13.2457 133.375 13.147 132.999 13.1245C132.242 13.158 131.524 13.471 130.984 14.003C130.283 14.6195 129.735 15.6149 129.372 16.9729C129.066 18.0609 128.909 20.3618 128.909 23.8233L128.868 31.4796ZM126.261 29.904H127.293V23.7951C127.293 20.1684 127.466 17.7748 127.817 16.5417C128.28 14.8895 128.989 13.6363 129.924 12.8183C130.747 12.0247 131.836 11.5663 132.979 11.5328C133.342 11.5395 133.702 11.6006 134.047 11.7142L134.611 10.8115C134.226 10.6585 133.816 10.5765 133.402 10.5697C132.564 10.5755 131.745 10.8232 131.044 11.283C130.119 11.9259 129.333 12.7481 128.731 13.7008L127.293 15.7922V11.0493H126.261V29.904Z" fill="#F58220"/>
<path d="M147.619 10.2637L150.23 10.2959V19.7978C150.23 22.123 150.351 23.7227 150.605 24.5931C150.956 25.8048 151.728 26.8518 152.781 27.5469C153.914 28.2916 155.249 28.67 156.605 28.6309C157.942 28.6739 159.26 28.3053 160.38 27.5751C161.381 26.9114 162.131 25.9329 162.512 24.7946C162.781 24.0129 162.915 22.3473 162.915 19.7978V10.2959L165.522 10.2637V20.2693C165.522 23.074 165.193 25.1895 164.535 26.616C163.909 28.0064 162.873 29.1721 161.565 29.9566C160.243 30.7625 158.586 31.1655 156.593 31.1655C154.85 31.2318 153.123 30.8134 151.604 29.9566C150.282 29.1737 149.236 27.9993 148.61 26.5959C147.954 25.1533 147.624 22.9826 147.619 20.084V10.2637Z" fill="#F58220"/>
<path d="M156.584 31.9604C154.696 32.0218 152.828 31.5617 151.185 30.6306C149.729 29.7633 148.578 28.4669 147.888 26.9193C147.175 25.3477 146.829 23.1112 146.829 20.0688V9.4668L151.011 9.51918V19.7988C151.011 22.0434 151.128 23.5827 151.358 24.3725C151.657 25.4087 152.316 26.3045 153.216 26.8991C154.22 27.554 155.402 27.8845 156.601 27.8461C157.776 27.8854 158.936 27.5649 159.925 26.9273C160.787 26.3631 161.434 25.5238 161.758 24.5458C161.924 24.0622 162.117 22.8453 162.117 19.7988V9.51918L166.296 9.4668V20.2703C166.296 23.216 165.949 25.4001 165.236 26.9475C164.545 28.4769 163.405 29.7601 161.968 30.6265C160.332 31.5611 158.468 32.0229 156.584 31.9604ZM148.408 11.0625V20.0809C148.408 22.8453 148.714 24.9165 149.327 26.2664C149.881 27.5276 150.817 28.5833 152.003 29.2847C153.401 30.0637 154.985 30.4442 156.584 30.3848C158.177 30.4471 159.756 30.0678 161.146 29.2887C162.318 28.5818 163.247 27.5346 163.81 26.2866C164.418 24.9689 164.728 22.946 164.728 20.2703V11.0625H163.697V19.7988C163.697 22.4544 163.552 24.171 163.253 25.0374C162.817 26.3368 161.959 27.4531 160.816 28.2087C159.569 29.0347 158.099 29.4568 156.605 29.4176C155.087 29.461 153.592 29.0392 152.321 28.2087C151.121 27.4105 150.241 26.2148 149.835 24.8319C149.557 23.8769 149.432 22.2368 149.432 19.8069V11.0746L148.408 11.0625Z" fill="#F58220"/>
<path d="M191.57 12.4927L189.878 14.2375C188.481 12.8674 187.11 12.1824 185.767 12.1824C184.954 12.1688 184.168 12.4723 183.575 13.0286C183.289 13.2738 183.059 13.5779 182.901 13.9201C182.743 14.2622 182.661 14.6344 182.66 15.0112C182.67 15.7183 182.935 16.3982 183.406 16.9253C183.906 17.5432 184.956 18.2658 186.557 19.0933C188.507 20.1128 189.833 21.1081 190.534 22.0188C191.216 22.9425 191.579 24.0624 191.57 25.2103C191.581 25.999 191.43 26.7815 191.125 27.5089C190.819 28.2362 190.367 28.8928 189.797 29.4374C189.222 30.0089 188.537 30.4576 187.783 30.7562C187.03 31.0548 186.223 31.197 185.413 31.1742C184.254 31.1754 183.11 30.9222 182.06 30.4327C181.033 29.9641 180.13 29.2633 179.421 28.3857L181.073 26.5078C182.416 28.0203 183.829 28.7765 185.312 28.7765C186.302 28.796 187.26 28.4288 187.984 27.753C188.331 27.4535 188.609 27.0822 188.799 26.6648C188.989 26.2474 189.086 25.7938 189.084 25.3352C189.089 24.598 188.83 23.8833 188.354 23.3204C187.867 22.7441 186.771 22.0107 185.054 21.1323C183.216 20.1813 181.967 19.241 181.306 18.3115C180.641 17.3927 180.292 16.2826 180.311 15.1482C180.292 14.431 180.423 13.7178 180.695 13.0538C180.967 12.3899 181.374 11.7899 181.891 11.2918C182.423 10.7829 183.051 10.3851 183.739 10.1215C184.427 9.85789 185.16 9.73383 185.896 9.75655C187.777 9.75655 189.657 10.6605 191.538 12.4685L191.57 12.4927Z" fill="#F58220"/>
<path d="M185.425 31.9593C184.153 31.9595 182.897 31.6846 181.742 31.1534C180.606 30.6328 179.606 29.8563 178.82 28.8847L178.417 28.3689L181.101 25.3185L181.693 25.9914C182.878 27.3373 184.071 28.0063 185.32 28.0063C186.111 28.0282 186.879 27.7388 187.46 27.2003C187.722 26.9755 187.934 26.697 188.08 26.3835C188.226 26.07 188.303 25.7288 188.306 25.3829C188.312 24.8264 188.116 24.2867 187.754 23.8638C187.472 23.5253 186.702 22.8966 184.703 21.8731C182.705 20.8496 181.415 19.8583 180.674 18.8227C179.913 17.7679 179.513 16.4961 179.533 15.196C179.512 14.3719 179.663 13.5524 179.975 12.7894C180.287 12.0264 180.754 11.3365 181.347 10.7633C181.952 10.1833 182.667 9.72923 183.449 9.42762C184.232 9.12601 185.066 8.98284 185.904 9.00641C187.975 9.00641 190.063 9.99367 192.106 11.936L192.686 12.4921L189.894 15.3733L189.329 14.8212C188.084 13.6123 186.883 12.9917 185.759 12.9917C185.144 12.9774 184.547 13.2061 184.099 13.6284C183.893 13.7997 183.727 14.014 183.613 14.2563C183.499 14.4986 183.439 14.7629 183.438 15.0307C183.455 15.5505 183.658 16.0468 184.01 16.429C184.313 16.8038 185.058 17.4405 186.916 18.4036C188.995 19.4876 190.385 20.5191 191.163 21.5548C191.95 22.6134 192.374 23.8983 192.372 25.2177C192.384 26.1133 192.212 27.0018 191.865 27.8276C191.518 28.6534 191.005 29.3988 190.357 30.017C189.708 30.6569 188.937 31.1589 188.089 31.4927C187.242 31.8265 186.335 31.9852 185.425 31.9593ZM180.484 28.381C181.039 28.937 181.689 29.39 182.402 29.7189C183.349 30.1596 184.381 30.3866 185.425 30.3837C186.132 30.4089 186.837 30.288 187.496 30.0287C188.154 29.7695 188.752 29.3773 189.253 28.8767C189.749 28.4033 190.141 27.8316 190.404 27.1982C190.667 26.5647 190.795 25.8833 190.78 25.1976C190.79 24.2165 190.48 23.2588 189.898 22.4695C189.277 21.6636 188.028 20.7367 186.19 19.7777C184.482 18.8952 183.37 18.1175 182.793 17.4082C182.203 16.7401 181.873 15.882 181.862 14.9905C181.864 14.5053 181.969 14.026 182.17 13.5847C182.372 13.1434 182.665 12.7503 183.031 12.4316C183.775 11.746 184.756 11.3748 185.767 11.396C187.121 11.396 188.495 11.9843 189.853 13.1408L190.442 12.5324C188.902 11.2308 187.383 10.5699 185.916 10.5699C185.282 10.5451 184.648 10.6483 184.054 10.8733C183.46 11.0983 182.918 11.4405 182.459 11.8796C182.017 12.3039 181.67 12.8162 181.439 13.3833C181.207 13.9504 181.098 14.5597 181.117 15.1718C181.097 16.1419 181.396 17.0917 181.967 17.8757C182.552 18.6816 183.716 19.5561 185.437 20.4426C187.25 21.3734 188.411 22.1552 188.975 22.8241C189.574 23.5308 189.899 24.4285 189.894 25.3547C189.894 25.9184 189.773 26.4756 189.539 26.9886C189.306 27.5016 188.965 27.9586 188.54 28.3286C187.667 29.1438 186.51 29.5862 185.316 29.5617C183.829 29.5617 182.415 28.929 181.101 27.6718L180.484 28.381Z" fill="#F58220"/>
<path d="M8.55094 18.0371C8.696 17.6341 9.48179 15.5105 10.876 15.6193C12.2703 15.7281 13.0279 17.5132 13.1004 17.6986L19.1892 31.4317C19.568 32.4633 20.2047 33.4908 20.4989 33.5553C20.7326 33.5553 21.3693 32.7494 21.7843 31.75L31.0525 12.5568C31.1533 12.323 32.1647 10.1108 34.643 10.006C37.1212 9.90121 38.31 12.1377 38.4429 12.4238L53.1311 35.5661C53.3706 34.1102 53.4919 32.6372 53.4937 31.1617C53.4938 27.3345 52.6726 23.5519 51.0856 20.0692C49.4987 16.5866 47.1828 13.485 44.2945 10.974C41.4062 8.46307 38.0127 6.60114 34.3431 5.51399C30.6736 4.42684 26.8135 4.13979 23.0235 4.67223C19.2336 5.20467 15.602 6.5442 12.374 8.60036C9.14609 10.6565 6.39696 13.3814 4.31231 16.591C2.22767 19.8006 0.856043 23.4202 0.290074 27.2053C-0.275895 30.9904 -0.0230291 34.8529 1.0316 38.5319L8.55094 18.0371Z" fill="#F58220"/>
<path d="M34.6551 24.9446C34.4999 24.6611 34.3206 24.3915 34.1191 24.1387C33.872 24.3251 33.6651 24.5595 33.5107 24.8277L23.5856 41.2849C23.3479 41.6878 22.0947 43.7027 20.7649 43.7027C19.4351 43.7027 18.5042 41.7886 18.3148 41.3493C18.2221 41.168 10.8076 26.6008 10.7995 26.5806C10.7236 26.4193 10.6245 26.27 10.5054 26.1374C10.4228 26.2284 10.3573 26.3335 10.3119 26.4477L3.19958 43.8638C5.35715 47.8641 8.49839 51.2485 12.3269 53.6979C16.1554 56.1473 20.5448 57.5807 25.081 57.863C29.6172 58.1453 34.1505 57.2671 38.2531 55.3112C42.3558 53.3554 45.8924 50.3865 48.5292 46.6846L34.6551 24.9446Z" fill="#F58220"/>
<path d="M200 7.43977C200.011 7.84629 199.901 8.24687 199.683 8.59005C199.464 8.93324 199.148 9.20333 198.776 9.36563C198.403 9.52794 197.99 9.57503 197.59 9.50086C197.19 9.4267 196.822 9.23466 196.532 8.94943C196.242 8.6642 196.044 8.2988 195.963 7.9002C195.883 7.50159 195.923 7.08799 196.079 6.71254C196.236 6.33709 196.501 6.01695 196.84 5.79325C197.18 5.56955 197.579 5.45251 197.985 5.45718C198.248 5.45398 198.509 5.50285 198.753 5.60095C198.996 5.69906 199.218 5.84446 199.406 6.02877C199.593 6.21309 199.742 6.43266 199.844 6.67484C199.946 6.91701 199.999 7.17699 200 7.43977ZM196.434 7.43977C196.427 7.64644 196.463 7.8523 196.538 8.045C196.613 8.2377 196.726 8.41326 196.87 8.56115C197.015 8.70905 197.188 8.82623 197.379 8.90567C197.569 8.9851 197.774 9.02516 197.981 9.02343C198.185 9.02247 198.386 8.98071 198.572 8.90063C198.759 8.82055 198.928 8.70377 199.069 8.55722C199.21 8.41067 199.32 8.23732 199.393 8.04745C199.466 7.85758 199.499 7.65505 199.492 7.45186C199.503 7.24443 199.471 7.037 199.399 6.8422C199.327 6.64739 199.216 6.46928 199.073 6.31869C198.93 6.1681 198.758 6.04819 198.567 5.96626C198.376 5.88432 198.171 5.84206 197.963 5.84206C197.755 5.84206 197.55 5.88432 197.359 5.96626C197.168 6.04819 196.996 6.1681 196.853 6.31869C196.71 6.46928 196.599 6.64739 196.527 6.8422C196.455 7.037 196.423 7.24443 196.434 7.45186V7.43977ZM197.643 8.47942H197.183V6.49683C197.435 6.45261 197.69 6.43237 197.945 6.43639C198.184 6.41697 198.423 6.46737 198.634 6.58145C198.697 6.63477 198.747 6.70159 198.78 6.77695C198.814 6.8523 198.83 6.93424 198.827 7.01666C198.819 7.12659 198.776 7.23088 198.703 7.31376C198.63 7.39663 198.532 7.45359 198.424 7.47604V7.50022C198.523 7.5401 198.609 7.60623 198.673 7.69145C198.737 7.77668 198.777 7.87777 198.787 7.98377C198.807 8.15607 198.856 8.32373 198.932 8.47942H198.437C198.36 8.32705 198.307 8.16403 198.279 7.99586C198.243 7.77826 198.122 7.68155 197.876 7.68155H197.659L197.643 8.47942ZM197.643 7.35515H197.86C198.114 7.35515 198.32 7.27053 198.32 7.06501C198.32 6.8595 198.187 6.76279 197.917 6.76279C197.831 6.76098 197.746 6.76909 197.663 6.78697L197.643 7.35515Z" fill="#231F20"/>
</g>
<defs>
<clipPath id="clip0">
<rect width="200" height="57.9183" fill="white"/>
</clipPath>
</defs>
</svg>
