<svg width="300" height="92" viewBox="0 0 300 92" fill="none" xmlns="http://www.w3.org/2000/svg">
<g clip-path="url(#clip0)">
<path d="M57.698 58.2207C56.2907 63.6559 54.9087 69.2766 53.552 74.9983C59.6192 78.9167 65.5685 82.7762 71.4925 86.0879C66.9589 77.4926 62.4085 68.021 57.698 58.2207Z" fill="#F57F29"/>
<path d="M57.6978 58.2207C63.1246 62.0886 68.4166 66.007 73.6411 69.6389C72.9333 74.9393 72.2086 80.4336 71.4923 86.0879C66.9587 77.4926 62.4083 68.021 57.6978 58.2207Z" fill="#E0601F"/>
<path d="M57.6979 58.2207C56.2906 63.6559 54.9087 69.2766 53.552 74.9983C47.4931 71.0799 41.3079 67.1109 35.0974 63.5717C42.4677 61.1581 50.0278 59.3682 57.6979 58.2207Z" fill="#E0601F"/>
<path d="M57.6979 58.2209C52.2458 54.3531 46.7347 50.561 41.1309 47.0977C39.0664 52.516 37.0524 58.0524 35.0974 63.5719C42.4677 61.1584 50.0278 59.3684 57.6979 58.2209Z" fill="#FDB515"/>
<path d="M63.8746 35.9316C62.9476 39.0411 62.0207 42.2685 61.0938 45.5887C65.956 49.4902 70.6834 53.5014 75.2928 57.3861C71.5429 50.6447 67.7677 43.423 63.8746 35.9653V35.9316Z" fill="#F57F29"/>
<path d="M63.8748 35.9316C68.2567 39.8753 72.47 43.9455 76.5738 47.9566C76.1581 50.9902 75.7312 54.1221 75.293 57.3524C71.5431 50.611 67.7679 43.3893 63.8748 35.9316Z" fill="#E0601F"/>
<path d="M57.6979 58.2202C58.8186 53.8888 59.9562 49.667 61.0686 45.5801C65.9308 49.4817 70.6582 53.4928 75.2676 57.3775C69.3892 57.0724 63.495 57.3547 57.6726 58.2202H57.6979Z" fill="#FDB515"/>
<path d="M57.6978 58.2193C63.1246 62.0872 68.4166 66.0056 73.6411 69.6375C74.2029 65.4073 74.7647 61.3119 75.3265 57.3513C69.448 57.0463 63.5538 57.3285 57.7315 58.194L57.6978 58.2193Z" fill="#F57F29"/>
<path d="M63.8748 35.9314C64.6416 33.3444 65.4084 30.8754 66.1584 28.4316C70.1105 32.4091 73.911 36.5129 77.5682 40.6083C73.2076 38.5062 68.6102 36.936 63.8748 35.9314Z" fill="#B3B2B1"/>
<path d="M63.8748 35.9316C68.2567 39.8753 72.47 43.9455 76.5738 47.9566C76.9193 45.4286 77.2564 42.9848 77.5682 40.6085C73.2076 38.5064 68.6102 36.9362 63.8748 35.9316Z" fill="#8B8B8E"/>
<path d="M63.8747 35.9306C64.6415 33.3436 65.4084 30.8745 66.1583 28.4308C62.2146 24.4365 58.1445 20.6192 53.9312 17.0547C57.3018 23.3916 60.6725 29.7369 63.8915 35.9306H63.8747Z" fill="#8B8B8E"/>
<path d="M63.8746 35.9319C59.5011 31.9882 54.9844 28.1625 50.3918 24.6485C51.5716 22.0362 52.7598 19.4914 53.9395 17.0645C57.3102 23.4014 60.6809 29.7467 63.8999 35.9403L63.8746 35.9319Z" fill="#D2D0CE"/>
<path d="M24.3448 38.2734C21.7073 43.7677 19.1708 49.304 16.6765 54.714C23.0433 57.17 29.2032 60.1316 35.0973 63.5705C31.5497 54.8994 27.943 46.4052 24.3448 38.2903V38.2734Z" fill="#E0601F"/>
<path d="M24.3447 38.2734C30.1507 40.795 35.7614 43.744 41.1308 47.0962C39.0662 52.5146 37.0522 58.051 35.0972 63.5705C31.5496 54.8994 27.9429 46.4052 24.3447 38.2903V38.2734Z" fill="#F57F29"/>
<path d="M24.3448 38.2734C21.7073 43.7677 19.1708 49.304 16.6765 54.714C10.7019 52.4978 4.9802 51.1748 0 51.1916C7.27216 45.4567 15.5191 41.0806 24.3448 38.2734Z" fill="#E09E14"/>
<path d="M24.3448 38.2743C19.2879 36.0374 13.9496 34.5008 8.47729 33.707C5.52794 39.6057 2.73026 45.5045 0 51.1925C7.27216 45.4576 15.5191 41.0815 24.3448 38.2743Z" fill="#FFD600"/>
<path d="M36.3108 15.168C34.4317 18.4375 32.5946 21.8335 30.7913 25.28C26.0226 22.8468 20.9972 20.9531 15.8086 19.6341C22.3175 16.9215 29.2634 15.4085 36.3108 15.168Z" fill="#FFD600"/>
<path d="M36.3108 15.1679C31.8432 12.5467 27.1403 10.349 22.2635 8.60352C20.0388 12.1764 17.89 15.8758 15.8086 19.6425C22.317 16.927 29.2629 15.4111 36.3108 15.1679Z" fill="#F2B411"/>
<path d="M24.3449 38.2742C26.4347 33.9007 28.5582 29.5525 30.7913 25.3139C26.0226 22.8807 20.9972 20.987 15.8086 19.668C18.6147 25.5667 21.4714 31.8025 24.3449 38.2742Z" fill="#F2B411"/>
<path d="M24.3448 38.2736C19.288 36.0367 13.9496 34.5001 8.47729 33.7063C10.8199 29.0042 13.2637 24.2852 15.8085 19.6758C18.6146 25.5745 21.4713 31.8103 24.3448 38.282V38.2736Z" fill="#E09E14"/>
<path d="M36.3108 15.1687C37.8613 12.4553 39.4455 9.8177 41.0382 7.28125C45.5243 10.2832 49.8295 13.5472 53.9311 17.0563C48.177 15.5941 42.244 14.9585 36.3108 15.1687Z" fill="#8B8B8E"/>
<path d="M36.3108 15.1685C41.1907 18.03 45.8852 21.1963 50.3666 24.6486C51.5463 22.0363 52.7345 19.4914 53.9142 17.0645C48.166 15.6011 42.2388 14.9627 36.3108 15.1685Z" fill="#B3B2B1"/>
<path d="M36.3107 15.1681C37.8613 12.4547 39.4455 9.81714 41.0381 7.28069C36.8764 4.50012 32.4939 2.06509 27.9346 0C30.7407 4.8875 33.5383 9.97725 36.3107 15.1681Z" fill="#F2B411"/>
<path d="M36.3108 15.168C31.8432 12.5467 27.1403 10.349 22.2634 8.60358C24.1005 5.62613 25.9909 2.74981 27.9346 -0.0253906C30.7407 4.86211 33.5384 9.95186 36.3108 15.1427V15.168Z" fill="#E09E14"/>
<path d="M109.025 57.8753C101.483 57.8753 96.2248 63.9004 96.2248 71.3581C96.2248 78.8158 101.593 84.9167 109.126 84.9167C116.66 84.9167 121.926 78.9 121.926 71.4339C121.926 63.9679 116.559 57.8753 109.025 57.8753ZM109.025 91.0092C97.3624 91.0092 89.2306 82.1696 89.2306 71.4339C89.1994 68.8224 89.6943 66.2313 90.6858 63.8151C91.6773 61.3988 93.145 59.2069 95.0016 57.37C96.8582 55.5331 99.0656 54.0888 101.492 53.1231C103.919 52.1574 106.515 51.6901 109.126 51.7491C120.789 51.7491 128.921 60.5887 128.921 71.3244C128.952 73.9359 128.457 76.527 127.465 78.9433C126.474 81.3595 125.006 83.5514 123.15 85.3883C121.293 87.2252 119.086 88.6696 116.659 89.6353C114.232 90.601 111.636 91.0682 109.025 91.0092Z" fill="#55565A"/>
<path d="M149.532 58.473H141.771V72.1327H149.532C154.588 72.1327 157.723 69.3687 157.723 65.3071C157.723 60.8072 154.521 58.473 149.532 58.473ZM149.313 78.1578H141.771V90.3597H135.106V52.4395H150.072C158.911 52.4395 164.498 57.4281 164.498 65.1891C164.498 73.7506 157.664 78.2 149.33 78.2L149.313 78.1578Z" fill="#55565A"/>
<path d="M186.298 90.3589H179.574V58.5817H167.532V52.3965H198.34V58.5817H186.298V90.3589Z" fill="#55565A"/>
<path d="M236.732 73.9268C236.732 85.2607 230.328 90.9572 220.41 90.9572C210.491 90.9572 204.247 85.2607 204.247 74.2554V52.3965H210.921V73.9773C210.921 81.0305 214.553 84.8225 220.519 84.8225C226.485 84.8225 230.05 81.2496 230.05 74.2554V52.3965H236.724V73.9268H236.732Z" fill="#55565A"/>
<path d="M262.653 81.0305H262.434L250.56 63.2417V90.3589H243.996V52.3965H251.1L262.653 70.3454L274.197 52.3965H281.301V90.3589H274.635V63.1321L262.653 81.0305Z" fill="#55565A"/>
<path d="M294.632 56.7709C295.475 56.7709 295.913 56.3496 295.913 55.726C295.913 55.1024 295.424 54.7148 294.632 54.7148H293.099V56.7709H294.632ZM292.18 53.9311H294.708C295.888 53.9311 296.84 54.5463 296.84 55.6923C296.842 56.101 296.702 56.4976 296.444 56.8143C296.185 57.131 295.825 57.3481 295.424 57.4282L297.034 59.6529H295.888L294.447 57.563H293.073V59.6529H292.155V53.9311H292.18ZM299.351 56.9058C299.351 55.5648 298.819 54.2788 297.87 53.3306C296.922 52.3824 295.636 51.8497 294.295 51.8497C292.954 51.8497 291.668 52.3824 290.72 53.3306C289.772 54.2788 289.239 55.5648 289.239 56.9058C289.232 57.5716 289.359 58.2321 289.61 58.8486C289.862 59.4651 290.234 60.0251 290.705 60.496C291.176 60.9668 291.736 61.339 292.352 61.5907C292.969 61.8424 293.629 61.9686 294.295 61.9618C294.963 61.9618 295.625 61.8294 296.242 61.5721C296.859 61.3149 297.418 60.938 297.888 60.4631C298.359 59.9882 298.73 59.4249 298.981 58.8056C299.232 58.1863 299.358 57.5234 299.351 56.8552V56.9058ZM288.616 56.9058C288.586 56.1398 288.711 55.3758 288.984 54.6595C289.257 53.9431 289.672 53.2892 290.203 52.7369C290.735 52.1846 291.372 51.7452 292.077 51.4451C292.783 51.1449 293.541 50.9902 294.308 50.9902C295.074 50.9902 295.833 51.1449 296.538 51.4451C297.244 51.7452 297.881 52.1846 298.413 52.7369C298.944 53.2892 299.359 53.9431 299.631 54.6595C299.904 55.3758 300.03 56.1398 300 56.9058C300.03 57.6717 299.904 58.4357 299.631 59.152C299.359 59.8684 298.944 60.5223 298.413 61.0746C297.881 61.6269 297.244 62.0663 296.538 62.3665C295.833 62.6666 295.074 62.8213 294.308 62.8213C293.541 62.8213 292.783 62.6666 292.077 62.3665C291.372 62.0663 290.735 61.6269 290.203 61.0746C289.672 60.5223 289.257 59.8684 288.984 59.152C288.711 58.4357 288.586 57.6717 288.616 56.9058Z" fill="#55565A"/>
</g>
<defs>
<clipPath id="clip0">
<rect width="300" height="91.0087" fill="white"/>
</clipPath>
</defs>
</svg>
