<svg width="100" height="26" viewBox="0 0 100 26" fill="none" xmlns="http://www.w3.org/2000/svg">
<g clip-path="url(#clip0)">
<path d="M46.8375 11.9403C46.2767 11.9374 45.7196 12.0311 45.1906 12.2172C44.6877 12.3932 44.2265 12.6709 43.8357 13.0331C43.441 13.4111 43.1284 13.8664 42.9175 14.3706C42.6732 14.9645 42.5542 15.6024 42.5682 16.2445C42.5682 17.68 42.9791 18.7563 43.8008 19.4733C44.6304 20.1917 45.6979 20.5751 46.795 20.5487C47.4064 20.5572 48.0155 20.4731 48.6016 20.2992C49.0631 20.1546 49.5149 19.9804 49.954 19.7777C50.3713 20.0541 50.7265 20.4144 50.997 20.8356C51.2394 21.2516 51.362 21.7266 51.3513 22.208C51.3513 23.1595 50.8996 23.8947 49.9964 24.4137C49.0931 24.9327 47.8455 25.1931 46.2536 25.1947C44.9072 25.2127 43.568 24.9957 42.2962 24.5535C41.1738 24.1595 40.1414 23.5453 39.2595 22.747C38.4103 21.972 37.7394 21.0219 37.2933 19.9623C36.819 18.8194 36.583 17.5916 36.5997 16.3543C36.5705 14.9804 36.8253 13.6153 37.3482 12.3445C37.802 11.2595 38.4966 10.292 39.3793 9.51492C40.2476 8.76823 41.2563 8.20241 42.3461 7.85062C43.4967 7.47268 44.7007 7.28309 45.9117 7.28921C47.5752 7.28921 48.8594 7.59029 49.7643 8.19247C50.6693 8.79464 51.1201 9.56982 51.1167 10.518C51.1198 10.9488 51.0124 11.3732 50.8048 11.7506C50.6117 12.1169 50.3663 12.4532 50.0762 12.7487C49.6144 12.5383 49.1393 12.3582 48.654 12.2097C48.0656 12.0284 47.4531 11.9376 46.8375 11.9403Z" fill="#5F45BA"/>
<path d="M30.5836 24.6442C30.2245 24.7393 29.8594 24.8093 29.4907 24.8538C28.9788 24.9229 28.4627 24.9563 27.9461 24.9537C27.4865 24.9577 27.0274 24.9226 26.5738 24.8489C26.2045 24.7932 25.8538 24.6504 25.5507 24.4322C25.2636 24.2116 25.0412 23.9176 24.907 23.5813C24.742 23.1319 24.6658 22.6549 24.6824 22.1765V11.769C24.669 11.2946 24.77 10.8239 24.9768 10.3967C25.1862 10.0002 25.476 9.65172 25.8277 9.37364C26.2471 9.0422 26.7086 8.76783 27.2001 8.55771C27.7675 8.30494 28.351 8.08988 28.9467 7.91395C29.5861 7.72862 30.2371 7.58608 30.8955 7.48728C31.5616 7.38288 32.2348 7.33032 32.9091 7.33008C34.0203 7.33008 34.8994 7.54383 35.5465 7.97134C36.1936 8.39885 36.5171 9.09917 36.5171 10.0723C36.5176 10.3958 36.4713 10.7177 36.3799 11.028C36.2939 11.322 36.1777 11.6063 36.0331 11.8763C35.5465 11.8763 35.0475 11.9013 34.5359 11.9462C34.0244 11.9911 33.5379 12.0635 33.0388 12.1558C32.5398 12.2481 32.0956 12.3454 31.669 12.4502C31.2937 12.536 30.9277 12.658 30.5761 12.8145L30.5836 24.6442Z" fill="#5F45BA"/>
<path d="M70.4345 24.6444C70.0754 24.7394 69.7103 24.8094 69.3416 24.854C68.8298 24.9247 68.3137 24.9598 67.797 24.9588C67.3383 24.9627 66.88 24.9277 66.4272 24.854C66.057 24.7988 65.7054 24.6559 65.4016 24.4373C65.1147 24.217 64.8931 23.9229 64.7604 23.5864C64.5945 23.1373 64.5173 22.6602 64.5333 22.1816V14.474C64.5333 13.5258 64.2963 12.8604 63.8222 12.4778C63.3248 12.0884 62.7069 11.8854 62.0755 11.9039C61.6297 11.9024 61.1857 11.9611 60.7556 12.0786C60.4044 12.1681 60.0681 12.3085 59.7575 12.4953V24.6444C59.3985 24.7394 59.0333 24.8094 58.6646 24.854C58.1528 24.9247 57.6367 24.9598 57.1201 24.9588C56.6605 24.9627 56.2014 24.9277 55.7477 24.854C55.3784 24.7983 55.0278 24.6555 54.7247 24.4373C54.4378 24.217 54.2161 23.9229 54.0834 23.5864C53.9163 23.1376 53.8392 22.6602 53.8564 22.1816V2.05037C54.1059 2.00296 54.4876 1.94058 54.9842 1.85824C55.4796 1.78222 55.9802 1.74551 56.4813 1.74845C56.9408 1.74386 57.3999 1.77808 57.8537 1.85076C58.2247 1.89891 58.5788 2.03492 58.8867 2.24749C59.1736 2.46778 59.3952 2.76187 59.5279 3.09836C59.6953 3.54801 59.7724 4.02619 59.755 4.50565V7.91409C60.2039 7.75579 60.6612 7.62251 61.1249 7.51485C61.7905 7.35922 62.4724 7.28383 63.156 7.29029C65.4466 7.29029 67.234 7.86335 68.5182 9.00948C69.8023 10.1556 70.4444 11.8623 70.4444 14.1296L70.4345 24.6444Z" fill="#5F45BA"/>
<path d="M73.9401 3.12494C73.9302 2.71416 74.0036 2.30563 74.1558 1.92397C74.3081 1.54231 74.536 1.19543 74.8259 0.904211C75.4681 0.323491 76.303 0.00195313 77.1689 0.00195312C78.0347 0.00195312 78.8697 0.323491 79.5119 0.904211C79.8009 1.19589 80.0282 1.54292 80.1799 1.92451C80.3317 2.30609 80.4049 2.71439 80.3952 3.12494C80.4049 3.53548 80.3317 3.94378 80.1799 4.32537C80.0282 4.70695 79.8009 5.05398 79.5119 5.34566C78.8697 5.92638 78.0347 6.24792 77.1689 6.24792C76.303 6.24792 75.4681 5.92638 74.8259 5.34566C74.536 5.05445 74.3081 4.70756 74.1558 4.3259C74.0036 3.94424 73.9302 3.53572 73.9401 3.12494ZM80.1182 24.6435C79.8687 24.6909 79.4869 24.7533 78.9904 24.8356C78.4912 24.9164 77.9864 24.9573 77.4808 24.9579C77.0212 24.9618 76.5621 24.9267 76.1084 24.8531C75.7391 24.7975 75.3885 24.6546 75.0854 24.4364C74.7985 24.2161 74.5768 23.922 74.4441 23.5855C74.277 23.1367 74.1999 22.6594 74.2171 22.1808V8.05295C74.4666 8.00804 74.8483 7.94316 75.3449 7.86332C75.8429 7.77975 76.347 7.73719 76.852 7.73606C77.3116 7.73211 77.7707 7.76717 78.2243 7.84086C78.5942 7.89432 78.9454 8.03737 79.2474 8.25756C79.5348 8.47683 79.7573 8.77005 79.8911 9.10592C80.0563 9.55609 80.1325 10.034 80.1157 10.5132L80.1182 24.6435Z" fill="#5F45BA"/>
<path d="M82.611 16.2456C82.5804 14.8878 82.817 13.5373 83.3072 12.2707C83.7297 11.2077 84.3884 10.2546 85.2335 9.48358C86.066 8.73652 87.0474 8.17439 88.1129 7.83426C89.2629 7.46724 90.464 7.28531 91.6711 7.2953C92.1255 7.29547 92.5789 7.33639 93.026 7.41756C93.3937 7.47817 93.7541 7.57685 94.1014 7.71199V2.08532C94.4667 1.98752 94.8374 1.9117 95.2118 1.85826C95.7288 1.7811 96.251 1.74439 96.7737 1.74847C97.2324 1.74377 97.6907 1.77799 98.1436 1.85078C98.5118 1.90099 98.863 2.03688 99.1691 2.24751C99.4533 2.46651 99.6695 2.76152 99.7929 3.09837C99.9465 3.55109 100.017 4.0279 100 4.50567V20.9615C100 22.0494 99.491 22.9169 98.473 23.564C97.6622 24.0677 96.7867 24.4588 95.8705 24.7267C93.3353 25.4406 90.6468 25.3981 88.1354 24.6045C87.0105 24.2282 85.9805 23.6128 85.1162 22.8004C84.2898 22.0076 83.6498 21.0412 83.2423 19.9709C82.8014 18.7793 82.5873 17.5158 82.611 16.2456ZM92.4695 11.9064C91.2203 11.9064 90.2596 12.2649 89.5876 12.9818C88.9156 13.6988 88.5795 14.7867 88.5795 16.2456C88.5795 17.6811 88.8923 18.7624 89.5177 19.4893C90.1432 20.2163 91.0456 20.5806 92.225 20.5822C92.6095 20.587 92.9916 20.5219 93.3528 20.3901C93.637 20.295 93.9023 20.1506 94.1363 19.9634V12.3231C93.6293 12.0345 93.0528 11.8903 92.4695 11.9064Z" fill="#5F45BA"/>
<path d="M4.78327 8.47133C5.46679 8.47133 6.02089 7.91723 6.02089 7.23371C6.02089 6.55019 5.46679 5.99609 4.78327 5.99609C4.09975 5.99609 3.54565 6.55019 3.54565 7.23371C3.54565 7.91723 4.09975 8.47133 4.78327 8.47133Z" fill="#5F45BA"/>
<path d="M0.873319 7.74273C1.35564 7.74273 1.74664 7.35173 1.74664 6.86941C1.74664 6.38709 1.35564 5.99609 0.873319 5.99609C0.390998 5.99609 0 6.38709 0 6.86941C0 7.35173 0.390998 7.74273 0.873319 7.74273Z" fill="#5F45BA"/>
<path d="M19.6122 9.1617C18.761 8.19103 17.7258 7.39881 16.5664 6.83089C15.407 6.26296 14.1464 5.93061 12.8577 5.85307C12.2225 5.81363 11.585 5.83535 10.9539 5.91795C10.7368 5.93541 10.5247 5.96536 10.3226 6.00029L10.138 6.02524H10.1554C9.60325 6.13586 9.06393 6.30309 8.54603 6.52428C7.54795 7.02332 6.99651 7.81929 6.99651 8.7974C6.99717 9.44663 7.2552 10.0691 7.71403 10.5284C8.17287 10.9877 8.79508 11.2464 9.4443 11.2477C9.84036 11.1843 10.2296 11.084 10.6071 10.9483C11.7153 10.5658 12.9228 10.5858 14.0178 11.0046C15.1128 11.4235 16.0254 12.2144 16.5955 13.2389C17.156 14.357 17.2762 15.6448 16.9323 16.8473C16.5884 18.0499 15.8055 19.0794 14.7385 19.7321C13.6716 20.3848 12.3985 20.6131 11.1712 20.3718C9.94401 20.1304 8.85215 19.437 8.11187 18.4289L8.08442 18.3914L7.8848 18.092C7.20611 16.9293 7.29344 15.3273 7.32089 14.9955V14.9531C7.30877 14.3599 7.08185 13.7913 6.68226 13.3528C6.28267 12.9142 5.73754 12.6356 5.14806 12.5685C4.55858 12.5015 3.9648 12.6506 3.47692 12.9881C2.98904 13.3257 2.64021 13.8288 2.49518 14.4041C2.44225 14.6863 2.41635 14.9729 2.41783 15.26C2.32701 17.8219 3.23572 20.3189 4.95195 22.2232C6.66819 24.1276 9.05753 25.2902 11.6151 25.4653C11.8147 25.4653 12.0168 25.4853 12.219 25.4853C12.5917 25.4847 12.964 25.463 13.3343 25.4204H13.3867L14.1652 25.3281L14.1103 25.3056C15.8082 24.9747 17.3886 24.2014 18.6918 23.0637C19.9949 21.9261 20.9745 20.4645 21.5315 18.8268C22.0886 17.1891 22.2033 15.4334 21.8641 13.7371C21.5249 12.0408 20.7438 10.4642 19.5998 9.16669L19.6122 9.1617Z" fill="#5F45BA"/>
<path d="M3.17887 12.0858C4.06497 12.0858 4.78329 11.3675 4.78329 10.4814C4.78329 9.59527 4.06497 8.87695 3.17887 8.87695C2.29278 8.87695 1.57446 9.59527 1.57446 10.4814C1.57446 11.3675 2.29278 12.0858 3.17887 12.0858Z" fill="#5F45BA"/>
</g>
<defs>
<clipPath id="clip0">
<rect width="100" height="25.4834" fill="white"/>
</clipPath>
</defs>
</svg>
