<svg width="100" height="113" viewBox="0 0 100 113" fill="none" xmlns="http://www.w3.org/2000/svg">
<g clip-path="url(#clip0)">
<path d="M18.8698 102.761C18.8911 104.118 18.6588 105.467 18.1848 106.738C17.772 107.845 17.1162 108.845 16.2657 109.664C15.4152 110.484 14.3916 111.102 13.2705 111.473C12.0304 111.895 10.7274 112.102 9.41771 112.085C8.105 112.104 6.79976 111.885 5.56497 111.439C4.46352 111.032 3.45792 110.403 2.61121 109.589C1.76531 108.76 1.10824 107.759 0.684836 106.653C-0.233487 104.146 -0.233487 101.394 0.684836 98.8873C1.1083 97.7825 1.76541 96.7823 2.61121 95.955C3.45687 95.1434 4.46303 94.5178 5.56497 94.1185C6.79949 93.6711 8.10474 93.4507 9.41771 93.4678C10.7322 93.4497 12.0387 93.6762 13.2705 94.1356C14.3869 94.5474 15.4068 95.1842 16.267 96.0063C17.1101 96.8375 17.7668 97.8386 18.1934 98.943C18.658 100.162 18.8875 101.457 18.8698 102.761ZM6.26703 102.761C6.26703 104.226 6.55242 105.347 7.12319 106.126C7.38745 106.503 7.74177 106.807 8.1538 107.011C8.56583 107.215 9.02244 107.313 9.48193 107.295C9.93889 107.315 10.3934 107.217 10.8008 107.009C11.2083 106.801 11.5548 106.491 11.8064 106.109C12.3458 105.319 12.6155 104.203 12.6155 102.761C12.6155 101.319 12.3415 100.193 11.7893 99.4267C11.527 99.0453 11.1712 98.7376 10.756 98.5329C10.3408 98.3283 9.87997 98.2337 9.41771 98.258C8.96036 98.2385 8.50552 98.3354 8.09593 98.5399C7.68633 98.7443 7.33541 99.0494 7.0761 99.4267C6.541 100.21 6.26703 101.319 6.26703 102.761Z" fill="#5F45BA"/>
<path d="M27.9794 111.473C27.6068 111.572 27.2277 111.645 26.8449 111.691C26.3144 111.764 25.7794 111.8 25.2439 111.798C24.768 111.803 24.2925 111.767 23.8227 111.691C23.4387 111.634 23.0735 111.488 22.7567 111.263C22.4602 111.034 22.231 110.73 22.0932 110.381C21.9195 109.915 21.8395 109.419 21.8578 108.922V98.1126C21.8445 97.6209 21.9502 97.1333 22.166 96.6913C22.3811 96.2788 22.6817 95.9168 23.0478 95.6297C23.4816 95.2826 23.9595 94.9947 24.4691 94.7735C25.0602 94.5123 25.668 94.2907 26.2884 94.11C26.9498 93.9147 27.6234 93.7631 28.3047 93.6562C28.996 93.5502 29.6944 93.4972 30.3937 93.4978C31.3526 93.4517 32.3038 93.6884 33.1292 94.1785C33.4724 94.4226 33.7461 94.7519 33.9233 95.134C34.1005 95.5161 34.175 95.9378 34.1395 96.3574C34.1382 96.6937 34.0892 97.0281 33.9939 97.3506C33.9032 97.6542 33.7828 97.9482 33.6343 98.2282C33.1292 98.2282 32.6112 98.2538 32.0847 98.3009C31.5581 98.348 31.0401 98.4251 30.535 98.5192C30.0299 98.6134 29.559 98.7162 29.1138 98.8232C28.7245 98.9143 28.3447 99.0419 27.9794 99.2042V111.473Z" fill="#5F45BA"/>
<path d="M44.8458 98.2908C44.2625 98.2885 43.6832 98.387 43.1335 98.5819C42.611 98.7666 42.1328 99.0581 41.7294 99.438C41.3202 99.8306 40.9953 100.303 40.7748 100.825C40.5227 101.443 40.4003 102.106 40.4152 102.773C40.4152 104.257 40.8432 105.373 41.6994 106.12C42.5611 106.868 43.6715 107.265 44.8116 107.233C45.4455 107.246 46.0778 107.162 46.6866 106.985C47.1645 106.832 47.6333 106.652 48.0907 106.446C48.5235 106.731 48.8911 107.104 49.1694 107.542C49.4182 107.973 49.5427 108.465 49.529 108.963C49.5344 109.438 49.4053 109.904 49.1569 110.309C48.9085 110.713 48.5507 111.039 48.1249 111.249C47.1917 111.791 45.896 112.062 44.2379 112.062C42.841 112.082 41.4514 111.856 40.1326 111.394C38.9682 110.987 37.8969 110.351 36.9819 109.524C36.1032 108.715 35.4083 107.726 34.9443 106.626C34.4538 105.438 34.2091 104.164 34.2251 102.88C34.1941 101.454 34.4579 100.038 34.9999 98.7189C35.472 97.5952 36.192 96.5927 37.1061 95.7865C38.0081 95.017 39.0545 94.4348 40.184 94.0742C41.3765 93.6846 42.6239 93.4894 43.8783 93.4963C45.5907 93.4963 46.9391 93.8088 47.8724 94.4338C48.2963 94.678 48.649 95.029 48.8954 95.4518C49.1417 95.8746 49.2731 96.3546 49.2765 96.8439C49.2802 97.2923 49.1697 97.7342 48.9554 98.1281C48.7529 98.5048 48.4978 98.8508 48.1977 99.1555C47.7182 98.9365 47.2249 98.7491 46.7208 98.5947C46.115 98.3982 45.4827 98.2957 44.8458 98.2908Z" fill="#5F45BA"/>
<path d="M69.3491 111.472C68.9763 111.571 68.5973 111.644 68.2147 111.691C67.6827 111.764 67.1463 111.799 66.6094 111.798C66.1334 111.802 65.658 111.767 65.1881 111.691C64.8054 111.634 64.4416 111.487 64.1265 111.263C63.8304 111.032 63.6002 110.728 63.4587 110.381C63.2887 109.913 63.2102 109.418 63.2275 108.921V100.92C63.2275 99.9398 62.9792 99.2463 62.4869 98.8525C61.9694 98.4462 61.3252 98.2355 60.6676 98.2574C60.2063 98.2551 59.7469 98.3156 59.302 98.4372C58.9349 98.5284 58.583 98.6727 58.2575 98.8653V111.472C57.8848 111.571 57.5058 111.644 57.1231 111.691C56.5911 111.764 56.0547 111.799 55.5177 111.798C55.0418 111.802 54.5664 111.767 54.0965 111.691C53.7138 111.634 53.35 111.487 53.0349 111.263C52.7388 111.032 52.5086 110.728 52.3671 110.381C52.197 109.913 52.1186 109.418 52.1359 108.921V88.0305C52.397 87.9835 52.7866 87.915 53.3046 87.8336C53.8224 87.748 54.3464 87.7051 54.8713 87.7052C55.3472 87.7027 55.8225 87.7384 56.2926 87.8122C56.6753 87.869 57.0391 88.0157 57.3542 88.2403C57.6511 88.4698 57.8816 88.7742 58.022 89.1222C58.1933 89.5892 58.2732 90.0847 58.2575 90.5819V94.1136C58.7221 93.9422 59.1967 93.7992 59.6787 93.6855C60.3686 93.5217 61.0758 93.4426 61.7849 93.4501C64.1621 93.4501 66.0172 94.0451 67.3499 95.2352C68.6827 96.4252 69.3491 98.1946 69.3491 100.543V111.472Z" fill="#5F45BA"/>
<path d="M72.9622 89.1483C72.9525 88.7215 73.029 88.2972 73.1872 87.9008C73.3453 87.5043 73.5819 87.1438 73.8826 86.8409C74.5493 86.2405 75.4148 85.9082 76.312 85.9082C77.2092 85.9082 78.0747 86.2405 78.7414 86.8409C79.3321 87.463 79.6615 88.2882 79.6615 89.1461C79.6615 90.0041 79.3321 90.8293 78.7414 91.4514C78.076 92.0545 77.21 92.3885 76.312 92.3885C75.4139 92.3885 74.548 92.0545 73.8826 91.4514C73.582 91.1493 73.3455 90.7895 73.1873 90.3938C73.0292 89.998 72.9526 89.5744 72.9622 89.1483ZM79.3835 111.473C79.1224 111.52 78.7328 111.588 78.2148 111.67C77.697 111.755 77.1729 111.798 76.648 111.798C76.1721 111.803 75.6967 111.767 75.2268 111.691C74.8441 111.634 74.4802 111.488 74.1652 111.263C73.8674 111.034 73.6367 110.73 73.4974 110.381C73.3254 109.914 73.2454 109.419 73.2619 108.921V94.2596L74.4349 94.0627C74.9528 93.9781 75.4768 93.9366 76.0016 93.9385C76.4776 93.9338 76.953 93.9696 77.4229 94.0455C77.8061 94.1006 78.1703 94.2474 78.4845 94.4736C78.7822 94.7024 79.0128 95.007 79.1523 95.3555C79.3223 95.8212 79.4008 96.3154 79.3835 96.811V111.473Z" fill="#5F45BA"/>
<path d="M81.9605 102.761C81.9286 101.352 82.1729 99.9496 82.6797 98.6341C83.1193 97.5298 83.8027 96.5391 84.6789 95.736C85.5457 94.9602 86.567 94.3767 87.6754 94.0237C88.868 93.6424 90.1135 93.4531 91.3655 93.4629C91.8365 93.4618 92.3066 93.5048 92.7696 93.5913C93.1519 93.6523 93.5264 93.7542 93.8869 93.8953V88.0648C94.794 87.8351 95.7252 87.7144 96.6609 87.7052C97.1367 87.7027 97.612 87.7384 98.0821 87.8122C98.4648 87.869 98.8287 88.0157 99.1438 88.2403C99.4392 88.4673 99.6647 88.7729 99.7944 89.1222C99.9512 89.5923 100.024 90.0865 100.008 90.5819V107.65C100.011 108.201 99.8656 108.742 99.5869 109.217C99.3082 109.693 98.9067 110.084 98.4246 110.351C97.5833 110.874 96.6745 111.28 95.7234 111.558C93.0981 112.294 90.3152 112.251 87.714 111.434C86.546 111.043 85.4769 110.403 84.5804 109.559C83.7229 108.738 83.059 107.736 82.6369 106.626C82.1725 105.391 81.9431 104.08 81.9605 102.761ZM92.1874 98.2574C90.8918 98.2574 89.8929 98.6299 89.1909 99.3747C88.4931 100.12 88.1463 101.245 88.1463 102.761C88.1463 104.276 88.4674 105.368 89.1181 106.126C89.4708 106.514 89.9065 106.817 90.3927 107.013C90.8789 107.21 91.4031 107.294 91.9263 107.26C92.3246 107.267 92.7208 107.2 93.095 107.063C93.3886 106.968 93.6637 106.823 93.9083 106.635V98.6898C93.3845 98.3923 92.7896 98.2428 92.1874 98.2574Z" fill="#5F45BA"/>
<path d="M21.0915 9.58048C23.7371 9.58048 25.8817 7.43582 25.8817 4.79024C25.8817 2.14466 23.7371 0 21.0915 0C18.4459 0 16.3013 2.14466 16.3013 4.79024C16.3013 7.43582 18.4459 9.58048 21.0915 9.58048Z" fill="#5F45BA"/>
<path d="M5.95875 6.7637C7.8265 6.7637 9.3406 5.24959 9.3406 3.38185C9.3406 1.51411 7.8265 0 5.95875 0C4.09101 0 2.5769 1.51411 2.5769 3.38185C2.5769 5.24959 4.09101 6.7637 5.95875 6.7637Z" fill="#5F45BA"/>
<path d="M54.3663 74.3929C64.1689 73.1628 73.0813 68.089 79.1429 60.2876C85.2045 52.4863 87.9188 42.5966 86.6887 32.794C85.4585 22.9915 80.3847 14.0791 72.5834 8.01744C64.7821 1.95582 54.8923 -0.758467 45.0898 0.471679C41.9577 0.764718 38.8886 1.53414 35.9887 2.75336C32.6154 4.40147 30.4237 7.15832 30.4237 10.8527C30.4237 13.1574 31.3392 15.3678 32.9689 16.9975C34.5986 18.6272 36.809 19.5427 39.1137 19.5427C39.9185 19.5427 42.6968 18.6866 43.3517 18.434C46.9028 17.1945 50.7305 16.9769 54.3992 17.8061C58.0678 18.6353 61.4299 20.4779 64.1027 23.1242C66.7755 25.7704 68.6516 29.114 69.5173 32.7741C70.3831 36.4343 70.2038 40.264 68.9998 43.8273C67.7958 47.3905 65.6155 50.5441 62.7071 52.929C59.7987 55.3139 56.2791 56.8343 52.5491 57.317C48.819 57.7998 45.0283 57.2255 41.6087 55.6596C38.189 54.0937 35.2777 51.599 33.2062 48.4597C29.1951 43.2114 30.1197 34.8167 30.1154 34.714C30.0446 32.6311 29.2283 30.6429 27.815 29.1112C26.4018 27.5795 24.4857 26.6061 22.4152 26.3681C20.3448 26.1301 18.2577 26.6433 16.5338 27.8144C14.8099 28.9855 13.5638 30.7366 13.0221 32.7491C12.8386 33.7862 12.7497 34.8379 12.7567 35.8912C12.5302 41.2786 13.4775 46.6508 15.5329 51.6358C17.5883 56.6208 20.7027 61.0995 24.6605 64.7616C28.6182 68.4237 33.3247 71.1818 38.454 72.8448C43.5832 74.5079 49.0127 75.0361 54.3663 74.3929Z" fill="#5F45BA"/>
<path d="M14.8844 23.5628C18.3126 23.5628 21.0916 20.7838 21.0916 17.3556C21.0916 13.9275 18.3126 11.1484 14.8844 11.1484C11.4563 11.1484 8.67725 13.9275 8.67725 17.3556C8.67725 20.7838 11.4563 23.5628 14.8844 23.5628Z" fill="#5F45BA"/>
</g>
<defs>
<clipPath id="clip0">
<rect width="100" height="112.085" fill="white"/>
</clipPath>
</defs>
</svg>
