<svg width="200" height="45" viewBox="0 0 200 45" fill="none" xmlns="http://www.w3.org/2000/svg">
<g clip-path="url(#clip0)">
<path d="M51.7649 36.7765V0.0214844H57.9736V36.7765H51.7649Z" fill="#004483"/>
<path d="M32.9397 18.5313V13.744C32.9397 9.4134 29.6733 7.15234 25.6373 7.15234C21.7118 7.15234 18.3865 9.36184 18.3865 13.744V30.5362C18.3865 34.9552 21.7007 37.1279 25.6373 37.1279C29.7433 37.1279 32.9397 34.8705 32.9397 30.5362V25.1892H26.7347V31.1696C26.747 31.3178 26.7284 31.4669 26.6801 31.6076C26.6319 31.7482 26.5549 31.8773 26.4542 31.9867C26.3535 32.0961 26.2312 32.1835 26.095 32.2432C25.9589 32.3029 25.8118 32.3338 25.6631 32.3338C25.5144 32.3338 25.3673 32.3029 25.2311 32.2432C25.0949 32.1835 24.9726 32.0961 24.8719 31.9867C24.7712 31.8773 24.6943 31.7482 24.646 31.6076C24.5978 31.4669 24.5792 31.3178 24.5915 31.1696V13.0038C24.5934 12.7238 24.706 12.456 24.9047 12.2587C25.1034 12.0614 25.372 11.9506 25.652 11.9506C25.9344 11.9496 26.206 12.0593 26.4084 12.2562C26.6108 12.4531 26.7279 12.7215 26.7347 13.0038V18.5276L32.9397 18.5313Z" fill="#004483"/>
<path d="M127.046 18.7559H124.895V13.0848C124.895 12.7997 125.009 12.5262 125.21 12.3245C125.412 12.1228 125.685 12.0096 125.971 12.0096C126.256 12.0096 126.529 12.1228 126.731 12.3245C126.933 12.5262 127.046 12.7997 127.046 13.0848V18.7559ZM133.255 13.7514C133.255 9.40235 129.981 7.15234 125.949 7.15234C122.019 7.15234 118.698 9.36184 118.698 13.7514V30.5325C118.698 34.9515 122.012 37.1279 125.952 37.1279C129.893 37.1279 133.255 34.9441 133.255 30.5325V25.1892H127.046V31.1622C127.061 31.3116 127.045 31.4626 126.999 31.6054C126.952 31.7482 126.876 31.8796 126.775 31.9911C126.675 32.1025 126.552 32.1916 126.414 32.2524C126.277 32.3133 126.128 32.3446 125.978 32.3443C125.828 32.3412 125.681 32.3077 125.545 32.2458C125.408 32.184 125.286 32.0951 125.185 31.9846C125.084 31.874 125.007 31.7441 124.958 31.6028C124.909 31.4614 124.889 31.3115 124.899 31.1622V23.2007H133.255V13.7514Z" fill="#004483"/>
<path d="M177.128 18.7522H174.978V13.0848C174.978 12.9436 175.005 12.8038 175.06 12.6733C175.114 12.5429 175.193 12.4243 175.293 12.3245C175.392 12.2246 175.511 12.1454 175.641 12.0914C175.772 12.0374 175.912 12.0096 176.053 12.0096C176.194 12.0096 176.334 12.0374 176.464 12.0914C176.595 12.1454 176.713 12.2246 176.813 12.3245C176.913 12.4243 176.992 12.5429 177.046 12.6733C177.1 12.8038 177.128 12.9436 177.128 13.0848V18.7522ZM183.337 13.7514C183.337 9.40235 180.063 7.15234 176.031 7.15234C172.102 7.15234 168.784 9.36184 168.784 13.7514V30.5288C168.784 34.9478 172.098 37.1573 176.035 37.1573C179.971 37.1573 183.337 34.9478 183.337 30.5288V25.1892H177.128V31.1585C177.144 31.3079 177.128 31.4589 177.081 31.6017C177.034 31.7445 176.958 31.8759 176.857 31.9874C176.757 32.0988 176.634 32.1879 176.496 32.2487C176.359 32.3096 176.211 32.3409 176.06 32.3406C175.911 32.3375 175.763 32.304 175.627 32.2422C175.491 32.1803 175.368 32.0914 175.267 31.9809C175.167 31.8703 175.089 31.7404 175.04 31.5991C174.991 31.4577 174.971 31.3078 174.981 31.1585V23.2007H183.337V13.7514Z" fill="#004483"/>
<path d="M68.4576 7.49414V30.6497C68.4662 30.7959 68.4448 30.9424 68.3947 31.0801C68.3446 31.2178 68.2669 31.3438 68.1664 31.4503C68.0659 31.5569 67.9447 31.6418 67.8101 31.6999C67.6756 31.7579 67.5307 31.7879 67.3841 31.7879C67.2376 31.7879 67.0927 31.7579 66.9582 31.6999C66.8236 31.6418 66.7024 31.5569 66.6019 31.4503C66.5014 31.3438 66.4237 31.2178 66.3736 31.0801C66.3235 30.9424 66.3021 30.7959 66.3107 30.6497V7.49414H60.1094V31.8759C60.1094 35.1165 62.1163 37.1272 64.5284 37.1272C65.3347 37.1211 66.124 36.8945 66.8108 36.4719C67.4975 36.0493 68.0556 35.4469 68.4244 34.7299H68.5607L68.6785 36.7737H74.681V7.49414H68.4576Z" fill="#004483"/>
<path d="M145.665 7.15234C143.592 7.15234 142.317 8.72109 141.732 9.5386H141.596L141.474 7.4985H135.387V36.778H141.599V13.6262C141.599 12.9081 142.012 12.4699 142.66 12.4699C142.808 12.4677 142.956 12.4968 143.092 12.5553C143.229 12.6138 143.351 12.7005 143.452 12.8096C143.553 12.9187 143.629 13.0478 143.677 13.1885C143.724 13.3292 143.742 13.4783 143.728 13.6262V23.2007H149.94V12.1974C149.94 9.10407 148.073 7.15234 145.665 7.15234Z" fill="#004483"/>
<path d="M195.725 7.15234C193.651 7.15234 192.377 8.72109 191.792 9.5386H191.655L191.534 7.4985H185.45V36.7817H191.659V13.6262C191.642 13.4784 191.656 13.3286 191.702 13.187C191.748 13.0454 191.823 12.9153 191.924 12.8058C192.025 12.6963 192.148 12.6099 192.286 12.5526C192.423 12.4952 192.571 12.4682 192.72 12.4735C192.868 12.4708 193.015 12.4994 193.152 12.5575C193.288 12.6157 193.411 12.702 193.512 12.8108C193.613 12.9196 193.689 13.0485 193.737 13.189C193.784 13.3295 193.802 13.4785 193.788 13.6262V23.2007H200V12.201C200 9.10407 198.133 7.15234 195.725 7.15234Z" fill="#004483"/>
<path d="M160.424 28.7796C160.424 29.5566 159.957 29.9875 159.356 29.9875C158.756 29.9875 158.289 29.5566 158.289 28.7796V13.6004C158.279 13.4562 158.299 13.3116 158.349 13.1758C158.398 13.04 158.475 12.9161 158.576 12.812C158.676 12.708 158.797 12.626 158.931 12.5715C159.065 12.517 159.208 12.4912 159.353 12.4956C159.497 12.4918 159.641 12.5181 159.775 12.5727C159.909 12.6273 160.03 12.7091 160.131 12.8129C160.232 12.9168 160.31 13.0404 160.36 13.1759C160.411 13.3114 160.433 13.456 160.424 13.6004V28.7796ZM160.513 7.49482L160.424 9.54965H160.27C159.906 8.83467 159.353 8.23312 158.672 7.81044C157.99 7.38776 157.205 7.16014 156.403 7.15234C154.16 7.15234 152.08 8.87575 152.08 12.0501V29.5382C152.08 32.8856 154.013 34.841 156.436 34.841C157.203 34.8467 157.957 34.6515 158.625 34.2748C159.292 33.8981 159.849 33.3531 160.24 32.6941H160.421V39.1495C160.432 39.295 160.412 39.4411 160.362 39.5782C160.313 39.7153 160.234 39.8402 160.133 39.9447C160.031 40.0493 159.908 40.1309 159.772 40.1843C159.637 40.2377 159.491 40.2615 159.345 40.2543C159.202 40.2559 159.059 40.2282 158.926 40.1728C158.793 40.1174 158.673 40.0355 158.573 39.932C158.473 39.8286 158.396 39.7059 158.345 39.5713C158.294 39.4368 158.271 39.2932 158.277 39.1495V36.546H152.087V38.159C152.087 42.7363 155.033 44.7874 159.349 44.7874C163.665 44.7874 166.64 42.7473 166.64 38.159V7.49482H160.513Z" fill="#004483"/>
<path d="M45.3167 7.1508C44.5087 7.16529 43.719 7.39379 43.0281 7.81298C42.3372 8.23218 41.7698 8.82709 41.3838 9.53705H41.2807V0.0214844H35.0757V36.7765H41.2733V13.8677C41.2648 13.7214 41.2862 13.5749 41.3362 13.4373C41.3863 13.2996 41.464 13.1736 41.5645 13.067C41.665 12.9604 41.7863 12.8755 41.9208 12.8175C42.0553 12.7594 42.2003 12.7295 42.3468 12.7295C42.4933 12.7295 42.6382 12.7594 42.7728 12.8175C42.9073 12.8755 43.0285 12.9604 43.129 13.067C43.2296 13.1736 43.3072 13.2996 43.3573 13.4373C43.4074 13.5749 43.4288 13.7214 43.4202 13.8677V36.7765H49.6252V12.472C49.6252 8.50964 47.2721 7.1508 45.3167 7.1508Z" fill="#004483"/>
<path d="M91.0533 9.98597C90.7739 9.16166 90.244 8.44523 89.5375 7.93685C88.8311 7.42846 87.9834 7.15352 87.113 7.15045C86.2943 7.14628 85.49 7.36649 84.7876 7.78717C84.0851 8.20785 83.5114 8.81293 83.1286 9.53671H83.0034L82.9445 7.4966H76.7947V36.7761H83.0107V13.6243C83.0022 13.474 83.0245 13.3236 83.0762 13.1823C83.1278 13.0409 83.2079 12.9116 83.3113 12.8023C83.4148 12.693 83.5395 12.606 83.6777 12.5466C83.816 12.4872 83.965 12.4567 84.1155 12.4569C84.266 12.4567 84.4149 12.4872 84.5532 12.5466C84.6915 12.606 84.8162 12.693 84.9197 12.8023C85.0231 12.9116 85.1031 13.0409 85.1548 13.1823C85.2065 13.3236 85.2288 13.474 85.2202 13.6243V36.7761H91.4363V13.6501C91.4363 13.3571 91.5527 13.0761 91.7599 12.8689C91.967 12.6617 92.248 12.5453 92.541 12.5453C92.834 12.5453 93.115 12.6617 93.3222 12.8689C93.5294 13.0761 93.6458 13.3571 93.6458 13.6501V36.7761H99.8582V12.7442C99.8582 8.76338 97.7591 7.15045 95.3839 7.15045C93.0087 7.15045 91.602 8.91805 91.138 9.98597H91.0533Z" fill="#004483"/>
<path d="M110.353 30.6635C110.37 30.8118 110.355 30.962 110.309 31.1039C110.262 31.2458 110.186 31.3759 110.084 31.4854C109.983 31.5949 109.859 31.6812 109.721 31.7383C109.583 31.7953 109.435 31.8219 109.285 31.8162C109.137 31.8188 108.99 31.7902 108.853 31.7321C108.716 31.674 108.593 31.5878 108.492 31.4791C108.391 31.3703 108.314 31.2415 108.266 31.101C108.218 30.9605 108.2 30.8114 108.214 30.6635V13.6762C108.198 13.5258 108.214 13.3738 108.26 13.2299C108.307 13.086 108.383 12.9535 108.484 12.841C108.585 12.7285 108.709 12.6385 108.847 12.5769C108.985 12.5152 109.134 12.4832 109.285 12.483C109.875 12.483 110.353 12.8513 110.353 13.6762V30.6635ZM112.069 7.1508C110 7.1508 108.755 8.90366 108.35 9.5481H108.217V0.0214844H102.005V36.7765H108.144L108.214 34.7327H108.346C108.649 35.4551 109.162 36.0697 109.819 36.4966C110.476 36.9234 111.246 37.1429 112.029 37.1263C114.651 37.1263 116.566 34.8653 116.566 31.4369V12.472C116.566 9.17985 114.559 7.1508 112.073 7.1508H112.069Z" fill="#004483"/>
<path d="M13.2349 18.2284C11.9092 16.9284 10.1821 15.2529 9.41614 14.5201C7.51966 12.7083 6.99674 11.7067 6.99674 9.41614V6.52906C6.98698 6.38146 7.00886 6.23347 7.06092 6.09501C7.11299 5.95655 7.19404 5.83081 7.29864 5.72621C7.40324 5.62161 7.52898 5.54056 7.66744 5.4885C7.8059 5.43643 7.95389 5.41455 8.10149 5.42432C8.24824 5.41806 8.39468 5.44236 8.53155 5.49567C8.66841 5.54897 8.79271 5.63013 8.89657 5.73398C9.00043 5.83784 9.08158 5.96214 9.13489 6.09901C9.1882 6.23587 9.21249 6.38232 9.20624 6.52906V12.2738H16.1146V6.60271C16.1146 1.84125 12.3106 0 8.10149 0C3.8924 0 0.0257775 1.80442 0.02946 6.62849V11.0475C0.02946 14.6121 1.50246 16.5234 2.97546 17.8896L6.74633 21.4542C8.80116 23.3875 9.20992 24.4002 9.20992 27.1621V30.5647C9.20992 31.5553 8.74961 31.9604 8.10517 31.9604C7.46074 31.9604 6.99674 31.5332 6.99674 30.5647V23.66H0V30.701C0 35.5692 3.81138 37.3663 8.10149 37.3663C12.3253 37.3663 16.2619 35.5692 16.2619 30.4579V25.5418C16.2619 22.6584 15.6211 20.5557 13.2423 18.2284H13.2349Z" fill="#004483"/>
</g>
<defs>
<clipPath id="clip0">
<rect width="200" height="44.7755" fill="white"/>
</clipPath>
</defs>
</svg>
