<svg id="Layer_1" data-name="Layer 1" xmlns="http://www.w3.org/2000/svg" xmlns:xlink="http://www.w3.org/1999/xlink" viewBox="0 0 1190 433"><defs><style>.cls-1,.cls-2{fill:none;}.cls-2{stroke:#1f1f36;stroke-miterlimit:10;stroke-width:5px;}.cls-3{fill:#1f1f36;}.cls-4{fill:#08072f;}.cls-5{fill:#0a093f;}.cls-6{fill:#646489;}.cls-7{fill:#a6cba1;}.cls-8{clip-path:url(#clip-path);}.cls-10,.cls-9{fill:#55895a;}.cls-11,.cls-9{opacity:0.6;}.cls-11{fill:#cae0c7;}.cls-12{fill:#3d3d6b;}</style><clipPath id="clip-path"><path class="cls-1" d="M51.44,36.21H1138.27a15.29,15.29,0,0,1,15.29,15.3V256.65A87.32,87.32,0,0,1,1066.24,344H932.73c.2-2.28.35-4.57.35-6.89a75.8,75.8,0,1,0-151.59,0c0,2.32.15,4.61.35,6.89H376.92c.21-2.28.35-4.57.35-6.89a75.79,75.79,0,1,0-151.58,0c0,2.32.14,4.61.34,6.89H54a16.64,16.64,0,0,1-16.64-16.64V50.3A14.09,14.09,0,0,1,51.44,36.21Z"/></clipPath></defs><title>Bus with regular wheels</title><path class="cls-2" d="M38.06,88.22H20.93a4.58,4.58,0,0,0-4.59,4.59v48.44"/><rect class="cls-3" x="14.39" y="108.97" width="9.19" height="36.75" rx="3.38" transform="translate(37.96 254.68) rotate(180)"/><path class="cls-4" d="M226,344H384.34V251H214S226,344,226,344Z"/><path class="cls-4" d="M781.66,344H940V251H769.66S781.63,344,781.66,344Z"/><circle class="cls-5" cx="301.48" cy="337.09" r="59.71"/><circle class="cls-6" cx="301.48" cy="337.09" r="41.34"/><circle class="cls-5" cx="857.29" cy="337.09" r="59.71"/><circle class="cls-6" cx="857.29" cy="337.09" r="41.34"/><path class="cls-7" d="M51.44,36.21H1138.27a15.29,15.29,0,0,1,15.29,15.3V256.65A87.32,87.32,0,0,1,1066.24,344H932.73c.2-2.28.35-4.57.35-6.89a75.8,75.8,0,1,0-151.59,0c0,2.32.15,4.61.35,6.89H376.92c.21-2.28.35-4.57.35-6.89a75.79,75.79,0,1,0-151.58,0c0,2.32.14,4.61.34,6.89H54a16.64,16.64,0,0,1-16.64-16.64V50.3A14.09,14.09,0,0,1,51.44,36.21Z"/><g class="cls-8"><path class="cls-9" d="M235.69,337.09c0,2.32.14,4.61.34,6.89H54a16.64,16.64,0,0,1-16.64-16.64V302A16.64,16.64,0,0,0,54,318.65H238.06"/><path class="cls-10" d="M928,318.65h138.24a87.32,87.32,0,0,0,87.32-87.33v25.33A87.32,87.32,0,0,1,1066.24,344H927c.21-2.28-1-4.57-1-6.89"/><path class="cls-9" d="M371,319l418.84-.35-.35,18.44c0,2.32,1.3,4.61,1.51,6.89l-419,0c.21-2.27,1-4.67,1-7"/></g><path class="cls-11" d="M51.44,36.21H1138.27a15.29,15.29,0,0,1,15.29,15.3V70.34a15.29,15.29,0,0,0-15.29-15.29H51.44A14.09,14.09,0,0,0,37.35,69.14V50.3A14.09,14.09,0,0,1,51.44,36.21Z"/><rect class="cls-12" x="171.16" y="74.86" width="199.84" height="142.4" rx="12.19"/><rect class="cls-12" x="380.16" y="74.86" width="199.84" height="142.4" rx="12.19"/><rect class="cls-12" x="589.16" y="74.86" width="199.84" height="142.4" rx="12.19"/><rect class="cls-12" x="798.16" y="74.86" width="199.84" height="142.4" rx="12.19"/><rect class="cls-12" x="1007.16" y="74.86" width="136.84" height="142.4" rx="12.19"/><rect class="cls-12" x="77.34" y="74.86" width="82.68" height="188.33" rx="7.92"/><path class="cls-12" d="M36.89,75.72H57.21a8.36,8.36,0,0,1,8.35,8.36V224.34a33.76,33.76,0,0,1-12.24,26L36.06,264.62Z"/></svg>