<svg xmlns="http://www.w3.org/2000/svg" xmlns:xlink="http://www.w3.org/1999/xlink" viewBox="0 0 1125 2436"><defs><style>.cls-1,.cls-11,.cls-42,.cls-44{fill:none;}.cls-2{isolation:isolate;}.cls-3{fill:#a7cad0;}.cls-10,.cls-12,.cls-13,.cls-14,.cls-4{fill:#6da6b0;}.cls-4{fill-opacity:0.14;}.cls-5{mix-blend-mode:hard-light;}.cls-6{fill:url(#linear-gradient);}.cls-7{fill:#f6fbff;}.cls-17,.cls-33,.cls-8{fill:#fff;}.cls-9{clip-path:url(#clip-path);}.cls-11{stroke:#fff;}.cls-11,.cls-42,.cls-44{stroke-miterlimit:10;}.cls-11,.cls-42{stroke-width:4px;}.cls-11,.cls-15,.cls-17{opacity:0.1;}.cls-12{fill-opacity:0.13;}.cls-13{fill-opacity:0.15;}.cls-14{fill-opacity:0.08;}.cls-16{opacity:0.9;}.cls-18{fill:#1c3046;}.cls-19{fill:#9c1641;}.cls-20{mix-blend-mode:multiply;}.cls-21{fill:#ec2a39;}.cls-22{fill:#231f20;}.cls-23{clip-path:url(#clip-path-3);}.cls-24,.cls-28{fill:#0a093f;}.cls-24{opacity:0.5;}.cls-25{clip-path:url(#clip-path-4);}.cls-26{fill:#3d3d6b;}.cls-27{clip-path:url(#clip-path-5);}.cls-29{fill:#a6cba1;}.cls-30{clip-path:url(#clip-path-6);}.cls-31{fill:#e5725f;}.cls-32,.cls-33,.cls-34,.cls-35,.cls-36,.cls-37,.cls-38,.cls-39,.cls-40,.cls-41{opacity:0.3;}.cls-32,.cls-34,.cls-35,.cls-36,.cls-37,.cls-38,.cls-39,.cls-40,.cls-41{mix-blend-mode:overlay;}.cls-32{fill:url(#linear-gradient-2);}.cls-34{fill:url(#linear-gradient-3);}.cls-35{fill:url(#linear-gradient-4);}.cls-36{fill:url(#linear-gradient-5);}.cls-37{fill:url(#linear-gradient-6);}.cls-38{fill:url(#linear-gradient-7);}.cls-39{fill:url(#linear-gradient-8);}.cls-40{fill:url(#linear-gradient-9);}.cls-41{fill:url(#linear-gradient-10);}.cls-42{stroke:#ec2a39;}.cls-43{fill:#1f1f36;}.cls-44{stroke:#646489;stroke-width:7px;stroke-dasharray:36;opacity:0.15;}.cls-45{fill:#646489;}.cls-46{opacity:0.08;}.cls-47{fill:#383856;}.cls-48{clip-path:url(#clip-path-7);}.cls-49{fill:#7d9879;}.cls-50{fill:#ffffef;}.cls-51{fill:#efaa9f;}</style><linearGradient id="linear-gradient" x1="714.1" y1="1598.1" x2="714.1" y2="-452.17" gradientUnits="userSpaceOnUse"><stop offset="0" stop-color="#fff"/><stop offset="1" stop-color="#a7cad0" stop-opacity="0.2"/></linearGradient><clipPath id="clip-path"><polygon class="cls-1" points="1165.61 956.61 1165.61 2104.27 924.1 2104.27 924.1 1051.29 1165.61 956.61"/></clipPath><clipPath id="clip-path-3"><polygon class="cls-1" points="1392 1415.65 855.65 1415.65 855.65 1397.69 1123.81 1396.41 1392 1397.69 1392 1415.65"/></clipPath><clipPath id="clip-path-4"><rect class="cls-1" x="-198.74" y="1312.76" width="532.06" height="836.64"/></clipPath><clipPath id="clip-path-5"><rect class="cls-1" x="43.13" y="1065.23" width="42.76" height="532.34" transform="translate(1395.91 1266.89) rotate(90)"/></clipPath><clipPath id="clip-path-6"><rect class="cls-1" x="328.52" y="1257.73" width="532.06" height="981.2"/></clipPath><linearGradient id="linear-gradient-2" x1="-117.32" y1="1122.88" x2="821.36" y2="1404.08" gradientUnits="userSpaceOnUse"><stop offset="0.37" stop-color="#eff1f1" stop-opacity="0.2"/><stop offset="1" stop-color="#fff" stop-opacity="0.9"/></linearGradient><linearGradient id="linear-gradient-3" x1="-117.32" y1="1203.89" x2="821.36" y2="1485.08" xlink:href="#linear-gradient-2"/><linearGradient id="linear-gradient-4" x1="-117.32" y1="1284.89" x2="821.36" y2="1566.08" xlink:href="#linear-gradient-2"/><linearGradient id="linear-gradient-5" x1="-117.32" y1="1365.89" x2="821.36" y2="1647.08" xlink:href="#linear-gradient-2"/><linearGradient id="linear-gradient-6" x1="-117.32" y1="1446.89" x2="821.36" y2="1728.08" xlink:href="#linear-gradient-2"/><linearGradient id="linear-gradient-7" x1="-117.32" y1="1527.89" x2="821.36" y2="1809.09" xlink:href="#linear-gradient-2"/><linearGradient id="linear-gradient-8" x1="-117.32" y1="1608.9" x2="821.36" y2="1890.09" xlink:href="#linear-gradient-2"/><linearGradient id="linear-gradient-9" x1="-117.32" y1="1691.11" x2="821.36" y2="1972.3" xlink:href="#linear-gradient-2"/><linearGradient id="linear-gradient-10" x1="-117.32" y1="1770.76" x2="821.36" y2="2051.95" xlink:href="#linear-gradient-2"/><clipPath id="clip-path-7"><path class="cls-1" d="M902.45,1757.72c0,9.79,14.08,17.72,31.45,17.72s31.22-7.81,31.43-17.49c50.48,1.78,80.39,38.21,88.92,50.25-2.53,3.13-4.22,8.39-4.3,14.38v0c0,.15,0,.31,0,.47V1849a1.14,1.14,0,0,0,1.15,1.14h1.14a1.14,1.14,0,0,1,1.14,1.14v121.19a1.14,1.14,0,0,1-1.14,1.15h-2a1.14,1.14,0,0,0-1.15,1.14v10.29a1.14,1.14,0,0,1-1.14,1.14h-2.67a1.14,1.14,0,0,0-1.14,1.15v97.56a1.14,1.14,0,0,0,1.14,1.14,1.16,1.16,0,0,1,1.15,1.15v24.39a1.14,1.14,0,0,1-1.15,1.14h-.38a1.14,1.14,0,0,0-1.14,1.14V2131a1.14,1.14,0,0,0,1.14,1.15h29A1.14,1.14,0,0,0,1075,2131v-17.15a1.14,1.14,0,0,0-1.14-1.14h-.39a1.14,1.14,0,0,1-1.14-1.14v-24.39a1.14,1.14,0,0,1,1.14-1.15,1.15,1.15,0,0,0,.81-.33,1.13,1.13,0,0,0,.34-.81v-97.56a1.14,1.14,0,0,0-1.15-1.15h-2.66a1.14,1.14,0,0,1-1.15-1.14v-10.29a1.14,1.14,0,0,0-1.14-1.14h-2.19a1.14,1.14,0,0,1-1.14-1.15V1851.28a1.14,1.14,0,0,1,1.14-1.14h1.9a1.14,1.14,0,0,0,1.15-1.14v-25.92c0-.16,0-.32,0-.47v0c-.1-7-2.42-13.08-5.71-15.83v-28.07a4.38,4.38,0,0,0-8.76,0V1792c-5.53-7.4-15.18-17.79-31.45-28.89-21.76-14.87-49-16-63.49-15.25-5.65-4.71-15.22-7.81-26.06-7.81C916.53,1740,902.45,1747.93,902.45,1757.72Z"/></clipPath></defs><title>HackVie_LogoVertical 0</title><g class="cls-2"><g id="Layer_1" data-name="Layer 1"><rect class="cls-3" x="-165" y="-73" width="1758.2" height="2463.91"/><rect class="cls-4" x="-123.11" y="1503.42" width="195.93" height="325.24"/><g class="cls-5"><rect class="cls-6" x="-165" y="-73" width="1758.2" height="2050.27"/></g><circle class="cls-7" cx="147.36" cy="276.96" r="18.55"/><circle class="cls-7" cx="302.05" cy="277.29" r="18.22"/><circle class="cls-7" cx="181.12" cy="238.85" r="20.63"/><circle class="cls-7" cx="158.43" cy="256.25" r="18.59"/><circle class="cls-7" cx="220.03" cy="243.97" r="35.01"/><circle class="cls-7" cx="268.43" cy="258.52" r="28.35"/><polygon class="cls-7" points="146.72 295.51 303.9 295.51 267.93 248.68 181.7 254.05 147.88 273.69 146.72 295.51"/><circle class="cls-8" cx="147.36" cy="276.96" r="18.55"/><circle class="cls-8" cx="302.05" cy="277.29" r="18.22"/><circle class="cls-8" cx="181.12" cy="238.85" r="20.63"/><circle class="cls-8" cx="158.43" cy="256.25" r="18.59"/><circle class="cls-8" cx="220.03" cy="243.97" r="35.01"/><circle class="cls-8" cx="268.43" cy="258.52" r="28.35"/><polygon class="cls-8" points="146.72 295.51 303.9 295.51 267.93 248.68 181.7 254.05 147.88 273.69 146.72 295.51"/><g class="cls-9"><polygon class="cls-3" points="1165.61 956.61 1165.61 2104.27 924.1 2104.27 924.1 1051.29 1165.61 956.61"/><polygon class="cls-3" points="1165.61 956.61 1165.61 2104.27 924.1 2104.27 924.1 1051.29 1165.61 956.61"/></g><g class="cls-9"><polygon class="cls-10" points="1165.61 956.61 1165.61 2104.27 924.1 2104.27 924.1 1051.29 1165.61 956.61"/><line class="cls-11" x1="952.74" y1="964.34" x2="952.74" y2="1410.65"/><line class="cls-11" x1="983.85" y1="964.34" x2="983.85" y2="1410.65"/><line class="cls-11" x1="1014.95" y1="964.34" x2="1014.95" y2="1410.65"/><line class="cls-11" x1="1046.05" y1="964.34" x2="1046.05" y2="1410.65"/><line class="cls-11" x1="1077.16" y1="964.34" x2="1077.16" y2="1410.65"/><line class="cls-11" x1="1108.26" y1="964.34" x2="1108.26" y2="1410.65"/></g><circle class="cls-7" cx="173.55" cy="1040.1" r="25.08"/><circle class="cls-7" cx="-5.42" cy="1007.57" r="35.96"/><circle class="cls-7" cx="59.81" cy="991.99" r="48.9"/><circle class="cls-7" cx="122.9" cy="1006.13" r="41.2"/><polygon class="cls-7" points="-43.78 1065.17 175.76 1065.17 125.52 999.76 5.08 1007.26 -42.16 1034.7 -43.78 1065.17"/><circle class="cls-8" cx="173.55" cy="1040.1" r="25.08"/><circle class="cls-8" cx="-5.42" cy="1007.57" r="35.96"/><circle class="cls-8" cx="59.81" cy="991.99" r="48.9"/><circle class="cls-8" cx="122.9" cy="1006.13" r="41.2"/><polygon class="cls-8" points="-43.78 1065.17 175.76 1065.17 125.52 999.76 5.08 1007.26 -42.16 1034.7 -43.78 1065.17"/><rect class="cls-12" x="-127.03" y="1556.97" width="195.93" height="387.93"/><rect class="cls-13" x="726.88" y="1164.22" width="240.18" height="410.14"/><rect class="cls-14" x="490.88" y="1232.22" width="147.12" height="410.14"/><rect class="cls-13" x="314.98" y="1044.09" width="126.45" height="387.93"/><rect class="cls-3" x="-86.88" y="734.92" width="179.68" height="1132.2"/><rect class="cls-10" x="-86.88" y="734.92" width="179.68" height="1132.2"/><g class="cls-15"><rect class="cls-8" x="-11.08" y="756.65" width="22.66" height="52.17"/><rect class="cls-8" x="19.13" y="756.65" width="22.66" height="52.17"/><rect class="cls-8" x="49.34" y="756.65" width="22.66" height="52.17"/></g><g class="cls-15"><rect class="cls-8" x="-11.08" y="833.8" width="22.66" height="52.17"/><rect class="cls-8" x="19.13" y="833.8" width="22.66" height="52.17"/><rect class="cls-8" x="49.34" y="833.8" width="22.66" height="52.17"/></g><g class="cls-15"><rect class="cls-8" x="-11.08" y="910.95" width="22.66" height="52.17"/><rect class="cls-8" x="19.13" y="910.95" width="22.66" height="52.17"/><rect class="cls-8" x="49.34" y="910.95" width="22.66" height="52.17"/></g><g class="cls-15"><rect class="cls-8" x="-11.08" y="988.09" width="22.66" height="52.17"/><rect class="cls-8" x="19.13" y="988.09" width="22.66" height="52.17"/><rect class="cls-8" x="49.34" y="988.09" width="22.66" height="52.17"/></g><g class="cls-15"><rect class="cls-8" x="-11.08" y="1065.24" width="22.66" height="52.17"/><rect class="cls-8" x="19.13" y="1065.24" width="22.66" height="52.17"/><rect class="cls-8" x="49.34" y="1065.24" width="22.66" height="52.17"/></g><g class="cls-15"><rect class="cls-8" x="-11.08" y="1142.39" width="22.66" height="52.17"/><rect class="cls-8" x="19.13" y="1142.39" width="22.66" height="52.17"/><rect class="cls-8" x="49.34" y="1142.39" width="22.66" height="52.17"/></g><g class="cls-15"><rect class="cls-8" x="-11.08" y="1218.24" width="22.66" height="52.17"/><rect class="cls-8" x="19.13" y="1218.24" width="22.66" height="52.17"/><rect class="cls-8" x="49.34" y="1218.24" width="22.66" height="52.17"/></g><g class="cls-15"><rect class="cls-8" x="-11.08" y="1295.39" width="22.66" height="52.17"/><rect class="cls-8" x="19.13" y="1295.39" width="22.66" height="52.17"/><rect class="cls-8" x="49.34" y="1295.39" width="22.66" height="52.17"/></g><g class="cls-16"><rect class="cls-10" x="93" y="1100.92" width="256.99" height="1126.41"/></g><rect class="cls-17" x="93" y="1135.07" width="256.99" height="30.91"/><rect class="cls-17" x="93" y="1175.64" width="256.99" height="13.52"/><rect class="cls-18" x="1067.89" y="2139.74" width="61.83" height="61.83"/><path class="cls-7" d="M1311,648.56a31.44,31.44,0,0,0-31.44-31.44,31.88,31.88,0,0,0-7.16.83,41.59,41.59,0,0,0-53.57-37.58,49.69,49.69,0,0,0-70.06-35.54,61.87,61.87,0,0,0-105.65,10.35,43.62,43.62,0,0,0-50.5,56c-1-.09-2-.14-3-.14A34.48,34.48,0,0,0,988.38,680v0h292.2l0,0A31.42,31.42,0,0,0,1311,648.56Z"/><rect class="cls-19" x="860.42" y="1406.73" width="527.65" height="758.94"/><g class="cls-20"><rect class="cls-18" x="936.29" y="1492.64" width="50.34" height="159.57"/><rect class="cls-21" x="936.29" y="1492.64" width="50.34" height="159.57"/><rect class="cls-21" x="936.29" y="1492.64" width="50.34" height="159.57"/></g><g class="cls-20"><rect class="cls-18" x="1016.52" y="1492.64" width="50.34" height="159.57"/><rect class="cls-21" x="1016.52" y="1492.64" width="50.34" height="159.57"/><rect class="cls-21" x="1016.52" y="1492.64" width="50.34" height="159.57"/></g><g class="cls-20"><rect class="cls-18" x="1096.76" y="1492.64" width="50.34" height="159.57"/><rect class="cls-21" x="1096.76" y="1492.64" width="50.34" height="159.57"/><rect class="cls-21" x="1096.76" y="1492.64" width="50.34" height="159.57"/></g><g class="cls-20"><rect class="cls-18" x="936.29" y="1681.77" width="50.34" height="159.57"/><rect class="cls-21" x="936.29" y="1681.77" width="50.34" height="159.57"/><rect class="cls-21" x="936.29" y="1681.77" width="50.34" height="159.57"/></g><g class="cls-20"><rect class="cls-18" x="1016.52" y="1681.77" width="50.34" height="159.57"/><rect class="cls-21" x="1016.52" y="1681.77" width="50.34" height="159.57"/><rect class="cls-21" x="1016.52" y="1681.77" width="50.34" height="159.57"/></g><g class="cls-20"><rect class="cls-18" x="1096.76" y="1681.77" width="50.34" height="159.57"/><rect class="cls-21" x="1096.76" y="1681.77" width="50.34" height="159.57"/><rect class="cls-21" x="1096.76" y="1681.77" width="50.34" height="159.57"/></g><rect class="cls-22" x="936.29" y="1492.64" width="50.34" height="159.57"/><rect class="cls-22" x="936.29" y="1492.64" width="50.34" height="159.57"/><rect class="cls-22" x="936.29" y="1492.64" width="50.34" height="159.57"/><rect class="cls-22" x="936.29" y="1492.64" width="50.34" height="159.57"/><rect class="cls-22" x="1016.52" y="1492.64" width="50.34" height="159.57"/><rect class="cls-22" x="1016.52" y="1492.64" width="50.34" height="159.57"/><rect class="cls-22" x="1016.52" y="1492.64" width="50.34" height="159.57"/><rect class="cls-22" x="1016.52" y="1492.64" width="50.34" height="159.57"/><rect class="cls-22" x="1096.76" y="1492.64" width="50.34" height="159.57"/><rect class="cls-22" x="1096.76" y="1492.64" width="50.34" height="159.57"/><rect class="cls-22" x="1096.76" y="1492.64" width="50.34" height="159.57"/><rect class="cls-22" x="1096.76" y="1492.64" width="50.34" height="159.57"/><rect class="cls-22" x="936.29" y="1681.77" width="50.34" height="159.57"/><rect class="cls-22" x="936.29" y="1681.77" width="50.34" height="159.57"/><rect class="cls-22" x="936.29" y="1681.77" width="50.34" height="159.57"/><rect class="cls-22" x="936.29" y="1681.77" width="50.34" height="159.57"/><rect class="cls-22" x="1016.52" y="1681.77" width="50.34" height="159.57"/><rect class="cls-22" x="1016.52" y="1681.77" width="50.34" height="159.57"/><rect class="cls-22" x="1016.52" y="1681.77" width="50.34" height="159.57"/><rect class="cls-22" x="1016.52" y="1681.77" width="50.34" height="159.57"/><rect class="cls-22" x="1096.76" y="1681.77" width="50.34" height="159.57"/><rect class="cls-22" x="1096.76" y="1681.77" width="50.34" height="159.57"/><rect class="cls-22" x="1096.76" y="1681.77" width="50.34" height="159.57"/><rect class="cls-22" x="1096.76" y="1681.77" width="50.34" height="159.57"/><rect class="cls-21" x="936.29" y="1492.64" width="50.34" height="159.57"/><rect class="cls-21" x="936.29" y="1492.64" width="50.34" height="159.57"/><rect class="cls-21" x="936.29" y="1492.64" width="50.34" height="159.57"/><rect class="cls-21" x="936.29" y="1492.64" width="50.34" height="159.57"/><rect class="cls-21" x="1016.52" y="1492.64" width="50.34" height="159.57"/><rect class="cls-21" x="1016.52" y="1492.64" width="50.34" height="159.57"/><rect class="cls-21" x="1016.52" y="1492.64" width="50.34" height="159.57"/><rect class="cls-21" x="1016.52" y="1492.64" width="50.34" height="159.57"/><rect class="cls-21" x="1096.76" y="1492.64" width="50.34" height="159.57"/><rect class="cls-21" x="1096.76" y="1492.64" width="50.34" height="159.57"/><rect class="cls-21" x="1096.76" y="1492.64" width="50.34" height="159.57"/><rect class="cls-21" x="1096.76" y="1492.64" width="50.34" height="159.57"/><rect class="cls-21" x="936.29" y="1681.77" width="50.34" height="159.57"/><rect class="cls-21" x="936.29" y="1681.77" width="50.34" height="159.57"/><rect class="cls-21" x="936.29" y="1681.77" width="50.34" height="159.57"/><rect class="cls-21" x="936.29" y="1681.77" width="50.34" height="159.57"/><rect class="cls-21" x="1016.52" y="1681.77" width="50.34" height="159.57"/><rect class="cls-21" x="1016.52" y="1681.77" width="50.34" height="159.57"/><rect class="cls-21" x="1016.52" y="1681.77" width="50.34" height="159.57"/><rect class="cls-21" x="1016.52" y="1681.77" width="50.34" height="159.57"/><rect class="cls-21" x="1096.76" y="1681.77" width="50.34" height="159.57"/><rect class="cls-21" x="1096.76" y="1681.77" width="50.34" height="159.57"/><rect class="cls-21" x="1096.76" y="1681.77" width="50.34" height="159.57"/><rect class="cls-21" x="1096.76" y="1681.77" width="50.34" height="159.57"/><g class="cls-20"><rect class="cls-18" x="936.29" y="1870.71" width="50.34" height="159.57"/><rect class="cls-21" x="936.29" y="1870.71" width="50.34" height="159.57"/><rect class="cls-21" x="936.29" y="1870.71" width="50.34" height="159.57"/></g><g class="cls-20"><rect class="cls-18" x="1016.52" y="1870.71" width="50.34" height="159.57"/><rect class="cls-21" x="1016.52" y="1870.71" width="50.34" height="159.57"/><rect class="cls-21" x="1016.52" y="1870.71" width="50.34" height="159.57"/></g><g class="cls-20"><rect class="cls-18" x="1096.76" y="1870.71" width="50.34" height="159.57"/><rect class="cls-21" x="1096.76" y="1870.71" width="50.34" height="159.57"/><rect class="cls-21" x="1096.76" y="1870.71" width="50.34" height="159.57"/></g><rect class="cls-22" x="936.29" y="1870.71" width="50.34" height="159.57"/><rect class="cls-22" x="936.29" y="1870.71" width="50.34" height="159.57"/><rect class="cls-22" x="936.29" y="1870.71" width="50.34" height="159.57"/><rect class="cls-22" x="936.29" y="1870.71" width="50.34" height="159.57"/><rect class="cls-22" x="1016.52" y="1870.71" width="50.34" height="159.57"/><rect class="cls-22" x="1016.52" y="1870.71" width="50.34" height="159.57"/><rect class="cls-22" x="1016.52" y="1870.71" width="50.34" height="159.57"/><rect class="cls-22" x="1016.52" y="1870.71" width="50.34" height="159.57"/><rect class="cls-22" x="1096.76" y="1870.71" width="50.34" height="159.57"/><rect class="cls-22" x="1096.76" y="1870.71" width="50.34" height="159.57"/><rect class="cls-22" x="1096.76" y="1870.71" width="50.34" height="159.57"/><rect class="cls-22" x="1096.76" y="1870.71" width="50.34" height="159.57"/><rect class="cls-21" x="936.29" y="1870.71" width="50.34" height="159.57"/><rect class="cls-21" x="936.29" y="1870.71" width="50.34" height="159.57"/><rect class="cls-21" x="936.29" y="1870.71" width="50.34" height="159.57"/><rect class="cls-21" x="936.29" y="1870.71" width="50.34" height="159.57"/><rect class="cls-21" x="1016.52" y="1870.71" width="50.34" height="159.57"/><rect class="cls-21" x="1016.52" y="1870.71" width="50.34" height="159.57"/><rect class="cls-21" x="1016.52" y="1870.71" width="50.34" height="159.57"/><rect class="cls-21" x="1016.52" y="1870.71" width="50.34" height="159.57"/><rect class="cls-21" x="1096.76" y="1870.71" width="50.34" height="159.57"/><rect class="cls-21" x="1096.76" y="1870.71" width="50.34" height="159.57"/><rect class="cls-21" x="1096.76" y="1870.71" width="50.34" height="159.57"/><rect class="cls-21" x="1096.76" y="1870.71" width="50.34" height="159.57"/><g class="cls-23"><polygon class="cls-19" points="1392 1415.65 855.65 1415.65 855.65 1397.69 1123.81 1396.41 1392 1397.69 1392 1415.65"/><polygon class="cls-24" points="1392 1415.65 855.65 1415.65 855.65 1397.69 1123.81 1396.41 1392 1397.69 1392 1415.65"/></g><g class="cls-25"><rect class="cls-26" x="-198.74" y="1312.76" width="532.06" height="836.64"/></g><g class="cls-27"><rect class="cls-28" x="-201.66" y="1310.02" width="532.34" height="42.76"/></g><path class="cls-10" d="M19.75,1418.22H6.6a23.22,23.22,0,0,0-23.22,23.22v64.93H43v-64.93A23.23,23.23,0,0,0,19.75,1418.22Z"/><path class="cls-29" d="M129,1418.22H115.85a23.22,23.22,0,0,0-23.22,23.22v64.93h59.59v-64.93A23.23,23.23,0,0,0,129,1418.22Z"/><path class="cls-29" d="M238.25,1418.22H225.1a23.23,23.23,0,0,0-23.22,23.22v64.93h59.59v-64.93A23.22,23.22,0,0,0,238.25,1418.22Z"/><path class="cls-29" d="M19.75,1593.27H6.6a23.22,23.22,0,0,0-23.22,23.22v64.93H43v-64.93A23.23,23.23,0,0,0,19.75,1593.27Z"/><path class="cls-10" d="M129,1593.27H115.85a23.22,23.22,0,0,0-23.22,23.22v64.93h59.59v-64.93A23.23,23.23,0,0,0,129,1593.27Z"/><path class="cls-29" d="M238.25,1593.27H225.1a23.23,23.23,0,0,0-23.22,23.22v64.93h59.59v-64.93A23.22,23.22,0,0,0,238.25,1593.27Z"/><path class="cls-29" d="M19.75,1768.32H6.6a23.22,23.22,0,0,0-23.22,23.22v64.93H43v-64.93A23.23,23.23,0,0,0,19.75,1768.32Z"/><path class="cls-29" d="M129,1768.32H115.85a23.22,23.22,0,0,0-23.22,23.22v64.93h59.59v-64.93A23.23,23.23,0,0,0,129,1768.32Z"/><path class="cls-29" d="M238.25,1768.32H225.1a23.23,23.23,0,0,0-23.22,23.22v64.93h59.59v-64.93A23.22,23.22,0,0,0,238.25,1768.32Z"/><path class="cls-29" d="M19.75,1942.13H6.6a23.22,23.22,0,0,0-23.22,23.22v64.93H43v-64.93A23.23,23.23,0,0,0,19.75,1942.13Z"/><path class="cls-29" d="M129,1942.13H115.85a23.22,23.22,0,0,0-23.22,23.22v64.93h59.59v-64.93A23.23,23.23,0,0,0,129,1942.13Z"/><path class="cls-29" d="M238.25,1942.13H225.1a23.23,23.23,0,0,0-23.22,23.22v64.93h59.59v-64.93A23.22,23.22,0,0,0,238.25,1942.13Z"/><g class="cls-30"><rect class="cls-21" x="328.52" y="1257.73" width="532.06" height="981.2"/></g><rect class="cls-31" x="374.47" y="1311.72" width="442.68" height="49.58"/><rect class="cls-32" x="374.47" y="1311.72" width="442.68" height="49.58"/><rect class="cls-31" x="374.47" y="1392.63" width="442.68" height="49.58"/><rect class="cls-17" x="485.54" y="1392.63" width="221.34" height="49.58"/><rect class="cls-17" x="596.22" y="1392.63" width="110.67" height="49.58"/><rect class="cls-31" x="374.47" y="1473.55" width="442.68" height="49.58"/><rect class="cls-17" x="485.16" y="1473.39" width="221.34" height="49.58"/><rect class="cls-17" x="595.83" y="1473.39" width="110.67" height="49.58"/><rect class="cls-31" x="374.47" y="1554.46" width="442.68" height="49.58"/><rect class="cls-33" x="706.63" y="1392.65" width="110.5" height="49.58"/><rect class="cls-33" x="706.63" y="1473.58" width="110.5" height="49.58"/><rect class="cls-33" x="706.63" y="1554.51" width="110.5" height="49.58"/><rect class="cls-17" x="485.16" y="1554.16" width="221.34" height="49.58"/><rect class="cls-17" x="595.83" y="1554.16" width="110.67" height="49.58"/><rect class="cls-31" x="374.47" y="1635.38" width="442.68" height="49.58"/><rect class="cls-17" x="485.16" y="1635.5" width="221.34" height="49.58"/><rect class="cls-31" x="374.47" y="1392.72" width="442.68" height="49.58"/><rect class="cls-34" x="374.47" y="1392.72" width="442.68" height="49.58"/><rect class="cls-31" x="374.47" y="1473.72" width="442.68" height="49.58"/><rect class="cls-35" x="374.47" y="1473.72" width="442.68" height="49.58"/><rect class="cls-31" x="374.47" y="1554.73" width="442.68" height="49.58"/><rect class="cls-36" x="374.47" y="1554.73" width="442.68" height="49.58"/><rect class="cls-31" x="374.47" y="1635.73" width="442.68" height="49.58"/><rect class="cls-37" x="374.47" y="1635.73" width="442.68" height="49.58"/><rect class="cls-31" x="374.47" y="1716.73" width="442.68" height="49.58"/><rect class="cls-38" x="374.47" y="1716.73" width="442.68" height="49.58"/><rect class="cls-31" x="374.47" y="1797.73" width="442.68" height="49.58"/><rect class="cls-39" x="374.47" y="1797.73" width="442.68" height="49.58"/><rect class="cls-31" x="374.47" y="1879.95" width="442.68" height="49.58"/><rect class="cls-40" x="374.47" y="1879.95" width="442.68" height="49.58"/><rect class="cls-31" x="374.47" y="1959.59" width="442.68" height="49.58"/><rect class="cls-41" x="374.47" y="1959.59" width="442.68" height="49.58"/><line class="cls-42" x1="456.71" y1="1300" x2="456.71" y2="2023"/><line class="cls-42" x1="548.48" y1="1300" x2="548.48" y2="2023"/><line class="cls-42" x1="640.24" y1="1300" x2="640.24" y2="2023"/><line class="cls-42" x1="732" y1="1300" x2="732" y2="2023"/><rect class="cls-43" x="-1044.87" y="2129.08" width="2653.75" height="363.05"/><line class="cls-44" x1="-957.66" y1="2263.15" x2="1557.56" y2="2281.44"/><rect class="cls-45" x="-1044.87" y="2125.27" width="2653.75" height="17.42"/><g class="cls-46"><rect class="cls-8" x="-269.15" y="2135.46" width="1399.15" height="7.24"/></g><path class="cls-47" d="M1069.38,1821.56a.38.38,0,0,0,0-.1c0,.16,0,.32,0,.48Z"/><path class="cls-47" d="M1049.94,1821.56v.38c0-.16,0-.32,0-.48A.38.38,0,0,0,1049.94,1821.56Z"/><g class="cls-48"><path class="cls-49" d="M902.45,1757.72c0,9.79,14.08,17.72,31.45,17.72s31.22-7.81,31.43-17.49c50.48,1.78,80.39,38.21,88.92,50.25-2.53,3.13-4.22,8.39-4.3,14.38v0c0,.15,0,.31,0,.47V1849a1.14,1.14,0,0,0,1.15,1.14h1.14a1.14,1.14,0,0,1,1.14,1.14v121.19a1.14,1.14,0,0,1-1.14,1.15h-2a1.14,1.14,0,0,0-1.15,1.14v10.29a1.14,1.14,0,0,1-1.14,1.14h-2.67a1.14,1.14,0,0,0-1.14,1.15v97.56a1.14,1.14,0,0,0,1.14,1.14,1.16,1.16,0,0,1,1.15,1.15v24.39a1.14,1.14,0,0,1-1.15,1.14h-.38a1.14,1.14,0,0,0-1.14,1.14V2131a1.14,1.14,0,0,0,1.14,1.15h29A1.14,1.14,0,0,0,1075,2131v-17.15a1.14,1.14,0,0,0-1.14-1.14h-.39a1.14,1.14,0,0,1-1.14-1.14v-24.39a1.14,1.14,0,0,1,1.14-1.15,1.15,1.15,0,0,0,.81-.33,1.13,1.13,0,0,0,.34-.81v-97.56a1.14,1.14,0,0,0-1.15-1.15h-2.66a1.14,1.14,0,0,1-1.15-1.14v-10.29a1.14,1.14,0,0,0-1.14-1.14h-2.19a1.14,1.14,0,0,1-1.14-1.15V1851.28a1.14,1.14,0,0,1,1.14-1.14h1.9a1.14,1.14,0,0,0,1.15-1.14v-25.92c0-.16,0-.32,0-.47v0c-.1-7-2.42-13.08-5.71-15.83v-28.07a4.38,4.38,0,0,0-8.76,0V1792c-5.53-7.4-15.18-17.79-31.45-28.89-21.76-14.87-49-16-63.49-15.25-5.65-4.71-15.22-7.81-26.06-7.81C916.53,1740,902.45,1747.93,902.45,1757.72Z"/></g><path class="cls-50" d="M902.84,1759.44c0-7.27,12.06-9.15,28.58-9.15s33.54,1.5,33.54,8.77-11.63,16-31.26,16.38C915,1775.82,902.84,1766.7,902.84,1759.44Z"/><rect class="cls-51" x="329" y="1253" width="531" height="6"/></g></g></svg>