<svg id="Layer_1" data-name="Layer 1" xmlns="http://www.w3.org/2000/svg" viewBox="0 0 184.35 194.76"><defs><style>.cls-1{fill:#0a093f;}.cls-2{fill:#ea4435;}</style></defs><title>HackVie_Logo_Hack PanthersLanding Page</title><path class="cls-1" d="M30.59,113.1H38.4v12.2H50.47V113.1h7.81V143H50.47V131.53H38.4V143H30.59Z"/><path class="cls-1" d="M86.05,143l-2-5.29H71.08L69,143H61L73.81,113.1h8L94.37,143ZM73.42,131.75H81.7l-4.1-10.67Z"/><path class="cls-1" d="M114.42,120.33a8.26,8.26,0,0,0-4-1.08,7.71,7.71,0,0,0-4.12,1.13,8,8,0,0,0-2.92,3.11,9.64,9.64,0,0,0,0,8.83,8,8,0,0,0,2.92,3.12,7.8,7.8,0,0,0,4.12,1.13,9,9,0,0,0,3.84-.94,12.31,12.31,0,0,0,3.58-2.56l4.57,4.91a18.37,18.37,0,0,1-5.78,4.07,16,16,0,0,1-14.66-.53,15,15,0,0,1-5.63-5.59,15.53,15.53,0,0,1-2-7.94,14.89,14.89,0,0,1,7.83-13.35A17,17,0,0,1,116.9,114a16.2,16.2,0,0,1,5.5,3.78l-4.52,5.46A11.16,11.16,0,0,0,114.42,120.33Z"/><path class="cls-1" d="M154.53,143h-9.34l-7.85-11.6-3.76,4.18V143h-7.81V113.1h7.81v13l11.22-13h9l-11.1,12.33Z"/><path class="cls-1" d="M0,164.3H7.81v29.91H0Z"/><path class="cls-1" d="M13.61,164.3h7.81v23.25H34.09v6.66H13.61Z"/><path class="cls-1" d="M40,164.3h7.81v23.25H60.5v6.66H40Z"/><path class="cls-1" d="M64.85,164.3h7.81v29.91H64.85Z"/><path class="cls-1" d="M99.71,164.3H107v29.91h-6.83L86.56,176.33v17.88H79.27V164.3h6.87l13.61,18Z"/><path class="cls-1" d="M136.12,165.84A14.86,14.86,0,0,1,144,179.19a15.11,15.11,0,0,1-7.91,13.52,16.67,16.67,0,0,1-8.26,2,16.86,16.86,0,0,1-8.25-2,15,15,0,0,1-5.8-5.59,15.32,15.32,0,0,1-2.12-8,14.89,14.89,0,0,1,7.92-13.35,18,18,0,0,1,16.51,0Zm-12.29,5.76a8.14,8.14,0,0,0-3,3.18,9.5,9.5,0,0,0,0,8.95,8.56,8.56,0,0,0,3,3.2,7.53,7.53,0,0,0,4.1,1.18,7.38,7.38,0,0,0,4.07-1.18,8.16,8.16,0,0,0,2.93-3.2,9.51,9.51,0,0,0,1.06-4.5,9.4,9.4,0,0,0-1.06-4.45A8,8,0,0,0,132,171.6a7.53,7.53,0,0,0-4.07-1.16A7.8,7.8,0,0,0,123.83,171.6Z"/><path class="cls-1" d="M147.53,164.3h7.81v29.91h-7.81Z"/><path class="cls-1" d="M176.27,171a15,15,0,0,0-4.55-.9,4.16,4.16,0,0,0-2.28.54,1.71,1.71,0,0,0-.83,1.55,2.15,2.15,0,0,0,.72,1.65,5.62,5.62,0,0,0,1.79,1.06c.72.27,1.77.62,3.16,1a40.8,40.8,0,0,1,5.14,1.79,9,9,0,0,1,3.48,2.75,7.62,7.62,0,0,1,1.45,4.84,8.3,8.3,0,0,1-1.58,5.1,9.51,9.51,0,0,1-4.33,3.18,16.8,16.8,0,0,1-6.12,1.07,22.28,22.28,0,0,1-7.4-1.3,20.27,20.27,0,0,1-6.38-3.57l3-6.1a19,19,0,0,0,5.35,3.29,14.68,14.68,0,0,0,5.49,1.28,5.16,5.16,0,0,0,2.75-.64,2.11,2.11,0,0,0,1-1.88,2.23,2.23,0,0,0-.75-1.71,5.53,5.53,0,0,0-1.88-1.08c-.75-.27-1.81-.59-3.17-1a40,40,0,0,1-5.08-1.73,8.91,8.91,0,0,1-3.43-2.65,7.23,7.23,0,0,1-1.43-4.71,8.27,8.27,0,0,1,1.47-4.87,9.4,9.4,0,0,1,4.18-3.22,16.31,16.31,0,0,1,6.29-1.13,22.87,22.87,0,0,1,6.4.92,21,21,0,0,1,5.55,2.45l-2.95,6.23A26.31,26.31,0,0,0,176.27,171Z"/><polygon class="cls-2" points="79.69 35.17 104.88 35.17 104.88 19.24 121.52 19.24 121.52 0 74 0 62.83 19.24 79.69 19.24 79.69 35.17"/><polygon class="cls-2" points="104.88 51.98 79.69 51.98 79.69 67.91 62.83 67.91 62.83 87.15 110.79 87.15 121.52 67.91 104.88 67.91 104.88 51.98"/></svg>