<svg width="589" height="190" viewBox="0 0 589 190" fill="none" xmlns="http://www.w3.org/2000/svg">
<path d="M176.498 3.78711H193.966V31.1209H220.987V3.78711H238.455V70.7448H220.987V45.051H193.966V70.7448H176.498V3.78711Z" fill="#CFD8EE"/>
<path d="M300.615 70.7448L296.04 58.9002H267.177L262.481 70.7448H244.548L273.249 3.78711H291.182L319.256 70.7448H300.615ZM272.278 45.537H290.798L281.71 21.6654L272.278 45.537Z" fill="#CFD8EE"/>
<path d="M364.109 19.9837C361.405 18.4398 358.356 17.6041 355.243 17.554C352.024 17.5255 348.861 18.4025 346.115 20.085C343.339 21.7707 341.073 24.1778 339.557 27.05C337.951 30.0934 337.13 33.4896 337.168 36.9307C337.13 40.3782 337.951 43.781 339.557 46.8316C341.073 49.7038 343.339 52.1109 346.115 53.7967C348.887 55.4857 352.078 56.3626 355.324 56.3276C358.299 56.2917 361.229 55.6004 363.906 54.3028C366.934 52.906 369.678 50.9637 372.003 48.5729L382.123 59.5671C378.448 63.4203 374.054 66.5157 369.189 68.6784C364.024 71.108 358.353 72.2672 352.649 72.0594C346.946 71.8516 341.374 70.2828 336.399 67.4838C331.148 64.5223 326.792 60.1997 323.789 54.971C320.704 49.5678 319.125 43.4358 319.215 37.2141C319.12 31.1044 320.702 25.0857 323.789 19.8129C326.876 14.5402 331.35 10.2153 336.723 7.30893C341.768 4.62215 347.352 3.10351 353.063 2.8652C358.773 2.6269 364.464 3.67501 369.715 5.93211C374.363 7.86454 378.56 10.7393 382.042 14.3752L371.922 26.5236C369.794 23.8303 367.134 21.6041 364.109 19.9837Z" fill="#CFD8EE"/>
<path d="M453.876 70.7448H432.968L415.399 44.7676L406.979 54.1218V70.7448H389.511V3.78711H406.979V32.8217L432.097 3.78711H452.338L427.523 31.4044L453.876 70.7448Z" fill="#CFD8EE"/>
<path d="M176.256 121.727H193.724V188.684H176.256V121.727Z" fill="#CFD8EE"/>
<path d="M206.697 121.727H224.185V173.782H252.522V188.684H206.697V121.727Z" fill="#CFD8EE"/>
<path d="M265.801 121.727H283.37V173.782H311.706V188.684H265.801V121.727Z" fill="#CFD8EE"/>
<path d="M321.381 121.727H338.849V188.684H321.381V121.727Z" fill="#CFD8EE"/>
<path d="M399.389 121.727H415.581V188.684H400.299L369.938 148.676V188.684H353.604V121.727H368.987L399.348 162.039L399.389 121.727Z" fill="#CFD8EE"/>
<path d="M480.877 125.168C486.291 128.043 490.808 132.356 493.933 137.631C497.057 142.907 498.668 148.942 498.588 155.073C498.69 161.27 497.093 167.378 493.971 172.732C490.849 178.086 486.321 182.482 480.877 185.444C475.177 188.436 468.835 189.999 462.397 189.999C455.96 189.999 449.618 188.436 443.918 185.444C438.528 182.542 434.039 178.213 430.943 172.931C427.766 167.544 426.128 161.388 426.207 155.134C426.127 149.002 427.738 142.967 430.862 137.692C433.987 132.416 438.504 128.104 443.918 125.228C449.63 122.274 455.967 120.732 462.397 120.732C468.828 120.732 475.165 122.274 480.877 125.228V125.168ZM453.39 138.065C450.552 139.787 448.231 142.242 446.67 145.172C445.023 148.259 444.161 151.705 444.161 155.204C444.161 158.704 445.023 162.15 446.67 165.237C448.26 168.162 450.574 170.63 453.39 172.404C456.135 174.132 459.317 175.038 462.559 175.016C465.783 175.038 468.945 174.131 471.668 172.404C474.442 170.635 476.697 168.162 478.205 165.237C479.775 162.126 480.592 158.689 480.592 155.204C480.592 151.72 479.775 148.283 478.205 145.172C476.705 142.258 474.446 139.803 471.668 138.065C468.937 136.36 465.778 135.468 462.559 135.494C459.324 135.484 456.149 136.374 453.39 138.065Z" fill="#CFD8EE"/>
<path d="M506.421 121.727H523.889V188.684H506.421V121.727Z" fill="#CFD8EE"/>
<path d="M570.786 136.73C567.537 135.54 564.123 134.857 560.666 134.706C558.886 134.603 557.115 135.018 555.566 135.9C554.971 136.26 554.484 136.773 554.156 137.386C553.829 137.999 553.672 138.688 553.703 139.383C553.691 140.075 553.829 140.761 554.109 141.394C554.388 142.027 554.803 142.591 555.323 143.048C556.505 144.097 557.88 144.909 559.371 145.437C560.97 146.044 563.419 146.834 566.435 147.785C570.359 148.88 574.206 150.233 577.952 151.835C581.004 153.187 583.674 155.274 585.724 157.909C588.008 161.053 589.157 164.879 588.983 168.762C589.048 172.88 587.745 176.903 585.279 180.201C582.793 183.449 579.428 185.916 575.583 187.308C571.202 188.944 566.557 189.754 561.881 189.697C556.236 189.677 550.636 188.691 545.324 186.782C540.122 185.012 535.286 182.309 531.054 178.804L537.835 165.158C541.395 168.254 545.444 170.737 549.817 172.507C553.683 174.242 557.848 175.212 562.083 175.362C564.199 175.464 566.302 174.973 568.155 173.945C568.87 173.506 569.455 172.885 569.85 172.144C570.245 171.404 570.436 170.572 570.402 169.733C570.403 169.035 570.258 168.345 569.976 167.706C569.693 167.068 569.28 166.496 568.762 166.028C567.539 164.951 566.115 164.125 564.573 163.598C562.872 162.991 560.524 162.282 557.448 161.452C553.581 160.417 549.788 159.125 546.093 157.585C543.086 156.261 540.446 154.225 538.401 151.653C536.143 148.615 535.012 144.885 535.203 141.104C535.124 137.215 536.279 133.401 538.503 130.211C540.864 126.96 544.11 124.458 547.854 123.003C552.361 121.225 557.178 120.365 562.022 120.472C566.871 120.461 571.697 121.142 576.353 122.497C580.732 123.716 584.911 125.564 588.76 127.984L582.162 141.934C578.566 139.799 574.753 138.055 570.786 136.73Z" fill="#CFD8EE"/>
<path d="M36.5141 76.1905H91.0424V41.6891H127.071V0H24.1876L0 41.6891H36.5141V76.1905Z" fill="#E28B79"/>
<path d="M91.0424 112.596H36.5141V147.097H0V188.766H103.835L127.071 147.097H91.0424V112.596Z" fill="#E28B79"/>
</svg>
